<svg width="106" height="31" viewBox="0 0 106 31" fill="none" xmlns="http://www.w3.org/2000/svg">
<path d="M10.3818 24.665C9.3684 24.665 8.5162 24.4981 7.82523 24.1644C7.13426 23.8307 6.58149 23.3588 6.1669 22.7489C5.75232 22.1274 5.45866 21.4082 5.28592 20.5911H3.92125L5.18227 17.035C5.2053 17.737 5.3435 18.3297 5.59685 18.8131C5.85021 19.2964 6.21297 19.6704 6.68513 19.9351C7.15729 20.1883 7.71007 20.3149 8.34346 20.3149C9.31082 20.3149 10.0421 20.0329 10.5373 19.469C11.0325 18.8936 11.2801 18.0362 11.2801 16.8969V14.4975C11.2801 13.3696 11.0325 12.5238 10.5373 11.9599C10.0536 11.396 9.32809 11.114 8.36073 11.114C7.81947 11.114 7.32428 11.2176 6.87515 11.4248C6.43753 11.6319 6.06326 11.9081 5.75232 12.2533C5.4529 12.5871 5.2341 12.9726 5.0959 13.4099L3.90398 10.9759H5.35502C5.52776 10.2164 5.8099 9.53164 6.20145 8.92171C6.593 8.30026 7.14002 7.81116 7.84251 7.4544C8.55651 7.08614 9.46053 6.90201 10.5546 6.90201C12.5353 6.90201 14.0324 7.55222 15.0459 8.85266C16.0708 10.1416 16.5833 12.0807 16.5833 14.6701V16.7416C16.5833 19.3539 16.0708 21.3276 15.0459 22.6626C14.0209 23.9975 12.4662 24.665 10.3818 24.665ZM0 24.268V1.46436H5.25137V6.5395L5.165 11.9771L5.18227 12.4432V18.9511L5.0959 19.9696L5.25137 24.268H0Z" fill="#FE6150"/>
<path d="M28.1795 24.268L28.3349 20.0214L28.214 19.7625V14.4629L28.1795 13.7724C28.1795 12.8288 27.9031 12.1325 27.3503 11.6837C26.7975 11.2349 25.8705 11.0105 24.5692 11.0105C23.4291 11.0105 22.3465 11.1543 21.3216 11.442C20.2967 11.7297 19.3293 12.0577 18.4195 12.426L18.8687 8.33478C19.4099 8.0816 20.0145 7.84568 20.6825 7.62703C21.3619 7.39686 22.1105 7.21273 22.9281 7.07463C23.7458 6.93653 24.621 6.86748 25.5538 6.86748C27.0394 6.86748 28.2831 7.04011 29.285 7.38535C30.2869 7.7306 31.0873 8.2197 31.6861 8.85266C32.285 9.48561 32.7168 10.2452 32.9817 11.1313C33.2466 12.0059 33.379 12.9726 33.379 14.0314V24.268H28.1795ZM22.7726 24.665C21.0798 24.665 19.7957 24.2392 18.9205 23.3876C18.0453 22.536 17.6076 21.3219 17.6076 19.7452V19.2791C17.6076 17.6104 18.1201 16.3791 19.145 15.585C20.1815 14.7794 21.8226 14.2328 24.0682 13.9451L28.6286 13.3409L28.9395 16.5172L24.8974 17.1041C24.0797 17.2076 23.5039 17.3975 23.1699 17.6737C22.836 17.9499 22.669 18.3585 22.669 18.8994V19.0202C22.669 19.5381 22.836 19.9524 23.1699 20.2631C23.5039 20.5623 24.0394 20.7119 24.7764 20.7119C25.4214 20.7119 25.9741 20.6141 26.4348 20.4185C26.9069 20.2228 27.2927 19.9696 27.5921 19.6589C27.8916 19.3367 28.1161 18.9799 28.2658 18.5886L29.0086 20.7292H28.1449C27.9607 21.4657 27.6728 22.1332 27.2812 22.7316C26.9012 23.33 26.3484 23.8019 25.6229 24.1471C24.8974 24.4924 23.9473 24.665 22.7726 24.665Z" fill="#FE6150"/>
<path d="M46.2304 24.268L41.2208 16.9487H39.8389V13.8415H41.2208L46.0922 7.29904H52.1554L45.6949 15.7231V14.7219L52.3973 24.268H46.2304ZM35.4167 24.268V1.46436H40.6681V24.268H35.4167Z" fill="#FE6150"/>
<path d="M64.6041 24.268L59.5946 16.9487H58.2126V13.8415H59.5946L64.4659 7.29904H70.5292L64.0686 15.7231V14.7219L70.771 24.268H64.6041ZM53.7904 24.268V1.46436H59.0418V24.268H53.7904Z" fill="#FE6150"/>
<path d="M78.1461 24.6823C76.7987 24.6823 75.5838 24.5614 74.5012 24.3198C73.4187 24.0896 72.4917 23.8191 71.7201 23.5084L71.271 19.072C72.1577 19.4403 73.1366 19.774 74.2076 20.0732C75.2901 20.3609 76.459 20.5048 77.7142 20.5048C78.7162 20.5048 79.4244 20.4012 79.839 20.194C80.2651 19.9754 80.4781 19.6416 80.4781 19.1928V19.1238C80.4781 18.8131 80.3687 18.5599 80.1499 18.3642C79.9426 18.1571 79.5741 17.9729 79.0444 17.8118C78.5261 17.6507 77.7949 17.4608 76.8505 17.2422C75.4341 16.9084 74.3112 16.5172 73.4821 16.0683C72.6529 15.608 72.0598 15.0499 71.7028 14.3939C71.3573 13.7264 71.1846 12.9381 71.1846 12.0289V11.8908C71.1846 10.2106 71.7834 8.95623 72.9811 8.12764C74.1788 7.28753 75.9408 6.86748 78.267 6.86748C79.5799 6.86748 80.7603 6.98832 81.8082 7.22999C82.8562 7.47167 83.7372 7.75937 84.4512 8.09311L84.9003 12.2188C84.0712 11.8506 83.1441 11.5456 82.1192 11.3039C81.1058 11.0622 80.0405 10.9414 78.9234 10.9414C78.244 10.9414 77.7085 10.9874 77.3169 11.0795C76.9369 11.1716 76.6663 11.3039 76.5051 11.4765C76.3553 11.6492 76.2805 11.8621 76.2805 12.1152V12.167C76.2805 12.4432 76.3726 12.6792 76.5569 12.8748C76.7411 13.0704 77.0751 13.2546 77.5588 13.4272C78.054 13.5998 78.7622 13.7955 79.6835 14.0141C81.1115 14.3248 82.2631 14.6816 83.1384 15.0844C84.0136 15.4757 84.6527 15.9878 85.0558 16.6207C85.4589 17.2422 85.6604 18.0708 85.6604 19.1065V19.2619C85.6604 21.0917 85.0443 22.4554 83.8121 23.3531C82.5798 24.2392 80.6912 24.6823 78.1461 24.6823Z" fill="#FE6150"/>
<path d="M97.0105 20.0387L94.1775 21.2643L97.9951 7.29904H103.402L96.475 30.2062H91.1891L93.8321 21.575L96.3195 23.5429H90.4636L85.8686 7.29904H91.31L94.2466 20.0387H97.0105Z" fill="#FE6150"/>
<path d="M106 0.206055L104.22 5.98634H98.8809L106 0.206055Z" fill="#1F938A"/>
</svg>
