<svg width="424" height="430" viewBox="0 0 424 430" fill="none" xmlns="http://www.w3.org/2000/svg">
<path d="M317.609 108.699L264.674 161.633L317.609 214.568V108.699Z" fill="#F7EFE9" fill-opacity="0.7"/>
<path d="M317.609 214.569L264.674 267.503L211.739 214.569H317.609Z" fill="#F7EFE9" fill-opacity="0.7"/>
<path d="M317.609 320.438L370.544 267.503L317.609 214.568V320.438Z" fill="#F7EFE9" fill-opacity="0.7"/>
<path d="M317.609 214.569L370.544 161.634L423.479 214.569H317.609Z" fill="#F7EFE9" fill-opacity="0.7"/>
<path d="M105.87 108.699L52.9347 161.633L105.87 214.568V108.699Z" fill="#F7EFE9" fill-opacity="0.7"/>
<path d="M105.87 214.569L52.9348 267.503L5.10817e-06 214.569H105.87Z" fill="#F7EFE9" fill-opacity="0.7"/>
<path d="M105.87 320.438L158.804 267.503L105.87 214.568V320.438Z" fill="#F7EFE9" fill-opacity="0.7"/>
<path d="M105.87 214.569L158.805 161.634L211.739 214.569H105.87Z" fill="#F7EFE9" fill-opacity="0.7"/>
<path d="M211.739 214.568L158.804 267.503L211.739 320.438V214.568Z" fill="#F7EFE9" fill-opacity="0.7"/>
<path d="M211.739 320.438L158.805 373.373L105.87 320.438H211.739Z" fill="#F7EFE9" fill-opacity="0.7"/>
<path d="M211.739 426.307L264.674 373.372L211.739 320.437V426.307Z" fill="#F7EFE9" fill-opacity="0.7"/>
<path d="M211.739 320.438L264.674 267.503L317.609 320.438H211.739Z" fill="#F7EFE9" fill-opacity="0.7"/>
<path d="M211.739 2.82871L158.804 55.7635L211.739 108.698V2.82871Z" fill="#F7EFE9" fill-opacity="0.7"/>
<path d="M211.739 108.699L158.805 161.634L105.87 108.699H211.739Z" fill="#F7EFE9" fill-opacity="0.7"/>
<path d="M211.739 214.568L264.674 161.633L211.739 108.699V214.568Z" fill="#F7EFE9" fill-opacity="0.7"/>
<path d="M211.739 108.699L264.674 55.7647L317.609 108.699H211.739Z" fill="#F7EFE9" fill-opacity="0.7"/>
</svg>
