<svg width="71" height="20" viewBox="0 0 71 20" fill="none" xmlns="http://www.w3.org/2000/svg">
<path d="M6.92121 16.3059C6.2456 16.3059 5.67747 16.1946 5.21682 15.9721C4.75618 15.7496 4.38766 15.4351 4.11127 15.0285C3.83488 14.6142 3.63911 14.1346 3.52395 13.5899H2.61417L3.45485 11.2192C3.4702 11.6872 3.56233 12.0823 3.73124 12.4046C3.90014 12.7268 4.14198 12.9761 4.45675 13.1526C4.77153 13.3214 5.14005 13.4058 5.56231 13.4058C6.20721 13.4058 6.69473 13.2178 7.02486 12.8419C7.35499 12.4583 7.52005 11.8867 7.52005 11.1272V9.52751C7.52005 8.77564 7.35499 8.21173 7.02486 7.8358C6.70241 7.45986 6.21873 7.27189 5.57382 7.27189C5.21298 7.27189 4.88285 7.34094 4.58343 7.47904C4.29169 7.61714 4.04217 7.80127 3.83488 8.03144C3.63527 8.25393 3.4894 8.51095 3.39727 8.80249L2.60265 7.17982H3.57001C3.68517 6.67346 3.87327 6.21697 4.1343 5.81034C4.39534 5.39605 4.76001 5.06998 5.22834 4.83214C5.70434 4.58663 6.30702 4.46388 7.03638 4.46388C8.35689 4.46388 9.35496 4.89735 10.0306 5.76431C10.7139 6.62359 11.0555 7.91635 11.0555 9.64259V11.0236C11.0555 12.7652 10.7139 14.0809 10.0306 14.9709C9.34729 15.8609 8.31083 16.3059 6.92121 16.3059ZM0 16.0412V0.838776H3.50091V4.2222L3.44333 7.8473L3.45485 8.15803V12.4966L3.39727 13.1756L3.50091 16.0412H0Z" fill="#FE6150"/>
<path d="M18.7863 16.0412L18.89 13.2102L18.8093 13.0375V9.50449L18.7863 9.04416C18.7863 8.41504 18.6021 7.95088 18.2335 7.65166C17.865 7.35245 17.247 7.20284 16.3794 7.20284C15.6194 7.20284 14.8977 7.29874 14.2144 7.49055C13.5311 7.68235 12.8862 7.90101 12.2797 8.14652L12.5791 5.41906C12.9399 5.25027 13.343 5.09299 13.7883 4.94722C14.2413 4.79378 14.7403 4.67103 15.2854 4.57896C15.8305 4.48689 16.414 4.44086 17.0359 4.44086C18.0262 4.44086 18.8554 4.55594 19.5234 4.78611C20.1913 5.01627 20.7249 5.34234 21.1241 5.76431C21.5233 6.18628 21.8112 6.69264 21.9878 7.2834C22.1644 7.86648 22.2527 8.51095 22.2527 9.21679V16.0412H18.7863ZM15.1818 16.3059C14.0532 16.3059 13.1971 16.022 12.6137 15.4543C12.0302 14.8865 11.7384 14.0771 11.7384 13.026V12.7153C11.7384 11.6028 12.0801 10.7819 12.7634 10.2525C13.4543 9.71548 14.5484 9.35105 16.0455 9.15924L19.0857 8.75646L19.293 10.874L16.5982 11.2653C16.0531 11.3343 15.6693 11.4609 15.4466 11.645C15.224 11.8292 15.1127 12.1015 15.1127 12.4621V12.5427C15.1127 12.8879 15.224 13.1641 15.4466 13.3713C15.6693 13.5707 16.0263 13.6705 16.5176 13.6705C16.9476 13.6705 17.3161 13.6053 17.6232 13.4748C17.938 13.3444 18.1952 13.1756 18.3948 12.9685C18.5944 12.7537 18.7441 12.5158 18.8439 12.255L19.3391 13.682H18.7633C18.6404 14.173 18.4485 14.618 18.1875 15.0169C17.9341 15.4159 17.5656 15.7305 17.0819 15.9606C16.5982 16.1908 15.9649 16.3059 15.1818 16.3059Z" fill="#FE6150"/>
<path d="M30.8202 16.0412L27.4806 11.1617H26.5593V9.09019H27.4806L30.7281 4.72857H34.7703L30.4632 10.3446V9.67712L34.9315 16.0412H30.8202ZM23.6111 16.0412V0.838776H27.112V16.0412H23.6111Z" fill="#FE6150"/>
<path d="M43.0694 16.0412L39.7297 11.1617H38.8084V9.09019H39.7297L42.9773 4.72857H47.0194L42.7124 10.3446V9.67712L47.1807 16.0412H43.0694ZM35.8603 16.0412V0.838776H39.3612V16.0412H35.8603Z" fill="#FE6150"/>
<path d="M52.0974 16.3174C51.1991 16.3174 50.3892 16.2368 49.6675 16.0757C48.9458 15.9223 48.3278 15.742 47.8134 15.5348L47.514 12.5772C48.1051 12.8227 48.7577 13.0452 49.4717 13.2447C50.1934 13.4365 50.9727 13.5324 51.8095 13.5324C52.4774 13.5324 52.9496 13.4633 53.226 13.3252C53.5101 13.1795 53.6521 12.957 53.6521 12.6578V12.6117C53.6521 12.4046 53.5792 12.2358 53.4333 12.1054C53.2951 11.9673 53.0494 11.8445 52.6962 11.7371C52.3508 11.6297 51.8632 11.5031 51.2337 11.3573C50.2894 11.1348 49.5408 10.874 48.988 10.5748C48.4353 10.2679 48.0399 9.89577 47.8019 9.45846C47.5716 9.01347 47.4564 8.48793 47.4564 7.88183V7.78976C47.4564 6.66963 47.8556 5.83336 48.6541 5.28096C49.4525 4.72089 50.6272 4.44086 52.178 4.44086C53.0532 4.44086 53.8402 4.52142 54.5388 4.68253C55.2375 4.84365 55.8248 5.03545 56.3008 5.25795L56.6002 8.00842C56.0475 7.76291 55.4294 7.5596 54.7461 7.39848C54.0705 7.23737 53.3603 7.15681 52.6156 7.15681C52.1627 7.15681 51.8057 7.1875 51.5446 7.24887C51.2913 7.31025 51.1109 7.39848 51.0034 7.51356C50.9036 7.62865 50.8537 7.77058 50.8537 7.93937V7.97389C50.8537 8.15803 50.9151 8.31531 51.0379 8.44573C51.1608 8.57616 51.3834 8.69892 51.7059 8.814C52.036 8.92908 52.5081 9.05951 53.1223 9.20528C54.0743 9.41243 54.8421 9.65026 55.4256 9.91879C56.0091 10.1796 56.4352 10.5211 56.7039 10.943C56.9726 11.3573 57.1069 11.9097 57.1069 12.6002V12.7038C57.1069 13.9237 56.6962 14.8328 55.8747 15.4312C55.0532 16.022 53.7941 16.3174 52.0974 16.3174Z" fill="#FE6150"/>
<path d="M64.6737 13.2217L62.785 14.0387L65.3301 4.72857H68.9347L64.3167 20H60.7927L62.5547 14.2459L64.213 15.5578H60.3091L57.2458 4.72857H60.8733L62.8311 13.2217H64.6737Z" fill="#FE6150"/>
<path d="M70.6667 0L69.4802 3.85352H65.9207L70.6667 0Z" fill="#1F938A"/>
</svg>
