<svg width="40" height="41" viewBox="0 0 40 41" fill="none" xmlns="http://www.w3.org/2000/svg">
<path d="M37.5 20.4004C37.5 25.0254 36.75 28.7754 35.75 28.7754C34.75 28.7754 34 25.0254 34 20.4004C34 15.7754 34.75 12.0254 35.75 12.0254C36.75 12.0254 37.5 15.7754 37.5 20.4004ZM33.125 20.4004C33.125 25.5254 30.875 29.7754 28.25 29.7754C25.625 29.7754 23.375 25.5254 23.375 20.4004C23.375 15.2754 25.625 11.0254 28.25 11.0254C30.875 11.0254 33.125 15.2754 33.125 20.4004ZM22.25 20.4004C22.25 25.9004 17.875 30.4004 12.375 30.4004C6.875 30.4004 2.5 25.9004 2.5 20.4004C2.5 14.9004 6.875 10.4004 12.375 10.4004C17.875 10.4004 22.25 14.9004 22.25 20.4004Z" fill="#FBFAF6" fill-opacity="0.6"/>
</svg>
