<svg width="40" height="41" viewBox="0 0 40 41" fill="none" xmlns="http://www.w3.org/2000/svg">
<path d="M19.9999 3.80029C10.8333 3.80029 3.33325 11.2836 3.33325 20.5003C3.33325 28.8336 9.43325 35.7503 17.3999 37.0003V25.3336H13.1666V20.5003H17.3999V16.817C17.3999 12.6336 19.8832 10.3336 23.6999 10.3336C25.5166 10.3336 27.4166 10.6503 27.4166 10.6503V14.767H25.3166C23.2499 14.767 22.5999 16.0503 22.5999 17.367V20.5003H27.2332L26.4832 25.3336H22.5999V37.0003C26.5273 36.38 30.1036 34.3762 32.6831 31.3504C35.2627 28.3246 36.6755 24.4764 36.6666 20.5003C36.6666 11.2836 29.1666 3.80029 19.9999 3.80029Z" fill="#FBFAF6" fill-opacity="0.6"/>
</svg>
