<svg width="40" height="41" viewBox="0 0 40 41" fill="none" xmlns="http://www.w3.org/2000/svg">
<path d="M31.6667 5.40039C32.5507 5.40039 33.3986 5.75158 34.0237 6.3767C34.6488 7.00182 35 7.84967 35 8.73372V32.0671C35 32.9511 34.6488 33.799 34.0237 34.4241C33.3986 35.0492 32.5507 35.4004 31.6667 35.4004H8.33333C7.44928 35.4004 6.60143 35.0492 5.97631 34.4241C5.35119 33.799 5 32.9511 5 32.0671V8.73372C5 7.84967 5.35119 7.00182 5.97631 6.3767C6.60143 5.75158 7.44928 5.40039 8.33333 5.40039H31.6667ZM30.8333 31.2337V22.4004C30.8333 20.9594 30.2609 19.5774 29.2419 18.5584C28.223 17.5395 26.841 16.9671 25.4 16.9671C23.9833 16.9671 22.3333 17.8337 21.5333 19.1337V17.2837H16.8833V31.2337H21.5333V23.0171C21.5333 21.7337 22.5667 20.6837 23.85 20.6837C24.4688 20.6837 25.0623 20.9296 25.4999 21.3671C25.9375 21.8047 26.1833 22.3982 26.1833 23.0171V31.2337H30.8333ZM11.4667 14.6671C12.2093 14.6671 12.9215 14.3721 13.4466 13.847C13.9717 13.3219 14.2667 12.6097 14.2667 11.8671C14.2667 10.3171 13.0167 9.05039 11.4667 9.05039C10.7196 9.05039 10.0032 9.34715 9.47498 9.87537C8.94675 10.4036 8.65 11.12 8.65 11.8671C8.65 13.4171 9.91667 14.6671 11.4667 14.6671ZM13.7833 31.2337V17.2837H9.16667V31.2337H13.7833Z" fill="#FBFAF6" fill-opacity="0.6"/>
</svg>
