<svg width="40" height="41" viewBox="0 0 40 41" fill="none" xmlns="http://www.w3.org/2000/svg">
<path d="M27.5 4.15039H12.5C10.1801 4.15287 7.95596 5.07554 6.31556 6.71595C4.67515 8.35635 3.75248 10.5805 3.75 12.9004V27.9004C3.75248 30.2203 4.67515 32.4444 6.31556 34.0848C7.95596 35.7252 10.1801 36.6479 12.5 36.6504H27.5C29.8199 36.6479 32.044 35.7252 33.6844 34.0848C35.3249 32.4444 36.2475 30.2203 36.25 27.9004V12.9004C36.2475 10.5805 35.3249 8.35635 33.6844 6.71595C32.044 5.07554 29.8199 4.15287 27.5 4.15039ZM20 27.9004C18.5166 27.9004 17.0666 27.4605 15.8332 26.6364C14.5999 25.8123 13.6386 24.641 13.0709 23.2705C12.5032 21.9001 12.3547 20.3921 12.6441 18.9372C12.9335 17.4824 13.6478 16.146 14.6967 15.0971C15.7456 14.0482 17.082 13.3339 18.5368 13.0445C19.9917 12.7551 21.4997 12.9036 22.8701 13.4713C24.2406 14.039 25.4119 15.0002 26.236 16.2336C27.0601 17.467 27.5 18.917 27.5 20.4004C27.4979 22.3889 26.7071 24.2953 25.301 25.7014C23.8949 27.1075 21.9885 27.8983 20 27.9004ZM29.375 12.9004C29.0042 12.9004 28.6416 12.7904 28.3333 12.5844C28.025 12.3784 27.7846 12.0855 27.6427 11.7429C27.5008 11.4003 27.4637 11.0233 27.536 10.6596C27.6084 10.2959 27.787 9.96179 28.0492 9.69957C28.3114 9.43734 28.6455 9.25877 29.0092 9.18642C29.3729 9.11407 29.7499 9.1512 30.0925 9.29312C30.4351 9.43503 30.728 9.67535 30.934 9.9837C31.14 10.292 31.25 10.6546 31.25 11.0254C31.25 11.5227 31.0525 11.9996 30.7008 12.3512C30.3492 12.7028 29.8723 12.9004 29.375 12.9004ZM25 20.4004C25 21.3893 24.7068 22.356 24.1573 23.1782C23.6079 24.0005 22.827 24.6414 21.9134 25.0198C20.9998 25.3982 19.9945 25.4972 19.0245 25.3043C18.0546 25.1114 17.1637 24.6352 16.4645 23.9359C15.7652 23.2367 15.289 22.3457 15.0961 21.3758C14.9031 20.4059 15.0022 19.4006 15.3806 18.487C15.759 17.5733 16.3999 16.7924 17.2221 16.243C18.0444 15.6936 19.0111 15.4004 20 15.4004C21.3261 15.4004 22.5979 15.9272 23.5355 16.8649C24.4732 17.8025 25 19.0743 25 20.4004Z" fill="#FBFAF6" fill-opacity="0.6"/>
</svg>
