<svg width="40" height="41" viewBox="0 0 40 41" fill="none" xmlns="http://www.w3.org/2000/svg">
<path d="M37.4333 10.4005C36.15 10.9838 34.7667 11.3671 33.3333 11.5505C34.8 10.6671 35.9333 9.26714 36.4667 7.58381C35.0833 8.41714 33.55 9.00047 31.9333 9.33381C30.6166 7.90047 28.7667 7.06714 26.6667 7.06714C22.75 7.06714 19.55 10.2671 19.55 14.2171C19.55 14.7838 19.6167 15.3338 19.7333 15.8505C13.8 15.5505 8.51665 12.7005 4.99998 8.38381C4.38332 9.43381 4.03332 10.6671 4.03332 11.9671C4.03332 14.4505 5.28332 16.6505 7.21665 17.9005C6.03332 17.9005 4.93332 17.5671 3.96665 17.0671V17.1171C3.96665 20.5838 6.43332 23.4838 9.69998 24.1338C8.6512 24.4208 7.55014 24.4608 6.48332 24.2505C6.936 25.6713 7.82255 26.9145 9.01834 27.8054C10.2141 28.6962 11.6591 29.19 13.15 29.2171C10.6227 31.2179 7.48998 32.2993 4.26665 32.2838C3.69998 32.2838 3.13332 32.2505 2.56665 32.1838C5.73332 34.2171 9.49998 35.4005 13.5333 35.4005C26.6667 35.4005 33.8833 24.5005 33.8833 15.0505C33.8833 14.7338 33.8833 14.4338 33.8666 14.1171C35.2666 13.1171 36.4666 11.8505 37.4333 10.4005Z" fill="#FBFAF6" fill-opacity="0.6"/>
</svg>
