<svg width="64" height="18" viewBox="0 0 64 18" fill="none" xmlns="http://www.w3.org/2000/svg">
<path d="M6.26824 14.6753C5.65636 14.6753 5.14183 14.5752 4.72465 14.3749C4.30746 14.1747 3.97371 13.8916 3.7234 13.5256C3.47308 13.1528 3.29578 12.7212 3.19148 12.2309H2.36754L3.1289 10.0973C3.14281 10.5185 3.22625 10.8741 3.37922 11.1641C3.53219 11.4541 3.75121 11.6785 4.03629 11.8374C4.32136 11.9893 4.65511 12.0652 5.03754 12.0652C5.6216 12.0652 6.06312 11.896 6.36211 11.5577C6.66109 11.2125 6.81058 10.698 6.81058 10.0144V8.57476C6.81058 7.89807 6.66109 7.39056 6.36211 7.05221C6.07007 6.71387 5.63203 6.5447 5.04797 6.5447C4.72117 6.5447 4.42218 6.60684 4.15101 6.73113C3.88679 6.85542 3.66082 7.02114 3.47308 7.22829C3.2923 7.42853 3.16019 7.65985 3.07676 7.92224L2.35711 6.46184H3.2332C3.3375 6.00611 3.50785 5.59526 3.74426 5.2293C3.98066 4.85643 4.31094 4.56297 4.73508 4.34892C5.16617 4.12796 5.71199 4.01748 6.37254 4.01748C7.56847 4.01748 8.47238 4.40761 9.08425 5.18787C9.70308 5.96123 10.0125 7.12471 10.0125 8.67833V9.92123C10.0125 11.4887 9.70308 12.6729 9.08425 13.4738C8.46543 14.2748 7.52675 14.6753 6.26824 14.6753ZM0 14.4371V0.754883H3.17062V3.79997L3.11847 7.06257L3.1289 7.34222V11.247L3.07676 11.8581L3.17062 14.4371H0Z" fill="#524B47"/>
<path d="M17.0139 14.4371L17.1078 11.8891L17.0348 11.7338V8.55404L17.0139 8.13974C17.0139 7.57354 16.8471 7.15579 16.5133 6.88649C16.1796 6.6172 15.6198 6.48255 14.8341 6.48255C14.1458 6.48255 13.4922 6.56886 12.8734 6.74149C12.2545 6.91411 11.6705 7.1109 11.1212 7.33186L11.3923 4.87715C11.7191 4.72524 12.0842 4.58369 12.4875 4.45249C12.8977 4.31439 13.3496 4.20391 13.8433 4.12105C14.337 4.03819 14.8654 3.99676 15.4286 3.99676C16.3256 3.99676 17.0765 4.10034 17.6814 4.30749C18.2864 4.51464 18.7696 4.8081 19.1312 5.18787C19.4927 5.56764 19.7535 6.02337 19.9134 6.55505C20.0733 7.07983 20.1533 7.65985 20.1533 8.29511V14.4371H17.0139ZM13.7495 14.6753C12.7273 14.6753 11.9521 14.4198 11.4236 13.9088C10.8952 13.3979 10.631 12.6694 10.631 11.7234V11.4438C10.631 10.4426 10.9404 9.70372 11.5592 9.22728C12.185 8.74393 13.1758 8.41594 14.5317 8.24332L17.2851 7.88081L17.4728 9.78658L15.0323 10.1387C14.5386 10.2009 14.191 10.3148 13.9893 10.4805C13.7877 10.6462 13.6869 10.8914 13.6869 11.2159V11.2884C13.6869 11.5991 13.7877 11.8477 13.9893 12.0341C14.191 12.2137 14.5143 12.3034 14.9593 12.3034C15.3487 12.3034 15.6824 12.2447 15.9605 12.1274C16.2456 12.01 16.4786 11.8581 16.6593 11.6716C16.8401 11.4783 16.9757 11.2642 17.0661 11.0295L17.5146 12.3138H16.9931C16.8818 12.7557 16.708 13.1562 16.4716 13.5153C16.2421 13.8743 15.9084 14.1574 15.4703 14.3646C15.0323 14.5717 14.4587 14.6753 13.7495 14.6753Z" fill="#524B47"/>
<path d="M27.9125 14.4371L24.8879 10.0455H24.0536V8.18117H24.8879L27.8291 4.2557H31.4899L27.5892 9.31014V8.7094L31.6359 14.4371H27.9125ZM21.3836 14.4371V0.754883H24.5542V14.4371H21.3836Z" fill="#524B47"/>
<path d="M39.0061 14.4371L35.9814 10.0455H35.1471V8.18117H35.9814L38.9226 4.2557H42.5834L38.6827 9.31014V8.7094L42.7295 14.4371H39.0061ZM32.4771 14.4371V0.754883H35.6477V14.4371H32.4771Z" fill="#524B47"/>
<path d="M47.1823 14.6857C46.3688 14.6857 45.6353 14.6132 44.9817 14.4681C44.3281 14.33 43.7683 14.1678 43.3025 13.9813L43.0313 11.3195C43.5667 11.5404 44.1577 11.7407 44.8044 11.9202C45.458 12.0928 46.1637 12.1791 46.9216 12.1791C47.5265 12.1791 47.9541 12.117 48.2044 11.9927C48.4617 11.8615 48.5903 11.6613 48.5903 11.392V11.3506C48.5903 11.1641 48.5243 11.0122 48.3922 10.8948C48.267 10.7705 48.0445 10.6601 47.7247 10.5634C47.4118 10.4667 46.9703 10.3528 46.4001 10.2216C45.5449 10.0213 44.8669 9.78658 44.3663 9.51729C43.8657 9.24109 43.5076 8.9062 43.2921 8.51261C43.0835 8.11212 42.9792 7.63913 42.9792 7.09364V7.01078C42.9792 6.00266 43.3407 5.25002 44.0639 4.75286C44.787 4.2488 45.8508 3.99676 47.2553 3.99676C48.048 3.99676 48.7607 4.06927 49.3934 4.21427C50.0262 4.35928 50.5581 4.5319 50.9892 4.73214L51.2603 7.20757C50.7597 6.98662 50.2 6.80363 49.5812 6.65863C48.9693 6.51363 48.3261 6.44112 47.6517 6.44112C47.2414 6.44112 46.9181 6.46874 46.6817 6.52398C46.4523 6.57922 46.2889 6.65863 46.1915 6.7622C46.1011 6.86578 46.0559 6.99352 46.0559 7.14543V7.1765C46.0559 7.34222 46.1116 7.48377 46.2228 7.60116C46.3341 7.71854 46.5357 7.82902 46.8277 7.9326C47.1267 8.03617 47.5543 8.15355 48.1106 8.28475C48.9728 8.47118 49.6681 8.68524 50.1965 8.92691C50.7249 9.16168 51.1108 9.46895 51.3542 9.84872C51.5976 10.2216 51.7192 10.7187 51.7192 11.3402V11.4334C51.7192 12.5313 51.3473 13.3495 50.6033 13.8881C49.8593 14.4198 48.719 14.6857 47.1823 14.6857Z" fill="#524B47"/>
<path d="M58.5721 11.8995L56.8616 12.6349L59.1666 4.2557H62.4311L58.2488 18H55.0573L56.6531 12.8213L58.1549 14.0021H54.6193L51.845 4.2557H55.1303L56.9034 11.8995H58.5721Z" fill="#524B47"/>
<path d="M64 0L62.9254 3.46818H59.7017L64 0Z" fill="#FE6150"/>
</svg>
