<svg width="366" height="60" viewBox="0 0 366 60" fill="none" xmlns="http://www.w3.org/2000/svg">
<path d="M90.8967 20.6635C95.1809 20.6635 98.4064 22.1039 100.573 24.9846C102.74 27.8156 103.429 31.5158 102.641 36.0852L98.6526 58.957H87.5727L91.3399 37.0537C91.6846 35.1664 91.4876 33.6763 90.749 32.5837C90.0596 31.491 88.8531 30.9446 87.1295 30.9446C83.4855 30.9446 81.1956 33.1052 80.26 37.4262L76.4928 58.957H65.4129L69.1801 37.0537C69.5248 35.1664 69.3278 33.6763 68.5892 32.5837C67.8997 31.491 66.6933 30.9446 64.9697 30.9446C61.3257 30.9446 59.0358 33.0555 58.1002 37.2772L54.333 58.957H43.2531L49.7533 21.7065H60.8332L60.2423 25.0591C62.803 22.1287 66.2254 20.6635 70.5097 20.6635C74.8924 20.6635 77.8963 22.3522 79.5213 25.7296C82.5745 22.3522 86.3662 20.6635 90.8967 20.6635Z" fill="#4D4D4D"/>
<path d="M90.8967 20.6635C95.1809 20.6635 98.4064 22.1039 100.573 24.9846C102.74 27.8156 103.429 31.5158 102.641 36.0852L98.6526 58.957H87.5727L91.3399 37.0537C91.6846 35.1664 91.4876 33.6763 90.749 32.5837C90.0596 31.491 88.8531 30.9446 87.1295 30.9446C83.4855 30.9446 81.1956 33.1052 80.26 37.4262L76.4928 58.957H65.4129L69.1801 37.0537C69.5248 35.1664 69.3278 33.6763 68.5892 32.5837C67.8997 31.491 66.6933 30.9446 64.9697 30.9446C61.3257 30.9446 59.0358 33.0555 58.1002 37.2772L54.333 58.957H43.2531L49.7533 21.7065H60.8332L60.2423 25.0591C62.803 22.1287 66.2254 20.6635 70.5097 20.6635C74.8924 20.6635 77.8963 22.3522 79.5213 25.7296C82.5745 22.3522 86.3662 20.6635 90.8967 20.6635Z" fill="url(#paint0_radial_296_2184)"/>
<path d="M90.8967 20.6635C95.1809 20.6635 98.4064 22.1039 100.573 24.9846C102.74 27.8156 103.429 31.5158 102.641 36.0852L98.6526 58.957H87.5727L91.3399 37.0537C91.6846 35.1664 91.4876 33.6763 90.749 32.5837C90.0596 31.491 88.8531 30.9446 87.1295 30.9446C83.4855 30.9446 81.1956 33.1052 80.26 37.4262L76.4928 58.957H65.4129L69.1801 37.0537C69.5248 35.1664 69.3278 33.6763 68.5892 32.5837C67.8997 31.491 66.6933 30.9446 64.9697 30.9446C61.3257 30.9446 59.0358 33.0555 58.1002 37.2772L54.333 58.957H43.2531L49.7533 21.7065H60.8332L60.2423 25.0591C62.803 22.1287 66.2254 20.6635 70.5097 20.6635C74.8924 20.6635 77.8963 22.3522 79.5213 25.7296C82.5745 22.3522 86.3662 20.6635 90.8967 20.6635Z" fill="url(#paint1_radial_296_2184)"/>
<path d="M137.108 21.7065H148.188L141.688 58.957H130.608L131.051 56.424C128.244 58.808 124.551 60 119.971 60C114.308 60 110.196 57.9388 107.635 53.8164C105.075 49.6444 104.311 44.8515 105.346 39.4377C106.281 34.322 108.596 29.9265 112.289 26.2511C116.032 22.526 120.636 20.6635 126.102 20.6635C130.731 20.6635 134.178 22.3274 136.443 25.6551L137.108 21.7065ZM117.681 46.9623C119.011 48.6014 120.956 49.4209 123.517 49.4209C126.077 49.4209 128.318 48.6014 130.238 46.9623C132.159 45.3233 133.365 43.138 133.858 40.4063V40.3318C134.35 37.5504 133.907 35.3402 132.528 33.7012C131.199 32.0622 129.254 31.2426 126.693 31.2426C124.132 31.2426 121.892 32.0622 119.971 33.7012C118.1 35.3402 116.918 37.5504 116.426 40.3318C115.933 43.1131 116.352 45.3233 117.681 46.9623Z" fill="#4D4D4D"/>
<path d="M137.108 21.7065H148.188L141.688 58.957H130.608L131.051 56.424C128.244 58.808 124.551 60 119.971 60C114.308 60 110.196 57.9388 107.635 53.8164C105.075 49.6444 104.311 44.8515 105.346 39.4377C106.281 34.322 108.596 29.9265 112.289 26.2511C116.032 22.526 120.636 20.6635 126.102 20.6635C130.731 20.6635 134.178 22.3274 136.443 25.6551L137.108 21.7065ZM117.681 46.9623C119.011 48.6014 120.956 49.4209 123.517 49.4209C126.077 49.4209 128.318 48.6014 130.238 46.9623C132.159 45.3233 133.365 43.138 133.858 40.4063V40.3318C134.35 37.5504 133.907 35.3402 132.528 33.7012C131.199 32.0622 129.254 31.2426 126.693 31.2426C124.132 31.2426 121.892 32.0622 119.971 33.7012C118.1 35.3402 116.918 37.5504 116.426 40.3318C115.933 43.1131 116.352 45.3233 117.681 46.9623Z" fill="url(#paint2_radial_296_2184)"/>
<path d="M137.108 21.7065H148.188L141.688 58.957H130.608L131.051 56.424C128.244 58.808 124.551 60 119.971 60C114.308 60 110.196 57.9388 107.635 53.8164C105.075 49.6444 104.311 44.8515 105.346 39.4377C106.281 34.322 108.596 29.9265 112.289 26.2511C116.032 22.526 120.636 20.6635 126.102 20.6635C130.731 20.6635 134.178 22.3274 136.443 25.6551L137.108 21.7065ZM117.681 46.9623C119.011 48.6014 120.956 49.4209 123.517 49.4209C126.077 49.4209 128.318 48.6014 130.238 46.9623C132.159 45.3233 133.365 43.138 133.858 40.4063V40.3318C134.35 37.5504 133.907 35.3402 132.528 33.7012C131.199 32.0622 129.254 31.2426 126.693 31.2426C124.132 31.2426 121.892 32.0622 119.971 33.7012C118.1 35.3402 116.918 37.5504 116.426 40.3318C115.933 43.1131 116.352 45.3233 117.681 46.9623Z" fill="url(#paint3_radial_296_2184)"/>
<path d="M163.999 28.4116C165.082 25.9779 166.732 24.1402 168.948 22.8985C171.164 21.6072 173.651 20.9615 176.408 20.9615L174.266 33.6267C172.641 33.3783 170.991 33.428 169.317 33.7757C167.692 34.1233 166.092 35.0174 164.516 36.4577C162.989 37.8484 162.029 39.7357 161.635 42.1198L161.709 41.6728L158.68 58.957H147.6L154.101 21.7065H165.181L163.999 28.4116Z" fill="#4D4D4D"/>
<path d="M163.999 28.4116C165.082 25.9779 166.732 24.1402 168.948 22.8985C171.164 21.6072 173.651 20.9615 176.408 20.9615L174.266 33.6267C172.641 33.3783 170.991 33.428 169.317 33.7757C167.692 34.1233 166.092 35.0174 164.516 36.4577C162.989 37.8484 162.029 39.7357 161.635 42.1198L161.709 41.6728L158.68 58.957H147.6L154.101 21.7065H165.181L163.999 28.4116Z" fill="url(#paint4_radial_296_2184)"/>
<path d="M163.999 28.4116C165.082 25.9779 166.732 24.1402 168.948 22.8985C171.164 21.6072 173.651 20.9615 176.408 20.9615L174.266 33.6267C172.641 33.3783 170.991 33.428 169.317 33.7757C167.692 34.1233 166.092 35.0174 164.516 36.4577C162.989 37.8484 162.029 39.7357 161.635 42.1198L161.709 41.6728L158.68 58.957H147.6L154.101 21.7065H165.181L163.999 28.4116Z" fill="url(#paint5_radial_296_2184)"/>
<path d="M194.123 32.4347L191.834 45.6213C191.538 47.161 191.957 48.1295 193.089 48.5269C194.222 48.9242 196.167 49.0235 198.925 48.8249L197.152 58.957C190.553 59.702 185.924 58.9818 183.265 56.7965C180.655 54.6111 179.818 50.8861 180.754 45.6213L183.043 32.4347H177.134L179.055 21.7065H184.89L186.146 14.6289L197.817 11.2764L195.97 21.7065H203.652L201.732 32.4347H194.123Z" fill="#4D4D4D"/>
<path d="M194.123 32.4347L191.834 45.6213C191.538 47.161 191.957 48.1295 193.089 48.5269C194.222 48.9242 196.167 49.0235 198.925 48.8249L197.152 58.957C190.553 59.702 185.924 58.9818 183.265 56.7965C180.655 54.6111 179.818 50.8861 180.754 45.6213L183.043 32.4347H177.134L179.055 21.7065H184.89L186.146 14.6289L197.817 11.2764L195.97 21.7065H203.652L201.732 32.4347H194.123Z" fill="url(#paint6_radial_296_2184)"/>
<path d="M194.123 32.4347L191.834 45.6213C191.538 47.161 191.957 48.1295 193.089 48.5269C194.222 48.9242 196.167 49.0235 198.925 48.8249L197.152 58.957C190.553 59.702 185.924 58.9818 183.265 56.7965C180.655 54.6111 179.818 50.8861 180.754 45.6213L183.043 32.4347H177.134L179.055 21.7065H184.89L186.146 14.6289L197.817 11.2764L195.97 21.7065H203.652L201.732 32.4347H194.123Z" fill="url(#paint7_radial_296_2184)"/>
<path d="M246.618 6.80633H258.436L249.351 58.957H237.532L241.152 38.2457H224.901L221.282 58.957H209.463L218.549 6.80633H230.367L226.895 26.7726H243.146L246.618 6.80633Z" fill="#4D4D4D"/>
<path d="M246.618 6.80633H258.436L249.351 58.957H237.532L241.152 38.2457H224.901L221.282 58.957H209.463L218.549 6.80633H230.367L226.895 26.7726H243.146L246.618 6.80633Z" fill="url(#paint8_radial_296_2184)"/>
<path d="M246.618 6.80633H258.436L249.351 58.957H237.532L241.152 38.2457H224.901L221.282 58.957H209.463L218.549 6.80633H230.367L226.895 26.7726H243.146L246.618 6.80633Z" fill="url(#paint9_radial_296_2184)"/>
<path d="M285.778 21.7065H296.858L290.358 58.957H279.278L279.869 55.4554C277.161 58.4852 273.541 60 269.011 60C265.022 60 261.87 58.6342 259.556 55.9025C257.29 53.1211 256.577 49.3464 257.414 44.5783L261.402 21.7065H272.482L268.789 42.9393C268.395 45.224 268.691 46.9375 269.675 48.0799C270.71 49.1725 272.187 49.7189 274.107 49.7189C276.077 49.7189 277.776 49.1229 279.204 47.9309C280.681 46.7388 281.666 44.926 282.159 42.4923L285.778 21.7065Z" fill="#4D4D4D"/>
<path d="M285.778 21.7065H296.858L290.358 58.957H279.278L279.869 55.4554C277.161 58.4852 273.541 60 269.011 60C265.022 60 261.87 58.6342 259.556 55.9025C257.29 53.1211 256.577 49.3464 257.414 44.5783L261.402 21.7065H272.482L268.789 42.9393C268.395 45.224 268.691 46.9375 269.675 48.0799C270.71 49.1725 272.187 49.7189 274.107 49.7189C276.077 49.7189 277.776 49.1229 279.204 47.9309C280.681 46.7388 281.666 44.926 282.159 42.4923L285.778 21.7065Z" fill="url(#paint10_radial_296_2184)"/>
<path d="M285.778 21.7065H296.858L290.358 58.957H279.278L279.869 55.4554C277.161 58.4852 273.541 60 269.011 60C265.022 60 261.87 58.6342 259.556 55.9025C257.29 53.1211 256.577 49.3464 257.414 44.5783L261.402 21.7065H272.482L268.789 42.9393C268.395 45.224 268.691 46.9375 269.675 48.0799C270.71 49.1725 272.187 49.7189 274.107 49.7189C276.077 49.7189 277.776 49.1229 279.204 47.9309C280.681 46.7388 281.666 44.926 282.159 42.4923L285.778 21.7065Z" fill="url(#paint11_radial_296_2184)"/>
<path d="M324.12 20.6635C328.109 20.6635 331.236 22.0542 333.501 24.8356C335.816 27.5673 336.555 31.3171 335.717 36.0852L331.729 58.957H320.649L324.342 37.7242C324.736 35.4395 324.416 33.7508 323.382 32.6582C322.397 31.5158 320.944 30.9446 319.024 30.9446C317.054 30.9446 315.33 31.5406 313.853 32.7327C312.425 33.9247 311.465 35.7375 310.972 38.1712L307.353 58.957H296.273L302.773 21.7065H313.853L313.262 25.2081C315.971 22.1784 319.59 20.6635 324.12 20.6635Z" fill="#4D4D4D"/>
<path d="M324.12 20.6635C328.109 20.6635 331.236 22.0542 333.501 24.8356C335.816 27.5673 336.555 31.3171 335.717 36.0852L331.729 58.957H320.649L324.342 37.7242C324.736 35.4395 324.416 33.7508 323.382 32.6582C322.397 31.5158 320.944 30.9446 319.024 30.9446C317.054 30.9446 315.33 31.5406 313.853 32.7327C312.425 33.9247 311.465 35.7375 310.972 38.1712L307.353 58.957H296.273L302.773 21.7065H313.853L313.262 25.2081C315.971 22.1784 319.59 20.6635 324.12 20.6635Z" fill="url(#paint12_radial_296_2184)"/>
<path d="M324.12 20.6635C328.109 20.6635 331.236 22.0542 333.501 24.8356C335.816 27.5673 336.555 31.3171 335.717 36.0852L331.729 58.957H320.649L324.342 37.7242C324.736 35.4395 324.416 33.7508 323.382 32.6582C322.397 31.5158 320.944 30.9446 319.024 30.9446C317.054 30.9446 315.33 31.5406 313.853 32.7327C312.425 33.9247 311.465 35.7375 310.972 38.1712L307.353 58.957H296.273L302.773 21.7065H313.853L313.262 25.2081C315.971 22.1784 319.59 20.6635 324.12 20.6635Z" fill="url(#paint13_radial_296_2184)"/>
<path d="M355.593 32.4347L353.303 45.6213C353.008 47.161 353.426 48.1295 354.559 48.5269C355.692 48.9242 357.637 49.0235 360.395 48.8249L358.622 58.957C352.023 59.702 347.394 58.9818 344.735 56.7965C342.125 54.6111 341.288 50.8861 342.223 45.6213L344.513 32.4347H338.604L340.525 21.7065H346.36L347.616 14.6289L359.286 11.2764L357.44 21.7065H365.122L363.201 32.4347H355.593Z" fill="#4D4D4D"/>
<path d="M355.593 32.4347L353.303 45.6213C353.008 47.161 353.426 48.1295 354.559 48.5269C355.692 48.9242 357.637 49.0235 360.395 48.8249L358.622 58.957C352.023 59.702 347.394 58.9818 344.735 56.7965C342.125 54.6111 341.288 50.8861 342.223 45.6213L344.513 32.4347H338.604L340.525 21.7065H346.36L347.616 14.6289L359.286 11.2764L357.44 21.7065H365.122L363.201 32.4347H355.593Z" fill="url(#paint14_radial_296_2184)"/>
<path d="M355.593 32.4347L353.303 45.6213C353.008 47.161 353.426 48.1295 354.559 48.5269C355.692 48.9242 357.637 49.0235 360.395 48.8249L358.622 58.957C352.023 59.702 347.394 58.9818 344.735 56.7965C342.125 54.6111 341.288 50.8861 342.223 45.6213L344.513 32.4347H338.604L340.525 21.7065H346.36L347.616 14.6289L359.286 11.2764L357.44 21.7065H365.122L363.201 32.4347H355.593Z" fill="url(#paint15_radial_296_2184)"/>
<path d="M20.3417 59.8429C14.7337 59.8429 10.1709 58.7375 6.65314 56.5268C3.18638 54.268 0.968653 51.2154 0 47.3707L11.165 41.964C12.4905 46.4816 15.9062 48.7403 21.4123 48.7403C26.1026 48.7403 28.7282 47.3226 29.289 44.4871C29.5949 43.0453 29.0595 41.9159 27.683 41.0989C26.3575 40.2339 23.9869 39.2486 20.5711 38.1433C15.5239 36.5573 11.7512 34.5388 9.25314 32.0878C6.80601 29.5887 5.99037 26.1044 6.80608 21.6349C6.87926 21.2124 6.96434 20.7991 7.06133 20.3951C8.92829 10.5365 6.01244 4.72498 0.559625 0.863494C0 0.372657 0 9.54764e-06 0.559625 0C17.1076 0 31.6101 5.14148 38.1601 10.3172C41.0769 12.622 43.7426 15.0988 45.1191 18.7514L34.4129 24.0859C32.5266 20.3373 29.6203 18.463 25.6947 18.463C23.8594 18.463 22.3809 18.8234 21.2593 19.5443C20.1887 20.2652 19.526 21.1783 19.271 22.2837C18.9652 23.6774 19.4495 24.8309 20.724 25.744C22.0496 26.6091 24.3182 27.5943 27.5301 28.6996C28.4987 29.036 29.2892 29.3244 29.901 29.5647C30.5638 29.7569 31.354 30.0453 32.2717 30.4298C33.1894 30.7662 33.9286 31.1026 34.4894 31.439C35.1012 31.7274 35.7894 32.1118 36.5541 32.5924C37.3699 33.025 38.0071 33.4815 38.466 33.9621C38.9758 34.4427 39.4856 34.9954 39.9954 35.6202C40.5562 36.1969 40.9641 36.8457 41.219 37.5666C41.5249 38.2394 41.7798 38.9843 41.9837 39.8013C42.1876 40.5703 42.2641 41.4353 42.2131 42.3965C42.2131 43.3577 42.1112 44.391 41.9072 45.4964C41.0405 50.11 38.6699 53.667 34.7953 56.1661C30.9716 58.6171 26.1536 59.8429 20.3417 59.8429Z" fill="#4D4D4D"/>
<path d="M20.3417 59.8429C14.7337 59.8429 10.1709 58.7375 6.65314 56.5268C3.18638 54.268 0.968653 51.2154 0 47.3707L11.165 41.964C12.4905 46.4816 15.9062 48.7403 21.4123 48.7403C26.1026 48.7403 28.7282 47.3226 29.289 44.4871C29.5949 43.0453 29.0595 41.9159 27.683 41.0989C26.3575 40.2339 23.9869 39.2486 20.5711 38.1433C15.5239 36.5573 11.7512 34.5388 9.25314 32.0878C6.80601 29.5887 5.99037 26.1044 6.80608 21.6349C6.87926 21.2124 6.96434 20.7991 7.06133 20.3951C8.92829 10.5365 6.01244 4.72498 0.559625 0.863494C0 0.372657 0 9.54764e-06 0.559625 0C17.1076 0 31.6101 5.14148 38.1601 10.3172C41.0769 12.622 43.7426 15.0988 45.1191 18.7514L34.4129 24.0859C32.5266 20.3373 29.6203 18.463 25.6947 18.463C23.8594 18.463 22.3809 18.8234 21.2593 19.5443C20.1887 20.2652 19.526 21.1783 19.271 22.2837C18.9652 23.6774 19.4495 24.8309 20.724 25.744C22.0496 26.6091 24.3182 27.5943 27.5301 28.6996C28.4987 29.036 29.2892 29.3244 29.901 29.5647C30.5638 29.7569 31.354 30.0453 32.2717 30.4298C33.1894 30.7662 33.9286 31.1026 34.4894 31.439C35.1012 31.7274 35.7894 32.1118 36.5541 32.5924C37.3699 33.025 38.0071 33.4815 38.466 33.9621C38.9758 34.4427 39.4856 34.9954 39.9954 35.6202C40.5562 36.1969 40.9641 36.8457 41.219 37.5666C41.5249 38.2394 41.7798 38.9843 41.9837 39.8013C42.1876 40.5703 42.2641 41.4353 42.2131 42.3965C42.2131 43.3577 42.1112 44.391 41.9072 45.4964C41.0405 50.11 38.6699 53.667 34.7953 56.1661C30.9716 58.6171 26.1536 59.8429 20.3417 59.8429Z" fill="url(#paint16_radial_296_2184)"/>
<path d="M20.3417 59.8429C14.7337 59.8429 10.1709 58.7375 6.65314 56.5268C3.18638 54.268 0.968653 51.2154 0 47.3707L11.165 41.964C12.4905 46.4816 15.9062 48.7403 21.4123 48.7403C26.1026 48.7403 28.7282 47.3226 29.289 44.4871C29.5949 43.0453 29.0595 41.9159 27.683 41.0989C26.3575 40.2339 23.9869 39.2486 20.5711 38.1433C15.5239 36.5573 11.7512 34.5388 9.25314 32.0878C6.80601 29.5887 5.99037 26.1044 6.80608 21.6349C6.87926 21.2124 6.96434 20.7991 7.06133 20.3951C8.92829 10.5365 6.01244 4.72498 0.559625 0.863494C0 0.372657 0 9.54764e-06 0.559625 0C17.1076 0 31.6101 5.14148 38.1601 10.3172C41.0769 12.622 43.7426 15.0988 45.1191 18.7514L34.4129 24.0859C32.5266 20.3373 29.6203 18.463 25.6947 18.463C23.8594 18.463 22.3809 18.8234 21.2593 19.5443C20.1887 20.2652 19.526 21.1783 19.271 22.2837C18.9652 23.6774 19.4495 24.8309 20.724 25.744C22.0496 26.6091 24.3182 27.5943 27.5301 28.6996C28.4987 29.036 29.2892 29.3244 29.901 29.5647C30.5638 29.7569 31.354 30.0453 32.2717 30.4298C33.1894 30.7662 33.9286 31.1026 34.4894 31.439C35.1012 31.7274 35.7894 32.1118 36.5541 32.5924C37.3699 33.025 38.0071 33.4815 38.466 33.9621C38.9758 34.4427 39.4856 34.9954 39.9954 35.6202C40.5562 36.1969 40.9641 36.8457 41.219 37.5666C41.5249 38.2394 41.7798 38.9843 41.9837 39.8013C42.1876 40.5703 42.2641 41.4353 42.2131 42.3965C42.2131 43.3577 42.1112 44.391 41.9072 45.4964C41.0405 50.11 38.6699 53.667 34.7953 56.1661C30.9716 58.6171 26.1536 59.8429 20.3417 59.8429Z" fill="url(#paint17_radial_296_2184)"/>
<defs>
<radialGradient id="paint0_radial_296_2184" cx="0" cy="0" r="1" gradientUnits="userSpaceOnUse" gradientTransform="translate(355.321 4.52831) rotate(170.186) scale(454.959 161.253)">
<stop stop-color="#A54AFF"/>
<stop offset="1" stop-color="#A54AFF" stop-opacity="0"/>
</radialGradient>
<radialGradient id="paint1_radial_296_2184" cx="0" cy="0" r="1" gradientUnits="userSpaceOnUse" gradientTransform="translate(9.72516e-06 45.5) rotate(-9.26368) scale(226.387 128.571)">
<stop stop-color="#00F0F0"/>
<stop offset="1" stop-color="#00FFFF" stop-opacity="0"/>
</radialGradient>
<radialGradient id="paint2_radial_296_2184" cx="0" cy="0" r="1" gradientUnits="userSpaceOnUse" gradientTransform="translate(355.321 4.52831) rotate(170.186) scale(454.959 161.253)">
<stop stop-color="#A54AFF"/>
<stop offset="1" stop-color="#A54AFF" stop-opacity="0"/>
</radialGradient>
<radialGradient id="paint3_radial_296_2184" cx="0" cy="0" r="1" gradientUnits="userSpaceOnUse" gradientTransform="translate(9.72516e-06 45.5) rotate(-9.26368) scale(226.387 128.571)">
<stop stop-color="#00F0F0"/>
<stop offset="1" stop-color="#00FFFF" stop-opacity="0"/>
</radialGradient>
<radialGradient id="paint4_radial_296_2184" cx="0" cy="0" r="1" gradientUnits="userSpaceOnUse" gradientTransform="translate(355.321 4.52831) rotate(170.186) scale(454.959 161.253)">
<stop stop-color="#A54AFF"/>
<stop offset="1" stop-color="#A54AFF" stop-opacity="0"/>
</radialGradient>
<radialGradient id="paint5_radial_296_2184" cx="0" cy="0" r="1" gradientUnits="userSpaceOnUse" gradientTransform="translate(9.72516e-06 45.5) rotate(-9.26368) scale(226.387 128.571)">
<stop stop-color="#00F0F0"/>
<stop offset="1" stop-color="#00FFFF" stop-opacity="0"/>
</radialGradient>
<radialGradient id="paint6_radial_296_2184" cx="0" cy="0" r="1" gradientUnits="userSpaceOnUse" gradientTransform="translate(355.321 4.52831) rotate(170.186) scale(454.959 161.253)">
<stop stop-color="#A54AFF"/>
<stop offset="1" stop-color="#A54AFF" stop-opacity="0"/>
</radialGradient>
<radialGradient id="paint7_radial_296_2184" cx="0" cy="0" r="1" gradientUnits="userSpaceOnUse" gradientTransform="translate(9.72516e-06 45.5) rotate(-9.26368) scale(226.387 128.571)">
<stop stop-color="#00F0F0"/>
<stop offset="1" stop-color="#00FFFF" stop-opacity="0"/>
</radialGradient>
<radialGradient id="paint8_radial_296_2184" cx="0" cy="0" r="1" gradientUnits="userSpaceOnUse" gradientTransform="translate(355.321 4.52831) rotate(170.186) scale(454.959 161.253)">
<stop stop-color="#A54AFF"/>
<stop offset="1" stop-color="#A54AFF" stop-opacity="0"/>
</radialGradient>
<radialGradient id="paint9_radial_296_2184" cx="0" cy="0" r="1" gradientUnits="userSpaceOnUse" gradientTransform="translate(9.72516e-06 45.5) rotate(-9.26368) scale(226.387 128.571)">
<stop stop-color="#00F0F0"/>
<stop offset="1" stop-color="#00FFFF" stop-opacity="0"/>
</radialGradient>
<radialGradient id="paint10_radial_296_2184" cx="0" cy="0" r="1" gradientUnits="userSpaceOnUse" gradientTransform="translate(355.321 4.52831) rotate(170.186) scale(454.959 161.253)">
<stop stop-color="#A54AFF"/>
<stop offset="1" stop-color="#A54AFF" stop-opacity="0"/>
</radialGradient>
<radialGradient id="paint11_radial_296_2184" cx="0" cy="0" r="1" gradientUnits="userSpaceOnUse" gradientTransform="translate(9.72516e-06 45.5) rotate(-9.26368) scale(226.387 128.571)">
<stop stop-color="#00F0F0"/>
<stop offset="1" stop-color="#00FFFF" stop-opacity="0"/>
</radialGradient>
<radialGradient id="paint12_radial_296_2184" cx="0" cy="0" r="1" gradientUnits="userSpaceOnUse" gradientTransform="translate(355.321 4.52831) rotate(170.186) scale(454.959 161.253)">
<stop stop-color="#A54AFF"/>
<stop offset="1" stop-color="#A54AFF" stop-opacity="0"/>
</radialGradient>
<radialGradient id="paint13_radial_296_2184" cx="0" cy="0" r="1" gradientUnits="userSpaceOnUse" gradientTransform="translate(9.72516e-06 45.5) rotate(-9.26368) scale(226.387 128.571)">
<stop stop-color="#00F0F0"/>
<stop offset="1" stop-color="#00FFFF" stop-opacity="0"/>
</radialGradient>
<radialGradient id="paint14_radial_296_2184" cx="0" cy="0" r="1" gradientUnits="userSpaceOnUse" gradientTransform="translate(355.321 4.52831) rotate(170.186) scale(454.959 161.253)">
<stop stop-color="#A54AFF"/>
<stop offset="1" stop-color="#A54AFF" stop-opacity="0"/>
</radialGradient>
<radialGradient id="paint15_radial_296_2184" cx="0" cy="0" r="1" gradientUnits="userSpaceOnUse" gradientTransform="translate(9.72516e-06 45.5) rotate(-9.26368) scale(226.387 128.571)">
<stop stop-color="#00F0F0"/>
<stop offset="1" stop-color="#00FFFF" stop-opacity="0"/>
</radialGradient>
<radialGradient id="paint16_radial_296_2184" cx="0" cy="0" r="1" gradientUnits="userSpaceOnUse" gradientTransform="translate(355.321 4.52831) rotate(170.186) scale(454.959 161.253)">
<stop stop-color="#A54AFF"/>
<stop offset="1" stop-color="#A54AFF" stop-opacity="0"/>
</radialGradient>
<radialGradient id="paint17_radial_296_2184" cx="0" cy="0" r="1" gradientUnits="userSpaceOnUse" gradientTransform="translate(9.72516e-06 45.5) rotate(-9.26368) scale(226.387 128.571)">
<stop stop-color="#00F0F0"/>
<stop offset="1" stop-color="#00FFFF" stop-opacity="0"/>
</radialGradient>
</defs>
</svg>
