<svg width="183" height="104" viewBox="0 0 183 104" fill="none" xmlns="http://www.w3.org/2000/svg">
<path d="M106.877 66.2007L111.155 62.7989C111.24 62.7235 111.34 62.6673 111.449 62.6341C111.558 62.6009 111.672 62.5915 111.785 62.6065C111.898 62.6216 112.006 62.6606 112.102 62.7211C112.199 62.7816 112.281 62.8621 112.343 62.9571L115.749 67.2291C115.825 67.3141 115.881 67.4143 115.914 67.5229C115.948 67.6316 115.957 67.7461 115.942 67.8587C115.927 67.9713 115.888 68.0793 115.827 68.1754C115.767 68.2716 115.686 68.3536 115.591 68.4158L111.313 71.8176C111.228 71.893 111.128 71.9492 111.019 71.9824C110.91 72.0156 110.795 72.025 110.683 72.01C110.57 71.9949 110.462 71.9559 110.366 71.8954C110.269 71.8349 110.187 71.7544 110.125 71.6594L106.718 67.3874C106.609 67.2002 106.564 66.9818 106.593 66.7668C106.622 66.5518 106.722 66.3526 106.877 66.2007Z" fill="#F9F9F9"/>
<path d="M107.669 46.1854L115.274 40.1729C115.43 40.0481 115.609 39.9553 115.801 39.8997C115.993 39.8441 116.194 39.8268 116.393 39.8489C116.592 39.8709 116.784 39.9319 116.959 40.0282C117.134 40.1245 117.288 40.2543 117.413 40.4102L123.434 48.0049C123.559 48.1607 123.652 48.3396 123.707 48.5313C123.763 48.723 123.78 48.9238 123.758 49.1221C123.736 49.3205 123.675 49.5126 123.579 49.6874C123.482 49.8622 123.352 50.0163 123.196 50.141L115.591 56.1534C115.435 56.2782 115.256 56.371 115.064 56.4266C114.872 56.4822 114.671 56.4995 114.472 56.4774C114.274 56.4554 114.081 56.3945 113.906 56.2982C113.731 56.2018 113.577 56.072 113.452 55.9161L107.431 48.3214C107.295 48.1704 107.193 47.9925 107.131 47.7993C107.069 47.6061 107.048 47.4019 107.071 47.2002C107.093 46.9985 107.158 46.8038 107.261 46.629C107.364 46.4541 107.503 46.3029 107.669 46.1854Z" fill="#F9F9F9"/>
<path d="M3.57285 39.6983L51.1053 2.04118C53.0901 0.492576 55.6037 -0.21739 58.1067 0.0636257C60.6097 0.344641 62.9027 1.59424 64.4936 3.5443L102.124 50.9321C103.674 52.9142 104.385 55.4243 104.104 57.9238C103.822 60.4234 102.571 62.7132 100.618 64.3019L53.0858 101.959C51.101 103.508 48.5874 104.218 46.0844 103.937C43.5814 103.656 41.2885 102.406 39.6975 100.456L2.06766 53.0048C1.28865 52.0336 0.709466 50.9183 0.363387 49.7229C0.0173079 48.5275 -0.0888474 47.2756 0.0510193 46.0392C0.190886 44.8027 0.574018 43.606 1.17841 42.5178C1.78279 41.4296 2.59653 40.4714 3.57285 39.6983Z" fill="#F9F9F9"/>
<path d="M0.554541 53.7958C0.481181 52.0372 1.0123 50.3065 2.05974 48.8909C3.09757 47.5313 4.53953 46.5344 6.17922 46.0429C8.14738 45.405 10.2109 45.1106 12.2792 45.1727C14.9141 45.1497 17.5355 45.5504 20.0429 46.3593L19.0922 50.7896C17.1734 50.0439 15.1304 49.668 13.0714 49.682C11.2897 49.6207 9.52054 50.0012 7.92207 50.7896C7.33046 51.0603 6.82913 51.495 6.47766 52.0419C6.12618 52.5889 5.93934 53.2251 5.93934 53.8749C5.93934 54.5248 6.12618 55.161 6.47766 55.708C6.82913 56.2549 7.33046 56.6896 7.92207 56.9603C9.57444 57.7561 11.3966 58.1364 13.2299 58.0678C15.6557 58.1093 18.0615 57.6234 20.2805 56.6438L20.3597 61.3905C17.748 62.2119 15.016 62.5864 12.2792 62.4981C10.2125 62.5329 8.15347 62.2392 6.17922 61.6279C4.53953 61.1364 3.09757 60.1395 2.05974 58.7799C1.0678 57.3073 0.543257 55.5705 0.554541 53.7958Z" fill="#3B4A51"/>
<path d="M23.687 51.4859C25.3971 50.2795 27.457 49.6679 29.5493 49.7455C31.6464 49.6298 33.7185 50.245 35.4117 51.4859C36.1298 52.0106 36.7077 52.7034 37.0945 53.5036C37.4813 54.3037 37.6651 55.1866 37.6299 56.0744C37.655 56.9607 37.4666 57.84 37.0806 58.6385C36.6946 59.437 36.1223 60.1312 35.4117 60.6629C33.6931 61.844 31.6331 62.4278 29.5493 62.3242C27.4656 62.4278 25.4056 61.844 23.687 60.6629C22.9689 60.1382 22.391 59.4453 22.0042 58.6452C21.6174 57.8451 21.4336 56.9622 21.4688 56.0744C21.4595 55.1906 21.6549 54.3166 22.0397 53.5207C22.4245 52.7248 22.9882 52.0284 23.687 51.4859ZM26.2221 56.0744C26.2109 56.4672 26.2909 56.8573 26.4558 57.2142C26.6208 57.571 26.8661 57.8849 27.1727 58.1313C27.8379 58.6827 28.6859 58.965 29.5493 58.9224C30.437 58.9652 31.3099 58.684 32.0052 58.1313C32.3118 57.8849 32.5572 57.571 32.7221 57.2142C32.887 56.8573 32.967 56.4672 32.9558 56.0744C32.9753 55.6804 32.8991 55.2875 32.7335 54.9293C32.568 54.5712 32.3181 54.2583 32.0052 54.0175C31.3161 53.4533 30.4387 53.1707 29.5493 53.2264C28.6859 53.1838 27.8379 53.4661 27.1727 54.0175C26.8661 54.2639 26.6208 54.5778 26.4558 54.9346C26.2909 55.2914 26.2109 55.6815 26.2221 56.0744Z" fill="#3B4A51"/>
<path d="M39.5312 50.141H44.2844C44.4627 50.7304 44.543 51.3451 44.5221 51.9605C45.1144 51.2442 45.8685 50.6786 46.7223 50.31C47.5762 49.9414 48.5055 49.7804 49.4338 49.8403C50.1989 49.7959 50.9651 49.9061 51.6866 50.1644C52.408 50.4227 53.0699 50.8237 53.6325 51.3435C54.1378 51.8508 54.5324 52.4572 54.7915 53.1243C55.0505 53.7915 55.1684 54.505 55.1377 55.2199V62.1026H50.1467V55.5364C50.155 55.236 50.0951 54.9377 49.9717 54.6637C49.8482 54.3898 49.6643 54.1472 49.4338 53.9541C48.9195 53.5364 48.2745 53.3124 47.6117 53.3213C46.9808 53.3207 46.3613 53.4893 45.8178 53.8093C45.2744 54.1294 44.8269 54.5892 44.5221 55.1408V62.1026H39.5312V50.141Z" fill="#3B4A51"/>
<path d="M56.7221 53.3845V50.2201L62.1091 45.5525H64.3273V50.0618H68.7636V53.3054H64.3273V56.549C64.328 57.0382 64.4957 57.5126 64.8026 57.8939C65.0201 58.1056 65.2827 58.2654 65.5708 58.3613C65.8589 58.4572 66.1651 58.4867 66.4662 58.4477C67.2551 58.4351 68.0345 58.2741 68.7636 57.973L69.1597 61.3748C67.7966 62.0045 66.3034 62.3027 64.8026 62.245C63.9419 62.2484 63.0862 62.1149 62.2675 61.8495C61.662 61.6392 61.0987 61.3231 60.6039 60.9159C60.2433 60.5467 59.9486 60.1186 59.7325 59.6502C59.5527 59.2721 59.4197 58.8736 59.3364 58.4635C59.2707 58.1515 59.2441 57.8326 59.2571 57.5141V53.3212H56.7221V53.3845Z" fill="#3B4A51"/>
<path d="M71.9325 51.4858C73.5947 50.4149 75.5279 49.8387 77.506 49.8247C79.4841 49.8107 81.4253 50.3594 83.1026 51.4067C83.8103 51.9361 84.3759 52.6321 84.7491 53.4327C85.1222 54.2332 85.2914 55.1135 85.2415 55.9951C85.2222 56.3683 85.1692 56.739 85.0831 57.1027H74.3091C74.3837 57.4576 74.546 57.7883 74.7812 58.0646C75.0164 58.3409 75.3171 58.5542 75.6558 58.6849C76.6561 59.1082 77.7399 59.2976 78.8247 59.2387C80.7512 59.2985 82.6609 58.8626 84.3701 57.9729L84.4493 61.2956C82.4595 62.0831 80.3305 62.4599 78.1909 62.4031C75.5766 62.4031 73.4377 61.8494 72.0117 60.7418C71.2891 60.2251 70.7076 59.536 70.3202 58.7372C69.9327 57.9385 69.7517 57.0557 69.7935 56.1692C69.7049 55.2695 69.856 54.3624 70.2317 53.5399C70.6073 52.7174 71.1941 52.0088 71.9325 51.4858ZM74.3883 55.1249H81.0428C80.9991 54.7908 80.8846 54.4699 80.7071 54.1835C80.5295 53.897 80.2929 53.6516 80.013 53.4635C79.3215 53.0423 78.5256 52.823 77.7156 52.8307C76.962 52.786 76.2135 52.9798 75.5766 53.3844C75.2718 53.5801 75.0095 53.835 74.8053 54.1341C74.6012 54.4331 74.4594 54.77 74.3883 55.1249Z" fill="#3B4A51"/>
<path d="M87.2221 50.1409H91.9753C92.1536 50.7303 92.2339 51.345 92.213 51.9604C92.8037 51.2413 93.557 50.6726 94.411 50.3012C95.2649 49.9298 96.1951 49.7664 97.1247 49.8244C97.8898 49.78 98.656 49.8902 99.3775 50.1485C100.099 50.4068 100.761 50.8078 101.323 51.3275C101.829 51.8349 102.223 52.4412 102.482 53.1084C102.741 53.7756 102.859 54.4891 102.829 55.204V62.0867H97.8376V55.5205C97.8459 55.2201 97.786 54.9218 97.6626 54.6478C97.5391 54.3738 97.3552 54.1313 97.1247 53.9382C96.6103 53.5205 95.9655 53.2965 95.3026 53.3053C94.6717 53.3048 94.0522 53.4733 93.5087 53.7934C92.9653 54.1134 92.5178 54.5733 92.213 55.1249V62.0867H87.2221V50.1409Z" fill="#3B4A51"/>
<path d="M104.334 53.3845V50.2201L109.721 45.5525H111.939V50.0618H116.375V53.3054H111.939V56.549C111.936 56.7989 111.983 57.047 112.078 57.2781C112.174 57.5092 112.315 57.7187 112.494 57.8939C112.711 58.1056 112.974 58.2654 113.262 58.3613C113.55 58.4572 113.856 58.4867 114.157 58.4477C114.946 58.4351 115.725 58.2741 116.455 57.973L116.851 61.3748C115.487 62.0045 113.994 62.3027 112.494 62.245C111.633 62.2484 110.777 62.1149 109.958 61.8495C109.352 61.6344 108.788 61.3129 108.295 60.9001C107.934 60.5309 107.639 60.1028 107.423 59.6343C107.244 59.2563 107.111 58.8578 107.027 58.4477C106.962 58.1357 106.935 57.8168 106.948 57.4983V53.3054H104.334V53.3845Z" fill="#3B4A51"/>
<path d="M118.514 57.7514C119.055 57.2626 119.766 57.0067 120.495 57.0394C121.221 57.0206 121.928 57.2747 122.475 57.7514C122.724 58.0146 122.915 58.326 123.038 58.6662C123.161 59.0065 123.212 59.3683 123.188 59.7292C123.207 60.0848 123.146 60.44 123.009 60.7687C122.872 61.0974 122.662 61.391 122.396 61.6279C121.856 62.1167 121.144 62.3726 120.416 62.3399C119.689 62.3587 118.983 62.1046 118.435 61.6279C118.193 61.3765 118.005 61.0784 117.883 60.7519C117.76 60.4255 117.705 60.0775 117.722 59.7292C117.711 59.3629 117.776 58.9984 117.912 58.6581C118.049 58.3179 118.254 58.0093 118.514 57.7514Z" fill="#3B4A51"/>
<path d="M130.873 45.3943V51.4859H139.904V45.3943H145.37V62.0077H139.904V55.7579H130.873V62.0077H125.406V45.3943H130.873Z" fill="#FF9100"/>
<path d="M148.064 50.1411H153.055V56.7074C153.046 57.0077 153.106 57.306 153.23 57.58C153.353 57.854 153.537 58.0966 153.768 58.2896C154.282 58.7073 154.927 58.9313 155.59 58.9225C156.231 58.924 156.862 58.7565 157.418 58.4371C157.975 58.1177 158.437 57.6575 158.758 57.1029V50.1411H163.749V62.0078H158.996C158.812 61.4197 158.731 60.804 158.758 60.1883C158.163 60.932 157.401 61.5266 156.535 61.9249C155.668 62.3231 154.721 62.5141 153.768 62.4825C153.015 62.5203 152.263 62.4066 151.555 62.1484C150.847 61.8902 150.199 61.4927 149.648 60.9794C149.132 60.4765 148.724 59.8728 148.452 59.2059C148.179 58.5389 148.047 57.8231 148.064 57.1029V50.1411Z" fill="#FF9100"/>
<path d="M171.196 44.7615V52.0397C171.841 51.2974 172.648 50.7119 173.554 50.328C174.46 49.9441 175.442 49.772 176.425 49.8246C177.294 49.7767 178.164 49.9064 178.981 50.2056C179.798 50.5049 180.546 50.9674 181.178 51.5651C181.788 52.1618 182.266 52.8802 182.58 53.6735C182.894 54.4668 183.037 55.3172 183 56.1694C183.027 57.0181 182.88 57.8633 182.566 58.6527C182.253 59.442 181.78 60.1586 181.178 60.7578C179.871 61.9091 178.165 62.5052 176.425 62.4192C174.127 62.4192 172.384 61.7072 171.196 60.204C171.135 60.8496 171.002 61.4865 170.8 62.1027H166.205V44.7615H171.196ZM172.543 58.3687C173.205 58.7896 173.976 59.0094 174.761 59.0015C175.649 59.0443 176.522 58.7631 177.217 58.2104C177.531 57.9697 177.787 57.6611 177.966 57.3076C178.144 56.9542 178.24 56.5651 178.247 56.1694C178.269 55.7667 178.186 55.3651 178.005 55.0044C177.825 54.6436 177.553 54.3362 177.217 54.1125C176.522 53.5598 175.649 53.2786 174.761 53.3213C173.971 53.2754 173.189 53.4985 172.543 53.9542C171.932 54.32 171.459 54.8759 171.196 55.5365V56.8814C171.513 57.4824 171.976 57.994 172.543 58.3687Z" fill="#FF9100"/>
<path d="M79.0703 87.4816L90.1612 78.7003C90.3846 78.5107 90.6452 78.3698 90.9262 78.2866C91.2073 78.2033 91.5027 78.1796 91.7934 78.2168C92.0842 78.254 92.364 78.3514 92.615 78.5028C92.8659 78.6541 93.0825 78.8561 93.2508 79.0958L102.044 90.1714C102.234 90.3946 102.375 90.6548 102.459 90.9354C102.542 91.2161 102.566 91.5111 102.528 91.8015C102.491 92.0918 102.394 92.3713 102.242 92.6218C102.09 92.8724 101.888 93.0887 101.648 93.2568L90.5573 102.038C90.3339 102.228 90.0733 102.369 89.7922 102.452C89.5112 102.535 89.2158 102.559 88.925 102.522C88.6342 102.484 88.3544 102.387 88.1035 102.236C87.8526 102.084 87.636 101.882 87.4677 101.643L78.6742 90.567C78.3289 90.101 78.1773 89.5198 78.2511 88.9448C78.3249 88.3698 78.6184 87.8456 79.0703 87.4816Z" fill="#F9F9F9"/>
<path d="M108.936 90.8834L116.542 84.8709C116.698 84.7461 116.877 84.6533 117.069 84.5977C117.261 84.5421 117.462 84.5248 117.66 84.5469C117.859 84.5689 118.051 84.6299 118.226 84.7262C118.402 84.8225 118.556 84.9523 118.681 85.1082L124.701 92.7029C124.826 92.8587 124.919 93.0376 124.975 93.2293C125.031 93.421 125.048 93.6218 125.026 93.8201C125.004 94.0185 124.943 94.2106 124.846 94.3854C124.75 94.5602 124.62 94.7143 124.464 94.839L116.859 100.851C116.703 100.976 116.523 101.069 116.331 101.125C116.14 101.18 115.938 101.197 115.74 101.175C115.541 101.153 115.349 101.092 115.174 100.996C114.999 100.9 114.844 100.77 114.72 100.614L108.699 93.0194C108.572 92.8645 108.477 92.6858 108.42 92.4938C108.363 92.3018 108.346 92.1004 108.368 91.9015C108.39 91.7025 108.452 91.5099 108.549 91.3351C108.647 91.1603 108.779 91.0067 108.936 90.8834Z" fill="#F9F9F9"/>
<path d="M3.83428 75.702C3.29414 75.7096 2.75716 75.6184 2.24987 75.433C1.83109 75.2978 1.4508 75.0646 1.14078 74.7526L1.2913 74.626C1.58394 74.9099 1.93554 75.126 2.32117 75.2589C2.78933 75.4357 3.28626 75.5242 3.78675 75.52C4.24395 75.5359 4.70024 75.4688 5.1335 75.3222C5.44484 75.2205 5.72 75.0309 5.92571 74.7764C6.09921 74.5498 6.18879 74.2703 6.17922 73.9852C6.19683 73.6978 6.10325 73.4146 5.91779 73.1941C5.72779 73.0074 5.49742 72.8666 5.24441 72.7827C4.93782 72.6662 4.62263 72.5736 4.30169 72.5059L3.27974 72.2764C2.97068 72.209 2.6684 72.1137 2.37662 71.9916C2.10746 71.8804 1.8705 71.7036 1.6874 71.4774C1.50473 71.231 1.41243 70.9293 1.42597 70.623C1.43267 70.3392 1.52367 70.0639 1.6874 69.8319C1.88848 69.5544 2.16272 69.338 2.47961 69.2069C2.93941 69.032 3.42974 68.9513 3.92143 68.9696C4.32334 68.9694 4.72331 69.0254 5.10974 69.1357C5.46385 69.2297 5.80077 69.3792 6.10792 69.5787L5.98909 69.729C5.68044 69.5271 5.34049 69.3774 4.98299 69.286C4.65132 69.1828 4.30798 69.1217 3.96104 69.1041C3.51626 69.0902 3.07284 69.16 2.65389 69.3098C2.34276 69.4119 2.06771 69.6014 1.86169 69.8556C1.6933 70.0844 1.60681 70.363 1.6161 70.6467C1.6001 70.9339 1.6935 71.2166 1.87753 71.4379C2.06721 71.6437 2.30356 71.801 2.56675 71.8967C2.87313 72.0138 3.18837 72.1064 3.50948 72.1736L4.53143 72.403C4.85411 72.4781 5.16957 72.5813 5.47415 72.7115C5.74134 72.8225 5.97777 72.9962 6.16337 73.2179C6.3467 73.4579 6.43929 73.7549 6.4248 74.0564C6.41724 74.3413 6.32332 74.6171 6.15545 74.8476C5.94042 75.1292 5.64898 75.3434 5.31571 75.4646C4.84201 75.639 4.33884 75.7196 3.83428 75.702Z" fill="black"/>
<path d="M8.71428 75.4882H13.4675V75.6702H8.4687V68.9536H13.3329V69.1356H8.71428V75.4882ZM8.65883 72.1655H12.8813V72.3475H8.63506L8.65883 72.1655Z" fill="black"/>
<path d="M18.704 75.702C18.1809 75.7076 17.6608 75.6219 17.1671 75.4488C16.7163 75.2915 16.2996 75.0498 15.9392 74.7368C15.6046 74.4357 15.3351 74.0696 15.147 73.6609C14.9549 73.2385 14.8554 72.7799 14.8554 72.316C14.8554 71.8521 14.9549 71.3935 15.147 70.9711C15.3353 70.5625 15.6048 70.1964 15.9392 69.8952C16.2997 69.5824 16.7164 69.3407 17.1671 69.1832C18.1635 68.8432 19.2446 68.8432 20.2409 69.1832C20.6916 69.3409 21.1083 69.5825 21.4688 69.8952C21.8033 70.1964 22.0728 70.5625 22.261 70.9711C22.4537 71.3934 22.5534 71.852 22.5534 72.316C22.5534 72.78 22.4537 73.2386 22.261 73.6609C22.073 74.0696 21.8034 74.4357 21.4688 74.7368C21.1085 75.0498 20.6918 75.2915 20.2409 75.4488C19.7472 75.6218 19.2272 75.7075 18.704 75.702ZM18.704 75.52C19.1948 75.5247 19.6826 75.4444 20.1458 75.2827C20.5739 75.132 20.9691 74.9011 21.3104 74.6023C21.6419 74.3201 21.9116 73.9727 22.1026 73.5818C22.2835 73.1829 22.3771 72.75 22.3771 72.312C22.3771 71.8741 22.2835 71.4412 22.1026 71.0423C21.9116 70.6514 21.6419 70.304 21.3104 70.0218C20.9691 69.723 20.5739 69.4921 20.1458 69.3414C19.2087 69.0208 18.1914 69.0208 17.2543 69.3414C16.8262 69.4919 16.4309 69.7229 16.0897 70.0218C15.7582 70.304 15.4886 70.6514 15.2975 71.0423C15.1166 71.4412 15.023 71.8741 15.023 72.312C15.023 72.75 15.1166 73.1829 15.2975 73.5818C15.4886 73.9727 15.7582 74.3201 16.0897 74.6023C16.4309 74.9012 16.8262 75.1322 17.2543 75.2827C17.7201 75.4453 18.2106 75.5256 18.704 75.52Z" fill="black"/>
<path d="M28.8522 75.7019C28.4388 75.7097 28.0277 75.6399 27.6401 75.4962C27.3328 75.3751 27.0605 75.1793 26.8479 74.9266C26.6475 74.6844 26.5407 74.3785 26.5469 74.0643C26.5479 73.8136 26.6163 73.5677 26.7449 73.3523C26.9139 73.0849 27.1316 72.8514 27.3866 72.664C27.7725 72.3657 28.1833 72.101 28.6145 71.8729C28.99 71.6673 29.3549 71.4428 29.7078 71.2005C29.9352 71.0594 30.134 70.8769 30.294 70.6625C30.4091 70.492 30.4698 70.2907 30.4683 70.085C30.4723 69.9444 30.4437 69.8048 30.3846 69.6772C30.3255 69.5495 30.2375 69.4373 30.1277 69.3493C29.8446 69.1473 29.5003 69.0495 29.1532 69.0724C28.7818 69.0503 28.4144 69.1596 28.1155 69.3809C27.9973 69.4759 27.9023 69.5965 27.8378 69.7335C27.7733 69.8706 27.7409 70.0206 27.7431 70.172C27.7436 70.3232 27.7704 70.4731 27.8223 70.6151C27.8884 70.7848 27.9821 70.9425 28.0996 71.0818C28.2787 71.2974 28.4691 71.5034 28.67 71.6989L32.6865 75.5991L32.5281 75.7257L28.4799 71.7701C28.2724 71.5678 28.0767 71.3538 27.8936 71.1293C27.7706 70.9837 27.6741 70.8177 27.6084 70.6388C27.5564 70.4832 27.5296 70.3203 27.5292 70.1562C27.5358 69.936 27.6044 69.7221 27.7273 69.5391C27.8715 69.3386 28.0691 69.1823 28.2977 69.0882C28.5707 68.973 28.8649 68.9164 29.1612 68.9221C29.4321 68.9164 29.7014 68.9648 29.9534 69.0645C30.166 69.1481 30.3502 69.2909 30.4842 69.4759C30.6131 69.6644 30.6795 69.8885 30.6743 70.1167C30.6765 70.3348 30.6161 70.5489 30.5 70.7337C30.3385 70.9654 30.1341 71.1641 29.8979 71.3192C29.5212 71.5765 29.1297 71.8116 28.7255 72.0232C28.3074 72.2402 27.9051 72.4861 27.5213 72.759C27.2783 72.9247 27.0709 73.1372 26.9113 73.384C26.7962 73.5836 26.7361 73.8102 26.737 74.0406C26.7292 74.328 26.8248 74.6086 27.0064 74.8317C27.205 75.0708 27.4652 75.2514 27.759 75.3538C28.1145 75.4814 28.4903 75.543 28.868 75.5358C29.3585 75.5462 29.8453 75.449 30.294 75.251C30.7071 75.051 31.0597 74.7453 31.316 74.3649C31.6177 73.9154 31.8252 73.4094 31.926 72.8776H32.1082C32.0041 73.4444 31.7829 73.9833 31.4586 74.4599C31.1794 74.8558 30.7992 75.17 30.3574 75.3697C29.8854 75.587 29.372 75.7004 28.8522 75.7019Z" fill="black"/>
<path d="M39.959 75.7019C39.4358 75.7075 38.9157 75.6218 38.4221 75.4487C37.9712 75.2914 37.5545 75.0497 37.1942 74.7367C36.8596 74.4356 36.59 74.0695 36.4019 73.6608C36.2098 73.2384 36.1104 72.7798 36.1104 72.3159C36.1104 71.852 36.2098 71.3934 36.4019 70.971C36.5902 70.5624 36.8597 70.1963 37.1942 69.8951C37.5546 69.5822 37.9713 69.3406 38.4221 69.1831C38.9158 69.0103 39.4358 68.9246 39.959 68.9299C40.4372 68.9282 40.9129 69.0002 41.3691 69.1435C41.796 69.2722 42.1904 69.4907 42.5257 69.7843L42.399 69.9188C42.0696 69.6332 41.6836 69.4202 41.2661 69.2938C40.8415 69.1704 40.4012 69.1091 39.959 69.1119C39.465 69.1073 38.9741 69.1904 38.5092 69.3571C38.0819 69.5092 37.6868 69.74 37.3447 70.0375C37.0132 70.3197 36.7435 70.6671 36.5525 71.058C36.3714 71.4541 36.2776 71.8844 36.2776 72.3199C36.2776 72.7553 36.3714 73.1856 36.5525 73.5817C36.7423 73.9734 37.0122 74.321 37.3447 74.6022C37.6868 74.8997 38.0819 75.1305 38.5092 75.2826C38.974 75.4497 39.465 75.5327 39.959 75.5278C40.4017 75.5296 40.8422 75.4656 41.2661 75.338C41.6828 75.2097 42.0684 74.9969 42.399 74.713L42.5257 74.8475C42.1903 75.1428 41.7961 75.3639 41.3691 75.4962C40.9127 75.6378 40.4369 75.7072 39.959 75.7019Z" fill="black"/>
<path d="M46.1382 75.7019C45.6564 75.7095 45.1801 75.5981 44.7518 75.3775C44.3546 75.1724 44.0206 74.8634 43.7853 74.4836C43.5437 74.0945 43.4199 73.6439 43.4288 73.1862C43.4199 72.7284 43.5437 72.2778 43.7853 71.8887C44.0226 71.5126 44.3563 71.2067 44.7518 71.0027C45.1802 70.7824 45.6564 70.671 46.1382 70.6783C46.6225 70.671 47.1012 70.7824 47.5325 71.0027C47.9294 71.2047 48.2635 71.5111 48.499 71.8887C48.7378 72.2787 48.8589 72.7292 48.8475 73.1862C48.8604 73.6386 48.7435 74.0853 48.5105 74.4736C48.2774 74.8619 47.9381 75.1755 47.5325 75.3775C47.1015 75.5985 46.6226 75.7099 46.1382 75.7019ZM46.1382 75.5199C46.5816 75.5258 47.0196 75.4225 47.4136 75.2193C47.9626 74.9115 48.3669 74.3988 48.5377 73.7936C48.7086 73.1885 48.6319 72.5404 48.3247 71.9916C48.1066 71.6521 47.7998 71.3786 47.4374 71.2005C47.0423 71.0012 46.6046 70.9007 46.1619 70.9077C45.7192 70.8994 45.2812 71 44.8865 71.2005C44.5255 71.3805 44.2191 71.6537 43.9992 71.9916C43.7817 72.3579 43.6669 72.776 43.6669 73.202C43.6669 73.6279 43.7817 74.046 43.9992 74.4124C44.2203 74.7493 44.5263 75.0221 44.8865 75.2035C45.2715 75.4097 45.7013 75.5183 46.1382 75.5199Z" fill="black"/>
<path d="M53.2284 70.6783C53.6373 70.6682 54.0433 70.7493 54.4168 70.9157C54.7462 71.0608 55.0229 71.304 55.209 71.6119C55.3992 71.9714 55.4843 72.3771 55.4545 72.7827V75.7098H55.2406V72.7827C55.2583 72.5249 55.22 72.2664 55.1284 72.0247C55.0368 71.783 54.894 71.564 54.7099 71.3824C54.2955 71.0392 53.7658 70.8666 53.2284 70.8999C52.794 70.8882 52.3628 70.9776 51.9688 71.1609C51.639 71.3244 51.3638 71.58 51.1766 71.8967C50.9853 72.2339 50.8894 72.6167 50.8993 73.0042V75.7019H50.7013V70.71H50.9152V72.1182C51.0777 71.6898 51.3788 71.3278 51.7708 71.0897C52.2093 70.8209 52.7138 70.6785 53.2284 70.6783Z" fill="black"/>
<path d="M56.8884 70.8919V70.7099H60.0573V70.8919H56.8884ZM59.3126 75.7018C59.1312 75.7155 58.949 75.6931 58.7763 75.6361C58.6036 75.5791 58.444 75.4885 58.3065 75.3696C58.1895 75.2545 58.098 75.1161 58.038 74.9635C57.9779 74.8109 57.9507 74.6473 57.9579 74.4835V69.6182H58.1718V74.4281C58.1639 74.573 58.1858 74.718 58.2362 74.8541C58.2866 74.9901 58.3645 75.1144 58.4649 75.2193C58.7028 75.4199 59.01 75.5194 59.3205 75.4961C59.6566 75.5083 59.9858 75.3987 60.2474 75.1876L60.3979 75.3221C60.258 75.4496 60.0896 75.5418 59.9068 75.5911C59.715 75.6561 59.5149 75.6934 59.3126 75.7018Z" fill="black"/>
<path d="M63.9708 75.702C63.4736 75.7107 62.9818 75.5994 62.5369 75.3777C62.1314 75.1753 61.789 74.8662 61.5466 74.4837C61.3022 74.0955 61.1756 73.6448 61.1822 73.1863C61.1725 72.7316 61.2875 72.2829 61.5149 71.8888C61.7345 71.5153 62.0523 71.2089 62.4339 71.0028C62.84 70.7839 63.2954 70.6723 63.7569 70.6784C64.2167 70.6701 64.6713 70.7762 65.0799 70.987C65.4623 71.1875 65.7827 71.4884 66.0068 71.8572C66.2385 72.2411 66.3566 72.6827 66.3474 73.1309V73.1784H61.309V72.9964H66.2365L66.1493 73.1388C66.1525 72.7355 66.0457 72.339 65.8404 71.9917C65.6229 71.6546 65.3194 71.3815 64.961 71.2006C64.5922 71.0161 64.1853 70.9201 63.7727 70.9201C63.3602 70.9201 62.9533 71.0161 62.5844 71.2006C62.2361 71.3839 61.9434 71.6571 61.7368 71.9917C61.5288 72.3465 61.4219 72.7514 61.4278 73.1625C61.4115 73.5838 61.5159 74.001 61.7288 74.365C61.9589 74.7059 62.2762 74.9791 62.6478 75.1561C63.0607 75.3618 63.5173 75.465 63.9787 75.4568C64.3413 75.4594 64.7012 75.395 65.0403 75.2669C65.3641 75.1474 65.6528 74.9489 65.88 74.6894L66.0305 74.8239C65.782 75.0954 65.4724 75.3042 65.1274 75.433C64.7623 75.5947 64.3698 75.686 63.9708 75.702Z" fill="black"/>
<path d="M70.7362 70.6783C71.1451 70.6682 71.5511 70.7493 71.9246 70.9157C72.254 71.0608 72.5307 71.304 72.7168 71.6119C72.9097 71.9706 72.9976 72.3764 72.9703 72.7827V75.7098H72.7564V72.7827C72.774 72.5249 72.7357 72.2664 72.6441 72.0247C72.5525 71.783 72.4097 71.564 72.2256 71.3824C71.8113 71.0392 71.2815 70.8666 70.7442 70.8999C70.3097 70.8882 69.8785 70.9776 69.4846 71.1609C69.1547 71.3244 68.8795 71.58 68.6923 71.8967C68.501 72.2339 68.4052 72.6167 68.4151 73.0042V75.7019H68.2012V70.71H68.4151V72.1182C68.5776 71.6898 68.8787 71.3278 69.2707 71.0897C69.7115 70.8195 70.219 70.6771 70.7362 70.6783Z" fill="black"/>
<path d="M74.3962 70.8919V70.7099H77.5651V70.8919H74.3962ZM76.8442 75.7018C76.6628 75.7155 76.4805 75.6931 76.3079 75.6361C76.1352 75.5791 75.9755 75.4885 75.8381 75.3696C75.7211 75.2545 75.6296 75.1161 75.5695 74.9635C75.5095 74.8109 75.4822 74.6473 75.4895 74.4835V69.6182H75.7034V74.4281C75.6954 74.573 75.7173 74.718 75.7677 74.8541C75.8182 74.9901 75.896 75.1144 75.9965 75.2193C76.2343 75.4199 76.5416 75.5194 76.8521 75.4961C77.1882 75.5083 77.5174 75.3987 77.779 75.1876L77.9295 75.3221C77.7896 75.4496 77.6212 75.5418 77.4383 75.5911C77.2466 75.6561 77.0465 75.6934 76.8442 75.7018Z" fill="black"/>
<path d="M82.4688 75.6702V68.9536H82.6511L86.2477 74.5389H86.1526L89.7334 68.9536H89.9156V75.6702H89.7017V69.2305H89.7888L86.2635 74.7208H86.1368L82.5956 69.2305H82.6907V75.6702H82.4688Z" fill="black"/>
<path d="M94.0271 75.7019C93.6629 75.7106 93.3003 75.6515 92.9577 75.5278C92.6906 75.4325 92.4568 75.2622 92.2843 75.0373C92.1306 74.8261 92.05 74.5706 92.0545 74.3095C92.0539 74.077 92.1198 73.8492 92.2447 73.6529C92.3959 73.4304 92.6114 73.2593 92.8626 73.1624C93.237 73.0224 93.6355 72.9579 94.0351 72.9725H96.2691V73.1545H94.0271C93.5523 73.1134 93.077 73.2272 92.6725 73.4788C92.5489 73.571 92.4482 73.6902 92.3782 73.8274C92.3081 73.9646 92.2706 74.116 92.2684 74.27C92.265 74.4451 92.3061 74.6182 92.3878 74.7731C92.4696 74.9281 92.5893 75.0598 92.7358 75.156C93.1215 75.3974 93.5727 75.5134 94.0271 75.4883C94.4934 75.506 94.955 75.3908 95.3581 75.156C95.7099 74.9312 95.9859 74.6059 96.1503 74.2225L96.2612 74.3491C96.1089 74.746 95.8306 75.0822 95.469 75.3063C95.0372 75.5755 94.5361 75.713 94.0271 75.7019ZM96.1503 75.7019V72.4583C96.1661 72.242 96.1338 72.0248 96.0557 71.8224C95.9776 71.62 95.8557 71.4373 95.6987 71.2875C95.3229 71.0006 94.8555 70.86 94.3836 70.8919C93.9951 70.8872 93.6088 70.9515 93.2429 71.0818C92.9206 71.1958 92.6205 71.3644 92.3556 71.5802L92.2051 71.4457C92.4946 71.2089 92.8247 71.0266 93.1795 70.9077C93.564 70.7742 93.9686 70.7073 94.3757 70.7099C94.9068 70.6747 95.4329 70.832 95.8571 71.153C96.0366 71.3155 96.1763 71.517 96.2656 71.7419C96.3549 71.9669 96.3913 72.2092 96.3721 72.4504V75.7019H96.1503Z" fill="black"/>
<path d="M98.7804 75.6704V70.7101H99.026V72.0866C99.1642 71.6674 99.4443 71.3093 99.8182 71.074C100.246 70.819 100.738 70.6927 101.236 70.7101V70.8999H101.173C100.884 70.8801 100.593 70.9204 100.321 71.0185C100.048 71.1165 99.7986 71.2701 99.5884 71.4695C99.3921 71.6814 99.2411 71.9309 99.1444 72.2029C99.0477 72.4749 99.0074 72.7637 99.026 73.0518V75.7178L98.7804 75.6704Z" fill="black"/>
<path d="M102.805 75.6703V68.5503H102.987V75.6703H102.805ZM102.947 74.1909V73.9615L106.948 70.71H107.265L104.841 72.6878L104.666 72.8065L102.947 74.1909ZM107.241 75.6703L104.627 72.7828L104.801 72.6641L107.518 75.6941L107.241 75.6703Z" fill="black"/>
<path d="M110.869 75.702C110.372 75.711 109.88 75.5997 109.436 75.3777C109.03 75.1753 108.688 74.8662 108.445 74.4837C108.201 74.0955 108.074 73.6448 108.081 73.1863C108.072 72.7316 108.187 72.283 108.414 71.8888C108.631 71.5163 108.946 71.21 109.325 71.0028C109.731 70.7839 110.186 70.6723 110.648 70.6784C111.107 70.6701 111.562 70.7762 111.971 70.987C112.353 71.1875 112.674 71.4884 112.898 71.8572C113.129 72.2411 113.247 72.6827 113.238 73.1309V73.1784H108.192V72.9964H113.119L113.032 73.1388C113.037 72.7267 112.928 72.3214 112.715 71.968C112.507 71.635 112.214 71.3623 111.868 71.1768C111.491 70.9819 111.072 70.8802 110.648 70.8802C110.223 70.8802 109.805 70.9819 109.428 71.1768C109.079 71.3601 108.787 71.6333 108.58 71.968C108.372 72.3228 108.265 72.7277 108.271 73.1388C108.263 73.5659 108.378 73.9862 108.604 74.3492C108.834 74.6899 109.151 74.963 109.523 75.1403C109.933 75.3448 110.387 75.4479 110.846 75.4409C111.208 75.4436 111.568 75.3792 111.907 75.2511C112.231 75.1319 112.52 74.9333 112.747 74.6736L112.898 74.8081C112.649 75.0798 112.34 75.2886 111.994 75.4172C111.64 75.5805 111.259 75.677 110.869 75.702Z" fill="black"/>
<path d="M114.078 70.8919V70.7099H117.247V70.8919H114.078ZM116.502 75.7018C116.321 75.7155 116.138 75.6931 115.966 75.6361C115.793 75.5791 115.633 75.4885 115.496 75.3696C115.379 75.2545 115.287 75.1161 115.227 74.9635C115.167 74.8109 115.14 74.6473 115.147 74.4835V69.6182H115.361V74.4281C115.354 74.573 115.376 74.7178 115.426 74.8538C115.477 74.9898 115.554 75.1142 115.654 75.2193C115.892 75.4199 116.199 75.5194 116.51 75.4961C116.846 75.5083 117.175 75.3987 117.437 75.1876L117.587 75.3221C117.448 75.4498 117.279 75.5421 117.096 75.5911C116.907 75.6554 116.71 75.6927 116.51 75.7018H116.502Z" fill="black"/>
<path d="M119.37 69.3413C119.296 69.3415 119.225 69.3132 119.172 69.2622C119.145 69.2414 119.124 69.215 119.109 69.1849C119.094 69.1548 119.086 69.1218 119.085 69.0882C119.085 69.0545 119.093 69.0212 119.108 68.9911C119.123 68.9609 119.145 68.9346 119.172 68.9141C119.227 68.8667 119.297 68.8413 119.37 68.8429C119.443 68.8406 119.513 68.866 119.568 68.9141C119.593 68.9357 119.613 68.9625 119.627 68.9925C119.64 69.0226 119.647 69.0552 119.647 69.0882C119.647 69.1212 119.64 69.1538 119.627 69.1838C119.613 69.2139 119.593 69.2406 119.568 69.2622C119.542 69.2878 119.511 69.308 119.477 69.3215C119.443 69.3351 119.406 69.3419 119.37 69.3413ZM119.259 75.6702V70.71H119.473V75.6702H119.259Z" fill="black"/>
<path d="M124.519 70.6783C124.928 70.6682 125.334 70.7493 125.708 70.9157C126.037 71.0608 126.314 71.304 126.5 71.6119C126.692 71.9708 126.78 72.3764 126.753 72.7827V75.7098H126.539V72.7827C126.557 72.5249 126.519 72.2664 126.427 72.0247C126.335 71.783 126.193 71.564 126.009 71.3824C125.594 71.0399 125.064 70.8674 124.527 70.8999C124.093 70.8882 123.661 70.9776 123.268 71.1609C122.938 71.3244 122.662 71.58 122.475 71.8967C122.284 72.234 122.189 72.6168 122.198 73.0042V75.7019H121.984V70.71H122.198V72.1182C122.361 71.6898 122.662 71.3278 123.054 71.0897C123.495 70.8195 124.002 70.6771 124.519 70.6783Z" fill="black"/>
<path d="M131.245 75.512C130.762 75.5202 130.285 75.4145 129.851 75.2034C129.455 75.0149 129.116 74.7257 128.868 74.3649C128.636 73.9894 128.512 73.5566 128.512 73.1149C128.512 72.6733 128.636 72.2404 128.868 71.8649C129.115 71.5005 129.454 71.2082 129.851 71.0184C130.285 70.8086 130.763 70.7029 131.245 70.7099C131.728 70.7017 132.205 70.8074 132.639 71.0184C133.03 71.2078 133.362 71.5006 133.598 71.8649C133.831 72.2404 133.954 72.6733 133.954 73.1149C133.954 73.5566 133.831 73.9894 133.598 74.3649C133.362 74.7332 133.031 75.0312 132.639 75.2272C132.204 75.4314 131.726 75.5291 131.245 75.512ZM131.245 75.33C131.695 75.3384 132.14 75.2408 132.544 75.0452C132.909 74.8676 133.219 74.5941 133.439 74.2541C133.662 73.9075 133.778 73.503 133.772 73.0912C133.78 72.6791 133.664 72.274 133.439 71.9282C133.217 71.5893 132.908 71.316 132.544 71.1371C132.137 70.9502 131.694 70.8535 131.245 70.8535C130.797 70.8535 130.353 70.9502 129.946 71.1371C129.579 71.3145 129.267 71.5879 129.043 71.9282C128.818 72.274 128.702 72.6791 128.71 73.0912C128.704 73.503 128.82 73.9075 129.043 74.2541C129.265 74.5955 129.578 74.8692 129.946 75.0452C130.351 75.2405 130.796 75.3381 131.245 75.33ZM131.404 77.5689C130.925 77.5718 130.448 77.497 129.993 77.3474C129.602 77.2269 129.242 77.0216 128.94 76.7461L129.09 76.6116C129.39 76.8688 129.737 77.0649 130.112 77.1891C130.529 77.325 130.965 77.3918 131.404 77.3869C132.039 77.4382 132.672 77.2584 133.186 76.8806C133.389 76.6729 133.546 76.4244 133.645 76.1516C133.745 75.8788 133.786 75.588 133.764 75.2984V73.7162L133.875 73.1386L133.764 72.5611V70.7099H133.978V75.2351C134.005 75.558 133.962 75.883 133.851 76.1876C133.741 76.4922 133.565 76.7691 133.336 76.9993C132.78 77.4019 132.096 77.5901 131.411 77.5293L131.404 77.5689Z" fill="black"/>
<path d="M139.365 75.6702V68.9537H141.924C142.464 68.9406 143.001 69.0292 143.508 69.2147C143.919 69.3733 144.274 69.6483 144.53 70.0058C144.762 70.3582 144.886 70.7707 144.886 71.1925C144.886 71.6143 144.762 72.0268 144.53 72.3792C144.275 72.7377 143.92 73.013 143.508 73.1703C143.001 73.3559 142.464 73.4444 141.924 73.4314H139.484L139.579 73.3443V75.7177L139.365 75.6702ZM139.579 73.2969L139.484 73.2178H141.948C142.663 73.2657 143.375 73.0796 143.976 72.6877C144.195 72.5051 144.372 72.2765 144.493 72.0181C144.614 71.7597 144.677 71.4778 144.677 71.1925C144.677 70.9072 144.614 70.6253 144.493 70.3669C144.372 70.1086 144.195 69.8799 143.976 69.6973C143.375 69.3065 142.663 69.1205 141.948 69.1673H139.484L139.579 69.0881V73.2969Z" fill="black"/>
<path d="M146.828 75.6703V68.5503H147.042V75.6703H146.828Z" fill="black"/>
<path d="M150.963 75.7019C150.599 75.7106 150.236 75.6515 149.894 75.5278C149.627 75.4325 149.393 75.2622 149.22 75.0373C149.067 74.8261 148.986 74.5706 148.991 74.3095C148.99 74.077 149.056 73.8492 149.181 73.6529C149.332 73.4304 149.547 73.2593 149.799 73.1624C150.173 73.0222 150.571 72.9576 150.971 72.9725H153.205V73.1545H150.963C150.488 73.1134 150.013 73.2272 149.608 73.4788C149.485 73.571 149.384 73.6902 149.314 73.8274C149.244 73.9646 149.207 74.116 149.204 74.27C149.201 74.4451 149.242 74.6182 149.324 74.7731C149.406 74.9281 149.525 75.0598 149.672 75.156C150.058 75.3974 150.509 75.5134 150.963 75.4883C151.429 75.506 151.891 75.3908 152.294 75.156C152.646 74.9315 152.922 74.6062 153.086 74.2225L153.197 74.3491C153.045 74.746 152.767 75.0822 152.405 75.3063C151.973 75.576 151.472 75.7135 150.963 75.7019ZM153.086 75.7019V72.4583C153.102 72.242 153.07 72.0248 152.992 71.8224C152.914 71.62 152.792 71.4373 152.635 71.2875C152.259 71.0013 151.791 70.8608 151.32 70.8919C150.931 70.887 150.545 70.9513 150.179 71.0818C149.857 71.1957 149.556 71.3643 149.292 71.5802L149.141 71.4457C149.431 71.2089 149.761 71.0266 150.115 70.9077C150.5 70.7742 150.905 70.7073 151.312 70.7099C151.843 70.6747 152.369 70.832 152.793 71.153C152.973 71.3155 153.112 71.517 153.202 71.7419C153.291 71.9669 153.327 72.2092 153.308 72.4504V75.7019H153.086Z" fill="black"/>
<path d="M154.726 70.8919V70.7099H157.895V70.8919H154.726ZM157.15 75.7018C156.969 75.7155 156.787 75.6931 156.614 75.6361C156.441 75.5791 156.282 75.4885 156.144 75.3696C156.027 75.2545 155.936 75.1161 155.876 74.9635C155.816 74.8109 155.788 74.6473 155.796 74.4835V69.6182H156.009V74.4281C156.002 74.573 156.024 74.7178 156.075 74.8538C156.125 74.9898 156.203 75.1142 156.303 75.2193C156.54 75.4199 156.848 75.5194 157.158 75.4961C157.494 75.5083 157.823 75.3987 158.085 75.1876L158.236 75.3221C158.096 75.4498 157.927 75.5421 157.744 75.5911C157.555 75.6554 157.358 75.6927 157.158 75.7018H157.15Z" fill="black"/>
<path d="M158.917 70.8919V70.71H162.086V70.8919H158.917ZM159.994 75.6386V69.7053C159.988 69.5427 160.015 69.3805 160.075 69.2293C160.135 69.078 160.226 68.941 160.343 68.8271C160.619 68.5897 160.978 68.4703 161.341 68.4949C161.545 68.4952 161.748 68.5245 161.943 68.5819C162.126 68.6312 162.294 68.7234 162.434 68.8509L162.284 68.9853C162.164 68.8808 162.024 68.8027 161.872 68.7559C161.705 68.7032 161.532 68.6765 161.357 68.6768C161.046 68.6536 160.739 68.753 160.501 68.9537C160.401 69.0585 160.323 69.1828 160.273 69.3189C160.222 69.455 160.2 69.5999 160.208 69.7448V75.6307L159.994 75.6386Z" fill="black"/>
<path d="M165.207 75.7019C164.725 75.7099 164.249 75.5985 163.821 75.3776C163.423 75.1724 163.089 74.8634 162.854 74.4836C162.615 74.0936 162.491 73.6437 162.498 73.1862C162.489 72.7284 162.612 72.2778 162.854 71.8888C163.091 71.5126 163.425 71.2067 163.821 71.0027C164.249 70.7821 164.725 70.6707 165.207 70.6783C165.691 70.671 166.17 70.7824 166.601 71.0027C166.998 71.2047 167.332 71.5111 167.568 71.8888C167.807 72.2787 167.928 72.7292 167.916 73.1862C167.929 73.6387 167.812 74.0854 167.579 74.4736C167.346 74.8619 167.007 75.1756 166.601 75.3776C166.17 75.5982 165.691 75.7096 165.207 75.7019ZM165.207 75.52C165.65 75.5255 166.088 75.4223 166.482 75.2193C167.027 74.9076 167.427 74.3931 167.593 73.7883C167.759 73.1835 167.679 72.5375 167.37 71.9916C167.152 71.6521 166.845 71.3786 166.482 71.2005C166.087 71.0015 165.65 70.9011 165.207 70.9078C164.764 70.8995 164.326 71 163.932 71.2005C163.571 71.3809 163.264 71.6539 163.044 71.9916C162.827 72.358 162.712 72.7761 162.712 73.202C162.712 73.6279 162.827 74.046 163.044 74.4124C163.266 74.7491 163.572 75.0219 163.932 75.2035C164.324 75.4135 164.762 75.5223 165.207 75.52Z" fill="black"/>
<path d="M169.738 75.6704V70.7101H169.952V72.0866C170.091 71.6674 170.371 71.3093 170.745 71.074C171.172 70.819 171.665 70.6927 172.163 70.7101V70.8999H172.099C171.81 70.8801 171.52 70.9204 171.247 71.0185C170.974 71.1165 170.725 71.2701 170.515 71.4695C170.319 71.6817 170.168 71.9312 170.071 72.2032C169.975 72.4751 169.934 72.7638 169.952 73.0518V75.7178L169.738 75.6704Z" fill="black"/>
<path d="M180.695 70.6784C181.093 70.6686 181.489 70.7498 181.851 70.9157C182.168 71.0641 182.431 71.3074 182.604 71.6119C182.789 71.9596 182.879 72.3497 182.865 72.7432V75.6703H182.651V72.7827C182.669 72.5263 182.632 72.269 182.544 72.0277C182.455 71.7865 182.316 71.5666 182.136 71.3825C181.742 71.0434 181.23 70.8704 180.711 70.8999C180.286 70.8873 179.865 70.9768 179.483 71.1609C179.152 71.3236 178.877 71.5794 178.69 71.8967C178.501 72.2346 178.405 72.617 178.413 73.0042V75.7019H178.199V72.7827C178.217 72.5263 178.18 72.269 178.091 72.0277C178.003 71.7865 177.864 71.5666 177.684 71.3825C177.289 71.0434 176.778 70.8704 176.258 70.8999C175.834 70.8873 175.413 70.9768 175.03 71.1609C174.7 71.324 174.425 71.5797 174.238 71.8967C174.049 72.2346 173.953 72.617 173.961 73.0042V75.7019H173.747V70.71H173.961V72.1103C174.106 71.6926 174.384 71.3341 174.753 71.0897C175.195 70.8246 175.704 70.6927 176.219 70.71C176.723 70.6889 177.221 70.8243 177.645 71.0977C177.833 71.2329 177.992 71.405 178.112 71.6036C178.232 71.8022 178.31 72.023 178.342 72.2527C178.472 71.8041 178.751 71.4134 179.134 71.1451C179.591 70.8275 180.138 70.664 180.695 70.6784Z" fill="black"/>
</svg>
