<svg width="40" height="40" viewBox="0 0 40 40" fill="none" xmlns="http://www.w3.org/2000/svg">
<path d="M37.5 20C37.5 24.625 36.75 28.375 35.75 28.375C34.75 28.375 34 24.625 34 20C34 15.375 34.75 11.625 35.75 11.625C36.75 11.625 37.5 15.375 37.5 20ZM33.125 20C33.125 25.125 30.875 29.375 28.25 29.375C25.625 29.375 23.375 25.125 23.375 20C23.375 14.875 25.625 10.625 28.25 10.625C30.875 10.625 33.125 14.875 33.125 20ZM22.25 20C22.25 25.5 17.875 30 12.375 30C6.875 30 2.5 25.5 2.5 20C2.5 14.5 6.875 10 12.375 10C17.875 10 22.25 14.5 22.25 20Z" fill="#FBFAF6" fill-opacity="0.6"/>
</svg>
