<svg width="40" height="40" viewBox="0 0 40 40" fill="none" xmlns="http://www.w3.org/2000/svg">
<path d="M20.0002 3.40002C10.8335 3.40002 3.3335 10.8834 3.3335 20.1C3.3335 28.4334 9.43349 35.35 17.4002 36.6V24.9334H13.1668V20.1H17.4002V16.4167C17.4002 12.2334 19.8835 9.93336 23.7002 9.93336C25.5168 9.93336 27.4168 10.25 27.4168 10.25V14.3667H25.3168C23.2502 14.3667 22.6002 15.65 22.6002 16.9667V20.1H27.2335L26.4835 24.9334H22.6002V36.6C26.5276 35.9798 30.1038 33.9759 32.6834 30.9501C35.2629 27.9244 36.6757 24.0761 36.6668 20.1C36.6668 10.8834 29.1668 3.40002 20.0002 3.40002Z" fill="#FBFAF6" fill-opacity="0.6"/>
</svg>
