<svg width="157" height="44" viewBox="0 0 157 44" fill="none" xmlns="http://www.w3.org/2000/svg">
<path d="M15.9933 35.8728C14.5069 35.8728 13.257 35.6281 12.2436 35.1386C11.2302 34.6491 10.4194 33.9571 9.81139 33.0625C9.20334 32.1511 8.77264 31.0961 8.51928 29.8977H6.51777L8.36727 24.6822C8.40105 25.7118 8.60373 26.5811 8.97532 27.29C9.34691 27.9989 9.87896 28.5474 10.5715 28.9356C11.264 29.307 12.0747 29.4926 13.0037 29.4926C14.4225 29.4926 15.495 29.0791 16.2213 28.2521C16.9476 27.4081 17.3107 26.1507 17.3107 24.4797V20.9604C17.3107 19.3063 16.9476 18.0657 16.2213 17.2387C15.5119 16.4116 14.4478 15.9981 13.029 15.9981C12.2352 15.9981 11.5089 16.15 10.8502 16.4538C10.2083 16.7576 9.65938 17.1627 9.20334 17.6691C8.76419 18.1586 8.44327 18.724 8.24059 19.3654L6.49244 15.7955H8.62062C8.87398 14.6815 9.28779 13.6772 9.86207 12.7827C10.4363 11.8712 11.2386 11.1539 12.2689 10.6306C13.3161 10.0905 14.642 9.82044 16.2466 9.82044C19.1518 9.82044 21.3475 10.7741 22.8339 12.6814C24.3371 14.5718 25.0887 17.4159 25.0887 21.2136V24.2518C25.0887 28.0833 24.3371 30.978 22.8339 32.9359C21.3306 34.8939 19.0504 35.8728 15.9933 35.8728ZM0.766602 35.2905V1.84521H8.46861V9.28875L8.34193 17.264L8.36727 17.9476V27.4925L8.24059 28.9863L8.46861 35.2905H0.766602Z" fill="#FE6150"/>
<path d="M42.0965 35.2905L42.3245 29.0622L42.1472 28.6825V20.9098L42.0965 19.8971C42.0965 18.513 41.6911 17.4918 40.8804 16.8336C40.0696 16.1753 38.71 15.8462 36.8014 15.8462C35.1292 15.8462 33.5415 16.0571 32.0383 16.4791C30.535 16.9011 29.1162 17.3821 27.7819 17.9222L28.4406 11.9218C29.2345 11.5505 30.1212 11.2045 31.1009 10.8838C32.0974 10.5462 33.1953 10.2762 34.3945 10.0736C35.5937 9.87107 36.8774 9.7698 38.2455 9.7698C40.4243 9.7698 42.2485 10.023 43.718 10.5293C45.1874 11.0357 46.3613 11.7531 47.2396 12.6814C48.1179 13.6097 48.7513 14.7237 49.1398 16.0234C49.5283 17.3062 49.7225 18.724 49.7225 20.2768V35.2905H42.0965ZM34.1665 35.8728C31.6836 35.8728 29.8003 35.2483 28.5166 33.9993C27.233 32.7503 26.5911 30.9695 26.5911 28.6571V27.9736C26.5911 25.5261 27.3428 23.7201 28.846 22.5555C30.3661 21.374 32.773 20.5722 36.0666 20.1502L42.7552 19.2641L43.2113 23.9227L37.2827 24.7835C36.0835 24.9354 35.239 25.2139 34.7492 25.619C34.2594 26.0241 34.0145 26.6233 34.0145 27.4166V27.5938C34.0145 28.3533 34.2594 28.961 34.7492 29.4167C35.239 29.8555 36.0244 30.075 37.1054 30.075C38.0513 30.075 38.862 29.9315 39.5376 29.6446C40.2301 29.3576 40.7959 28.9863 41.2351 28.5306C41.6742 28.058 42.0036 27.5347 42.2232 26.9608L43.3126 30.1003H42.0458C41.7756 31.1805 41.3533 32.1595 40.779 33.0372C40.2217 33.9149 39.4109 34.6069 38.3468 35.1133C37.2827 35.6196 35.8893 35.8728 34.1665 35.8728Z" fill="#FE6150"/>
<path d="M68.5711 35.2905L61.2238 24.5556H59.197V19.9983H61.2238L68.3685 10.4028H77.2612L67.7857 22.758V21.2896L77.6159 35.2905H68.5711ZM52.7111 35.2905V1.84521H60.4131V35.2905H52.7111Z" fill="#FE6150"/>
<path d="M95.5192 35.2905L88.1719 24.5556H86.1451V19.9983H88.1719L95.3166 10.4028H104.209L94.7338 22.758V21.2896L104.564 35.2905H95.5192ZM79.6592 35.2905V1.84521H87.3612V35.2905H79.6592Z" fill="#FE6150"/>
<path d="M115.381 35.8981C113.405 35.8981 111.623 35.7209 110.035 35.3665C108.447 35.0289 107.088 34.6322 105.956 34.1765L105.297 27.6697C106.598 28.2099 108.034 28.6993 109.604 29.1382C111.192 29.5602 112.906 29.7711 114.747 29.7711C116.217 29.7711 117.256 29.6192 117.864 29.3154C118.489 28.9947 118.801 28.5052 118.801 27.847V27.7457C118.801 27.29 118.641 26.9186 118.32 26.6317C118.016 26.3279 117.475 26.0578 116.698 25.8215C115.938 25.5852 114.866 25.3067 113.481 24.986C111.403 24.4965 109.756 23.9227 108.54 23.2644C107.324 22.5892 106.454 21.7706 105.931 20.8085C105.424 19.8295 105.171 18.6734 105.171 17.3399V17.1374C105.171 14.6731 106.049 12.8333 107.806 11.618C109.562 10.3859 112.146 9.7698 115.558 9.7698C117.484 9.7698 119.215 9.94703 120.752 10.3015C122.289 10.6559 123.581 11.0779 124.628 11.5674L125.287 17.6184C124.071 17.0783 122.711 16.631 121.208 16.2766C119.722 15.9221 118.159 15.7449 116.521 15.7449C115.524 15.7449 114.739 15.8124 114.165 15.9474C113.607 16.0825 113.21 16.2766 112.974 16.5297C112.754 16.7829 112.645 17.0952 112.645 17.4665V17.5425C112.645 17.9476 112.78 18.2936 113.05 18.5805C113.32 18.8675 113.81 19.1375 114.519 19.3907C115.246 19.6439 116.285 19.9308 117.636 20.2515C119.73 20.7072 121.419 21.2305 122.703 21.8212C123.987 22.3951 124.924 23.1462 125.515 24.0746C126.106 24.986 126.402 26.2013 126.402 27.7204V27.9482C126.402 30.632 125.498 32.6321 123.691 33.9486C121.884 35.2483 119.114 35.8981 115.381 35.8981Z" fill="#FE6150"/>
<path d="M143.049 29.0876L138.894 30.8851L144.493 10.4028H152.423L142.263 44H134.511L138.387 31.3409L142.035 34.2271H133.447L126.707 10.4028H134.688L138.995 29.0876H143.049Z" fill="#FE6150"/>
<path d="M156.233 0L153.623 8.47775H145.792L156.233 0Z" fill="#1F938A"/>
</svg>
