<svg width="106" height="30" viewBox="0 0 106 30" fill="none" xmlns="http://www.w3.org/2000/svg">
<path d="M10.3818 24.4587C9.3684 24.4587 8.5162 24.2918 7.82523 23.9581C7.13426 23.6244 6.58149 23.1525 6.1669 22.5426C5.75232 21.9211 5.45866 21.2019 5.28592 20.3848H3.92125L5.18227 16.8287C5.2053 17.5307 5.3435 18.1234 5.59685 18.6068C5.85021 19.0901 6.21297 19.4641 6.68513 19.7288C7.15729 19.982 7.71007 20.1086 8.34346 20.1086C9.31082 20.1086 10.0421 19.8266 10.5373 19.2627C11.0325 18.6873 11.2801 17.8299 11.2801 16.6906V14.2912C11.2801 13.1633 11.0325 12.3175 10.5373 11.7536C10.0536 11.1897 9.32809 10.9077 8.36073 10.9077C7.81947 10.9077 7.32428 11.0113 6.87515 11.2185C6.43753 11.4256 6.06326 11.7018 5.75232 12.047C5.4529 12.3808 5.2341 12.7663 5.0959 13.2036L3.90398 10.7696H5.35502C5.52776 10.0101 5.8099 9.32535 6.20145 8.71541C6.593 8.09396 7.14002 7.60486 7.84251 7.2481C8.55651 6.87984 9.46053 6.69571 10.5546 6.69571C12.5353 6.69571 14.0324 7.34592 15.0459 8.64636C16.0708 9.93528 16.5833 11.8744 16.5833 14.4638V16.5353C16.5833 19.1476 16.0708 21.1213 15.0459 22.4563C14.0209 23.7912 12.4662 24.4587 10.3818 24.4587ZM0 24.0617V1.25806H5.25137V6.3332L5.165 11.7708L5.18227 12.2369V18.7449L5.0959 19.7633L5.25137 24.0617H0Z" fill="#FBFAF6"/>
<path d="M28.1795 24.0617L28.3349 19.8151L28.214 19.5562V14.2566L28.1795 13.5661C28.1795 12.6225 27.9031 11.9262 27.3503 11.4774C26.7975 11.0286 25.8705 10.8042 24.5692 10.8042C23.4291 10.8042 22.3465 10.948 21.3216 11.2357C20.2967 11.5234 19.3293 11.8514 18.4195 12.2197L18.8687 8.12849C19.4099 7.8753 20.0145 7.63939 20.6825 7.42073C21.3619 7.19056 22.1105 7.00643 22.9281 6.86833C23.7458 6.73023 24.621 6.66118 25.5538 6.66118C27.0394 6.66118 28.2831 6.83381 29.285 7.17905C30.2869 7.5243 31.0873 8.0134 31.6861 8.64636C32.285 9.27931 32.7168 10.0389 32.9817 10.925C33.2466 11.7996 33.379 12.7663 33.379 13.8251V24.0617H28.1795ZM22.7726 24.4587C21.0798 24.4587 19.7957 24.0329 18.9205 23.1813C18.0453 22.3297 17.6076 21.1156 17.6076 19.5389V19.0728C17.6076 17.4041 18.1201 16.1728 19.145 15.3787C20.1815 14.5731 21.8226 14.0265 24.0682 13.7388L28.6286 13.1346L28.9395 16.3109L24.8974 16.8978C24.0797 17.0014 23.5039 17.1912 23.1699 17.4674C22.836 17.7436 22.669 18.1522 22.669 18.6931V18.8139C22.669 19.3318 22.836 19.7461 23.1699 20.0568C23.5039 20.356 24.0394 20.5056 24.7764 20.5056C25.4214 20.5056 25.9741 20.4078 26.4348 20.2122C26.9069 20.0165 27.2927 19.7633 27.5921 19.4526C27.8916 19.1304 28.1161 18.7736 28.2658 18.3823L29.0086 20.5229H28.1449C27.9607 21.2594 27.6728 21.9269 27.2812 22.5253C26.9012 23.1237 26.3484 23.5956 25.6229 23.9408C24.8974 24.2861 23.9473 24.4587 22.7726 24.4587Z" fill="#FBFAF6"/>
<path d="M46.2304 24.0617L41.2208 16.7424H39.8389V13.6352H41.2208L46.0922 7.09274H52.1554L45.6949 15.5168V14.5156L52.3973 24.0617H46.2304ZM35.4167 24.0617V1.25806H40.6681V24.0617H35.4167Z" fill="#FBFAF6"/>
<path d="M64.6041 24.0617L59.5946 16.7424H58.2126V13.6352H59.5946L64.4659 7.09274H70.5292L64.0686 15.5168V14.5156L70.771 24.0617H64.6041ZM53.7904 24.0617V1.25806H59.0418V24.0617H53.7904Z" fill="#FBFAF6"/>
<path d="M78.1461 24.476C76.7987 24.476 75.5838 24.3551 74.5012 24.1135C73.4187 23.8833 72.4917 23.6128 71.7201 23.3021L71.271 18.8657C72.1577 19.234 73.1366 19.5677 74.2076 19.8669C75.2901 20.1546 76.459 20.2985 77.7142 20.2985C78.7162 20.2985 79.4244 20.1949 79.839 19.9877C80.2651 19.7691 80.4781 19.4353 80.4781 18.9865V18.9175C80.4781 18.6068 80.3687 18.3536 80.1499 18.1579C79.9426 17.9508 79.5741 17.7667 79.0444 17.6055C78.5261 17.4444 77.7949 17.2545 76.8505 17.0359C75.4341 16.7021 74.3112 16.3109 73.4821 15.862C72.6529 15.4017 72.0598 14.8436 71.7028 14.1876C71.3573 13.5201 71.1846 12.7318 71.1846 11.8226V11.6845C71.1846 10.0043 71.7834 8.74993 72.9811 7.92134C74.1788 7.08123 75.9408 6.66118 78.267 6.66118C79.5799 6.66118 80.7603 6.78202 81.8082 7.02369C82.8562 7.26537 83.7372 7.55307 84.4512 7.88681L84.9003 12.0125C84.0712 11.6443 83.1441 11.3393 82.1192 11.0976C81.1058 10.8559 80.0405 10.7351 78.9234 10.7351C78.244 10.7351 77.7085 10.7811 77.3169 10.8732C76.9369 10.9653 76.6663 11.0976 76.5051 11.2702C76.3553 11.4429 76.2805 11.6558 76.2805 11.9089V11.9607C76.2805 12.2369 76.3726 12.4729 76.5569 12.6685C76.7411 12.8641 77.0751 13.0483 77.5588 13.2209C78.054 13.3935 78.7622 13.5892 79.6835 13.8078C81.1115 14.1185 82.2631 14.4753 83.1384 14.8781C84.0136 15.2694 84.6527 15.7815 85.0558 16.4144C85.4589 17.0359 85.6604 17.8645 85.6604 18.9002V19.0556C85.6604 20.8854 85.0443 22.2491 83.8121 23.1468C82.5798 24.0329 80.6912 24.476 78.1461 24.476Z" fill="#FBFAF6"/>
<path d="M97.0105 19.8324L94.1775 21.058L97.9951 7.09274H103.402L96.475 29.9999H91.1891L93.8321 21.3687L96.3195 23.3366H90.4636L85.8686 7.09274H91.31L94.2466 19.8324H97.0105Z" fill="#FBFAF6"/>
<path d="M106 0L104.22 5.78028H98.8809L106 0Z" fill="#FE6150"/>
</svg>
