<svg width="69" height="20" viewBox="0 0 69 20" fill="none" xmlns="http://www.w3.org/2000/svg">
<path d="M6.92121 16.3058C6.2456 16.3058 5.67747 16.1946 5.21682 15.9721C4.75618 15.7496 4.38766 15.4351 4.11127 15.0284C3.83488 14.6141 3.63911 14.1346 3.52395 13.5899H2.61417L3.45485 11.2192C3.4702 11.6872 3.56233 12.0823 3.73124 12.4045C3.90014 12.7268 4.14198 12.9761 4.45675 13.1526C4.77153 13.3214 5.14005 13.4058 5.56231 13.4058C6.20721 13.4058 6.69473 13.2178 7.02486 12.8419C7.35499 12.4582 7.52005 11.8867 7.52005 11.1271V9.52748C7.52005 8.77561 7.35499 8.2117 7.02486 7.83576C6.70241 7.45983 6.21873 7.27186 5.57382 7.27186C5.21298 7.27186 4.88285 7.34091 4.58343 7.47901C4.29169 7.61711 4.04217 7.80124 3.83488 8.0314C3.63527 8.2539 3.4894 8.51092 3.39727 8.80246L2.60265 7.17979H3.57001C3.68517 6.67343 3.87327 6.21694 4.1343 5.81031C4.39534 5.39601 4.76001 5.06995 5.22834 4.83211C5.70434 4.5866 6.30702 4.46385 7.03638 4.46385C8.35689 4.46385 9.35496 4.89732 10.0306 5.76428C10.7139 6.62356 11.0555 7.91632 11.0555 9.64256V11.0236C11.0555 12.7651 10.7139 14.0809 10.0306 14.9709C9.34729 15.8609 8.31083 16.3058 6.92121 16.3058ZM0 16.0412V0.838745H3.50091V4.22217L3.44333 7.84727L3.45485 8.158V12.4966L3.39727 13.1756L3.50091 16.0412H0Z" fill="#FBFAF6"/>
<path d="M18.7863 16.0412L18.89 13.2101L18.8093 13.0375V9.50446L18.7863 9.04413C18.7863 8.41501 18.6021 7.95085 18.2335 7.65163C17.865 7.35242 17.247 7.20281 16.3794 7.20281C15.6194 7.20281 14.8977 7.29871 14.2144 7.49052C13.5311 7.68232 12.8862 7.90098 12.2797 8.14649L12.5791 5.41903C12.9399 5.25024 13.343 5.09296 13.7883 4.94719C14.2413 4.79375 14.7403 4.67099 15.2854 4.57893C15.8305 4.48686 16.414 4.44083 17.0359 4.44083C18.0262 4.44083 18.8554 4.55591 19.5234 4.78608C20.1913 5.01624 20.7249 5.34231 21.1241 5.76428C21.5233 6.18625 21.8112 6.69261 21.9878 7.28337C22.1644 7.86645 22.2527 8.51092 22.2527 9.21676V16.0412H18.7863ZM15.1818 16.3058C14.0532 16.3058 13.1971 16.022 12.6137 15.4542C12.0302 14.8865 11.7384 14.0771 11.7384 13.026V12.7153C11.7384 11.6028 12.0801 10.7819 12.7634 10.2525C13.4543 9.71545 14.5484 9.35102 16.0455 9.15921L19.0857 8.75643L19.293 10.8739L16.5982 11.2652C16.0531 11.3343 15.6693 11.4609 15.4466 11.645C15.224 11.8291 15.1127 12.1015 15.1127 12.4621V12.5426C15.1127 12.8879 15.224 13.1641 15.4466 13.3712C15.6693 13.5707 16.0263 13.6705 16.5176 13.6705C16.9476 13.6705 17.3161 13.6052 17.6232 13.4748C17.938 13.3444 18.1952 13.1756 18.3948 12.9684C18.5944 12.7536 18.7441 12.5158 18.8439 12.2549L19.3391 13.682H18.7633C18.6404 14.173 18.4485 14.618 18.1875 15.0169C17.9341 15.4159 17.5656 15.7304 17.0819 15.9606C16.5982 16.1908 15.9649 16.3058 15.1818 16.3058Z" fill="#FBFAF6"/>
<path d="M30.8202 16.0412L27.4806 11.1617H26.5593V9.09016H27.4806L30.7281 4.72854H34.7703L30.4632 10.3446V9.67709L34.9315 16.0412H30.8202ZM23.6111 16.0412V0.838745H27.112V16.0412H23.6111Z" fill="#FBFAF6"/>
<path d="M43.0694 16.0412L39.7297 11.1617H38.8084V9.09016H39.7297L42.9773 4.72854H47.0194L42.7124 10.3446V9.67709L47.1807 16.0412H43.0694ZM35.8603 16.0412V0.838745H39.3612V16.0412H35.8603Z" fill="#FBFAF6"/>
<path d="M52.0974 16.3173C51.1991 16.3173 50.3892 16.2368 49.6675 16.0757C48.9458 15.9222 48.3278 15.7419 47.8134 15.5348L47.514 12.5772C48.1051 12.8227 48.7577 13.0452 49.4717 13.2446C50.1934 13.4364 50.9727 13.5324 51.8095 13.5324C52.4774 13.5324 52.9496 13.4633 53.226 13.3252C53.5101 13.1794 53.6521 12.9569 53.6521 12.6577V12.6117C53.6521 12.4045 53.5792 12.2358 53.4333 12.1053C53.2951 11.9672 53.0494 11.8445 52.6962 11.7371C52.3508 11.6297 51.8632 11.5031 51.2337 11.3573C50.2894 11.1348 49.5408 10.8739 48.988 10.5747C48.4353 10.2678 48.0399 9.89574 47.8019 9.45843C47.5716 9.01344 47.4564 8.4879 47.4564 7.8818V7.78973C47.4564 6.6696 47.8556 5.83333 48.6541 5.28093C49.4525 4.72086 50.6272 4.44083 52.178 4.44083C53.0532 4.44083 53.8402 4.52139 54.5388 4.6825C55.2375 4.84362 55.8248 5.03542 56.3008 5.25792L56.6002 8.00839C56.0475 7.76288 55.4294 7.55957 54.7461 7.39845C54.0705 7.23734 53.3603 7.15678 52.6156 7.15678C52.1627 7.15678 51.8057 7.18747 51.5446 7.24884C51.2913 7.31022 51.1109 7.39845 51.0034 7.51353C50.9036 7.62862 50.8537 7.77055 50.8537 7.93934V7.97386C50.8537 8.158 50.9151 8.31528 51.0379 8.4457C51.1608 8.57613 51.3834 8.69888 51.7059 8.81397C52.036 8.92905 52.5081 9.05948 53.1223 9.20525C54.0743 9.4124 54.8421 9.65023 55.4256 9.91876C56.0091 10.1796 56.4352 10.521 56.7039 10.943C56.9726 11.3573 57.1069 11.9097 57.1069 12.6002V12.7038C57.1069 13.9236 56.6962 14.8328 55.8747 15.4312C55.0532 16.022 53.7941 16.3173 52.0974 16.3173Z" fill="#FBFAF6"/>
<path d="M64.6737 13.2216L62.785 14.0387L65.3301 4.72854H68.9347L64.3167 20H60.7927L62.5547 14.2459L64.213 15.5578H60.3091L57.2458 4.72854H60.8733L62.8311 13.2216H64.6737Z" fill="#FBFAF6"/>
</svg>
