<svg width="40" height="40" viewBox="0 0 40 40" fill="none" xmlns="http://www.w3.org/2000/svg">
<path d="M37.4336 10C36.1502 10.5834 34.7669 10.9667 33.3336 11.15C34.8002 10.2667 35.9336 8.86669 36.4669 7.18335C35.0836 8.01669 33.5502 8.60002 31.9336 8.93335C30.6169 7.50002 28.7669 6.66669 26.6669 6.66669C22.7502 6.66669 19.5502 9.86669 19.5502 13.8167C19.5502 14.3834 19.6169 14.9334 19.7336 15.45C13.8002 15.15 8.51689 12.3 5.00023 7.98335C4.38356 9.03335 4.03356 10.2667 4.03356 11.5667C4.03356 14.05 5.28356 16.25 7.21689 17.5C6.03356 17.5 4.93356 17.1667 3.96689 16.6667V16.7167C3.96689 20.1834 6.43356 23.0834 9.70023 23.7334C8.65144 24.0204 7.55039 24.0603 6.48356 23.85C6.93624 25.2708 7.82279 26.514 9.01859 27.4049C10.2144 28.2958 11.6593 28.7895 13.1502 28.8167C10.6229 30.8174 7.49022 31.8989 4.26689 31.8834C3.70023 31.8834 3.13356 31.85 2.56689 31.7834C5.73356 33.8167 9.50023 35 13.5336 35C26.6669 35 33.8836 24.1 33.8836 14.65C33.8836 14.3334 33.8836 14.0334 33.8669 13.7167C35.2669 12.7167 36.4669 11.45 37.4336 10Z" fill="#FBFAF6" fill-opacity="0.6"/>
</svg>
