<svg width="321" height="325" viewBox="0 0 321 325" fill="none" xmlns="http://www.w3.org/2000/svg">
<path d="M213.367 55.4801L160.025 108.822L213.367 162.164V55.4801Z" fill="#F7EFE9" fill-opacity="0.7"/>
<path d="M213.367 162.164L160.025 215.505L213.367 268.847V162.164Z" fill="#F7EFE9" fill-opacity="0.7"/>
<path d="M160.025 108.822L106.684 162.164L160.025 215.505V108.822Z" fill="#F7EFE9" fill-opacity="0.7"/>
<path d="M160.025 215.505L106.684 268.847L160.025 322.189V215.505Z" fill="#F7EFE9" fill-opacity="0.7"/>
<path d="M160.025 2.13827L106.684 55.48L160.025 108.822V2.13827Z" fill="#F7EFE9" fill-opacity="0.7"/>
<path d="M266.709 108.822L213.367 162.164L266.709 215.505V108.822Z" fill="#F7EFE9" fill-opacity="0.7"/>
<path d="M106.683 55.4801L53.3417 108.822L106.683 162.164V55.4801Z" fill="#F7EFE9" fill-opacity="0.7"/>
<path d="M106.684 162.164L53.3418 215.505L106.684 268.847V162.164Z" fill="#F7EFE9" fill-opacity="0.7"/>
<path d="M53.3418 108.822L4.28441e-05 162.164L53.3418 215.505V108.822Z" fill="#F7EFE9" fill-opacity="0.7"/>
</svg>
