<svg width="28" height="28" viewBox="0 0 28 28" fill="none" xmlns="http://www.w3.org/2000/svg">
<path d="M0 14C0 23.29 6.27 28 14 28C21.73 28 28 23.26 28 14C28 4.57 21.73 0 14 0C6.27 0 0 4.43 0 14Z" fill="#DDB78F"/>
<path d="M0 14C0 23.29 6.27 28 14 28C21.73 28 28 23.26 28 14C28 4.57 21.73 0 14 0C6.27 0 0 4.43 0 14Z" fill="url(#paint0_radial_182_8580)"/>
<path d="M0 14C0 23.29 6.27 28 14 28C21.73 28 28 23.26 28 14C28 4.57 21.73 0 14 0C6.27 0 0 4.43 0 14Z" fill="url(#paint1_radial_182_8580)"/>
<path d="M0 14C0 23.29 6.27 28 14 28C21.73 28 28 23.26 28 14C28 4.57 21.73 0 14 0C6.27 0 0 4.43 0 14Z" fill="url(#paint2_radial_182_8580)"/>
<path d="M24.92 12.6101L24.96 11.9901C24.9688 11.8551 24.9487 11.7199 24.9011 11.5933C24.8534 11.4668 24.7793 11.3519 24.6837 11.2563C24.5881 11.1607 24.4732 11.0866 24.3467 11.0389C24.2201 10.9913 24.0849 10.9712 23.95 10.9801L23.34 11.0201C23.1 11.0301 22.85 11.1101 22.63 11.2401C22.3298 11.4298 22.1061 11.7193 21.9981 12.0576C21.8902 12.396 21.905 12.7615 22.04 13.0901C22.38 13.8901 23.32 14.2301 24.09 13.8501C24.59 13.6201 24.88 13.1301 24.92 12.6101Z" fill="#6F434A"/>
<g filter="url(#filter0_f_182_8580)">
<path d="M24.7336 11.875C24.7686 11.385 24.4536 11.25 24.0156 11.25C23.5776 11.25 23.1656 11.463 22.8126 11.672C22.2786 12.007 21.9956 12.43 22.2356 13.006C22.5286 13.694 23.0876 13.702 23.7496 13.375C24.3626 13.093 24.5796 12.44 24.7336 11.875Z" fill="url(#paint3_radial_182_8580)"/>
</g>
<path d="M17.8897 6.31985L18.5097 6.35985C18.6446 6.36868 18.7799 6.34861 18.9064 6.30097C19.033 6.25334 19.1479 6.17924 19.2435 6.08363C19.3391 5.98802 19.4132 5.87311 19.4608 5.74657C19.5085 5.62003 19.5285 5.48478 19.5197 5.34985L19.4797 4.73985C19.4651 4.48885 19.3895 4.24517 19.2597 4.02985C19.07 3.72966 18.7805 3.50595 18.4421 3.39805C18.1038 3.29014 17.7382 3.30495 17.4097 3.43985C16.6097 3.77985 16.2697 4.71985 16.6497 5.48985C16.8797 5.98985 17.3697 6.27985 17.8897 6.31985Z" fill="#6F434A"/>
<g filter="url(#filter1_f_182_8580)">
<path d="M18.0001 5.68791L18.4801 5.71791C18.9231 5.74591 19.2951 5.40091 19.2641 4.99091L19.2331 4.55291C19.2214 4.37109 19.1628 4.1954 19.0631 4.04291C18.7601 3.59691 18.1471 3.41691 17.6281 3.61791C17.0081 3.86291 16.7441 4.53791 17.0381 5.09191C17.2171 5.45191 17.5971 5.65991 18.0001 5.68791Z" fill="url(#paint4_radial_182_8580)"/>
</g>
<path d="M8.67015 21.7499L8.62015 22.5199C8.57015 23.2299 9.16015 23.8199 9.87015 23.7699L10.6301 23.7199C10.9301 23.6999 11.2301 23.6099 11.5101 23.4399C11.8838 23.2044 12.1622 22.8443 12.2958 22.4234C12.4294 22.0024 12.4097 21.5477 12.2401 21.1399C12.1423 20.9053 11.9973 20.6935 11.814 20.5175C11.6307 20.3415 11.4131 20.2051 11.1748 20.117C10.9365 20.0288 10.6825 19.9906 10.4288 20.0049C10.1751 20.0191 9.92707 20.0855 9.70015 20.1999C9.08015 20.5099 8.71015 21.1099 8.67015 21.7499Z" fill="#6F434A"/>
<g filter="url(#filter2_f_182_8580)">
<path d="M8.98191 21.7651L8.9399 22.4071C8.9301 22.5466 8.95036 22.6865 8.99932 22.8175C9.04828 22.9484 9.1248 23.0673 9.2237 23.1661C9.32259 23.2649 9.44155 23.3413 9.57254 23.3901C9.70352 23.439 9.84347 23.4591 9.98291 23.4491L10.6159 23.4081C10.8659 23.3911 11.1159 23.3161 11.3499 23.1741C11.9919 22.7741 12.2499 21.9571 11.9589 21.2561C11.8772 21.0607 11.7562 20.8841 11.6033 20.7375C11.4504 20.5909 11.269 20.4773 11.0703 20.4038C10.8716 20.3304 10.6599 20.2986 10.4484 20.3106C10.2369 20.3225 10.0301 20.3778 9.8409 20.4731C9.59664 20.5939 9.38853 20.7769 9.23755 21.0038C9.08656 21.2306 8.99804 21.4932 8.98091 21.7651H8.98191Z" fill="url(#paint5_radial_182_8580)"/>
</g>
<path d="M18.4002 13.1902L18.4302 12.7302C18.5302 11.2202 17.2802 9.97024 15.7602 10.0602L15.3102 10.0902C14.8602 10.1102 14.4102 10.2402 13.9902 10.4902C13.3874 10.848 12.9329 11.4099 12.7091 12.0741C12.4853 12.7383 12.5069 13.4607 12.7702 14.1102C13.4202 15.7002 15.2702 16.3702 16.7802 15.6202C17.7602 15.1502 18.3402 14.2002 18.4002 13.1902Z" fill="#6F434A"/>
<g filter="url(#filter3_f_182_8580)">
<path d="M18.0244 12.9842L18.0484 12.6102C18.0671 12.3206 18.0238 12.0304 17.9214 11.7588C17.8191 11.4873 17.66 11.2407 17.4549 11.0354C17.2497 10.8302 17.0032 10.671 16.7317 10.5686C16.4602 10.4661 16.17 10.4227 15.8804 10.4412L15.5144 10.4652C15.1356 10.4828 14.7672 10.5945 14.4424 10.7902C13.953 11.0807 13.5838 11.5371 13.402 12.0765C13.2202 12.6159 13.2377 13.2026 13.4514 13.7302C13.5749 14.0326 13.7596 14.3063 13.9937 14.5341C14.2279 14.7619 14.5065 14.939 14.8123 15.0542C15.118 15.1693 15.4442 15.2202 15.7705 15.2035C16.0967 15.1868 16.416 15.1029 16.7084 14.9572C17.0843 14.7762 17.4047 14.4977 17.6362 14.1506C17.8677 13.8036 18.0018 13.4007 18.0244 12.9842Z" fill="url(#paint6_radial_182_8580)"/>
</g>
<path d="M5.68049 7.42018L5.65049 7.00018C5.57049 5.63018 6.70049 4.49018 8.07049 4.58018L8.48049 4.61018C8.89049 4.63018 9.30049 4.75018 9.68049 4.97018C10.8105 5.63018 11.2805 7.05018 10.7905 8.26018C10.652 8.59781 10.4454 8.90327 10.1836 9.1575C9.92175 9.41174 9.61036 9.60929 9.26882 9.73784C8.92728 9.86639 8.56291 9.92317 8.19844 9.90465C7.83398 9.88613 7.47724 9.7927 7.15049 9.63018C6.27049 9.19018 5.74049 8.33018 5.68049 7.42018Z" fill="url(#paint7_radial_182_8580)"/>
<g filter="url(#filter4_f_182_8580)">
<path d="M6.15657 7.3882L6.13157 7.0442C6.11504 6.77957 6.15497 6.51446 6.24871 6.26645C6.34246 6.01843 6.48787 5.79319 6.67531 5.60566C6.86274 5.41813 7.08791 5.27261 7.33588 5.17874C7.58384 5.08487 7.84894 5.0448 8.11357 5.0612L8.44957 5.0862C8.78557 5.1022 9.28257 5.0702 9.59357 5.2502C10.5186 5.7902 10.8076 6.9462 10.4056 7.9382C9.92257 9.1172 8.48257 9.7552 7.36057 9.1982C7.01931 9.02789 6.7286 8.77119 6.51737 8.45364C6.30614 8.13609 6.18174 7.76875 6.15657 7.3882Z" fill="url(#paint8_radial_182_8580)"/>
</g>
<path d="M22.2599 20.8199L22.2799 21.1799C22.3599 22.3499 21.3799 23.3299 20.2099 23.2499L19.8599 23.2299C19.5099 23.2099 19.1599 23.1099 18.8299 22.9199C18.362 22.6421 18.0091 22.2061 17.8348 21.6907C17.6606 21.1753 17.6766 20.6145 17.8799 20.1099C17.9985 19.8204 18.1756 19.5585 18.4 19.3407C18.6245 19.1229 18.8916 18.9537 19.1845 18.8439C19.4774 18.734 19.7898 18.6859 20.1022 18.7024C20.4146 18.7189 20.7202 18.7997 20.9999 18.9399C21.7599 19.2999 22.2099 20.0299 22.2599 20.8199Z" fill="#6F434A"/>
<g filter="url(#filter5_f_182_8580)">
<path d="M22.0256 20.7201L22.0426 21.0221C22.0577 21.2546 22.0231 21.4876 21.941 21.7056C21.8589 21.9237 21.7313 22.1217 21.5666 22.2864C21.4019 22.4512 21.204 22.579 20.986 22.6612C20.7681 22.7434 20.5351 22.7781 20.3026 22.7631L20.0076 22.7461C19.7025 22.7285 19.4059 22.6395 19.1416 22.4861C18.748 22.2527 18.451 21.8861 18.3043 21.4527C18.1576 21.0193 18.1708 20.5476 18.3416 20.1231C18.4412 19.8795 18.5901 19.6591 18.779 19.4757C18.9679 19.2923 19.1926 19.15 19.4391 19.0576C19.6856 18.9652 19.9485 18.9247 20.2114 18.9388C20.4742 18.9528 20.7313 19.021 20.9666 19.1391C21.2689 19.2829 21.527 19.5056 21.7135 19.7836C21.9 20.0617 22.0082 20.3848 22.0266 20.7191L22.0256 20.7201Z" fill="url(#paint9_radial_182_8580)"/>
</g>
<path d="M3.91019 15.5402L3.87019 14.9202C3.86136 14.7853 3.88144 14.6501 3.92907 14.5235C3.97671 14.397 4.05081 14.2821 4.14641 14.1865C4.24202 14.0908 4.35694 14.0167 4.48348 13.9691C4.61002 13.9215 4.74527 13.9014 4.88019 13.9102L5.49019 13.9502C5.73019 13.9602 5.98019 14.0402 6.20019 14.1702C6.82019 14.5602 7.07019 15.3502 6.79019 16.0202C6.45019 16.8202 5.51019 17.1602 4.74019 16.7802C4.24019 16.5502 3.94019 16.0602 3.91019 15.5402Z" fill="#6F434A"/>
<g filter="url(#filter6_f_182_8580)">
<path d="M4.21234 15.5159L4.18034 15.0229C4.17329 14.9155 4.18922 14.8079 4.22706 14.7073C4.26491 14.6066 4.3238 14.5151 4.39981 14.439C4.47581 14.3629 4.56718 14.3039 4.66781 14.266C4.76843 14.228 4.87601 14.2119 4.98334 14.2189L5.46934 14.2509C5.65934 14.2589 5.85934 14.3219 6.03434 14.4259C6.52734 14.7359 6.72634 15.3649 6.50334 15.8979C6.43951 16.0476 6.34579 16.1828 6.22793 16.2951C6.11008 16.4074 5.97055 16.4945 5.81788 16.551C5.66521 16.6075 5.50262 16.6323 5.34004 16.6239C5.17746 16.6154 5.01832 16.5739 4.87234 16.5019C4.68323 16.4128 4.5219 16.274 4.40564 16.1004C4.28937 15.9267 4.22255 15.7246 4.21234 15.5159Z" fill="url(#paint10_radial_182_8580)"/>
</g>
<defs>
<filter id="filter0_f_182_8580" x="21.6494" y="10.75" width="3.58691" height="3.33447" filterUnits="userSpaceOnUse" color-interpolation-filters="sRGB">
<feFlood flood-opacity="0" result="BackgroundImageFix"/>
<feBlend mode="normal" in="SourceGraphic" in2="BackgroundImageFix" result="shape"/>
<feGaussianBlur stdDeviation="0.25" result="effect1_foregroundBlur_182_8580"/>
</filter>
<filter id="filter1_f_182_8580" x="16.418" y="3.03613" width="3.34766" height="3.18359" filterUnits="userSpaceOnUse" color-interpolation-filters="sRGB">
<feFlood flood-opacity="0" result="BackgroundImageFix"/>
<feBlend mode="normal" in="SourceGraphic" in2="BackgroundImageFix" result="shape"/>
<feGaussianBlur stdDeviation="0.25" result="effect1_foregroundBlur_182_8580"/>
</filter>
<filter id="filter2_f_182_8580" x="8.4375" y="19.8081" width="4.14062" height="4.14355" filterUnits="userSpaceOnUse" color-interpolation-filters="sRGB">
<feFlood flood-opacity="0" result="BackgroundImageFix"/>
<feBlend mode="normal" in="SourceGraphic" in2="BackgroundImageFix" result="shape"/>
<feGaussianBlur stdDeviation="0.25" result="effect1_foregroundBlur_182_8580"/>
</filter>
<filter id="filter3_f_182_8580" x="12.7773" y="9.93701" width="5.77539" height="5.76953" filterUnits="userSpaceOnUse" color-interpolation-filters="sRGB">
<feFlood flood-opacity="0" result="BackgroundImageFix"/>
<feBlend mode="normal" in="SourceGraphic" in2="BackgroundImageFix" result="shape"/>
<feGaussianBlur stdDeviation="0.25" result="effect1_foregroundBlur_182_8580"/>
</filter>
<filter id="filter4_f_182_8580" x="5.62793" y="4.55762" width="5.4541" height="5.34473" filterUnits="userSpaceOnUse" color-interpolation-filters="sRGB">
<feFlood flood-opacity="0" result="BackgroundImageFix"/>
<feBlend mode="normal" in="SourceGraphic" in2="BackgroundImageFix" result="shape"/>
<feGaussianBlur stdDeviation="0.25" result="effect1_foregroundBlur_182_8580"/>
</filter>
<filter id="filter5_f_182_8580" x="17.7031" y="18.436" width="4.84277" height="4.83057" filterUnits="userSpaceOnUse" color-interpolation-filters="sRGB">
<feFlood flood-opacity="0" result="BackgroundImageFix"/>
<feBlend mode="normal" in="SourceGraphic" in2="BackgroundImageFix" result="shape"/>
<feGaussianBlur stdDeviation="0.25" result="effect1_foregroundBlur_182_8580"/>
</filter>
<filter id="filter6_f_182_8580" x="3.67871" y="13.7173" width="3.41504" height="3.4082" filterUnits="userSpaceOnUse" color-interpolation-filters="sRGB">
<feFlood flood-opacity="0" result="BackgroundImageFix"/>
<feBlend mode="normal" in="SourceGraphic" in2="BackgroundImageFix" result="shape"/>
<feGaussianBlur stdDeviation="0.25" result="effect1_foregroundBlur_182_8580"/>
</filter>
<radialGradient id="paint0_radial_182_8580" cx="0" cy="0" r="1" gradientUnits="userSpaceOnUse" gradientTransform="translate(21.4372 5.8126) rotate(119.554) scale(20.9077)">
<stop stop-color="#FFDAAE"/>
<stop offset="1" stop-color="#D59077" stop-opacity="0"/>
</radialGradient>
<radialGradient id="paint1_radial_182_8580" cx="0" cy="0" r="1" gradientUnits="userSpaceOnUse" gradientTransform="translate(15.3754 14.0006) rotate(83.29) scale(17.1172 16.2696)">
<stop offset="0.772" stop-color="#BF9E7A" stop-opacity="0"/>
<stop offset="1" stop-color="#C4A47E"/>
</radialGradient>
<radialGradient id="paint2_radial_182_8580" cx="0" cy="0" r="1" gradientUnits="userSpaceOnUse" gradientTransform="translate(17.3754 4.50067) rotate(92.681) scale(37.4159)">
<stop offset="0.325" stop-color="#E9AB8B" stop-opacity="0"/>
<stop offset="0.505" stop-color="#DE9A80"/>
<stop offset="0.656" stop-color="#D07067"/>
</radialGradient>
<radialGradient id="paint3_radial_182_8580" cx="0" cy="0" r="1" gradientUnits="userSpaceOnUse" gradientTransform="translate(24.6122 11.3591) rotate(140.104) scale(2.75277 2.61177)">
<stop offset="0.175" stop-color="#886562"/>
<stop offset="1" stop-color="#8E6C67" stop-opacity="0"/>
</radialGradient>
<radialGradient id="paint4_radial_182_8580" cx="0" cy="0" r="1" gradientUnits="userSpaceOnUse" gradientTransform="translate(19.2661 5.40991) rotate(-149.903) scale(2.90043 2.79159)">
<stop offset="0.175" stop-color="#886562"/>
<stop offset="1" stop-color="#8E6C67" stop-opacity="0"/>
</radialGradient>
<radialGradient id="paint5_radial_182_8580" cx="0" cy="0" r="1" gradientUnits="userSpaceOnUse" gradientTransform="translate(9.1299 23.2581) rotate(-41.0159) scale(3.90831 4.00044)">
<stop offset="0.47" stop-color="#896764" stop-opacity="0"/>
<stop offset="0.935" stop-color="#896763"/>
</radialGradient>
<radialGradient id="paint6_radial_182_8580" cx="0" cy="0" r="1" gradientUnits="userSpaceOnUse" gradientTransform="translate(13.2754 14.0002) rotate(-21.7768) scale(5.55942 5.69235)">
<stop offset="0.388" stop-color="#896764" stop-opacity="0"/>
<stop offset="0.935" stop-color="#896763"/>
</radialGradient>
<radialGradient id="paint7_radial_182_8580" cx="0" cy="0" r="1" gradientUnits="userSpaceOnUse" gradientTransform="translate(9.12468 6.8748) rotate(123.403) scale(3.63294 3.63565)">
<stop stop-color="#7D5755"/>
<stop offset="1" stop-color="#60383B"/>
</radialGradient>
<radialGradient id="paint8_radial_182_8580" cx="0" cy="0" r="1" gradientUnits="userSpaceOnUse" gradientTransform="translate(6.12857 7.5632) rotate(-3.96089) scale(4.82023 4.82382)">
<stop offset="0.597" stop-color="#896764" stop-opacity="0"/>
<stop offset="0.935" stop-color="#896763"/>
</radialGradient>
<radialGradient id="paint9_radial_182_8580" cx="0" cy="0" r="1" gradientUnits="userSpaceOnUse" gradientTransform="translate(18.4376 22.5311) rotate(-40.8861) scale(4.77422 4.88362)">
<stop offset="0.47" stop-color="#896764" stop-opacity="0"/>
<stop offset="0.935" stop-color="#896763"/>
</radialGradient>
<radialGradient id="paint10_radial_182_8580" cx="0" cy="0" r="1" gradientUnits="userSpaceOnUse" gradientTransform="translate(4.32534 16.4779) rotate(-40.8959) scale(3.00101 3.06992)">
<stop offset="0.47" stop-color="#896764" stop-opacity="0"/>
<stop offset="0.935" stop-color="#896763"/>
</radialGradient>
</defs>
</svg>
