<svg width="106" height="30" viewBox="0 0 106 30" fill="none" xmlns="http://www.w3.org/2000/svg">
<path d="M10.3818 24.4588C9.3684 24.4588 8.5162 24.2919 7.82523 23.9582C7.13426 23.6244 6.58149 23.1526 6.1669 22.5427C5.75232 21.9212 5.45866 21.202 5.28592 20.3849H3.92125L5.18227 16.8288C5.2053 17.5308 5.3435 18.1235 5.59685 18.6068C5.85021 19.0902 6.21297 19.4642 6.68513 19.7289C7.15729 19.9821 7.71007 20.1087 8.34346 20.1087C9.31082 20.1087 10.0421 19.8267 10.5373 19.2628C11.0325 18.6874 11.2801 17.83 11.2801 16.6907V14.2912C11.2801 13.1634 11.0325 12.3176 10.5373 11.7537C10.0536 11.1898 9.32809 10.9078 8.36073 10.9078C7.81947 10.9078 7.32428 11.0114 6.87515 11.2185C6.43753 11.4257 6.06326 11.7019 5.75232 12.0471C5.4529 12.3809 5.2341 12.7664 5.0959 13.2037L3.90398 10.7697H5.35502C5.52776 10.0102 5.8099 9.32544 6.20145 8.7155C6.593 8.09405 7.14002 7.60495 7.84251 7.2482C8.55651 6.87993 9.46053 6.6958 10.5546 6.6958C12.5353 6.6958 14.0324 7.34602 15.0459 8.64645C16.0708 9.93537 16.5833 11.8745 16.5833 14.4639V16.5354C16.5833 19.1477 16.0708 21.1214 15.0459 22.4564C14.0209 23.7913 12.4662 24.4588 10.3818 24.4588ZM0 24.0618V1.25815H5.25137V6.33329L5.165 11.7709L5.18227 12.237V18.7449L5.0959 19.7634L5.25137 24.0618H0Z" fill="#FE6150"/>
<path d="M28.1795 24.0618L28.3349 19.8152L28.214 19.5563V14.2567L28.1795 13.5662C28.1795 12.6226 27.9031 11.9263 27.3503 11.4775C26.7975 11.0287 25.8705 10.8042 24.5692 10.8042C23.4291 10.8042 22.3465 10.9481 21.3216 11.2358C20.2967 11.5235 19.3293 11.8515 18.4195 12.2198L18.8687 8.12858C19.4099 7.8754 20.0145 7.63948 20.6825 7.42082C21.3619 7.19066 22.1105 7.00652 22.9281 6.86842C23.7458 6.73032 24.621 6.66128 25.5538 6.66128C27.0394 6.66128 28.2831 6.8339 29.285 7.17915C30.2869 7.52439 31.0873 8.01349 31.6861 8.64645C32.285 9.2794 32.7168 10.0389 32.9817 10.9251C33.2466 11.7997 33.379 12.7664 33.379 13.8252V24.0618H28.1795ZM22.7726 24.4588C21.0798 24.4588 19.7957 24.033 18.9205 23.1814C18.0453 22.3298 17.6076 21.1156 17.6076 19.539V19.0729C17.6076 17.4042 18.1201 16.1728 19.145 15.3788C20.1815 14.5732 21.8226 14.0266 24.0682 13.7389L28.6286 13.1347L28.9395 16.3109L24.8974 16.8979C24.0797 17.0014 23.5039 17.1913 23.1699 17.4675C22.836 17.7437 22.669 18.1523 22.669 18.6932V18.814C22.669 19.3319 22.836 19.7462 23.1699 20.0569C23.5039 20.3561 24.0394 20.5057 24.7764 20.5057C25.4214 20.5057 25.9741 20.4079 26.4348 20.2122C26.9069 20.0166 27.2927 19.7634 27.5921 19.4527C27.8916 19.1305 28.1161 18.7737 28.2658 18.3824L29.0086 20.523H28.1449C27.9607 21.2595 27.6728 21.927 27.2812 22.5254C26.9012 23.1238 26.3484 23.5957 25.6229 23.9409C24.8974 24.2862 23.9473 24.4588 22.7726 24.4588Z" fill="#FE6150"/>
<path d="M46.2304 24.0618L41.2208 16.7425H39.8389V13.6353H41.2208L46.0922 7.09283H52.1554L45.6949 15.5169V14.5157L52.3973 24.0618H46.2304ZM35.4167 24.0618V1.25815H40.6681V24.0618H35.4167Z" fill="#FE6150"/>
<path d="M64.6041 24.0618L59.5946 16.7425H58.2126V13.6353H59.5946L64.4659 7.09283H70.5292L64.0686 15.5169V14.5157L70.771 24.0618H64.6041ZM53.7904 24.0618V1.25815H59.0418V24.0618H53.7904Z" fill="#FE6150"/>
<path d="M78.1461 24.4761C76.7987 24.4761 75.5838 24.3552 74.5012 24.1135C73.4187 23.8834 72.4917 23.6129 71.7201 23.3022L71.271 18.8658C72.1577 19.234 73.1366 19.5678 74.2076 19.867C75.2901 20.1547 76.459 20.2986 77.7142 20.2986C78.7162 20.2986 79.4244 20.195 79.839 19.9878C80.2651 19.7692 80.4781 19.4354 80.4781 18.9866V18.9176C80.4781 18.6068 80.3687 18.3537 80.1499 18.158C79.9426 17.9509 79.5741 17.7667 79.0444 17.6056C78.5261 17.4445 77.7949 17.2546 76.8505 17.036C75.4341 16.7022 74.3112 16.3109 73.4821 15.8621C72.6529 15.4018 72.0598 14.8436 71.7028 14.1877C71.3573 13.5202 71.1846 12.7319 71.1846 11.8227V11.6846C71.1846 10.0044 71.7834 8.75002 72.9811 7.92143C74.1788 7.08133 75.9408 6.66128 78.267 6.66128C79.5799 6.66128 80.7603 6.78211 81.8082 7.02379C82.8562 7.26546 83.7372 7.55316 84.4512 7.8869L84.9003 12.0126C84.0712 11.6444 83.1441 11.3394 82.1192 11.0977C81.1058 10.856 80.0405 10.7352 78.9234 10.7352C78.244 10.7352 77.7085 10.7812 77.3169 10.8733C76.9369 10.9654 76.6663 11.0977 76.5051 11.2703C76.3553 11.443 76.2805 11.6559 76.2805 11.909V11.9608C76.2805 12.237 76.3726 12.4729 76.5569 12.6686C76.7411 12.8642 77.0751 13.0484 77.5588 13.221C78.054 13.3936 78.7622 13.5892 79.6835 13.8079C81.1115 14.1186 82.2631 14.4754 83.1384 14.8782C84.0136 15.2695 84.6527 15.7816 85.0558 16.4145C85.4589 17.036 85.6604 17.8646 85.6604 18.9003V19.0557C85.6604 20.8855 85.0443 22.2492 83.8121 23.1469C82.5798 24.033 80.6912 24.4761 78.1461 24.4761Z" fill="#FE6150"/>
<path d="M97.0105 19.8325L94.1775 21.0581L97.9951 7.09283H103.402L96.475 30H91.1891L93.8321 21.3688L96.3195 23.3367H90.4636L85.8686 7.09283H91.31L94.2466 19.8325H97.0105Z" fill="#FE6150"/>
<path d="M106 0L104.22 5.78028H98.8809L106 0Z" fill="#1F938A"/>
</svg>
