<svg width="185" height="93" viewBox="0 0 185 93" fill="none" xmlns="http://www.w3.org/2000/svg">
<path fill-rule="evenodd" clip-rule="evenodd" d="M30.7093 58.8359C46.2432 58.8359 58.8359 46.2432 58.8359 30.7093C58.8359 15.1753 46.2432 2.58258 30.7093 2.58258C15.1753 2.58258 2.58258 15.1753 2.58258 30.7093C2.58258 46.2432 15.1753 58.8359 30.7093 58.8359ZM30.7093 61.4185C47.6695 61.4185 61.4185 47.6695 61.4185 30.7093C61.4185 13.749 47.6695 0 30.7093 0C13.749 0 0 13.749 0 30.7093C0 47.6695 13.749 61.4185 30.7093 61.4185Z" fill="#FC4B24"/>
<path d="M26.1057 25.9679L18.2394 43.1791L35.4599 35.3037L43.3261 18.0924L26.1057 25.9679ZM23.5213 37.894L27.4979 29.2015L32.2229 33.9215L23.5213 37.894ZM34.0676 32.07L29.3427 27.35L38.0443 23.3688L34.0676 32.07Z" fill="#FC4B24"/>
<path fill-rule="evenodd" clip-rule="evenodd" d="M25.8891 25.7514L43.9074 17.5111L35.6765 35.5202L17.6583 43.7605L25.8891 25.7514ZM18.2395 43.1791L35.4599 35.3037L43.3262 18.0924L26.1057 25.9679L18.2395 43.1791ZM23.5213 37.8941L32.2229 33.9216L27.498 29.2015L23.5213 37.8941ZM24.1026 37.3133L31.7275 33.8323L27.5872 29.6963L24.1026 37.3133ZM34.0677 32.0701L38.0443 23.3688L29.3427 27.35L34.0677 32.0701ZM33.9783 31.5752L37.463 23.9503L29.8378 27.439L33.9783 31.5752Z" fill="#FC4B24"/>
<rect opacity="0.8" x="31.2675" y="31.2678" width="153.732" height="61.4185" fill="#118DF0"/>
<path d="M47.2736 64.3964H44.2585V44.8541H47.2736V54.8486L51.2379 51.331L58.4127 44.8541H62.6004L53.4713 52.8665L62.5445 64.3964H58.664L51.2658 54.8486L47.2736 58.3662V64.3964Z" fill="white"/>
<path d="M85.6111 54.6253C85.6111 56.0397 85.3506 57.3612 84.8295 58.5895C84.3269 59.7993 83.6011 60.8602 82.6519 61.7721C81.7213 62.6841 80.6139 63.4007 79.3297 63.9218C78.0641 64.4243 76.6682 64.6756 75.1421 64.6756C73.6159 64.6756 72.2107 64.4243 70.9265 63.9218C69.6423 63.4007 68.5349 62.6841 67.6043 61.7721C66.6738 60.8602 65.9479 59.7993 65.4268 58.5895C64.9243 57.3612 64.673 56.0397 64.673 54.6253C64.673 53.2108 64.9243 51.8986 65.4268 50.6889C65.9479 49.4605 66.6738 48.3903 67.6043 47.4784C68.5349 46.5664 69.6423 45.8592 70.9265 45.3566C72.2107 44.8355 73.6159 44.575 75.1421 44.575C76.6682 44.575 78.0641 44.8355 79.3297 45.3566C80.6139 45.8592 81.7213 46.5664 82.6519 47.4784C83.6011 48.3903 84.3269 49.4605 84.8295 50.6889C85.3506 51.8986 85.6111 53.2108 85.6111 54.6253ZM82.5402 54.6253C82.5402 53.2666 82.2238 52.0568 81.591 50.996C80.9582 49.9165 80.0835 49.0697 78.9668 48.4555C77.8501 47.8227 76.5752 47.5063 75.1421 47.5063C73.6718 47.5063 72.3782 47.8227 71.2615 48.4555C70.1635 49.0697 69.298 49.9165 68.6652 50.996C68.051 52.0568 67.7439 53.2666 67.7439 54.6253C67.7439 55.9839 68.051 57.203 68.6652 58.2824C69.298 59.3433 70.1635 60.1901 71.2615 60.8229C72.3782 61.4371 73.6718 61.7442 75.1421 61.7442C76.5752 61.7442 77.8501 61.4371 78.9668 60.8229C80.0835 60.1901 80.9582 59.334 81.591 58.2545C82.2238 57.1751 82.5402 55.9653 82.5402 54.6253Z" fill="white"/>
<path d="M93.3766 44.8541L100.551 55.2953L107.81 44.8541H110.658V64.3964H107.642V56.2724C107.642 55.0812 107.661 53.9552 107.698 52.8944C107.754 51.8149 107.838 50.7447 107.95 49.6839L101.417 58.785H99.5743L93.1253 49.7118C93.237 50.7726 93.3114 51.8335 93.3487 52.8944C93.4045 53.9552 93.4324 55.0812 93.4324 56.2724V64.3964H90.4173V44.8541H93.3766Z" fill="white"/>
<path d="M126.243 44.8541C127.322 44.8541 128.318 45.124 129.23 45.6637C130.142 46.1849 130.868 46.9014 131.407 47.8134C131.966 48.7067 132.245 49.7211 132.245 50.8564C132.245 52.0103 131.956 53.0526 131.38 53.9832C130.821 54.9137 130.067 55.6582 129.118 56.2166C128.188 56.7563 127.155 57.0262 126.019 57.0262H119.933V64.3964H116.918V44.8541H126.243ZM125.88 54.1227C126.457 54.1227 126.987 53.9738 127.471 53.6761C127.974 53.3783 128.374 52.9874 128.672 52.5035C128.969 52.001 129.118 51.452 129.118 50.8564C129.118 50.2794 128.969 49.7583 128.672 49.293C128.374 48.8277 127.974 48.4555 127.471 48.1763C126.987 47.8971 126.457 47.7575 125.88 47.7575H119.933V54.1227H125.88Z" fill="white"/>
<path d="M149.646 64.3964L147.636 59.6504H138.144L136.106 64.3964H133.007L141.354 44.8541H144.62L152.912 64.3964H149.646ZM141.382 52.0568L139.372 56.747H146.407L144.341 51.9452C144.099 51.331 143.857 50.7075 143.615 50.0747C143.373 49.4233 143.132 48.7533 142.89 48.0646C142.629 48.7719 142.378 49.4605 142.136 50.1305C141.894 50.8006 141.643 51.4427 141.382 52.0568Z" fill="white"/>
<path d="M157.529 58.45C158.422 59.5667 159.362 60.4321 160.349 61.0463C161.335 61.6605 162.573 61.9676 164.062 61.9676C164.825 61.9676 165.56 61.8652 166.267 61.6605C166.974 61.4371 167.551 61.1207 167.998 60.7113C168.445 60.2832 168.668 59.7528 168.668 59.12C168.668 58.1894 168.203 57.5101 167.272 57.082C166.342 56.6353 165.039 56.2817 163.364 56.0211C161.261 55.6675 159.586 55.044 158.339 54.1507C157.11 53.2387 156.496 51.9079 156.496 50.1585C156.496 49.0045 156.84 48.0088 157.529 47.1713C158.218 46.3338 159.13 45.6917 160.265 45.245C161.4 44.7983 162.647 44.575 164.006 44.575C165.718 44.575 167.198 44.8727 168.445 45.4683C169.71 46.0639 170.697 46.9107 171.404 48.0088L169.338 50.1585C168.743 49.3023 167.989 48.6137 167.077 48.0926C166.183 47.5528 165.132 47.2829 163.922 47.2829C162.712 47.2829 161.689 47.5249 160.851 48.0088C160.032 48.4741 159.623 49.1348 159.623 49.9909C159.623 50.9774 160.06 51.6846 160.935 52.1127C161.81 52.5407 162.973 52.8758 164.425 53.1177C165.374 53.2666 166.286 53.4713 167.161 53.7319C168.035 53.9925 168.817 54.3368 169.506 54.7648C170.213 55.1743 170.771 55.6861 171.181 56.3003C171.59 56.8959 171.795 57.631 171.795 58.5058C171.795 59.7528 171.469 60.8416 170.818 61.7721C170.185 62.6841 169.273 63.4007 168.082 63.9218C166.891 64.4243 165.486 64.6756 163.866 64.6756C162.154 64.6756 160.6 64.3778 159.204 63.7822C157.808 63.1866 156.58 62.2188 155.519 60.8788L157.529 58.45Z" fill="white"/>
<path d="M48.115 77.8934V78.5411H44.3331V73.3298H48.0107V73.9775H45.0775V75.5781H47.6906V76.2109H45.0775V77.8934H48.115Z" fill="white"/>
<path d="M59.5941 73.3298H61.7902C62.3411 73.3298 62.83 73.439 63.2568 73.6574C63.6837 73.8758 64.0137 74.1835 64.247 74.5805C64.4852 74.9726 64.6043 75.4243 64.6043 75.9355C64.6043 76.4467 64.4852 76.9008 64.247 77.2978C64.0137 77.6899 63.6837 77.9951 63.2568 78.2135C62.83 78.4319 62.3411 78.5411 61.7902 78.5411H59.5941V73.3298ZM61.7456 77.8934C62.1674 77.8934 62.5372 77.8115 62.8548 77.6477C63.1774 77.4839 63.4256 77.2556 63.5993 76.9628C63.773 76.665 63.8599 76.3226 63.8599 75.9355C63.8599 75.5483 63.773 75.2084 63.5993 74.9155C63.4256 74.6177 63.1774 74.387 62.8548 74.2232C62.5372 74.0594 62.1674 73.9775 61.7456 73.9775H60.3385V77.8934H61.7456Z" fill="white"/>
<path d="M78.1772 78.6006C77.4824 78.6006 76.9414 78.4021 76.5543 78.0051C76.1672 77.608 75.9736 77.0373 75.9736 76.2928V73.3298H76.7181V76.263C76.7181 77.3797 77.2069 77.9381 78.1847 77.9381C78.6611 77.9381 79.0259 77.8016 79.279 77.5286C79.5322 77.2507 79.6587 76.8288 79.6587 76.263V73.3298H80.3809V76.2928C80.3809 77.0422 80.1873 77.6155 79.8002 78.0125C79.4131 78.4046 78.8721 78.6006 78.1772 78.6006Z" fill="white"/>
<path d="M94.511 78.6006C93.9898 78.6006 93.5183 78.4865 93.0965 78.2582C92.6796 78.0249 92.352 77.7073 92.1138 77.3053C91.8755 76.8983 91.7564 76.4417 91.7564 75.9355C91.7564 75.4292 91.8755 74.9751 92.1138 74.5731C92.352 74.1661 92.682 73.8485 93.1039 73.6202C93.5258 73.3869 93.9973 73.2703 94.5184 73.2703C94.9254 73.2703 95.2976 73.3397 95.6351 73.4787C95.9726 73.6127 96.2605 73.8137 96.4987 74.0817L96.0148 74.5507C95.6227 74.1388 95.1338 73.9328 94.5482 73.9328C94.1611 73.9328 93.8112 74.0197 93.4985 74.1934C93.1858 74.3671 92.9401 74.6078 92.7615 74.9155C92.5877 75.2183 92.5009 75.5583 92.5009 75.9355C92.5009 76.3127 92.5877 76.6551 92.7615 76.9628C92.9401 77.2656 93.1858 77.5038 93.4985 77.6775C93.8112 77.8512 94.1611 77.9381 94.5482 77.9381C95.1289 77.9381 95.6177 77.7296 96.0148 77.3127L96.4987 77.7817C96.2605 78.0497 95.9701 78.2532 95.6277 78.3922C95.2902 78.5312 94.9179 78.6006 94.511 78.6006Z" fill="white"/>
<path d="M111.031 77.2383H108.262L107.688 78.5411H106.922L109.282 73.3298H110.019L112.386 78.5411H111.604L111.031 77.2383ZM110.771 76.6427L109.646 74.0892L108.522 76.6427H110.771Z" fill="white"/>
<path d="M124.21 73.9775H122.423V73.3298H126.734V73.9775H124.947V78.5411H124.21V73.9775Z" fill="white"/>
<path d="M137.818 73.3298H138.563V78.5411H137.818V73.3298Z" fill="white"/>
<path d="M152.749 78.6006C152.223 78.6006 151.749 78.4865 151.327 78.2582C150.905 78.0249 150.573 77.7048 150.33 77.2978C150.091 76.8909 149.972 76.4367 149.972 75.9355C149.972 75.4342 150.091 74.9801 150.33 74.5731C150.573 74.1661 150.905 73.8485 151.327 73.6202C151.749 73.3869 152.223 73.2703 152.749 73.2703C153.27 73.2703 153.742 73.3869 154.164 73.6202C154.586 73.8485 154.916 74.1661 155.154 74.5731C155.392 74.9751 155.511 75.4292 155.511 75.9355C155.511 76.4417 155.392 76.8983 155.154 77.3053C154.916 77.7073 154.586 78.0249 154.164 78.2582C153.742 78.4865 153.27 78.6006 152.749 78.6006ZM152.749 77.9381C153.131 77.9381 153.474 77.8512 153.777 77.6775C154.084 77.5038 154.325 77.2656 154.499 76.9628C154.677 76.6551 154.767 76.3127 154.767 75.9355C154.767 75.5583 154.677 75.2183 154.499 74.9155C154.325 74.6078 154.084 74.3671 153.777 74.1934C153.474 74.0197 153.131 73.9328 152.749 73.9328C152.367 73.9328 152.02 74.0197 151.707 74.1934C151.399 74.3671 151.156 74.6078 150.977 74.9155C150.804 75.2183 150.717 75.5583 150.717 75.9355C150.717 76.3127 150.804 76.6551 150.977 76.9628C151.156 77.2656 151.399 77.5038 151.707 77.6775C152.02 77.8512 152.367 77.9381 152.749 77.9381Z" fill="white"/>
<path d="M171.404 73.3298V78.5411H170.794L167.667 74.655V78.5411H166.923V73.3298H167.533L170.66 77.2159V73.3298H171.404Z" fill="white"/>
</svg>
