<svg width="53" height="53" viewBox="0 0 53 53" fill="none" xmlns="http://www.w3.org/2000/svg">
<path d="M26.5 0C19.4754 0 12.7295 2.79367 7.76228 7.76156C2.79506 12.7295 0 19.4746 0 26.4999C0 33.5253 2.79506 40.2702 7.76228 45.2384C12.7295 50.2061 19.4754 53 26.5 53C33.5246 53 40.2705 50.2061 45.2377 45.2384C50.2049 40.2702 53 33.5253 53 26.4999C53 19.4746 50.2049 12.7295 45.2377 7.76156C40.2705 2.79367 33.5246 0 26.5 0Z" fill="url(#paint0_linear_3_109)"/>
<path d="M12.1925 25.1203C19.8534 21.6685 24.962 19.3926 27.5183 18.2931C34.8134 15.1535 36.3335 14.6081 37.3211 14.5899C37.5365 14.5861 38.0242 14.6417 38.3371 14.9063C38.6053 15.1293 38.6784 15.4308 38.711 15.6423C38.7475 15.8537 38.7922 16.3358 38.7556 16.712C38.3614 21.0098 36.6505 31.4391 35.7807 36.2529C35.4109 38.2896 34.6874 38.9727 33.9843 39.0391C32.4562 39.1845 31.2979 37.9962 29.8186 36.9945C27.5061 35.426 26.2016 34.4501 23.9541 32.9199C21.3612 31.1516 23.0437 30.1795 24.523 28.5912C24.9091 28.1754 31.6312 21.8498 31.7613 21.2761C31.7775 21.2043 31.7938 20.9368 31.6393 20.7957C31.4849 20.6543 31.2614 20.7028 31.0948 20.741C30.8631 20.7953 27.1688 23.3213 20.0119 28.3186C18.9634 29.0634 18.0124 29.4265 17.163 29.4074C16.2241 29.3866 14.4197 28.8588 13.0785 28.4077C11.4325 27.8544 10.1239 27.5617 10.2377 26.622C10.2986 26.1327 10.9489 25.632 12.1925 25.1203Z" fill="white"/>
<defs>
<linearGradient id="paint0_linear_3_109" x1="26.5" y1="0" x2="26.5" y2="53" gradientUnits="userSpaceOnUse">
<stop stop-color="#2AABEE"/>
<stop offset="1" stop-color="#229ED9"/>
</linearGradient>
</defs>
</svg>
