<svg width="21" height="20" viewBox="0 0 21 20" fill="none" xmlns="http://www.w3.org/2000/svg">
<path d="M10.5001 1.66675C5.80008 1.66675 2.16675 5.10841 2.16675 9.75008C2.16675 12.1751 3.15841 14.2834 4.78341 15.7251C4.91675 15.8334 5.00008 16.0167 5.00841 16.2001L5.05008 17.6834C5.08341 18.1584 5.55841 18.4667 5.99175 18.2751L7.64175 17.5501C7.78341 17.5001 7.94175 17.4751 8.08342 17.5001C8.83342 17.7251 9.66675 17.8334 10.5001 17.8334C15.2001 17.8334 18.8334 14.3917 18.8334 9.75008C18.8334 5.10841 15.2001 1.66675 10.5001 1.66675ZM15.5001 7.88342L13.0584 11.7751C12.6667 12.3834 11.8334 12.5417 11.2501 12.0834L9.30008 10.6417C9.21353 10.5768 9.10827 10.5417 9.00008 10.5417C8.8919 10.5417 8.78663 10.5768 8.70008 10.6417L6.06675 12.6417C5.71675 12.9167 5.25841 12.5001 5.50008 12.1167L7.94175 8.22508C8.33342 7.61675 9.16675 7.45842 9.75008 7.89175L11.7001 9.35841C11.7866 9.42333 11.8919 9.45842 12.0001 9.45842C12.1083 9.45842 12.2135 9.42333 12.3001 9.35841L14.9334 7.35842C15.2834 7.08342 15.7417 7.50008 15.5001 7.88342Z" fill="#363DC4"/>
</svg>
