<svg width="21" height="20" viewBox="0 0 21 20" fill="none" xmlns="http://www.w3.org/2000/svg">
<path d="M10.5001 1.66675C5.90008 1.66675 2.16675 5.40008 2.16675 10.0001C2.16675 14.6001 5.90008 18.3334 10.5001 18.3334C15.1001 18.3334 18.8334 14.6001 18.8334 10.0001C18.8334 5.40008 15.1001 1.66675 10.5001 1.66675ZM14.3667 7.33341C14.2417 8.65008 13.7001 11.8501 13.4251 13.3251C13.3084 13.9501 13.0751 14.1584 12.8584 14.1834C12.3751 14.2251 12.0084 13.8667 11.5417 13.5584C10.8084 13.0751 10.3917 12.7751 9.68341 12.3084C8.85842 11.7667 9.39175 11.4667 9.86675 10.9834C9.99175 10.8584 12.1251 8.91675 12.1667 8.74175C12.1725 8.71524 12.1718 8.68772 12.1645 8.66158C12.1572 8.63544 12.1437 8.61147 12.1251 8.59175C12.0751 8.55008 12.0084 8.56675 11.9501 8.57508C11.8751 8.59175 10.7084 9.36675 8.43341 10.9001C8.10008 11.1251 7.80008 11.2417 7.53341 11.2334C7.23341 11.2251 6.66675 11.0667 6.24175 10.9251C5.71675 10.7584 5.30841 10.6667 5.34175 10.3751C5.35841 10.2251 5.56675 10.0751 5.95841 9.91675C8.39175 8.85841 10.0084 8.15841 10.8167 7.82508C13.1334 6.85842 13.6084 6.69175 13.9251 6.69175C13.9917 6.69175 14.1501 6.70841 14.2501 6.79175C14.3334 6.85841 14.3584 6.95008 14.3667 7.01675C14.3584 7.06675 14.3751 7.21675 14.3667 7.33341Z" fill="#363DC4"/>
</svg>
