<svg width="21" height="20" viewBox="0 0 21 20" fill="none" xmlns="http://www.w3.org/2000/svg">
<path d="M19.778 9.25434C20.0051 9.08514 20.1736 8.8491 20.2598 8.57931C20.346 8.30953 20.3456 8.01952 20.2587 7.74997C20.1718 7.48042 20.0027 7.24483 19.7751 7.07624C19.5475 6.90765 19.2729 6.81452 18.9897 6.80989L13.4897 6.60212C13.4626 6.60025 13.4367 6.5906 13.415 6.57434C13.3933 6.55807 13.3768 6.53589 13.3675 6.51045L11.4669 1.37712C11.3714 1.11595 11.198 0.890437 10.9701 0.731107C10.7422 0.571778 10.4708 0.486328 10.1927 0.486328C9.91466 0.486328 9.6433 0.571778 9.41539 0.731107C9.18749 0.890437 9.01405 1.11595 8.91856 1.37712L7.02412 6.52878C7.01475 6.55422 6.99823 6.57641 6.97655 6.59267C6.95486 6.60894 6.92894 6.61858 6.9019 6.62045L1.4019 6.82823C1.11871 6.83285 0.844072 6.92599 0.616491 7.09458C0.38891 7.26317 0.219798 7.49875 0.132868 7.76831C0.0459371 8.03786 0.045547 8.32786 0.131752 8.59764C0.217958 8.86743 0.386435 9.10347 0.613562 9.27267L4.92801 12.6643C4.9496 12.6813 4.96574 12.7043 4.97443 12.7303C4.98312 12.7564 4.98397 12.7845 4.9769 12.811L3.4919 18.0727C3.41494 18.3406 3.4224 18.6257 3.51325 18.8893C3.60409 19.1528 3.77393 19.382 3.99964 19.5456C4.22535 19.7092 4.49598 19.7993 4.77471 19.8037C5.05345 19.808 5.32675 19.7264 5.55745 19.5699L10.1163 16.5143C10.1388 16.4988 10.1654 16.4905 10.1927 16.4905C10.22 16.4905 10.2467 16.4988 10.2691 16.5143L14.828 19.5699C15.0556 19.7317 15.3279 19.8187 15.6072 19.8187C15.8864 19.8187 16.1588 19.7317 16.3863 19.5699C16.6121 19.4078 16.7821 19.1798 16.8729 18.9171C16.9638 18.6545 16.971 18.3701 16.8936 18.1032L15.3963 12.8232C15.3884 12.7967 15.3888 12.7684 15.3976 12.7422C15.4063 12.7159 15.423 12.693 15.4452 12.6766L19.778 9.25434Z" fill="#FFCB49"/>
</svg>
