<svg width="21" height="20" viewBox="0 0 21 20" fill="none" xmlns="http://www.w3.org/2000/svg">
<path d="M19.778 9.24155C20.0051 9.07256 20.1736 8.83681 20.2598 8.56736C20.346 8.29791 20.3456 8.00826 20.2587 7.73905C20.1718 7.46983 20.0027 7.23453 19.7751 7.06615C19.5475 6.89777 19.2729 6.80475 18.9897 6.80013L13.4897 6.59261C13.4626 6.59074 13.4367 6.58111 13.415 6.56486C13.3933 6.54862 13.3768 6.52646 13.3675 6.50105L11.4669 1.37406C11.3714 1.11322 11.198 0.887985 10.9701 0.728852C10.7422 0.569719 10.4708 0.484375 10.1927 0.484375C9.91466 0.484375 9.6433 0.569719 9.41539 0.728852C9.18749 0.887985 9.01405 1.11322 8.91856 1.37406L7.02412 6.51936C7.01475 6.54477 6.99823 6.56693 6.97655 6.58317C6.95486 6.59942 6.92894 6.60905 6.9019 6.61092L1.4019 6.81844C1.11871 6.82306 0.844072 6.91608 0.616491 7.08446C0.38891 7.25284 0.219798 7.48814 0.132868 7.75736C0.0459371 8.02658 0.045547 8.31622 0.131752 8.58567C0.217958 8.85512 0.386435 9.09087 0.613562 9.25986L4.92801 12.6473C4.9496 12.6643 4.96574 12.6872 4.97443 12.7133C4.98312 12.7393 4.98397 12.7673 4.9769 12.7938L3.4919 18.049C3.41494 18.3166 3.4224 18.6014 3.51325 18.8646C3.60409 19.1278 3.77393 19.3567 3.99964 19.5201C4.22535 19.6835 4.49598 19.7735 4.77471 19.7779C5.05345 19.7822 5.32675 19.7007 5.55745 19.5444L10.1163 16.4926C10.1388 16.4771 10.1654 16.4688 10.1927 16.4688C10.22 16.4688 10.2467 16.4771 10.2691 16.4926L14.828 19.5444C15.0556 19.706 15.3279 19.7929 15.6072 19.7929C15.8864 19.7929 16.1588 19.706 16.3863 19.5444C16.6121 19.3825 16.7821 19.1547 16.8729 18.8924C16.9638 18.6301 16.971 18.3461 16.8936 18.0795L15.3963 12.806C15.3884 12.7796 15.3888 12.7513 15.3976 12.7251C15.4063 12.6989 15.423 12.676 15.4452 12.6595L19.778 9.24155Z" fill="#CFD0D1"/>
</svg>
