<svg width="106" height="31" viewBox="0 0 106 31" fill="none" xmlns="http://www.w3.org/2000/svg">
<path d="M10.3818 24.6646C9.3684 24.6646 8.5162 24.4978 7.82523 24.164C7.13426 23.8303 6.58149 23.3584 6.1669 22.7485C5.75232 22.1271 5.45866 21.4078 5.28592 20.5907H3.92125L5.18227 17.0347C5.2053 17.7367 5.3435 18.3293 5.59685 18.8127C5.85021 19.296 6.21297 19.6701 6.68513 19.9347C7.15729 20.1879 7.71007 20.3145 8.34346 20.3145C9.31082 20.3145 10.0421 20.0326 10.5373 19.4687C11.0325 18.8932 11.2801 18.0359 11.2801 16.8966V14.4971C11.2801 13.3693 11.0325 12.5234 10.5373 11.9595C10.0536 11.3956 9.32809 11.1137 8.36073 11.1137C7.81947 11.1137 7.32428 11.2172 6.87515 11.4244C6.43753 11.6315 6.06326 11.9077 5.75232 12.253C5.4529 12.5867 5.2341 12.9722 5.0959 13.4096L3.90398 10.9756H5.35502C5.52776 10.216 5.8099 9.53128 6.20145 8.92134C6.593 8.29989 7.14002 7.81079 7.84251 7.45404C8.55651 7.08577 9.46053 6.90164 10.5546 6.90164C12.5353 6.90164 14.0324 7.55186 15.0459 8.85229C16.0708 10.1412 16.5833 12.0804 16.5833 14.6697V16.7412C16.5833 19.3536 16.0708 21.3272 15.0459 22.6622C14.0209 23.9972 12.4662 24.6646 10.3818 24.6646ZM0 24.2676V1.46399H5.25137V6.53913L5.165 11.9768L5.18227 12.4429V18.9508L5.0959 19.9693L5.25137 24.2676H0Z" fill="#FE6150"/>
<path d="M28.1795 24.2676L28.3349 20.0211L28.214 19.7621V14.4626L28.1795 13.7721C28.1795 12.8284 27.9031 12.1321 27.3503 11.6833C26.7975 11.2345 25.8705 11.0101 24.5692 11.0101C23.4291 11.0101 22.3465 11.1539 21.3216 11.4416C20.2967 11.7294 19.3293 12.0573 18.4195 12.4256L18.8687 8.33442C19.4099 8.08124 20.0145 7.84532 20.6825 7.62666C21.3619 7.3965 22.1105 7.21236 22.9281 7.07426C23.7458 6.93617 24.621 6.86712 25.5538 6.86712C27.0394 6.86712 28.2831 7.03974 29.285 7.38499C30.2869 7.73023 31.0873 8.21934 31.6861 8.85229C32.285 9.48524 32.7168 10.2448 32.9817 11.1309C33.2466 12.0056 33.379 12.9722 33.379 14.031V24.2676H28.1795ZM22.7726 24.6646C21.0798 24.6646 19.7957 24.2388 18.9205 23.3872C18.0453 22.5356 17.6076 21.3215 17.6076 19.7449V19.2788C17.6076 17.6101 18.1201 16.3787 19.145 15.5846C20.1815 14.779 21.8226 14.2324 24.0682 13.9447L28.6286 13.3405L28.9395 16.5168L24.8974 17.1037C24.0797 17.2073 23.5039 17.3972 23.1699 17.6734C22.836 17.9496 22.669 18.3581 22.669 18.899V19.0198C22.669 19.5377 22.836 19.952 23.1699 20.2627C23.5039 20.5619 24.0394 20.7115 24.7764 20.7115C25.4214 20.7115 25.9741 20.6137 26.4348 20.4181C26.9069 20.2224 27.2927 19.9693 27.5921 19.6585C27.8916 19.3363 28.1161 18.9796 28.2658 18.5883L29.0086 20.7288H28.1449C27.9607 21.4653 27.6728 22.1328 27.2812 22.7312C26.9012 23.3297 26.3484 23.8015 25.6229 24.1468C24.8974 24.492 23.9473 24.6646 22.7726 24.6646Z" fill="#FE6150"/>
<path d="M46.2304 24.2676L41.2208 16.9483H39.8389V13.8411H41.2208L46.0922 7.29868H52.1554L45.6949 15.7227V14.7215L52.3973 24.2676H46.2304ZM35.4167 24.2676V1.46399H40.6681V24.2676H35.4167Z" fill="#FE6150"/>
<path d="M64.6041 24.2676L59.5946 16.9483H58.2126V13.8411H59.5946L64.4659 7.29868H70.5292L64.0686 15.7227V14.7215L70.771 24.2676H64.6041ZM53.7904 24.2676V1.46399H59.0418V24.2676H53.7904Z" fill="#FE6150"/>
<path d="M78.1461 24.6819C76.7987 24.6819 75.5838 24.5611 74.5012 24.3194C73.4187 24.0892 72.4917 23.8188 71.7201 23.5081L71.271 19.0716C72.1577 19.4399 73.1366 19.7736 74.2076 20.0728C75.2901 20.3605 76.459 20.5044 77.7142 20.5044C78.7162 20.5044 79.4244 20.4008 79.839 20.1937C80.2651 19.975 80.4781 19.6413 80.4781 19.1925V19.1234C80.4781 18.8127 80.3687 18.5595 80.1499 18.3639C79.9426 18.1567 79.5741 17.9726 79.0444 17.8115C78.5261 17.6504 77.7949 17.4605 76.8505 17.2418C75.4341 16.9081 74.3112 16.5168 73.4821 16.068C72.6529 15.6076 72.0598 15.0495 71.7028 14.3935C71.3573 13.726 71.1846 12.9377 71.1846 12.0286V11.8905C71.1846 10.2103 71.7834 8.95586 72.9811 8.12727C74.1788 7.28717 75.9408 6.86712 78.267 6.86712C79.5799 6.86712 80.7603 6.98795 81.8082 7.22963C82.8562 7.4713 83.7372 7.75901 84.4512 8.09275L84.9003 12.2185C84.0712 11.8502 83.1441 11.5452 82.1192 11.3035C81.1058 11.0619 80.0405 10.941 78.9234 10.941C78.244 10.941 77.7085 10.9871 77.3169 11.0791C76.9369 11.1712 76.6663 11.3035 76.5051 11.4762C76.3553 11.6488 76.2805 11.8617 76.2805 12.1149V12.1667C76.2805 12.4429 76.3726 12.6788 76.5569 12.8744C76.7411 13.0701 77.0751 13.2542 77.5588 13.4268C78.054 13.5994 78.7622 13.7951 79.6835 14.0137C81.1115 14.3245 82.2631 14.6812 83.1384 15.084C84.0136 15.4753 84.6527 15.9874 85.0558 16.6204C85.4589 17.2418 85.6604 18.0704 85.6604 19.1061V19.2615C85.6604 21.0913 85.0443 22.455 83.8121 23.3527C82.5798 24.2388 80.6912 24.6819 78.1461 24.6819Z" fill="#FE6150"/>
<path d="M97.0105 20.0383L94.1775 21.2639L97.9951 7.29868H103.402L96.475 30.2059H91.1891L93.8321 21.5747L96.3195 23.5426H90.4636L85.8686 7.29868H91.31L94.2466 20.0383H97.0105Z" fill="#FE6150"/>
<path d="M106 0.205811L104.22 5.98609H98.8809L106 0.205811Z" fill="#1F938A"/>
</svg>
