<svg width="106" height="31" viewBox="0 0 106 31" fill="none" xmlns="http://www.w3.org/2000/svg">
<path d="M10.3818 24.8591C9.3684 24.8591 8.5162 24.6922 7.82523 24.3585C7.13426 24.0247 6.58149 23.5529 6.1669 22.943C5.75232 22.3215 5.45866 21.6023 5.28592 20.7852H3.92125L5.18227 17.2291C5.2053 17.9311 5.3435 18.5238 5.59685 19.0071C5.85021 19.4905 6.21297 19.8645 6.68513 20.1292C7.15729 20.3824 7.71007 20.509 8.34346 20.509C9.31082 20.509 10.0421 20.227 10.5373 19.6631C11.0325 19.0877 11.2801 18.2303 11.2801 17.091V14.6915C11.2801 13.5637 11.0325 12.7179 10.5373 12.154C10.0536 11.5901 9.32809 11.3081 8.36073 11.3081C7.81947 11.3081 7.32428 11.4117 6.87515 11.6188C6.43753 11.826 6.06326 12.1022 5.75232 12.4474C5.4529 12.7812 5.2341 13.1667 5.0959 13.604L3.90398 11.17H5.35502C5.52776 10.4105 5.8099 9.72574 6.20145 9.1158C6.593 8.49435 7.14002 8.00525 7.84251 7.6485C8.55651 7.28023 9.46053 7.0961 10.5546 7.0961C12.5353 7.0961 14.0324 7.74632 15.0459 9.04675C16.0708 10.3357 16.5833 12.2748 16.5833 14.8642V16.9357C16.5833 19.548 16.0708 21.5217 15.0459 22.8567C14.0209 24.1916 12.4662 24.8591 10.3818 24.8591ZM0 24.4621V1.65845H5.25137V6.73359L5.165 12.1712L5.18227 12.6373V19.1452L5.0959 20.1637L5.25137 24.4621H0Z" fill="#FE6150"/>
<path d="M28.1795 24.4621L28.3349 20.2155L28.214 19.9566V14.657L28.1795 13.9665C28.1795 13.0229 27.9031 12.3266 27.3503 11.8778C26.7975 11.429 25.8705 11.2045 24.5692 11.2045C23.4291 11.2045 22.3465 11.3484 21.3216 11.6361C20.2967 11.9238 19.3293 12.2518 18.4195 12.6201L18.8687 8.52888C19.4099 8.2757 20.0145 8.03978 20.6825 7.82112C21.3619 7.59095 22.1105 7.40682 22.9281 7.26872C23.7458 7.13062 24.621 7.06157 25.5538 7.06157C27.0394 7.06157 28.2831 7.2342 29.285 7.57945C30.2869 7.92469 31.0873 8.41379 31.6861 9.04675C32.285 9.6797 32.7168 10.4392 32.9817 11.3254C33.2466 12.2 33.379 13.1667 33.379 14.2255V24.4621H28.1795ZM22.7726 24.8591C21.0798 24.8591 19.7957 24.4333 18.9205 23.5817C18.0453 22.7301 17.6076 21.5159 17.6076 19.9393V19.4732C17.6076 17.8045 18.1201 16.5731 19.145 15.7791C20.1815 14.9735 21.8226 14.4269 24.0682 14.1392L28.6286 13.535L28.9395 16.7112L24.8974 17.2982C24.0797 17.4017 23.5039 17.5916 23.1699 17.8678C22.836 18.144 22.669 18.5526 22.669 19.0935V19.2143C22.669 19.7322 22.836 20.1465 23.1699 20.4572C23.5039 20.7564 24.0394 20.906 24.7764 20.906C25.4214 20.906 25.9741 20.8082 26.4348 20.6125C26.9069 20.4169 27.2927 20.1637 27.5921 19.853C27.8916 19.5308 28.1161 19.174 28.2658 18.7827L29.0086 20.9233H28.1449C27.9607 21.6598 27.6728 22.3273 27.2812 22.9257C26.9012 23.5241 26.3484 23.996 25.6229 24.3412C24.8974 24.6865 23.9473 24.8591 22.7726 24.8591Z" fill="#FE6150"/>
<path d="M46.2304 24.4621L41.2208 17.1428H39.8389V14.0356H41.2208L46.0922 7.49313H52.1554L45.6949 15.9172V14.916L52.3973 24.4621H46.2304ZM35.4167 24.4621V1.65845H40.6681V24.4621H35.4167Z" fill="#FE6150"/>
<path d="M64.6041 24.4621L59.5946 17.1428H58.2126V14.0356H59.5946L64.4659 7.49313H70.5292L64.0686 15.9172V14.916L70.771 24.4621H64.6041ZM53.7904 24.4621V1.65845H59.0418V24.4621H53.7904Z" fill="#FE6150"/>
<path d="M78.1461 24.8764C76.7987 24.8764 75.5838 24.7555 74.5012 24.5138C73.4187 24.2837 72.4917 24.0132 71.7201 23.7025L71.271 19.2661C72.1577 19.6343 73.1366 19.9681 74.2076 20.2673C75.2901 20.555 76.459 20.6989 77.7142 20.6989C78.7162 20.6989 79.4244 20.5953 79.839 20.3881C80.2651 20.1695 80.4781 19.8357 80.4781 19.3869V19.3179C80.4781 19.0071 80.3687 18.754 80.1499 18.5583C79.9426 18.3512 79.5741 18.167 79.0444 18.0059C78.5261 17.8448 77.7949 17.6549 76.8505 17.4363C75.4341 17.1025 74.3112 16.7112 73.4821 16.2624C72.6529 15.8021 72.0598 15.2439 71.7028 14.588C71.3573 13.9205 71.1846 13.1322 71.1846 12.223V12.0849C71.1846 10.4047 71.7834 9.15032 72.9811 8.32173C74.1788 7.48163 75.9408 7.06157 78.267 7.06157C79.5799 7.06157 80.7603 7.18241 81.8082 7.42408C82.8562 7.66576 83.7372 7.95346 84.4512 8.2872L84.9003 12.4129C84.0712 12.0446 83.1441 11.7397 82.1192 11.498C81.1058 11.2563 80.0405 11.1355 78.9234 11.1355C78.244 11.1355 77.7085 11.1815 77.3169 11.2736C76.9369 11.3657 76.6663 11.498 76.5051 11.6706C76.3553 11.8433 76.2805 12.0562 76.2805 12.3093V12.3611C76.2805 12.6373 76.3726 12.8732 76.5569 13.0689C76.7411 13.2645 77.0751 13.4487 77.5588 13.6213C78.054 13.7939 78.7622 13.9895 79.6835 14.2082C81.1115 14.5189 82.2631 14.8757 83.1384 15.2785C84.0136 15.6697 84.6527 16.1819 85.0558 16.8148C85.4589 17.4363 85.6604 18.2649 85.6604 19.3006V19.456C85.6604 21.2858 85.0443 22.6495 83.8121 23.5471C82.5798 24.4333 80.6912 24.8764 78.1461 24.8764Z" fill="#FE6150"/>
<path d="M97.0105 20.2328L94.1775 21.4584L97.9951 7.49313H103.402L96.475 30.4003H91.1891L93.8321 21.7691L96.3195 23.737H90.4636L85.8686 7.49313H91.31L94.2466 20.2328H97.0105Z" fill="#FE6150"/>
<path d="M106 0.400391L104.22 6.18067H98.8809L106 0.400391Z" fill="#1F938A"/>
</svg>
