<svg width="106" height="30" viewBox="0 0 106 30" fill="none" xmlns="http://www.w3.org/2000/svg">
<path d="M10.3818 24.4589C9.3684 24.4589 8.5162 24.2921 7.82523 23.9583C7.13426 23.6246 6.58149 23.1528 6.1669 22.5428C5.75232 21.9214 5.45866 21.2021 5.28592 20.385H3.92125L5.18227 16.829C5.2053 17.531 5.3435 18.1236 5.59685 18.607C5.85021 19.0903 6.21297 19.4644 6.68513 19.7291C7.15729 19.9822 7.71007 20.1088 8.34346 20.1088C9.31082 20.1088 10.0421 19.8269 10.5373 19.263C11.0325 18.6876 11.2801 17.8302 11.2801 16.6909V14.2914C11.2801 13.1636 11.0325 12.3177 10.5373 11.7538C10.0536 11.1899 9.32809 10.908 8.36073 10.908C7.81947 10.908 7.32428 11.0115 6.87515 11.2187C6.43753 11.4258 6.06326 11.702 5.75232 12.0473C5.4529 12.381 5.2341 12.7666 5.0959 13.2039L3.90398 10.7699H5.35502C5.52776 10.0103 5.8099 9.32559 6.20145 8.71565C6.593 8.09421 7.14002 7.6051 7.84251 7.24835C8.55651 6.88008 9.46053 6.69595 10.5546 6.69595C12.5353 6.69595 14.0324 7.34617 15.0459 8.6466C16.0708 9.93553 16.5833 11.8747 16.5833 14.464V16.5355C16.5833 19.1479 16.0708 21.1215 15.0459 22.4565C14.0209 23.7915 12.4662 24.4589 10.3818 24.4589ZM0 24.0619V1.2583H5.25137V6.33344L5.165 11.7711L5.18227 12.2372V18.7451L5.0959 19.7636L5.25137 24.0619H0Z" fill="#FE6150"/>
<path d="M28.1795 24.0619L28.3349 19.8154L28.214 19.5564V14.2569L28.1795 13.5664C28.1795 12.6227 27.9031 11.9265 27.3503 11.4776C26.7975 11.0288 25.8705 10.8044 24.5692 10.8044C23.4291 10.8044 22.3465 10.9483 21.3216 11.236C20.2967 11.5237 19.3293 11.8517 18.4195 12.2199L18.8687 8.12873C19.4099 7.87555 20.0145 7.63963 20.6825 7.42097C21.3619 7.19081 22.1105 7.00668 22.9281 6.86858C23.7458 6.73048 24.621 6.66143 25.5538 6.66143C27.0394 6.66143 28.2831 6.83405 29.285 7.1793C30.2869 7.52455 31.0873 8.01365 31.6861 8.6466C32.285 9.27956 32.7168 10.0391 32.9817 10.9252C33.2466 11.7999 33.379 12.7666 33.379 13.8253V24.0619H28.1795ZM22.7726 24.4589C21.0798 24.4589 19.7957 24.0331 18.9205 23.1815C18.0453 22.3299 17.6076 21.1158 17.6076 19.5392V19.0731C17.6076 17.4044 18.1201 16.173 19.145 15.3789C20.1815 14.5734 21.8226 14.0267 24.0682 13.739L28.6286 13.1348L28.9395 16.3111L24.8974 16.898C24.0797 17.0016 23.5039 17.1915 23.1699 17.4677C22.836 17.7439 22.669 18.1524 22.669 18.6933V18.8141C22.669 19.332 22.836 19.7463 23.1699 20.057C23.5039 20.3563 24.0394 20.5059 24.7764 20.5059C25.4214 20.5059 25.9741 20.408 26.4348 20.2124C26.9069 20.0168 27.2927 19.7636 27.5921 19.4529C27.8916 19.1306 28.1161 18.7739 28.2658 18.3826L29.0086 20.5231H28.1449C27.9607 21.2596 27.6728 21.9271 27.2812 22.5256C26.9012 23.124 26.3484 23.5958 25.6229 23.9411C24.8974 24.2863 23.9473 24.4589 22.7726 24.4589Z" fill="#FE6150"/>
<path d="M46.2304 24.0619L41.2208 16.7427H39.8389V13.6354H41.2208L46.0922 7.09299H52.1554L45.6949 15.517V14.5158L52.3973 24.0619H46.2304ZM35.4167 24.0619V1.2583H40.6681V24.0619H35.4167Z" fill="#FE6150"/>
<path d="M64.6041 24.0619L59.5946 16.7427H58.2126V13.6354H59.5946L64.4659 7.09299H70.5292L64.0686 15.517V14.5158L70.771 24.0619H64.6041ZM53.7904 24.0619V1.2583H59.0418V24.0619H53.7904Z" fill="#FE6150"/>
<path d="M78.1461 24.4762C76.7987 24.4762 75.5838 24.3554 74.5012 24.1137C73.4187 23.8835 72.4917 23.6131 71.7201 23.3024L71.271 18.8659C72.1577 19.2342 73.1366 19.5679 74.2076 19.8672C75.2901 20.1549 76.459 20.2987 77.7142 20.2987C78.7162 20.2987 79.4244 20.1951 79.839 19.988C80.2651 19.7693 80.4781 19.4356 80.4781 18.9868V18.9177C80.4781 18.607 80.3687 18.3538 80.1499 18.1582C79.9426 17.951 79.5741 17.7669 79.0444 17.6058C78.5261 17.4447 77.7949 17.2548 76.8505 17.0361C75.4341 16.7024 74.3112 16.3111 73.4821 15.8623C72.6529 15.4019 72.0598 14.8438 71.7028 14.1878C71.3573 13.5203 71.1846 12.732 71.1846 11.8229V11.6848C71.1846 10.0046 71.7834 8.75018 72.9811 7.92158C74.1788 7.08148 75.9408 6.66143 78.267 6.66143C79.5799 6.66143 80.7603 6.78226 81.8082 7.02394C82.8562 7.26561 83.7372 7.55332 84.4512 7.88706L84.9003 12.0128C84.0712 11.6445 83.1441 11.3395 82.1192 11.0979C81.1058 10.8562 80.0405 10.7354 78.9234 10.7354C78.244 10.7354 77.7085 10.7814 77.3169 10.8734C76.9369 10.9655 76.6663 11.0979 76.5051 11.2705C76.3553 11.4431 76.2805 11.656 76.2805 11.9092V11.961C76.2805 12.2372 76.3726 12.4731 76.5569 12.6687C76.7411 12.8644 77.0751 13.0485 77.5588 13.2211C78.054 13.3938 78.7622 13.5894 79.6835 13.8081C81.1115 14.1188 82.2631 14.4755 83.1384 14.8783C84.0136 15.2696 84.6527 15.7817 85.0558 16.4147C85.4589 17.0361 85.6604 17.8647 85.6604 18.9005V19.0558C85.6604 20.8856 85.0443 22.2494 83.8121 23.147C82.5798 24.0331 80.6912 24.4762 78.1461 24.4762Z" fill="#FE6150"/>
<path d="M97.0105 19.8326L94.1775 21.0583L97.9951 7.09299H103.402L96.475 30.0002H91.1891L93.8321 21.369L96.3195 23.3369H90.4636L85.8686 7.09299H91.31L94.2466 19.8326H97.0105Z" fill="#FE6150"/>
<path d="M106 0L104.22 5.78028H98.8809L106 0Z" fill="#1F938A"/>
</svg>
