<svg width="326" height="148" viewBox="0 0 326 148" fill="none" xmlns="http://www.w3.org/2000/svg">
<path d="M175.319 82.2361L168.529 87.6219C167.945 88.0848 167.847 88.9332 168.31 89.5168L173.688 96.2974C174.151 96.881 175 96.9789 175.583 96.516L182.374 91.1301C182.957 90.6672 183.055 89.8189 182.592 89.2353L177.214 82.4546C176.751 81.871 175.903 81.7732 175.319 82.2361Z" fill="#F9F9F9"/>
<path d="M181.719 46.3828L169.723 55.8973C168.685 56.7202 168.511 58.2284 169.334 59.2659L178.833 71.2421C179.656 72.2797 181.164 72.4536 182.202 71.6307L194.198 62.1162C195.235 61.2932 195.409 59.785 194.586 58.7475L185.087 46.7713C184.264 45.7338 182.756 45.5598 181.719 46.3828Z" fill="#F9F9F9"/>
<path d="M80.6417 -13.7484L5.67325 45.7135C-0.811318 50.8568 -1.89864 60.283 3.24465 66.7676L62.6057 141.609C67.749 148.093 77.1752 149.181 83.6598 144.037L158.628 84.5756C165.113 79.4323 166.2 70.006 161.057 63.5215L101.696 -11.3198C96.5525 -17.8044 87.1263 -18.8917 80.6417 -13.7484Z" fill="#F9F9F9"/>
<path d="M38.4896 68.5088C38.4141 66.0606 39.2661 63.6743 40.8749 61.8275C42.6215 59.9518 44.8579 58.6021 47.3314 57.931C50.4714 57.0472 53.7236 56.6265 56.9851 56.6822C61.1182 56.6458 65.2365 57.1795 69.2238 58.2682L67.6627 64.3002C64.6272 63.251 61.4329 62.7355 58.2214 62.7766C55.4407 62.6736 52.6709 63.1764 50.1039 64.2502C48.0058 65.2326 46.9568 66.6355 46.9568 68.4589C46.9568 70.2822 48.0058 71.6934 50.1039 72.6925C52.7636 73.7939 55.6329 74.297 58.5087 74.1661C62.2908 74.2275 66.0487 73.5531 69.5735 72.1804L69.6734 78.6994C65.5272 79.8217 61.2421 80.3473 56.9476 80.2605C53.6908 80.3053 50.4443 79.8848 47.3065 79.0116C44.8313 78.3529 42.5956 77.0011 40.8624 75.1152C39.2758 73.2857 38.4296 70.9297 38.4896 68.5088Z" fill="#3B4A51"/>
<path d="M74.931 65.4242C77.7013 63.7434 80.9112 62.9301 84.1475 63.0888C87.3917 62.9312 90.6092 63.7443 93.389 65.4242C94.4613 66.0737 95.3462 66.9908 95.9571 68.0855C96.5679 69.1802 96.8837 70.4149 96.8733 71.6684C96.895 72.9227 96.5854 74.1604 95.9758 75.2567C95.3663 76.3531 94.4783 77.2692 93.4015 77.9127C90.6094 79.5717 87.3918 80.375 84.1475 80.2231C80.9144 80.3825 77.7067 79.5784 74.931 77.9127C73.8731 77.25 73.0008 76.3293 72.3962 75.237C71.7915 74.1448 71.4743 72.9169 71.4743 71.6684C71.4743 70.42 71.7915 69.1921 72.3962 68.0998C73.0008 67.0076 73.8731 66.0869 74.931 65.4242ZM78.8899 71.6684C78.8782 72.2232 79.0072 72.7718 79.2649 73.2632C79.5226 73.7545 79.9006 74.1726 80.3635 74.4784C81.472 75.211 82.7823 75.5779 84.1101 75.5274C85.4663 75.587 86.8071 75.2202 87.9441 74.4784C88.4186 74.18 88.8089 73.7651 89.0778 73.2733C89.3466 72.7814 89.4852 72.229 89.4801 71.6684C89.4918 71.104 89.3605 70.5459 89.0985 70.0458C88.8365 69.5458 88.4522 69.1202 87.9815 68.8086C86.85 68.0525 85.5072 67.6763 84.1475 67.7346C82.8161 67.6837 81.5033 68.06 80.401 68.8086C79.9303 69.1202 79.5461 69.5458 79.284 70.0458C79.022 70.5459 78.8907 71.104 78.9024 71.6684H78.8899Z" fill="#3B4A51"/>
<path d="M99.9081 63.5759H107.401C107.623 64.3701 107.753 65.1873 107.788 66.0112C109.537 64.0879 112.113 63.1263 115.519 63.1263C117.899 62.9977 120.246 63.7241 122.138 65.1744C122.911 65.8081 123.529 66.6101 123.944 67.5192C124.36 68.4283 124.562 69.4204 124.535 70.4196V79.836H116.705V70.8442C116.709 70.4164 116.608 69.9943 116.409 69.6152C116.211 69.2361 115.922 68.9118 115.569 68.6712C114.713 68.0767 113.687 67.7785 112.646 67.822C111.687 67.7972 110.736 68.0128 109.881 68.449C109.026 68.8852 108.294 69.5283 107.751 70.3197V79.836H99.9081V63.5759Z" fill="#3B4A51"/>
<path d="M126.921 68.0593V63.7382L135.425 57.3816H138.96V63.6258H146.003V68.1092H138.96V72.5302C138.957 72.8689 139.029 73.2041 139.169 73.5124C139.309 73.8208 139.515 74.095 139.771 74.316C140.514 74.8804 141.44 75.1475 142.369 75.0653C143.617 75.0501 144.855 74.8438 146.041 74.4534L146.69 79.1241C144.502 79.9924 142.163 80.4169 139.809 80.3729C138.434 80.3975 137.064 80.2036 135.75 79.7985C134.812 79.5317 133.934 79.0865 133.165 78.4872C132.596 77.9912 132.129 77.3888 131.791 76.7138C131.505 76.1939 131.299 75.634 131.179 75.0528C131.114 74.6397 131.081 74.2222 131.079 73.804V68.0593H126.921Z" fill="#3B4A51"/>
<path d="M150.949 65.4242C153.628 63.8046 156.724 63.0058 159.853 63.1263C162.92 63.0004 165.957 63.7683 168.595 65.3368C169.666 65.9809 170.545 66.8993 171.142 67.9971C171.739 69.0948 172.033 70.3321 171.992 71.581C171.985 72.109 171.91 72.6338 171.767 73.1421H154.658C154.798 73.6483 155.066 74.1102 155.436 74.484C155.805 74.8577 156.264 75.1309 156.768 75.2776C158.367 75.8591 160.064 76.1222 161.764 76.0519C164.767 76.1076 167.748 75.52 170.506 74.3285L170.568 78.8369C167.404 79.8993 164.076 80.3939 160.74 80.298C156.577 80.298 153.313 79.5362 150.949 78.0126C149.877 77.3452 148.994 76.416 148.381 75.3126C147.769 74.2092 147.447 72.968 147.447 71.7059C147.447 70.4439 147.769 69.2026 148.381 68.0992C148.994 66.9958 149.877 66.0666 150.949 65.3992V65.4242ZM154.783 70.4196H165.235C165.175 69.9371 164.994 69.4777 164.708 69.0845C164.421 68.6913 164.04 68.3772 163.599 68.1717C162.489 67.5716 161.24 67.2744 159.978 67.31C158.788 67.2814 157.61 67.5564 156.556 68.1092C156.103 68.3344 155.707 68.6592 155.398 69.0594C155.088 69.4595 154.874 69.9246 154.77 70.4196H154.783Z" fill="#3B4A51"/>
<path d="M175.089 63.5759H182.582C182.804 64.3701 182.934 65.1872 182.969 66.0111C184.931 64.3034 187.403 63.2937 189.999 63.1401C192.595 62.9864 195.169 63.6974 197.318 65.1619C198.089 65.7994 198.703 66.6045 199.114 67.5158C199.525 68.4271 199.723 69.4203 199.691 70.4196V79.8359H191.873V70.8442C191.878 70.4164 191.776 69.9942 191.578 69.6151C191.379 69.2361 191.091 68.9118 190.737 68.6712C189.882 68.0758 188.855 67.7775 187.815 67.822C186.855 67.7972 185.905 68.0127 185.05 68.449C184.195 68.8852 183.462 69.5282 182.919 70.3197V79.8359H175.089V63.5759Z" fill="#3B4A51"/>
<path d="M202.064 68.0593V63.7382L210.569 57.3816H214.103V63.6258H221.146V68.1092H214.103V72.5301C214.101 72.8689 214.172 73.2041 214.312 73.5124C214.452 73.8208 214.658 74.095 214.915 74.316C215.657 74.8804 216.583 75.1475 217.512 75.0653C218.76 75.0501 219.999 74.8438 221.184 74.4534L221.833 79.1241C219.645 79.992 217.306 80.4165 214.952 80.3729C213.577 80.3975 212.207 80.2036 210.893 79.7985C209.955 79.5317 209.078 79.0865 208.308 78.4872C207.734 77.9765 207.267 77.3567 206.935 76.6638C206.649 76.1439 206.442 75.584 206.323 75.0029C206.258 74.5897 206.224 74.1722 206.223 73.754V68.0593H202.064Z" fill="#3B4A51"/>
<path d="M224.393 73.9289C225.308 73.2867 226.398 72.9421 227.516 72.9421C228.633 72.9421 229.723 73.2867 230.638 73.9289C231.031 74.2505 231.343 74.6599 231.549 75.124C231.755 75.5882 231.849 76.0942 231.824 76.6014C231.839 77.1045 231.733 77.6038 231.516 78.0578C231.299 78.5118 230.976 78.9074 230.575 79.2115C229.658 79.8469 228.569 80.1873 227.453 80.1873C226.337 80.1873 225.248 79.8469 224.331 79.2115C223.957 78.8822 223.657 78.4768 223.451 78.0224C223.246 77.5681 223.139 77.0751 223.139 76.5764C223.139 76.0778 223.246 75.5848 223.451 75.1304C223.657 74.6761 223.957 74.2707 224.331 73.9414L224.393 73.9289Z" fill="#3B4A51"/>
<path d="M243.913 57.1193V65.4242H258.162V57.1193H266.767V79.8359H258.162V71.3063H243.913V79.8359H235.308V57.1193H243.913Z" fill="#FF9100"/>
<path d="M270.913 63.5759H278.768V72.5301C278.765 72.9581 278.866 73.3806 279.061 73.7612C279.257 74.1418 279.542 74.4693 279.892 74.7156C280.726 75.3177 281.738 75.6213 282.765 75.5773C283.741 75.6215 284.713 75.4152 285.587 74.978C286.462 74.5409 287.21 73.8873 287.76 73.0796V63.5759H295.615V79.8109H288.122C287.885 78.9988 287.755 78.1591 287.735 77.3132C285.808 79.0677 283.345 80.1198 280.745 80.2989C278.145 80.4779 275.56 79.7735 273.411 78.2998C272.61 77.6711 271.966 76.8638 271.533 75.9422C271.099 75.0206 270.887 74.0104 270.913 72.9922V63.5759Z" fill="#FF9100"/>
<path d="M307.467 56.1702V66.161C309.332 64.1711 312.071 63.1762 315.684 63.1762C318.38 63.0423 321.035 63.8699 323.178 65.5116C324.063 66.2932 324.772 67.2542 325.257 68.3308C325.743 69.4073 325.994 70.5748 325.994 71.7558C325.994 72.9368 325.743 74.1043 325.257 75.1809C324.772 76.2574 324.063 77.2184 323.178 78.0001C321.031 79.6324 318.378 80.455 315.684 80.3229C312.088 80.3229 309.34 79.3072 307.442 77.2757C307.377 78.1725 307.157 79.0513 306.793 79.8733H299.624V56.1702H307.467ZM309.615 74.7656C310.697 75.3283 311.905 75.6076 313.124 75.5773C314.503 75.6274 315.865 75.2619 317.033 74.5283C317.523 74.2323 317.926 73.8117 318.2 73.3092C318.474 72.8068 318.61 72.2406 318.594 71.6684C318.603 71.0961 318.462 70.5315 318.186 70.0301C317.91 69.5286 317.509 69.1076 317.021 68.8085C315.857 68.0611 314.494 67.6864 313.112 67.7345C311.885 67.7086 310.67 67.9875 309.578 68.5463C308.642 69.0021 307.895 69.7708 307.467 70.7193V72.5676C307.921 73.5161 308.67 74.2917 309.603 74.778L309.615 74.7656Z" fill="#FF9100"/>
<path d="M46.6071 90.551C46.3727 90.335 46.1175 90.1425 45.8453 89.9766C45.5901 89.8241 45.3176 89.7025 45.0336 89.6144C44.7405 89.5206 44.4396 89.4537 44.1344 89.4146C43.785 89.3932 43.4347 89.3932 43.0853 89.4146C41.9955 89.3281 40.9045 89.5671 39.9507 90.1015C39.6463 90.3 39.3973 90.5726 39.2269 90.8937C39.0565 91.2148 38.9704 91.5738 38.9766 91.9373C38.9581 92.1624 38.9851 92.389 39.0559 92.6035C39.1267 92.8181 39.2399 93.0162 39.3888 93.1861C39.7387 93.5218 40.1686 93.7625 40.6376 93.8855C41.3931 94.097 42.1604 94.2638 42.9355 94.385C43.7781 94.5192 44.6121 94.7027 45.4332 94.9345C46.0237 95.0858 46.5709 95.3723 47.0317 95.7712C47.2249 95.9627 47.3749 96.1932 47.4718 96.4474C47.5688 96.7015 47.6103 96.9734 47.5937 97.2449C47.6014 97.6442 47.4976 98.0377 47.294 98.3813C47.0721 98.7292 46.7674 99.0167 46.4073 99.2181C45.966 99.4603 45.49 99.633 44.9961 99.7301C44.3795 99.8536 43.7516 99.9122 43.1228 99.9049C42.4782 99.8791 41.8379 99.787 41.2121 99.6302C40.65 99.5158 40.1046 99.3312 39.5886 99.0807C39.0762 98.8334 38.5942 98.5274 38.1524 98.169L38.4271 97.9692C38.7367 98.2378 39.0713 98.4762 39.4262 98.6811C39.7752 98.88 40.1434 99.0432 40.5252 99.1681C40.9316 99.3026 41.3497 99.3988 41.7741 99.4553C42.2252 99.5158 42.6801 99.545 43.1353 99.5428C44.1684 99.5912 45.1976 99.3854 46.1325 98.9433C46.4679 98.7861 46.7503 98.5347 46.9454 98.2199C47.1405 97.905 47.2399 97.5403 47.2315 97.1699C47.2464 96.7116 47.0856 96.2648 46.7819 95.9211C46.3934 95.5464 45.9166 95.2758 45.3957 95.1343C44.607 94.8918 43.8013 94.7081 42.9854 94.5848C42.1816 94.4634 41.3852 94.2966 40.6001 94.0853C40.0438 93.9563 39.5286 93.6901 39.1015 93.311C38.9264 93.1295 38.7905 92.9138 38.7024 92.6775C38.6143 92.4411 38.5759 92.1891 38.5895 91.9373C38.5901 91.3706 38.799 90.8239 39.1764 90.4012C39.5946 89.9445 40.1303 89.6119 40.725 89.4396C41.4857 89.2085 42.278 89.0989 43.0729 89.1149C43.5669 89.1109 44.0602 89.1527 44.5465 89.2397C44.9791 89.3153 45.3993 89.4498 45.7954 89.6394C46.183 89.8323 46.5406 90.0805 46.8569 90.3762L46.6071 90.551Z" fill="black"/>
<path d="M58.8209 99.4304V99.7301H50.4785V89.1523H58.696V89.4521H50.8407V94.1477H57.6969V94.4475H50.8407V99.4429L58.8209 99.4304Z" fill="black"/>
<path d="M66.7136 99.805C65.8924 99.8163 65.0772 99.6634 64.3158 99.3555C63.6183 99.061 62.9827 98.6372 62.4425 98.1066C61.9179 97.619 61.4937 97.0336 61.1937 96.3832C60.9134 95.7632 60.7686 95.0905 60.7691 94.41C60.7635 93.721 60.9084 93.0391 61.1937 92.4119C61.4956 91.7663 61.9197 91.1853 62.4425 90.7009C62.9873 90.1702 63.627 89.7465 64.3283 89.4521C65.071 89.1561 65.8642 89.0077 66.6636 89.015C67.4901 89.0036 68.3102 89.1608 69.0739 89.4771C69.7685 89.7702 70.4002 90.1942 70.9347 90.7259C71.454 91.2182 71.8775 91.8025 72.1836 92.4493C72.4619 93.0568 72.6067 93.7169 72.6082 94.385C72.6102 95.0884 72.4567 95.7836 72.1586 96.4207C71.8561 97.0659 71.4321 97.6468 70.9097 98.1316C70.364 98.6394 69.7288 99.0417 69.0365 99.318C68.3004 99.6274 67.5119 99.7927 66.7136 99.805ZM61.1937 94.435C61.1931 95.09 61.3336 95.7375 61.6058 96.3332C61.8841 96.9446 62.2785 97.496 62.7672 97.9568C63.2816 98.4437 63.8833 98.8293 64.5406 99.0932C65.2474 99.3749 66.0027 99.5149 66.7636 99.5053C67.5389 99.5147 68.308 99.366 69.024 99.0682C69.6758 98.7968 70.2694 98.4024 70.7724 97.9068C71.2492 97.4365 71.6346 96.8818 71.9088 96.2708C72.1815 95.6839 72.3227 95.0446 72.3227 94.3975C72.3227 93.7504 72.1815 93.1111 71.9088 92.5242C71.6244 91.9133 71.2259 91.3623 70.7349 90.9007C69.6653 89.8918 68.2463 89.3367 66.776 89.3522C66.0009 89.3452 65.2323 89.4938 64.5156 89.7893C63.2278 90.3172 62.191 91.3182 61.6183 92.5867C61.3462 93.1653 61.2014 93.7956 61.1937 94.435Z" fill="black"/>
<path d="M89.9173 99.7301L83.3108 93.9729C82.7863 93.5233 82.37 93.1362 82.062 92.8115C81.7999 92.5508 81.5731 92.2569 81.3876 91.9373C81.261 91.712 81.1924 91.4588 81.1878 91.2004C81.1896 90.8161 81.3267 90.4448 81.5749 90.1514C81.8654 89.8076 82.2336 89.5379 82.6489 89.3646C83.1303 89.1594 83.6493 89.0573 84.1725 89.0649C84.6476 89.0572 85.1193 89.1465 85.5588 89.3272C85.9231 89.475 86.2449 89.711 86.4954 90.014C86.713 90.2777 86.8322 90.6088 86.8326 90.9507C86.8285 91.3768 86.6582 91.7846 86.358 92.0871C85.989 92.4717 85.5688 92.8037 85.1092 93.0737L83.5356 94.0104C83.0111 94.3018 82.5157 94.6056 82.0495 94.922C81.6257 95.2002 81.2467 95.5413 80.9255 95.9336C80.644 96.2883 80.494 96.7296 80.5009 97.1824C80.4922 97.4296 80.5367 97.6758 80.6315 97.9042C80.7263 98.1326 80.8692 98.3379 81.0504 98.5062C81.4447 98.8638 81.9141 99.1284 82.4241 99.2805C82.957 99.4516 83.513 99.54 84.0726 99.5428C84.7608 99.5535 85.443 99.4128 86.0708 99.1306C86.6439 98.8707 87.1581 98.4968 87.5819 98.0317C87.9944 97.5739 88.3203 97.0449 88.5435 96.4706C88.7666 95.906 88.881 95.3043 88.8807 94.6972H89.2429C89.2404 95.3307 89.1175 95.958 88.8807 96.5455C88.5036 97.5254 87.8337 98.3652 86.9621 98.9507C86.0906 99.5361 85.0599 99.8388 84.0102 99.8175C83.3777 99.8207 82.7489 99.7195 82.1494 99.5178C81.595 99.3445 81.0927 99.0354 80.6882 98.6186C80.3167 98.229 80.1147 97.7082 80.1263 97.17C80.1188 96.6921 80.2728 96.2257 80.5634 95.8462C80.8928 95.4294 81.2896 95.0707 81.7373 94.7847C82.2285 94.4599 82.7655 94.1353 83.3483 93.8105C83.9311 93.4858 84.4806 93.1611 84.9968 92.8364C85.3969 92.5959 85.7589 92.2971 86.0708 91.9498C86.3095 91.6861 86.4428 91.3438 86.4455 90.9881C86.441 90.7563 86.378 90.5294 86.2623 90.3285C86.1466 90.1276 85.9819 89.9593 85.7836 89.8392C85.2916 89.5157 84.7109 89.3541 84.1226 89.3771C83.669 89.3708 83.2189 89.4558 82.7988 89.6269C82.4382 89.7755 82.1175 90.0064 81.8622 90.3013C81.6362 90.5609 81.512 90.8937 81.5125 91.2379C81.5191 91.4382 81.5703 91.6344 81.6623 91.8124C81.818 92.099 82.0112 92.3636 82.2368 92.5992C82.6279 93.0165 83.045 93.4086 83.4857 93.7731L90.3793 99.7426L89.9173 99.7301Z" fill="black"/>
<path d="M97.1856 94.3476C97.188 93.6982 97.324 93.0563 97.5852 92.4618C97.8646 91.826 98.2631 91.2495 98.7591 90.7634C99.2955 90.2281 99.932 89.8038 100.632 89.5145C101.427 89.1995 102.275 89.0425 103.13 89.0524C104.131 89.0208 105.124 89.2443 106.015 89.7019C106.742 90.08 107.348 90.6557 107.763 91.3628L107.426 91.4502C107.11 90.9444 106.683 90.5173 106.177 90.2014C105.706 89.896 105.187 89.6722 104.641 89.5395C104.106 89.4067 103.557 89.3396 103.005 89.3397C102.197 89.3275 101.395 89.476 100.645 89.7768C99.9895 90.0416 99.3946 90.4367 98.8965 90.9382C98.4341 91.4003 98.0652 91.9473 97.81 92.5492C97.5709 93.123 97.4478 93.7385 97.4478 94.3601C97.4436 95.0288 97.5887 95.6902 97.8724 96.2958C98.1769 96.9181 98.6013 97.474 99.1213 97.9318C99.6426 98.4159 100.248 98.801 100.907 99.0682C101.606 99.3479 102.353 99.4879 103.105 99.4803C103.712 99.4933 104.317 99.4218 104.903 99.268C105.487 99.1123 106.043 98.868 106.552 98.5437C107.056 98.2261 107.483 97.7993 107.801 97.2949L108.138 97.3698C107.838 97.9115 107.409 98.3706 106.889 98.7061C106.333 99.0783 105.722 99.3607 105.078 99.5428C104.441 99.7295 103.781 99.8262 103.118 99.83C102.302 99.838 101.494 99.6764 100.745 99.3555C100.049 99.0584 99.4135 98.6349 98.8715 98.1066C98.3453 97.6059 97.9212 97.0079 97.6227 96.3457C97.3368 95.7182 97.1878 95.0371 97.1856 94.3476Z" fill="black"/>
<path d="M114.582 99.88C113.993 99.8855 113.408 99.7796 112.859 99.5678C112.337 99.3681 111.858 99.0715 111.447 98.6936C111.054 98.3421 110.732 97.9181 110.498 97.4447C110.275 96.9681 110.159 96.4477 110.161 95.9211C110.158 95.385 110.277 94.8553 110.511 94.3726C110.75 93.8996 111.076 93.4759 111.472 93.1237C111.884 92.7465 112.363 92.45 112.884 92.2495C113.978 91.8339 115.186 91.8339 116.28 92.2495C116.801 92.4503 117.28 92.7468 117.692 93.1237C118.088 93.4761 118.414 93.8997 118.653 94.3726C118.887 94.8551 119.007 95.3849 119.003 95.9211C118.991 96.4369 118.868 96.944 118.641 97.4073C118.405 97.8826 118.079 98.3069 117.679 98.6561C116.823 99.427 115.709 99.8502 114.557 99.8425L114.582 99.88ZM110.523 95.9086C110.52 96.5616 110.711 97.2007 111.073 97.7444C111.431 98.329 111.934 98.8108 112.534 99.1432C113.162 99.4735 113.86 99.6461 114.57 99.6461C115.279 99.6461 115.978 99.4735 116.605 99.1432C117.207 98.822 117.719 98.3537 118.091 97.7819C118.465 97.2287 118.665 96.5763 118.665 95.9086C118.665 95.241 118.465 94.5886 118.091 94.0354C117.719 93.4711 117.213 93.0077 116.618 92.6866C115.994 92.3442 115.293 92.1678 114.582 92.1746C113.888 92.1721 113.204 92.342 112.591 92.6689C111.979 92.9959 111.457 93.4697 111.073 94.0478C110.71 94.6003 110.519 95.2477 110.523 95.9086Z" fill="black"/>
<path d="M128.519 99.7301H128.157V95.3966C128.23 94.5261 128.033 93.6544 127.595 92.8989C127.382 92.6284 127.105 92.4149 126.789 92.2776C126.473 92.1403 126.128 92.0835 125.784 92.1121C125.184 92.1114 124.59 92.2303 124.036 92.4618C123.489 92.6818 122.989 93.0039 122.562 93.4109C122.159 93.7874 121.851 94.2539 121.663 94.7722V99.6676H121.301V91.9248H121.663V93.9229C121.937 93.495 122.288 93.1222 122.7 92.824C123.136 92.4999 123.62 92.247 124.136 92.0746C124.659 91.8981 125.207 91.8095 125.759 91.8124C126.186 91.7995 126.61 91.8717 127.008 92.0247C127.347 92.1623 127.644 92.3862 127.87 92.6741C128.113 93.0005 128.283 93.3753 128.369 93.7731C128.485 94.2936 128.54 94.8259 128.532 95.3591L128.519 99.7301Z" fill="black"/>
<path d="M135.388 99.4428C135.124 99.5769 134.848 99.6857 134.564 99.7675C134.278 99.8392 133.984 99.8728 133.689 99.8674C133.416 99.8704 133.144 99.8195 132.89 99.7176C132.662 99.6271 132.461 99.4811 132.303 99.293C132.154 99.1148 132.074 98.8886 132.078 98.6561V92.2869H130.742V91.9872H132.078V89.2897H132.378V91.9872H134.614V92.2869H132.378V98.681C132.386 98.8187 132.428 98.9523 132.5 99.07C132.572 99.1876 132.671 99.2857 132.79 99.3554C133.041 99.5115 133.331 99.5938 133.627 99.5927C133.989 99.6049 134.35 99.5455 134.689 99.4179L135.138 99.218L135.388 99.4428Z" fill="black"/>
<path d="M141.045 99.8799C139.873 99.8714 138.747 99.4261 137.886 98.6311C137.487 98.281 137.161 97.8568 136.924 97.3822C136.692 96.8904 136.572 96.3527 136.574 95.8087C136.567 95.1029 136.771 94.4111 137.161 93.823C137.56 93.2213 138.106 92.7313 138.747 92.3993C139.429 92.0427 140.189 91.8624 140.958 91.8748C141.74 91.8643 142.513 92.0488 143.206 92.4118C143.858 92.7475 144.416 93.2413 144.829 93.848C145.235 94.4442 145.448 95.1501 145.441 95.8711V96.0335H136.936C136.991 96.6816 137.22 97.303 137.598 97.8318C137.986 98.3615 138.496 98.7899 139.085 99.0807C139.698 99.3966 140.38 99.5594 141.07 99.5552C141.762 99.5607 142.446 99.4068 143.068 99.1056C143.622 98.8627 144.085 98.452 144.392 97.9317L144.729 98.0067C144.539 98.3835 144.26 98.709 143.918 98.9558C143.521 99.2492 143.078 99.473 142.606 99.6177C142.103 99.7853 141.576 99.8738 141.045 99.8799ZM136.924 95.7337H145.042C145.005 95.0762 144.789 94.4412 144.417 93.8979C144.044 93.3688 143.547 92.9399 142.968 92.6491C142.347 92.3437 141.663 92.185 140.97 92.185C140.278 92.185 139.594 92.3437 138.972 92.6491C138.396 92.938 137.902 93.3676 137.536 93.8979C137.175 94.4452 136.968 95.0792 136.936 95.7337H136.924Z" fill="black"/>
<path d="M155.22 99.7301H154.857V95.3966C154.93 94.5261 154.734 93.6544 154.296 92.8989C154.082 92.6284 153.805 92.4149 153.489 92.2776C153.173 92.1403 152.828 92.0835 152.485 92.1121C151.884 92.1114 151.29 92.2303 150.736 92.4618C150.189 92.6818 149.689 93.0039 149.263 93.4109C148.86 93.7874 148.552 94.2539 148.363 94.7722V99.6676H148.001V91.9248H148.363V93.9229C148.637 93.495 148.989 93.1222 149.4 92.824C149.836 92.4999 150.321 92.247 150.836 92.0746C151.359 91.8981 151.908 91.8095 152.46 91.8124C152.886 91.7995 153.311 91.8717 153.709 92.0247C154.047 92.1623 154.345 92.3862 154.57 92.6741C154.813 93.0005 154.984 93.3753 155.07 93.7731C155.186 94.2936 155.24 94.8259 155.232 95.3591L155.22 99.7301Z" fill="black"/>
<path d="M162.088 99.4428C161.824 99.5769 161.549 99.6857 161.264 99.7675C160.978 99.8392 160.684 99.8728 160.39 99.8674C160.116 99.8704 159.845 99.8195 159.591 99.7176C159.363 99.6271 159.161 99.4811 159.004 99.293C158.854 99.1148 158.774 98.8886 158.779 98.6561V92.2869H157.443V91.9872H158.779V89.2897H159.141V91.9872H161.376V92.2869H159.141V98.681C159.149 98.8187 159.191 98.9523 159.262 99.07C159.334 99.1876 159.434 99.2857 159.553 99.3554C159.804 99.5115 160.094 99.5938 160.39 99.5927C160.752 99.6049 161.113 99.5455 161.451 99.4179L161.901 99.218L162.088 99.4428Z" fill="black"/>
<path d="M181.495 99.7301V89.7393L175.863 97.5821H175.576L169.944 89.7393V99.7301H169.581V89.1523H169.844L175.701 97.2949L181.57 89.1523H181.858V99.7426L181.495 99.7301Z" fill="black"/>
<path d="M184.68 97.5071C184.679 97.2925 184.721 97.0799 184.805 96.8823C184.889 96.6847 185.012 96.5063 185.167 96.3582C185.55 95.9989 186.012 95.7338 186.516 95.5839C187.158 95.384 187.829 95.2871 188.502 95.2966C189.045 95.2973 189.587 95.3348 190.125 95.409C190.633 95.4736 191.134 95.5822 191.624 95.7337V94.8595C191.636 94.4933 191.567 94.1289 191.422 93.7922C191.278 93.4556 191.061 93.1548 190.787 92.9113C190.168 92.3975 189.38 92.1345 188.576 92.1745C188.088 92.1847 187.604 92.2689 187.14 92.4243C186.595 92.6023 186.071 92.8411 185.579 93.1361L185.367 92.8988C185.905 92.5863 186.474 92.3309 187.065 92.137C187.557 91.9753 188.071 91.8911 188.589 91.8873C189.492 91.8335 190.383 92.1185 191.087 92.6865C191.393 92.9573 191.634 93.2928 191.794 93.6687C191.954 94.0446 192.028 94.4514 192.011 94.8595V99.1431C192.005 99.1827 192.008 99.2232 192.02 99.2614C192.032 99.2996 192.053 99.3346 192.081 99.3635C192.109 99.3925 192.143 99.4147 192.18 99.4284C192.218 99.4422 192.258 99.4471 192.298 99.4428V99.7426H192.136H192.048C191.932 99.7057 191.83 99.631 191.761 99.5302C191.689 99.4279 191.649 99.3059 191.649 99.1806V98.4687C191.178 98.9529 190.6 99.3206 189.963 99.5427C189.243 99.8052 188.481 99.9363 187.715 99.9299C187.19 99.939 186.67 99.8324 186.191 99.6177C185.761 99.429 185.386 99.1322 185.105 98.756C184.824 98.4007 184.674 97.9598 184.68 97.5071ZM191.349 98.2065C191.433 98.1101 191.501 98.0004 191.549 97.8818C191.587 97.7908 191.609 97.6933 191.611 97.5945V96.0584C191.123 95.8969 190.622 95.7799 190.113 95.7088C189.575 95.6327 189.032 95.5952 188.489 95.5964C187.626 95.5629 186.768 95.7431 185.991 96.1209C185.715 96.2355 185.478 96.4271 185.307 96.6729C185.137 96.9186 185.04 97.2082 185.03 97.5071C185.028 97.8857 185.151 98.2544 185.379 98.5561C185.63 98.8846 185.961 99.1427 186.341 99.3054C186.761 99.4925 187.217 99.5862 187.677 99.5802C188.426 99.5882 189.171 99.4613 189.875 99.2055C190.45 99.0163 190.96 98.6703 191.349 98.2065Z" fill="black"/>
<path d="M199.367 92.2869C198.554 92.2975 197.763 92.5496 197.094 93.0112C196.454 93.4523 195.979 94.0938 195.745 94.8346V99.7301H195.383V91.9872H195.745V93.9854C196.052 93.4456 196.479 92.9841 196.994 92.6366C197.509 92.2917 198.1 92.0774 198.717 92.0122H199.054H199.317L199.367 92.2869Z" fill="black"/>
<path d="M208.371 99.7301L204.412 95.2842L201.914 97.1949V99.6926H201.552V88.8526H201.914V96.8078L208.246 91.9997H208.733L204.712 95.0844L208.82 99.7426L208.371 99.7301Z" fill="black"/>
<path d="M214.378 99.8799C213.206 99.8714 212.079 99.4261 211.218 98.6311C210.82 98.2808 210.493 97.8567 210.257 97.3822C210.024 96.8904 209.905 96.3527 209.907 95.8087C209.899 95.1029 210.104 94.4111 210.494 93.823C210.893 93.2217 211.439 92.7318 212.08 92.3993C212.762 92.0433 213.521 91.863 214.29 91.8748C215.073 91.8637 215.845 92.0483 216.538 92.4118C217.191 92.7471 217.749 93.2409 218.162 93.848C218.567 94.4442 218.781 95.1501 218.774 95.8711V96.0335H210.269C210.324 96.6816 210.552 97.303 210.931 97.8318C211.319 98.3608 211.829 98.7891 212.417 99.0807C213.031 99.3961 213.712 99.5589 214.403 99.5552C215.094 99.5607 215.778 99.4068 216.401 99.1057C216.954 98.8627 217.417 98.452 217.725 97.9317L218.062 98.0067C217.872 98.3838 217.593 98.7094 217.25 98.9558C216.854 99.2492 216.41 99.473 215.939 99.6177C215.435 99.7853 214.909 99.8738 214.378 99.8799ZM210.269 95.7338H218.387C218.35 95.0763 218.134 94.4415 217.762 93.898C217.389 93.3692 216.891 92.9403 216.313 92.6491C215.692 92.3438 215.008 92.185 214.315 92.185C213.623 92.185 212.939 92.3438 212.317 92.6491C211.741 92.9381 211.247 93.3676 210.881 93.898C210.511 94.4426 210.296 95.0768 210.257 95.7338H210.269Z" fill="black"/>
<path d="M224.868 99.4428C224.604 99.5769 224.328 99.6857 224.044 99.7675C223.758 99.839 223.464 99.8726 223.17 99.8674C222.896 99.8704 222.624 99.8195 222.37 99.7176C222.142 99.6271 221.941 99.4811 221.783 99.293C221.634 99.1148 221.554 98.8886 221.559 98.6561V92.2869H220.222V91.9872H221.559V89.2897H221.921V91.9872H224.156V92.2869H221.921V98.681C221.929 98.8187 221.97 98.9523 222.042 99.0699C222.114 99.1876 222.214 99.2857 222.333 99.3554C222.584 99.5122 222.874 99.5945 223.17 99.5927C223.527 99.6036 223.884 99.5442 224.219 99.4179L224.668 99.218L224.868 99.4428Z" fill="black"/>
<path d="M226.891 89.989V88.8401H227.291V89.989H226.891ZM226.891 99.7301V91.9872H227.291V99.7301H226.891Z" fill="black"/>
<path d="M237.819 99.7301H237.456V95.3966C237.529 94.5261 237.333 93.6544 236.895 92.8989C236.681 92.6284 236.404 92.4149 236.088 92.2776C235.772 92.1403 235.427 92.0835 235.084 92.1121C234.483 92.1114 233.889 92.2303 233.335 92.4618C232.788 92.6815 232.288 93.0037 231.862 93.4109C231.458 93.7871 231.15 94.2536 230.962 94.7722V99.6676H230.6V91.9248H230.962V93.9229C231.236 93.4948 231.588 93.122 231.999 92.824C232.435 92.4999 232.92 92.247 233.435 92.0746C233.958 91.8981 234.507 91.8095 235.059 91.8124C235.485 91.7995 235.909 91.8717 236.308 92.0247C236.646 92.1628 236.943 92.3866 237.169 92.6741C237.413 93.0003 237.583 93.3751 237.669 93.7731C237.785 94.2936 237.839 94.8259 237.831 95.3591L237.819 99.7301Z" fill="black"/>
<path d="M244.875 99.8799C243.684 99.8928 242.534 99.4454 241.665 98.6311C241.279 98.2761 240.961 97.8527 240.728 97.3822C240.514 96.9293 240.403 96.4346 240.404 95.9336C240.404 95.4179 240.51 94.9077 240.716 94.435C240.93 93.9666 241.231 93.543 241.603 93.1861C241.997 92.7994 242.464 92.4939 242.976 92.2869C243.532 92.0653 244.126 91.955 244.725 91.9622C245.495 91.9416 246.257 92.1362 246.923 92.5242C247.52 92.8607 248.06 93.2908 248.521 93.7981V91.9997H248.883V100.067C248.902 100.682 248.693 101.283 248.296 101.753C247.887 102.213 247.36 102.554 246.773 102.74C246.129 102.958 245.454 103.068 244.775 103.065C243.888 103.109 243.004 102.933 242.202 102.552C241.614 102.237 241.115 101.777 240.753 101.216L241.091 101.129C241.467 101.699 242.013 102.136 242.652 102.378C243.329 102.639 244.049 102.77 244.775 102.765C245.413 102.771 246.047 102.665 246.648 102.453C247.175 102.275 247.645 101.961 248.009 101.541C248.355 101.124 248.537 100.596 248.521 100.055V98.1191C248.096 98.6521 247.553 99.0795 246.935 99.3679C246.298 99.698 245.592 99.8734 244.875 99.8799ZM244.875 99.5802C245.299 99.5755 245.721 99.5038 246.123 99.3679C246.53 99.234 246.917 99.0449 247.272 98.8059C247.59 98.5983 247.873 98.3411 248.109 98.0441C248.309 97.8063 248.434 97.5156 248.471 97.2074V94.4225C248.269 93.9725 247.965 93.5752 247.585 93.261C247.182 92.9223 246.726 92.6522 246.236 92.4618C245.738 92.2699 245.208 92.1725 244.675 92.1745C244.1 92.1642 243.53 92.2749 243.001 92.4992C242.53 92.702 242.104 92.9995 241.753 93.3734C241.42 93.7386 241.157 94.162 240.978 94.6223C240.806 95.0381 240.717 95.4836 240.716 95.9336C240.714 96.4173 240.82 96.8954 241.028 97.3323C241.242 97.7828 241.543 98.1862 241.915 98.5187C242.299 98.87 242.743 99.1492 243.226 99.3429C243.755 99.5304 244.315 99.6111 244.875 99.5802Z" fill="black"/>
<path d="M257.526 99.7301V89.1523H262.696C263.188 89.1487 263.676 89.2421 264.132 89.4271C264.549 89.6009 264.93 89.8508 265.256 90.1639C265.561 90.4586 265.81 90.8054 265.993 91.1879C266.166 91.5506 266.256 91.9475 266.255 92.3494C266.255 92.8999 266.104 93.4399 265.818 93.9104C265.509 94.43 265.068 94.8578 264.539 95.1498C264.01 95.4417 263.412 95.5873 262.808 95.5714H257.813V99.7301H257.526ZM257.888 95.2717H262.883C263.467 95.2855 264.043 95.134 264.544 94.8346C264.988 94.5675 265.354 94.1885 265.606 93.7356C265.842 93.3117 265.967 92.8347 265.968 92.3494C265.969 91.8434 265.822 91.3482 265.543 90.9257C265.25 90.4774 264.851 90.1085 264.382 89.8517C263.885 89.5763 263.326 89.4343 262.758 89.4396H257.95L257.888 95.2717Z" fill="black"/>
<path d="M268.79 88.8526H269.152V98.6561C269.148 98.7881 269.176 98.9191 269.232 99.0385C269.289 99.1579 269.373 99.2622 269.477 99.3429C269.727 99.5221 270.031 99.6102 270.339 99.5927H270.813L271.325 99.4928L271.45 99.7301L270.838 99.855C270.63 99.8709 270.422 99.8709 270.214 99.855C269.843 99.8723 269.478 99.7523 269.19 99.5178C269.063 99.4087 268.962 99.2723 268.895 99.1188C268.828 98.9652 268.796 98.7985 268.803 98.6311L268.79 88.8526Z" fill="black"/>
<path d="M273.111 97.5071C273.11 97.2925 273.152 97.0799 273.236 96.8823C273.32 96.6847 273.443 96.5063 273.598 96.3582C273.981 95.9981 274.443 95.7329 274.947 95.5839C275.59 95.3838 276.26 95.2869 276.933 95.2966C277.476 95.2972 278.018 95.3348 278.556 95.409C279.064 95.4737 279.566 95.5823 280.055 95.7337V94.8595C280.067 94.4933 279.998 94.1289 279.853 93.7922C279.709 93.4556 279.492 93.1548 279.218 92.9113C278.6 92.3975 277.811 92.1345 277.008 92.1745C276.519 92.1845 276.035 92.2687 275.571 92.4243C275.026 92.6022 274.502 92.841 274.01 93.1361L273.798 92.8988C274.336 92.586 274.905 92.3307 275.496 92.137C275.988 91.9753 276.502 91.8911 277.02 91.8873C277.923 91.8335 278.814 92.1185 279.518 92.6865C279.824 92.9573 280.065 93.2928 280.225 93.6687C280.385 94.0446 280.459 94.4514 280.442 94.8595V99.1431C280.436 99.1827 280.439 99.2232 280.451 99.2614C280.463 99.2996 280.484 99.3346 280.512 99.3635C280.54 99.3924 280.574 99.4147 280.611 99.4284C280.649 99.4421 280.689 99.4471 280.729 99.4428V99.7425H280.567H280.479C280.362 99.7066 280.261 99.6317 280.192 99.5302C280.119 99.4283 280.08 99.306 280.08 99.1806V98.4687C279.609 98.9529 279.032 99.3206 278.394 99.5427C277.674 99.8049 276.912 99.9361 276.146 99.9299C275.621 99.9386 275.101 99.832 274.622 99.6177C274.192 99.429 273.817 99.1322 273.536 98.756C273.255 98.4007 273.105 97.9598 273.111 97.5071ZM279.792 98.2065C279.877 98.1101 279.944 98.0004 279.992 97.8818C280.031 97.7908 280.052 97.6933 280.055 97.5945V96.0584C279.567 95.8968 279.065 95.7798 278.556 95.7088C278.018 95.6327 277.476 95.5951 276.933 95.5964C276.07 95.5629 275.212 95.7431 274.435 96.1209C274.159 96.2355 273.921 96.4271 273.751 96.6729C273.58 96.9186 273.484 97.2082 273.473 97.5071C273.471 97.8857 273.594 98.2544 273.823 98.5561C274.073 98.885 274.405 99.1432 274.785 99.3054C275.209 99.4943 275.669 99.588 276.133 99.5802C276.878 99.5867 277.619 99.4598 278.319 99.2055C278.875 99.0082 279.368 98.6628 279.743 98.2065H279.792Z" fill="black"/>
<path d="M287.236 99.4428C286.972 99.5769 286.696 99.6857 286.411 99.7675C286.126 99.8392 285.832 99.8728 285.537 99.8674C285.264 99.8704 284.992 99.8195 284.738 99.7176C284.51 99.6276 284.308 99.4815 284.151 99.293C284.002 99.1148 283.922 98.8886 283.926 98.6561V92.2869H282.59V91.9872H283.926V89.2897H284.288V91.9872H286.524V92.2869H284.288V98.681C284.296 98.8187 284.338 98.9523 284.41 99.07C284.482 99.1876 284.582 99.2857 284.7 99.3554C284.952 99.5115 285.242 99.5938 285.537 99.5927C285.899 99.6049 286.26 99.5455 286.599 99.4179L287.048 99.218L287.236 99.4428Z" fill="black"/>
<path d="M289.733 99.7301V92.237H288.397V91.9373H289.733V91.65C289.72 91.098 289.822 90.5494 290.033 90.039C290.203 89.6215 290.495 89.2647 290.87 89.015C291.264 88.7739 291.719 88.6524 292.181 88.6653C292.519 88.6617 292.856 88.708 293.18 88.8027C293.443 88.866 293.686 88.99 293.892 89.1648L293.605 89.3397C293.427 89.2036 293.223 89.1058 293.005 89.0524C292.746 88.9767 292.477 88.9388 292.206 88.94C291.91 88.9228 291.614 88.9761 291.343 89.0955C291.071 89.2149 290.832 89.397 290.645 89.6269C290.242 90.2165 290.048 90.9247 290.096 91.6376V91.9498H292.868V92.2495H290.096V99.7426L289.733 99.7301Z" fill="black"/>
<path d="M298.475 99.8799C297.886 99.8854 297.302 99.7795 296.752 99.5677C296.231 99.368 295.752 99.0714 295.341 98.6935C294.947 98.342 294.625 97.918 294.392 97.4447C294.168 96.968 294.053 96.4476 294.054 95.9211C294.051 95.3849 294.17 94.855 294.404 94.3725C294.643 93.8995 294.97 93.4759 295.366 93.1236C295.777 92.7467 296.256 92.4502 296.777 92.2495C297.871 91.8338 299.08 91.8338 300.174 92.2495C300.695 92.4497 301.174 92.7462 301.585 93.1236C301.981 93.4763 302.307 93.8998 302.547 94.3725C302.78 94.855 302.9 95.3849 302.896 95.9211C302.898 96.4476 302.783 96.968 302.559 97.4447C302.323 97.9198 301.997 98.3441 301.597 98.6935C300.741 99.4644 299.628 99.8876 298.475 99.8799ZM294.417 95.9086C294.413 96.5615 294.604 97.2007 294.966 97.7444C295.318 98.3254 295.812 98.8069 296.402 99.1431C297.03 99.4734 297.729 99.646 298.438 99.646C299.147 99.646 299.846 99.4734 300.473 99.1431C301.075 98.8215 301.587 98.3533 301.96 97.7819C302.333 97.2286 302.533 96.5762 302.533 95.9086C302.533 95.2409 302.333 94.5886 301.96 94.0353C301.574 93.4583 301.052 92.9853 300.44 92.6582C299.828 92.3311 299.144 92.16 298.45 92.16C297.756 92.16 297.073 92.3311 296.461 92.6582C295.849 92.9853 295.327 93.4583 294.941 94.0353C294.576 94.5913 294.385 95.2434 294.392 95.9086H294.417Z" fill="black"/>
<path d="M309.528 92.2869C308.715 92.2975 307.924 92.5496 307.255 93.0112C306.638 93.4622 306.187 94.1026 305.968 94.8346V99.7301H305.606V91.9872H305.968V93.9854C306.275 93.4454 306.702 92.9837 307.217 92.6366C307.732 92.2913 308.324 92.0769 308.941 92.0122H309.265H309.528V92.2869Z" fill="black"/>
<path d="M325.051 99.7301H324.701V95.3966C324.774 94.5196 324.559 93.6427 324.089 92.8989C323.864 92.6252 323.576 92.4097 323.25 92.2706C322.924 92.1315 322.569 92.0729 322.216 92.0996C321.387 92.0809 320.577 92.3452 319.918 92.8489C319.277 93.3375 318.806 94.0144 318.569 94.7846V99.6552H318.207V95.3966C318.281 94.5212 318.071 93.6453 317.608 92.8989C317.381 92.6275 317.093 92.4144 316.767 92.2775C316.441 92.1406 316.087 92.0839 315.734 92.1121C314.91 92.1117 314.109 92.3889 313.462 92.8989C312.816 93.385 312.332 94.0556 312.075 94.8221V99.7176H311.713V91.9747H312.075V93.9729C312.454 93.3275 312.991 92.79 313.636 92.4118C314.253 92.0492 314.956 91.8593 315.672 91.8623C316.369 91.836 317.053 92.0523 317.608 92.4743C317.855 92.6813 318.058 92.9363 318.204 93.224C318.35 93.5116 318.436 93.8259 318.457 94.1477C318.855 93.4605 319.412 92.8783 320.08 92.4493C320.714 92.0706 321.441 91.876 322.179 91.8873C322.605 91.8773 323.029 91.9494 323.427 92.0996C323.775 92.241 324.08 92.4689 324.314 92.7615C324.568 93.0894 324.747 93.4687 324.839 93.873C324.961 94.3842 325.019 94.9085 325.013 95.434L325.051 99.7301Z" fill="black"/>
<path d="M142.128 107.264L124.624 121.147C123.111 122.347 122.857 124.547 124.057 126.06L137.917 143.535C139.118 145.048 141.317 145.302 142.83 144.102L160.334 130.218C161.848 129.018 162.101 126.818 160.901 125.305L147.041 107.83C145.841 106.317 143.641 106.063 142.128 107.264Z" fill="#F9F9F9"/>
<path d="M183.759 116.957L171.763 126.472C170.726 127.294 170.552 128.803 171.374 129.84L180.873 141.816C181.696 142.854 183.205 143.028 184.242 142.205L196.238 132.69C197.275 131.867 197.449 130.359 196.626 129.322L187.127 117.346C186.305 116.308 184.796 116.134 183.759 116.957Z" fill="#F9F9F9"/>
</svg>
