<svg width="17" height="20" viewBox="0 0 17 20" fill="none" xmlns="http://www.w3.org/2000/svg">
<path d="M12.924 1.19598C9.9698 0.606224 6.90202 0.606224 3.94786 1.19598C2.64121 1.49085 0.993699 3.14216 0.709645 4.43961C0.198348 6.97555 0.198348 9.57046 0.709645 12.1064C1.05051 13.4038 2.69802 15.0552 3.94786 15.35C4.00467 15.35 4.06148 15.409 4.06148 15.468V19.1834C4.06148 19.3603 4.28873 19.4783 4.40235 19.3014L6.10667 17.4731C6.10667 17.4731 7.47013 15.9988 7.69737 15.7629C7.69737 15.7629 7.75418 15.7039 7.81099 15.7039C9.51532 15.7629 11.2765 15.5859 12.9808 15.2911C14.2874 14.9962 15.9349 13.3449 16.219 12.0474C16.7303 9.51148 16.7303 6.91657 16.219 4.38064C15.8781 3.14216 14.2306 1.49085 12.924 1.19598ZM12.9808 12.2833C12.6967 12.8731 12.3559 13.3449 11.7877 13.6397C11.6173 13.6987 11.4469 13.7577 11.2765 13.8167C11.0492 13.7577 10.8788 13.6987 10.7083 13.6397C8.8904 12.8731 7.18608 11.8115 5.82262 10.2782C5.08408 9.39353 4.45916 8.39095 3.94786 7.3294C3.72062 6.79862 3.49337 6.32682 3.32294 5.79604C3.15251 5.32424 3.43656 4.85244 3.72061 4.49859C4.00467 4.14474 4.34553 3.90884 4.74321 3.73191C5.02726 3.55498 5.31132 3.67294 5.53856 3.90884C5.99305 4.49859 6.44753 5.08834 6.7884 5.73707C7.01564 6.14989 6.95883 6.6217 6.56115 6.91657C6.44753 6.97555 6.39072 7.03452 6.2771 7.15247C6.22029 7.21145 6.10667 7.27042 6.04986 7.38837C5.93623 7.5653 5.93624 7.74223 5.99305 7.91915C6.44753 9.27558 7.29969 10.3371 8.60634 10.9269C8.83358 11.0448 9.00402 11.1038 9.28807 11.1038C9.68575 11.0448 9.85618 10.573 10.1402 10.3371C10.4243 10.1012 10.7652 10.1012 11.106 10.2782C11.3901 10.4551 11.6741 10.691 12.015 10.9269C12.299 11.1628 12.5831 11.3397 12.8672 11.5756C13.0376 11.6936 13.0944 11.9884 12.9808 12.2833ZM10.5947 7.86018C10.4811 7.86018 10.5379 7.86018 10.5947 7.86018C10.3675 7.86018 10.3107 7.74223 10.2539 7.5653C10.2539 7.44735 10.2539 7.27042 10.197 7.15247C10.1402 6.91657 10.0266 6.68067 9.79937 6.50375C9.68575 6.44477 9.57213 6.3858 9.4585 6.32682C9.28807 6.26785 9.17445 6.26785 9.00402 6.26785C8.83359 6.20887 8.77678 6.09092 8.77678 5.91399C8.77678 5.79604 8.94721 5.67809 9.06083 5.67809C9.9698 5.73707 10.6515 6.26784 10.7652 7.38837C10.7652 7.44735 10.7652 7.5653 10.7652 7.62428C10.7652 7.74223 10.7083 7.86018 10.5947 7.86018ZM10.0266 5.26527C9.74256 5.14732 9.4585 5.02937 9.11764 4.97039C9.00402 4.97039 8.83359 4.91142 8.71997 4.91142C8.54953 4.91142 8.43591 4.79346 8.49272 4.61654C8.49272 4.43961 8.60634 4.32166 8.77678 4.38064C9.34488 4.43961 9.85618 4.55756 10.3675 4.79347C11.3901 5.32424 11.9582 6.20887 12.1286 7.38837C12.1286 7.44735 12.1286 7.50633 12.1286 7.5653C12.1286 7.68325 12.1286 7.8012 12.1286 7.97813C12.1286 8.0371 12.1286 8.09608 12.1286 8.15505C12.0718 8.39095 11.6741 8.44993 11.6173 8.15505C11.6173 8.09608 11.5605 7.97813 11.5605 7.91915C11.5605 7.38837 11.4469 6.8576 11.2196 6.3858C10.8788 5.85502 10.4811 5.50117 10.0266 5.26527ZM13.0944 8.80378C12.924 8.80378 12.8103 8.62686 12.8103 8.44993C12.8103 8.09608 12.7535 7.74223 12.6967 7.38837C12.4695 5.50117 10.9924 3.96781 9.23126 3.67294C8.94721 3.61396 8.66316 3.61396 8.43591 3.55499C8.26548 3.55499 8.03824 3.55499 7.98142 3.31908C7.92461 3.14216 8.09505 2.96523 8.26548 2.96523C8.32229 2.96523 8.3791 2.96523 8.3791 2.96523C10.7083 3.02421 8.49272 2.96523 8.3791 2.96523C10.7652 3.02421 12.7535 4.67551 13.1512 7.15247C13.208 7.5653 13.2648 7.97813 13.2648 8.44993C13.3785 8.62686 13.2648 8.80378 13.0944 8.80378Z" fill="white"/>
</svg>
