<svg width="295" height="49" viewBox="0 0 295 49" fill="none" xmlns="http://www.w3.org/2000/svg">
<path d="M73.9803 16.6543C77.4333 16.6543 80.033 17.8152 81.7793 20.137C83.5257 22.4188 84.0813 25.4011 83.4463 29.0839L80.2314 47.5181H71.3013L74.3375 29.8645C74.6153 28.3433 74.4566 27.1424 73.8612 26.2617C73.3056 25.3811 72.3332 24.9407 70.9441 24.9407C68.007 24.9407 66.1614 26.6821 65.4073 30.1647L62.3711 47.5181H53.4409L56.4772 29.8645C56.755 28.3433 56.5962 27.1424 56.0009 26.2617C55.4452 25.3811 54.4728 24.9407 53.0837 24.9407C50.1467 24.9407 48.3011 26.642 47.547 30.0446L44.5107 47.5181H35.5806L40.8196 17.495H49.7498L49.2735 20.1971C51.3374 17.8353 54.0958 16.6543 57.5488 16.6543C61.0812 16.6543 63.5022 18.0154 64.812 20.7375C67.2728 18.0154 70.3289 16.6543 73.9803 16.6543Z" fill="#0094FF"/>
<path d="M73.9803 16.6543C77.4333 16.6543 80.033 17.8152 81.7793 20.137C83.5257 22.4188 84.0813 25.4011 83.4463 29.0839L80.2314 47.5181H71.3013L74.3375 29.8645C74.6153 28.3433 74.4566 27.1424 73.8612 26.2617C73.3056 25.3811 72.3332 24.9407 70.9441 24.9407C68.007 24.9407 66.1614 26.6821 65.4073 30.1647L62.3711 47.5181H53.4409L56.4772 29.8645C56.755 28.3433 56.5962 27.1424 56.0009 26.2617C55.4452 25.3811 54.4728 24.9407 53.0837 24.9407C50.1467 24.9407 48.3011 26.642 47.547 30.0446L44.5107 47.5181H35.5806L40.8196 17.495H49.7498L49.2735 20.1971C51.3374 17.8353 54.0958 16.6543 57.5488 16.6543C61.0812 16.6543 63.5022 18.0154 64.812 20.7375C67.2728 18.0154 70.3289 16.6543 73.9803 16.6543Z" fill="url(#paint0_radial_198_4646)"/>
<path d="M73.9803 16.6543C77.4333 16.6543 80.033 17.8152 81.7793 20.137C83.5257 22.4188 84.0813 25.4011 83.4463 29.0839L80.2314 47.5181H71.3013L74.3375 29.8645C74.6153 28.3433 74.4566 27.1424 73.8612 26.2617C73.3056 25.3811 72.3332 24.9407 70.9441 24.9407C68.007 24.9407 66.1614 26.6821 65.4073 30.1647L62.3711 47.5181H53.4409L56.4772 29.8645C56.755 28.3433 56.5962 27.1424 56.0009 26.2617C55.4452 25.3811 54.4728 24.9407 53.0837 24.9407C50.1467 24.9407 48.3011 26.642 47.547 30.0446L44.5107 47.5181H35.5806L40.8196 17.495H49.7498L49.2735 20.1971C51.3374 17.8353 54.0958 16.6543 57.5488 16.6543C61.0812 16.6543 63.5022 18.0154 64.812 20.7375C67.2728 18.0154 70.3289 16.6543 73.9803 16.6543Z" fill="url(#paint1_radial_198_4646)"/>
<path d="M111.226 17.495H120.156L114.917 47.5181H105.987L106.344 45.4765C104.082 47.398 101.105 48.3587 97.4136 48.3587C92.8493 48.3587 89.5352 46.6975 87.4714 43.3749C85.4075 40.0123 84.7923 36.1493 85.6258 31.786C86.3799 27.6628 88.2453 24.1201 91.2221 21.1578C94.2385 18.1555 97.9495 16.6543 102.355 16.6543C106.086 16.6543 108.864 17.9954 110.69 20.6774L111.226 17.495ZM95.5681 37.8506C96.6397 39.1717 98.2074 39.8322 100.271 39.8322C102.335 39.8322 104.141 39.1717 105.689 37.8506C107.237 36.5296 108.209 34.7683 108.606 32.5666V32.5065C109.003 30.2648 108.646 28.4834 107.535 27.1624C106.463 25.8414 104.895 25.1809 102.831 25.1809C100.767 25.1809 98.9615 25.8414 97.4136 27.1624C95.9054 28.4834 94.9529 30.2648 94.556 32.5065C94.1591 34.7483 94.4965 36.5296 95.5681 37.8506Z" fill="#0094FF"/>
<path d="M111.226 17.495H120.156L114.917 47.5181H105.987L106.344 45.4765C104.082 47.398 101.105 48.3587 97.4136 48.3587C92.8493 48.3587 89.5352 46.6975 87.4714 43.3749C85.4075 40.0123 84.7923 36.1493 85.6258 31.786C86.3799 27.6628 88.2453 24.1201 91.2221 21.1578C94.2385 18.1555 97.9495 16.6543 102.355 16.6543C106.086 16.6543 108.864 17.9954 110.69 20.6774L111.226 17.495ZM95.5681 37.8506C96.6397 39.1717 98.2074 39.8322 100.271 39.8322C102.335 39.8322 104.141 39.1717 105.689 37.8506C107.237 36.5296 108.209 34.7683 108.606 32.5666V32.5065C109.003 30.2648 108.646 28.4834 107.535 27.1624C106.463 25.8414 104.895 25.1809 102.831 25.1809C100.767 25.1809 98.9615 25.8414 97.4136 27.1624C95.9054 28.4834 94.9529 30.2648 94.556 32.5065C94.1591 34.7483 94.4965 36.5296 95.5681 37.8506Z" fill="url(#paint2_radial_198_4646)"/>
<path d="M111.226 17.495H120.156L114.917 47.5181H105.987L106.344 45.4765C104.082 47.398 101.105 48.3587 97.4136 48.3587C92.8493 48.3587 89.5352 46.6975 87.4714 43.3749C85.4075 40.0123 84.7923 36.1493 85.6258 31.786C86.3799 27.6628 88.2453 24.1201 91.2221 21.1578C94.2385 18.1555 97.9495 16.6543 102.355 16.6543C106.086 16.6543 108.864 17.9954 110.69 20.6774L111.226 17.495ZM95.5681 37.8506C96.6397 39.1717 98.2074 39.8322 100.271 39.8322C102.335 39.8322 104.141 39.1717 105.689 37.8506C107.237 36.5296 108.209 34.7683 108.606 32.5666V32.5065C109.003 30.2648 108.646 28.4834 107.535 27.1624C106.463 25.8414 104.895 25.1809 102.831 25.1809C100.767 25.1809 98.9615 25.8414 97.4136 27.1624C95.9054 28.4834 94.9529 30.2648 94.556 32.5065C94.1591 34.7483 94.4965 36.5296 95.5681 37.8506Z" fill="url(#paint3_radial_198_4646)"/>
<path d="M132.899 22.8992C133.772 20.9376 135.102 19.4565 136.888 18.4557C138.674 17.4149 140.678 16.8945 142.901 16.8945L141.174 27.1024C139.865 26.9022 138.535 26.9423 137.185 27.2225C135.876 27.5027 134.586 28.2232 133.316 29.3841C132.085 30.505 131.311 32.0262 130.994 33.9476L131.053 33.5874L128.613 47.5181H119.682L124.921 17.495H133.852L132.899 22.8992Z" fill="#0094FF"/>
<path d="M132.899 22.8992C133.772 20.9376 135.102 19.4565 136.888 18.4557C138.674 17.4149 140.678 16.8945 142.901 16.8945L141.174 27.1024C139.865 26.9022 138.535 26.9423 137.185 27.2225C135.876 27.5027 134.586 28.2232 133.316 29.3841C132.085 30.505 131.311 32.0262 130.994 33.9476L131.053 33.5874L128.613 47.5181H119.682L124.921 17.495H133.852L132.899 22.8992Z" fill="url(#paint4_radial_198_4646)"/>
<path d="M132.899 22.8992C133.772 20.9376 135.102 19.4565 136.888 18.4557C138.674 17.4149 140.678 16.8945 142.901 16.8945L141.174 27.1024C139.865 26.9022 138.535 26.9423 137.185 27.2225C135.876 27.5027 134.586 28.2232 133.316 29.3841C132.085 30.505 131.311 32.0262 130.994 33.9476L131.053 33.5874L128.613 47.5181H119.682L124.921 17.495H133.852L132.899 22.8992Z" fill="url(#paint5_radial_198_4646)"/>
<path d="M157.179 26.1416L155.333 36.7698C155.095 38.0108 155.432 38.7914 156.345 39.1116C157.258 39.4319 158.826 39.5119 161.049 39.3518L159.62 47.5181C154.301 48.1185 150.57 47.5381 148.427 45.7767C146.324 44.0154 145.649 41.0131 146.403 36.7698L148.249 26.1416H143.486L145.034 17.495H149.737L150.749 11.7906L160.156 9.08853L158.667 17.495H164.859L163.311 26.1416H157.179Z" fill="#0094FF"/>
<path d="M157.179 26.1416L155.333 36.7698C155.095 38.0108 155.432 38.7914 156.345 39.1116C157.258 39.4319 158.826 39.5119 161.049 39.3518L159.62 47.5181C154.301 48.1185 150.57 47.5381 148.427 45.7767C146.324 44.0154 145.649 41.0131 146.403 36.7698L148.249 26.1416H143.486L145.034 17.495H149.737L150.749 11.7906L160.156 9.08853L158.667 17.495H164.859L163.311 26.1416H157.179Z" fill="url(#paint6_radial_198_4646)"/>
<path d="M157.179 26.1416L155.333 36.7698C155.095 38.0108 155.432 38.7914 156.345 39.1116C157.258 39.4319 158.826 39.5119 161.049 39.3518L159.62 47.5181C154.301 48.1185 150.57 47.5381 148.427 45.7767C146.324 44.0154 145.649 41.0131 146.403 36.7698L148.249 26.1416H143.486L145.034 17.495H149.737L150.749 11.7906L160.156 9.08853L158.667 17.495H164.859L163.311 26.1416H157.179Z" fill="url(#paint7_radial_198_4646)"/>
<path d="M199.488 5.48576H209.014L201.691 47.5181H192.165L195.083 30.8252H181.985L179.068 47.5181H169.542L176.865 5.48576H186.391L183.592 21.5781H196.69L199.488 5.48576Z" fill="#0094FF"/>
<path d="M199.488 5.48576H209.014L201.691 47.5181H192.165L195.083 30.8252H181.985L179.068 47.5181H169.542L176.865 5.48576H186.391L183.592 21.5781H196.69L199.488 5.48576Z" fill="url(#paint8_radial_198_4646)"/>
<path d="M199.488 5.48576H209.014L201.691 47.5181H192.165L195.083 30.8252H181.985L179.068 47.5181H169.542L176.865 5.48576H186.391L183.592 21.5781H196.69L199.488 5.48576Z" fill="url(#paint9_radial_198_4646)"/>
<path d="M231.051 17.495H239.981L234.742 47.5181H225.812L226.288 44.6959C224.105 47.1378 221.188 48.3587 217.536 48.3587C214.322 48.3587 211.781 47.2579 209.916 45.0562C208.09 42.8145 207.515 39.7721 208.189 35.9292L211.404 17.495H220.334L217.358 34.6082C217.04 36.4496 217.278 37.8306 218.072 38.7513C218.906 39.632 220.096 40.0724 221.644 40.0724C223.232 40.0724 224.601 39.592 225.752 38.6313C226.943 37.6705 227.737 36.2094 228.133 34.2479L231.051 17.495Z" fill="#0094FF"/>
<path d="M231.051 17.495H239.981L234.742 47.5181H225.812L226.288 44.6959C224.105 47.1378 221.188 48.3587 217.536 48.3587C214.322 48.3587 211.781 47.2579 209.916 45.0562C208.09 42.8145 207.515 39.7721 208.189 35.9292L211.404 17.495H220.334L217.358 34.6082C217.04 36.4496 217.278 37.8306 218.072 38.7513C218.906 39.632 220.096 40.0724 221.644 40.0724C223.232 40.0724 224.601 39.592 225.752 38.6313C226.943 37.6705 227.737 36.2094 228.133 34.2479L231.051 17.495Z" fill="url(#paint10_radial_198_4646)"/>
<path d="M231.051 17.495H239.981L234.742 47.5181H225.812L226.288 44.6959C224.105 47.1378 221.188 48.3587 217.536 48.3587C214.322 48.3587 211.781 47.2579 209.916 45.0562C208.09 42.8145 207.515 39.7721 208.189 35.9292L211.404 17.495H220.334L217.358 34.6082C217.04 36.4496 217.278 37.8306 218.072 38.7513C218.906 39.632 220.096 40.0724 221.644 40.0724C223.232 40.0724 224.601 39.592 225.752 38.6313C226.943 37.6705 227.737 36.2094 228.133 34.2479L231.051 17.495Z" fill="url(#paint11_radial_198_4646)"/>
<path d="M261.954 16.6543C265.169 16.6543 267.689 17.7752 269.515 20.0169C271.38 22.2186 271.975 25.2409 271.301 29.0839L268.086 47.5181H259.156L262.132 30.4049C262.45 28.5635 262.192 27.2025 261.358 26.3218C260.565 25.4011 259.394 24.9407 257.846 24.9407C256.258 24.9407 254.869 25.4211 253.678 26.3818C252.527 27.3426 251.753 28.8037 251.357 30.7652L248.439 47.5181H239.509L244.748 17.495H253.678L253.202 20.3172C255.385 17.8753 258.302 16.6543 261.954 16.6543Z" fill="#0094FF"/>
<path d="M261.954 16.6543C265.169 16.6543 267.689 17.7752 269.515 20.0169C271.38 22.2186 271.975 25.2409 271.301 29.0839L268.086 47.5181H259.156L262.132 30.4049C262.45 28.5635 262.192 27.2025 261.358 26.3218C260.565 25.4011 259.394 24.9407 257.846 24.9407C256.258 24.9407 254.869 25.4211 253.678 26.3818C252.527 27.3426 251.753 28.8037 251.357 30.7652L248.439 47.5181H239.509L244.748 17.495H253.678L253.202 20.3172C255.385 17.8753 258.302 16.6543 261.954 16.6543Z" fill="url(#paint12_radial_198_4646)"/>
<path d="M261.954 16.6543C265.169 16.6543 267.689 17.7752 269.515 20.0169C271.38 22.2186 271.975 25.2409 271.301 29.0839L268.086 47.5181H259.156L262.132 30.4049C262.45 28.5635 262.192 27.2025 261.358 26.3218C260.565 25.4011 259.394 24.9407 257.846 24.9407C256.258 24.9407 254.869 25.4211 253.678 26.3818C252.527 27.3426 251.753 28.8037 251.357 30.7652L248.439 47.5181H239.509L244.748 17.495H253.678L253.202 20.3172C255.385 17.8753 258.302 16.6543 261.954 16.6543Z" fill="url(#paint13_radial_198_4646)"/>
<path d="M287.32 26.1416L285.475 36.7698C285.236 38.0108 285.574 38.7914 286.487 39.1116C287.399 39.4319 288.967 39.5119 291.19 39.3518L289.761 47.5181C284.443 48.1185 280.712 47.5381 278.569 45.7767C276.465 44.0154 275.79 41.0131 276.544 36.7698L278.39 26.1416H273.627L275.175 17.495H279.878L280.89 11.7906L290.297 9.08853L288.808 17.495H295L293.452 26.1416H287.32Z" fill="#0094FF"/>
<path d="M287.32 26.1416L285.475 36.7698C285.236 38.0108 285.574 38.7914 286.487 39.1116C287.399 39.4319 288.967 39.5119 291.19 39.3518L289.761 47.5181C284.443 48.1185 280.712 47.5381 278.569 45.7767C276.465 44.0154 275.79 41.0131 276.544 36.7698L278.39 26.1416H273.627L275.175 17.495H279.878L280.89 11.7906L290.297 9.08853L288.808 17.495H295L293.452 26.1416H287.32Z" fill="url(#paint14_radial_198_4646)"/>
<path d="M287.32 26.1416L285.475 36.7698C285.236 38.0108 285.574 38.7914 286.487 39.1116C287.399 39.4319 288.967 39.5119 291.19 39.3518L289.761 47.5181C284.443 48.1185 280.712 47.5381 278.569 45.7767C276.465 44.0154 275.79 41.0131 276.544 36.7698L278.39 26.1416H273.627L275.175 17.495H279.878L280.89 11.7906L290.297 9.08853L288.808 17.495H295L293.452 26.1416H287.32Z" fill="url(#paint15_radial_198_4646)"/>
<path d="M17.1144 48.2321C12.5945 48.2321 8.91699 47.3412 6.08177 45.5594C3.28764 43.7389 1.5002 41.2785 0.719482 38.1798L9.7182 33.8221C10.7865 37.4632 13.5396 39.2837 17.9773 39.2837C21.7576 39.2837 23.8738 38.141 24.3258 35.8557C24.5723 34.6936 24.1409 33.7834 23.0314 33.1249C21.9631 32.4276 20.0524 31.6336 17.2993 30.7427C13.2314 29.4644 10.1907 27.8376 8.17732 25.8621C6.20499 23.8479 5.5476 21.0396 6.20504 17.4373C6.26402 17.0967 6.3326 16.7636 6.41076 16.438C7.9155 8.49221 5.56539 3.80824 1.17053 0.695958C0.719482 0.300354 0.719482 7.6952e-06 1.17053 0C14.5078 0 26.1965 4.14393 31.4757 8.31541C33.8266 10.1731 35.9751 12.1694 37.0845 15.1132L28.4556 19.4128C26.9352 16.3914 24.5928 14.8808 21.4289 14.8808C19.9497 14.8808 18.758 15.1713 17.8541 15.7523C16.9912 16.3333 16.457 17.0693 16.2515 17.9602C16.005 19.0835 16.3954 20.0131 17.4226 20.7491C18.491 21.4463 20.3195 22.2404 22.9082 23.1313C23.6889 23.4024 24.326 23.6348 24.8191 23.8285C25.3533 23.9835 25.9901 24.2159 26.7298 24.5257C27.4694 24.7969 28.0652 25.068 28.5172 25.3392C29.0103 25.5716 29.565 25.8815 30.1813 26.2688C30.8388 26.6174 31.3524 26.9854 31.7222 27.3728C32.1331 27.7601 32.544 28.2055 32.9549 28.7091C33.4069 29.1739 33.7357 29.6968 33.9411 30.2779C34.1876 30.8201 34.3931 31.4205 34.5575 32.079C34.7218 32.6988 34.7835 33.396 34.7424 34.1707C34.7424 34.9454 34.6602 35.7782 34.4958 36.6691C33.7973 40.3876 31.8866 43.2545 28.7637 45.2687C25.682 47.2441 21.7987 48.2321 17.1144 48.2321Z" fill="#0094FF"/>
<path d="M17.1144 48.2321C12.5945 48.2321 8.91699 47.3412 6.08177 45.5594C3.28764 43.7389 1.5002 41.2785 0.719482 38.1798L9.7182 33.8221C10.7865 37.4632 13.5396 39.2837 17.9773 39.2837C21.7576 39.2837 23.8738 38.141 24.3258 35.8557C24.5723 34.6936 24.1409 33.7834 23.0314 33.1249C21.9631 32.4276 20.0524 31.6336 17.2993 30.7427C13.2314 29.4644 10.1907 27.8376 8.17732 25.8621C6.20499 23.8479 5.5476 21.0396 6.20504 17.4373C6.26402 17.0967 6.3326 16.7636 6.41076 16.438C7.9155 8.49221 5.56539 3.80824 1.17053 0.695958C0.719482 0.300354 0.719482 7.6952e-06 1.17053 0C14.5078 0 26.1965 4.14393 31.4757 8.31541C33.8266 10.1731 35.9751 12.1694 37.0845 15.1132L28.4556 19.4128C26.9352 16.3914 24.5928 14.8808 21.4289 14.8808C19.9497 14.8808 18.758 15.1713 17.8541 15.7523C16.9912 16.3333 16.457 17.0693 16.2515 17.9602C16.005 19.0835 16.3954 20.0131 17.4226 20.7491C18.491 21.4463 20.3195 22.2404 22.9082 23.1313C23.6889 23.4024 24.326 23.6348 24.8191 23.8285C25.3533 23.9835 25.9901 24.2159 26.7298 24.5257C27.4694 24.7969 28.0652 25.068 28.5172 25.3392C29.0103 25.5716 29.565 25.8815 30.1813 26.2688C30.8388 26.6174 31.3524 26.9854 31.7222 27.3728C32.1331 27.7601 32.544 28.2055 32.9549 28.7091C33.4069 29.1739 33.7357 29.6968 33.9411 30.2779C34.1876 30.8201 34.3931 31.4205 34.5575 32.079C34.7218 32.6988 34.7835 33.396 34.7424 34.1707C34.7424 34.9454 34.6602 35.7782 34.4958 36.6691C33.7973 40.3876 31.8866 43.2545 28.7637 45.2687C25.682 47.2441 21.7987 48.2321 17.1144 48.2321Z" fill="url(#paint16_radial_198_4646)"/>
<path d="M17.1144 48.2321C12.5945 48.2321 8.91699 47.3412 6.08177 45.5594C3.28764 43.7389 1.5002 41.2785 0.719482 38.1798L9.7182 33.8221C10.7865 37.4632 13.5396 39.2837 17.9773 39.2837C21.7576 39.2837 23.8738 38.141 24.3258 35.8557C24.5723 34.6936 24.1409 33.7834 23.0314 33.1249C21.9631 32.4276 20.0524 31.6336 17.2993 30.7427C13.2314 29.4644 10.1907 27.8376 8.17732 25.8621C6.20499 23.8479 5.5476 21.0396 6.20504 17.4373C6.26402 17.0967 6.3326 16.7636 6.41076 16.438C7.9155 8.49221 5.56539 3.80824 1.17053 0.695958C0.719482 0.300354 0.719482 7.6952e-06 1.17053 0C14.5078 0 26.1965 4.14393 31.4757 8.31541C33.8266 10.1731 35.9751 12.1694 37.0845 15.1132L28.4556 19.4128C26.9352 16.3914 24.5928 14.8808 21.4289 14.8808C19.9497 14.8808 18.758 15.1713 17.8541 15.7523C16.9912 16.3333 16.457 17.0693 16.2515 17.9602C16.005 19.0835 16.3954 20.0131 17.4226 20.7491C18.491 21.4463 20.3195 22.2404 22.9082 23.1313C23.6889 23.4024 24.326 23.6348 24.8191 23.8285C25.3533 23.9835 25.9901 24.2159 26.7298 24.5257C27.4694 24.7969 28.0652 25.068 28.5172 25.3392C29.0103 25.5716 29.565 25.8815 30.1813 26.2688C30.8388 26.6174 31.3524 26.9854 31.7222 27.3728C32.1331 27.7601 32.544 28.2055 32.9549 28.7091C33.4069 29.1739 33.7357 29.6968 33.9411 30.2779C34.1876 30.8201 34.3931 31.4205 34.5575 32.079C34.7218 32.6988 34.7835 33.396 34.7424 34.1707C34.7424 34.9454 34.6602 35.7782 34.4958 36.6691C33.7973 40.3876 31.8866 43.2545 28.7637 45.2687C25.682 47.2441 21.7987 48.2321 17.1144 48.2321Z" fill="url(#paint17_radial_198_4646)"/>
<defs>
<radialGradient id="paint0_radial_198_4646" cx="0" cy="0" r="1" gradientUnits="userSpaceOnUse" gradientTransform="translate(287.101 3.64972) rotate(170.186) scale(366.688 129.967)">
<stop stop-color="#A54AFF"/>
<stop offset="1" stop-color="#A54AFF" stop-opacity="0"/>
</radialGradient>
<radialGradient id="paint1_radial_198_4646" cx="0" cy="0" r="1" gradientUnits="userSpaceOnUse" gradientTransform="translate(8.81016 53.8333) rotate(-15.1393) scale(178.177 73.5288)">
<stop stop-color="#00FFFF"/>
<stop offset="1" stop-color="#00FFFF" stop-opacity="0"/>
</radialGradient>
<radialGradient id="paint2_radial_198_4646" cx="0" cy="0" r="1" gradientUnits="userSpaceOnUse" gradientTransform="translate(287.101 3.64972) rotate(170.186) scale(366.688 129.967)">
<stop stop-color="#A54AFF"/>
<stop offset="1" stop-color="#A54AFF" stop-opacity="0"/>
</radialGradient>
<radialGradient id="paint3_radial_198_4646" cx="0" cy="0" r="1" gradientUnits="userSpaceOnUse" gradientTransform="translate(8.81016 53.8333) rotate(-15.1393) scale(178.177 73.5288)">
<stop stop-color="#00FFFF"/>
<stop offset="1" stop-color="#00FFFF" stop-opacity="0"/>
</radialGradient>
<radialGradient id="paint4_radial_198_4646" cx="0" cy="0" r="1" gradientUnits="userSpaceOnUse" gradientTransform="translate(287.101 3.64972) rotate(170.186) scale(366.688 129.967)">
<stop stop-color="#A54AFF"/>
<stop offset="1" stop-color="#A54AFF" stop-opacity="0"/>
</radialGradient>
<radialGradient id="paint5_radial_198_4646" cx="0" cy="0" r="1" gradientUnits="userSpaceOnUse" gradientTransform="translate(8.81016 53.8333) rotate(-15.1393) scale(178.177 73.5288)">
<stop stop-color="#00FFFF"/>
<stop offset="1" stop-color="#00FFFF" stop-opacity="0"/>
</radialGradient>
<radialGradient id="paint6_radial_198_4646" cx="0" cy="0" r="1" gradientUnits="userSpaceOnUse" gradientTransform="translate(287.101 3.64972) rotate(170.186) scale(366.688 129.967)">
<stop stop-color="#A54AFF"/>
<stop offset="1" stop-color="#A54AFF" stop-opacity="0"/>
</radialGradient>
<radialGradient id="paint7_radial_198_4646" cx="0" cy="0" r="1" gradientUnits="userSpaceOnUse" gradientTransform="translate(8.81016 53.8333) rotate(-15.1393) scale(178.177 73.5288)">
<stop stop-color="#00FFFF"/>
<stop offset="1" stop-color="#00FFFF" stop-opacity="0"/>
</radialGradient>
<radialGradient id="paint8_radial_198_4646" cx="0" cy="0" r="1" gradientUnits="userSpaceOnUse" gradientTransform="translate(287.101 3.64972) rotate(170.186) scale(366.688 129.967)">
<stop stop-color="#A54AFF"/>
<stop offset="1" stop-color="#A54AFF" stop-opacity="0"/>
</radialGradient>
<radialGradient id="paint9_radial_198_4646" cx="0" cy="0" r="1" gradientUnits="userSpaceOnUse" gradientTransform="translate(8.81016 53.8333) rotate(-15.1393) scale(178.177 73.5288)">
<stop stop-color="#00FFFF"/>
<stop offset="1" stop-color="#00FFFF" stop-opacity="0"/>
</radialGradient>
<radialGradient id="paint10_radial_198_4646" cx="0" cy="0" r="1" gradientUnits="userSpaceOnUse" gradientTransform="translate(287.101 3.64972) rotate(170.186) scale(366.688 129.967)">
<stop stop-color="#A54AFF"/>
<stop offset="1" stop-color="#A54AFF" stop-opacity="0"/>
</radialGradient>
<radialGradient id="paint11_radial_198_4646" cx="0" cy="0" r="1" gradientUnits="userSpaceOnUse" gradientTransform="translate(8.81016 53.8333) rotate(-15.1393) scale(178.177 73.5288)">
<stop stop-color="#00FFFF"/>
<stop offset="1" stop-color="#00FFFF" stop-opacity="0"/>
</radialGradient>
<radialGradient id="paint12_radial_198_4646" cx="0" cy="0" r="1" gradientUnits="userSpaceOnUse" gradientTransform="translate(287.101 3.64972) rotate(170.186) scale(366.688 129.967)">
<stop stop-color="#A54AFF"/>
<stop offset="1" stop-color="#A54AFF" stop-opacity="0"/>
</radialGradient>
<radialGradient id="paint13_radial_198_4646" cx="0" cy="0" r="1" gradientUnits="userSpaceOnUse" gradientTransform="translate(8.81016 53.8333) rotate(-15.1393) scale(178.177 73.5288)">
<stop stop-color="#00FFFF"/>
<stop offset="1" stop-color="#00FFFF" stop-opacity="0"/>
</radialGradient>
<radialGradient id="paint14_radial_198_4646" cx="0" cy="0" r="1" gradientUnits="userSpaceOnUse" gradientTransform="translate(287.101 3.64972) rotate(170.186) scale(366.688 129.967)">
<stop stop-color="#A54AFF"/>
<stop offset="1" stop-color="#A54AFF" stop-opacity="0"/>
</radialGradient>
<radialGradient id="paint15_radial_198_4646" cx="0" cy="0" r="1" gradientUnits="userSpaceOnUse" gradientTransform="translate(8.81016 53.8333) rotate(-15.1393) scale(178.177 73.5288)">
<stop stop-color="#00FFFF"/>
<stop offset="1" stop-color="#00FFFF" stop-opacity="0"/>
</radialGradient>
<radialGradient id="paint16_radial_198_4646" cx="0" cy="0" r="1" gradientUnits="userSpaceOnUse" gradientTransform="translate(287.101 3.64972) rotate(170.186) scale(366.688 129.967)">
<stop stop-color="#A54AFF"/>
<stop offset="1" stop-color="#A54AFF" stop-opacity="0"/>
</radialGradient>
<radialGradient id="paint17_radial_198_4646" cx="0" cy="0" r="1" gradientUnits="userSpaceOnUse" gradientTransform="translate(8.81016 53.8333) rotate(-15.1393) scale(178.177 73.5288)">
<stop stop-color="#00FFFF"/>
<stop offset="1" stop-color="#00FFFF" stop-opacity="0"/>
</radialGradient>
</defs>
</svg>
