<svg width="290" height="145" viewBox="0 0 290 145" fill="none" xmlns="http://www.w3.org/2000/svg">
<path d="M168.797 85.3879L175.553 80.0235C175.688 79.9046 175.846 79.816 176.018 79.7637C176.19 79.7113 176.371 79.6965 176.549 79.7202C176.727 79.7438 176.898 79.8055 177.05 79.9009C177.202 79.9962 177.331 80.1232 177.43 80.273L182.809 87.0096C182.929 87.1436 183.018 87.3017 183.07 87.473C183.122 87.6443 183.137 87.8248 183.114 88.0024C183.09 88.1799 183.028 88.3503 182.932 88.5019C182.837 88.6535 182.709 88.7828 182.559 88.8809L175.803 94.2453C175.669 94.3642 175.511 94.4528 175.339 94.5051C175.167 94.5574 174.986 94.5723 174.808 94.5486C174.63 94.5249 174.459 94.4633 174.307 94.3679C174.155 94.2725 174.025 94.1456 173.927 93.9958L168.547 87.2591C168.374 86.964 168.304 86.6196 168.349 86.2806C168.395 85.9416 168.552 85.6273 168.797 85.3879Z" fill="#F9F9F9"/>
<path d="M170.048 53.8254L182.059 44.3442C182.305 44.1475 182.588 44.0011 182.891 43.9134C183.194 43.8257 183.512 43.7985 183.826 43.8333C184.139 43.868 184.443 43.9641 184.719 44.116C184.996 44.2679 185.24 44.4726 185.437 44.7185L194.945 56.6947C195.142 56.9404 195.289 57.2225 195.377 57.5247C195.465 57.827 195.492 58.1436 195.457 58.4565C195.422 58.7693 195.326 59.0722 195.174 59.3479C195.021 59.6235 194.816 59.8666 194.57 60.0631L182.559 69.5443C182.313 69.741 182.03 69.8874 181.727 69.9751C181.424 70.0627 181.106 70.09 180.792 70.0552C180.479 70.0205 180.175 69.9244 179.899 69.7725C179.622 69.6206 179.378 69.4159 179.181 69.17L169.673 57.1937C169.459 56.9557 169.297 56.6751 169.199 56.3704C169.101 56.0657 169.068 55.7438 169.104 55.4257C169.139 55.1077 169.242 54.8007 169.405 54.5249C169.567 54.2491 169.787 54.0107 170.048 53.8254Z" fill="#F9F9F9"/>
<path d="M5.65621 43.5957L80.7212 -15.7866C83.8556 -18.2286 87.8252 -19.3482 91.778 -18.9051C95.7309 -18.4619 99.352 -16.4914 101.864 -13.4163L161.291 61.3106C163.74 64.4362 164.863 68.3944 164.418 72.336C163.974 76.2776 161.998 79.8885 158.914 82.3938L83.8489 141.776C80.7144 144.218 76.7448 145.338 72.792 144.895C68.8391 144.451 65.218 142.481 62.7056 139.406L3.27915 64.5791C2.04891 63.0476 1.13424 61.2889 0.587705 59.4038C0.041165 57.5188 -0.126479 55.5446 0.0944033 53.5948C0.315286 51.645 0.920341 49.7579 1.87481 48.0419C2.82928 46.326 4.11436 44.815 5.65621 43.5957Z" fill="#F9F9F9"/>
<path d="M0.889582 65.8267C0.773728 63.0535 1.6125 60.3243 3.26664 58.092C4.90562 55.948 7.18281 54.3759 9.77227 53.6009C12.8805 52.5949 16.1393 52.1307 19.4056 52.2286C23.5667 52.1925 27.7065 52.8243 31.6662 54.0999L30.1649 61.0861C27.1346 59.9101 23.9083 59.3175 20.6567 59.3395C17.8429 59.2429 15.049 59.8429 12.5246 61.0861C11.5904 61.513 10.7986 62.1984 10.2436 63.0609C9.68851 63.9234 9.39344 64.9266 9.39344 65.9514C9.39344 66.9762 9.68851 67.9795 10.2436 68.8419C10.7986 69.7044 11.5904 70.3899 12.5246 70.8168C15.1341 72.0718 18.0118 72.6714 20.9069 72.5633C24.7378 72.6287 28.5372 71.8624 32.0415 70.3178L32.1666 77.8029C28.0421 79.0982 23.7276 79.6887 19.4056 79.5495C16.1418 79.6044 12.8901 79.1411 9.77227 78.1772C7.18281 77.4022 4.90562 75.8301 3.26664 73.6861C1.70013 71.3641 0.871761 68.6252 0.889582 65.8267Z" fill="#3B4A51"/>
<path d="M37.4212 62.1838C40.1218 60.2813 43.3749 59.317 46.6792 59.4393C49.9909 59.2568 53.2633 60.227 55.9372 62.1838C57.0712 63.0111 57.9839 64.1038 58.5947 65.3655C59.2056 66.6273 59.4959 68.0195 59.4402 69.4195C59.4799 70.8171 59.1824 72.2038 58.5728 73.4629C57.9632 74.7221 57.0594 75.8168 55.9372 76.6552C53.2231 78.5178 49.9699 79.4384 46.6792 79.275C43.3885 79.4384 40.1353 78.5178 37.4212 76.6552C36.2872 75.8279 35.3746 74.7352 34.7637 73.4735C34.1528 72.2117 33.8625 70.8195 33.9182 69.4195C33.9035 68.0258 34.212 66.6476 34.8197 65.3925C35.4273 64.1374 36.3177 63.0392 37.4212 62.1838ZM41.4247 69.4195C41.407 70.039 41.5334 70.6542 41.7938 71.2169C42.0543 71.7796 42.4417 72.2746 42.926 72.6631C43.9764 73.5326 45.3156 73.9778 46.6792 73.9106C48.081 73.9781 49.4595 73.5346 50.5576 72.6631C51.0418 72.2746 51.4292 71.7796 51.6897 71.2169C51.9501 70.6542 52.0765 70.039 52.0589 69.4195C52.0896 68.7982 51.9692 68.1787 51.7077 67.6138C51.4463 67.049 51.0517 66.5557 50.5576 66.1759C49.4693 65.2863 48.0836 64.8405 46.6792 64.9284C45.3156 64.8612 43.9764 65.3064 42.926 66.1759C42.4417 66.5645 42.0543 67.0594 41.7938 67.6221C41.5334 68.1849 41.407 68.8 41.4247 69.4195Z" fill="#3B4A51"/>
<path d="M62.4428 60.063H69.9493C70.2309 60.9926 70.3577 61.9619 70.3247 62.9323C71.26 61.8028 72.4509 60.9108 73.7994 60.3295C75.1478 59.7483 76.6154 59.4945 78.0814 59.589C79.2897 59.5189 80.4997 59.6927 81.6391 60.1C82.7784 60.5073 83.8236 61.1397 84.7121 61.9593C85.5101 62.7593 86.1333 63.7155 86.5424 64.7676C86.9515 65.8196 87.1377 66.9448 87.0892 68.0722V78.9257H79.2073V68.5712C79.2203 68.0976 79.1258 67.6271 78.9308 67.1951C78.7359 66.763 78.4455 66.3805 78.0814 66.0761C77.2692 65.4174 76.2507 65.0642 75.2039 65.0781C74.2075 65.0772 73.2292 65.343 72.371 65.8477C71.5127 66.3524 70.806 67.0775 70.3247 67.9474V78.9257H62.4428V60.063Z" fill="#3B4A51"/>
<path d="M89.5913 65.1779V60.1878L98.0987 52.8274H101.602V59.9383H108.608V65.0532H101.602V70.168C101.603 70.9395 101.868 71.6875 102.352 72.2888C102.696 72.6226 103.111 72.8746 103.566 73.0259C104.021 73.1771 104.504 73.2237 104.98 73.1621C106.225 73.1423 107.456 72.8883 108.608 72.4136L109.233 77.7779C107.081 78.771 104.723 79.2412 102.352 79.1502C100.993 79.1556 99.6417 78.945 98.3489 78.5265C97.3926 78.1948 96.503 77.6964 95.7216 77.0544C95.1522 76.4721 94.6867 75.797 94.3454 75.0583C94.0616 74.4622 93.8515 73.8338 93.7199 73.187C93.6162 72.6951 93.5742 72.1923 93.5948 71.69V65.0781H89.5913V65.1779Z" fill="#3B4A51"/>
<path d="M113.612 62.1838C116.237 60.4951 119.29 59.5866 122.414 59.5645C125.538 59.5424 128.604 60.4077 131.252 62.0591C132.37 62.894 133.263 63.9915 133.853 65.2539C134.442 66.5163 134.709 67.9045 134.63 69.2947C134.6 69.8832 134.516 70.4678 134.38 71.0413H117.365C117.483 71.601 117.74 72.1224 118.111 72.5582C118.482 72.9939 118.957 73.3302 119.492 73.5363C121.072 74.2038 122.783 74.5025 124.497 74.4096C127.539 74.5039 130.555 73.8166 133.254 72.4136L133.379 77.6532C130.237 78.8951 126.875 79.4892 123.496 79.3997C119.367 79.3997 115.989 78.5264 113.737 76.7799C112.596 75.9651 111.678 74.8784 111.066 73.6189C110.454 72.3594 110.168 70.9671 110.234 69.5692C110.094 68.1505 110.333 66.7201 110.926 65.4231C111.519 64.1261 112.446 63.0085 113.612 62.1838ZM117.49 67.9225H128C127.93 67.3957 127.75 66.8896 127.469 66.4379C127.189 65.9862 126.815 65.5992 126.373 65.3026C125.281 64.6384 124.024 64.2926 122.745 64.3046C121.555 64.2342 120.373 64.5398 119.367 65.1779C118.886 65.4865 118.471 65.8885 118.149 66.36C117.827 66.8315 117.603 67.3629 117.49 67.9225Z" fill="#3B4A51"/>
<path d="M137.758 60.0631H145.264C145.546 60.9926 145.673 61.9619 145.64 62.9324C146.573 61.7983 147.762 60.9015 149.111 60.3159C150.46 59.7302 151.928 59.4725 153.397 59.5641C154.605 59.494 155.815 59.6678 156.954 60.0751C158.094 60.4824 159.139 61.1148 160.027 61.9344C160.825 62.7344 161.448 63.6906 161.858 64.7426C162.267 65.7947 162.453 66.9199 162.404 68.0472V78.9007H154.523V68.5463C154.535 68.0726 154.441 67.6022 154.246 67.1702C154.051 66.7381 153.761 66.3556 153.397 66.0512C152.584 65.3925 151.566 65.0393 150.519 65.0532C149.523 65.0523 148.544 65.3181 147.686 65.8228C146.828 66.3275 146.121 67.0526 145.64 67.9225V78.9007H137.758V60.0631Z" fill="#3B4A51"/>
<path d="M164.781 65.1779V60.1878L173.289 52.8274H176.792V59.9383H183.798V65.0532H176.792V70.168C176.787 70.5622 176.862 70.9533 177.012 71.3178C177.163 71.6823 177.386 72.0126 177.668 72.2888C178.011 72.6226 178.426 72.8746 178.881 73.0259C179.336 73.1771 179.819 73.2237 180.295 73.1621C181.541 73.1423 182.772 72.8883 183.923 72.4136L184.548 77.7779C182.396 78.771 180.038 79.2412 177.668 79.1502C176.308 79.1556 174.957 78.945 173.664 78.5265C172.706 78.1873 171.816 77.6803 171.037 77.0294C170.467 76.4471 170.002 75.7721 169.661 75.0334C169.377 74.4372 169.167 73.8088 169.035 73.1621C168.931 72.6702 168.889 72.1673 168.91 71.6651V65.0532H164.781V65.1779Z" fill="#3B4A51"/>
<path d="M187.176 72.0643C188.029 71.2934 189.153 70.8899 190.303 70.9415C191.45 70.9118 192.566 71.3125 193.431 72.0643C193.823 72.4792 194.126 72.9703 194.32 73.5068C194.513 74.0434 194.594 74.614 194.557 75.1831C194.587 75.7438 194.49 76.304 194.274 76.8223C194.057 77.3406 193.726 77.8036 193.306 78.1771C192.453 78.948 191.329 79.3515 190.178 79.2999C189.032 79.3296 187.915 78.9289 187.051 78.1771C186.669 77.7807 186.372 77.3107 186.178 76.7959C185.984 76.2811 185.898 75.7323 185.925 75.1831C185.908 74.6055 186.01 74.0306 186.225 73.4941C186.441 72.9576 186.764 72.4709 187.176 72.0643Z" fill="#3B4A51"/>
<path d="M206.693 52.5779V62.1839H220.955V52.5779H229.587V78.776H220.955V68.9206H206.693V78.776H198.06V52.5779H206.693Z" fill="#FF9100"/>
<path d="M233.841 60.0631H241.723V70.4176C241.71 70.8912 241.804 71.3616 241.999 71.7937C242.194 72.2257 242.485 72.6082 242.849 72.9126C243.661 73.5713 244.68 73.9246 245.726 73.9107C246.74 73.913 247.736 73.649 248.614 73.1452C249.493 72.6415 250.223 71.9159 250.731 71.0414V60.0631H258.613V78.776H251.106C250.815 77.8486 250.688 76.8776 250.731 75.9067C249.79 77.0795 248.587 78.0171 247.219 78.6452C245.851 79.2732 244.354 79.5743 242.849 79.5245C241.661 79.5841 240.472 79.4049 239.355 78.9977C238.237 78.5906 237.213 77.9637 236.343 77.1542C235.528 76.3613 234.884 75.4093 234.454 74.3576C234.023 73.3059 233.815 72.177 233.841 71.0414V60.0631Z" fill="#FF9100"/>
<path d="M270.373 51.5799V63.0571C271.392 61.8865 272.665 60.9633 274.096 60.3579C275.527 59.7526 277.078 59.481 278.63 59.5641C280.002 59.4885 281.376 59.693 282.667 60.1649C283.957 60.6368 285.138 61.3662 286.136 62.3086C287.1 63.2496 287.855 64.3825 288.35 65.6334C288.846 66.8844 289.072 68.2254 289.014 69.5692C289.057 70.9076 288.824 72.2405 288.329 73.4852C287.834 74.73 287.088 75.8599 286.136 76.8049C284.072 78.6203 281.379 79.5603 278.63 79.4247C275.002 79.4247 272.249 78.3019 270.373 75.9316C270.276 76.9497 270.066 77.9539 269.747 78.9257H262.491V51.5799H270.373ZM272.5 73.0374C273.546 73.7011 274.763 74.0478 276.003 74.0354C277.404 74.1029 278.783 73.6594 279.881 72.7879C280.378 72.4082 280.782 71.9216 281.064 71.3642C281.345 70.8069 281.497 70.1933 281.507 69.5692C281.543 68.9342 281.411 68.301 281.126 67.7322C280.841 67.1633 280.412 66.6785 279.881 66.3257C278.783 65.4541 277.404 65.0107 276.003 65.0781C274.755 65.0057 273.52 65.3576 272.5 66.0762C271.536 66.653 270.788 67.5296 270.373 68.5712V70.692C270.872 71.6398 271.604 72.4465 272.5 73.0374Z" fill="#FF9100"/>
<path d="M124.884 118.946L142.4 105.099C142.752 104.8 143.164 104.578 143.608 104.446C144.052 104.315 144.518 104.278 144.977 104.336C145.436 104.395 145.878 104.549 146.275 104.787C146.671 105.026 147.013 105.345 147.279 105.723L161.166 123.188C161.465 123.54 161.688 123.95 161.82 124.393C161.952 124.835 161.989 125.3 161.93 125.758C161.871 126.216 161.717 126.657 161.478 127.052C161.239 127.447 160.919 127.788 160.54 128.053L143.025 141.901C142.672 142.2 142.261 142.422 141.817 142.553C141.373 142.684 140.907 142.722 140.447 142.663C139.988 142.605 139.546 142.451 139.15 142.212C138.754 141.974 138.412 141.655 138.146 141.277L124.259 123.812C123.713 123.077 123.474 122.16 123.591 121.254C123.707 120.347 124.171 119.52 124.884 118.946Z" fill="#F9F9F9"/>
<path d="M172.05 124.311L184.061 114.83C184.307 114.633 184.59 114.486 184.893 114.399C185.196 114.311 185.514 114.284 185.827 114.319C186.141 114.353 186.445 114.449 186.721 114.601C186.998 114.753 187.241 114.958 187.438 115.204L196.947 127.18C197.144 127.426 197.291 127.708 197.379 128.01C197.467 128.312 197.494 128.629 197.459 128.942C197.424 129.255 197.328 129.558 197.176 129.833C197.023 130.109 196.818 130.352 196.571 130.548L184.561 140.03C184.315 140.226 184.032 140.373 183.729 140.46C183.425 140.548 183.108 140.575 182.794 140.541C182.48 140.506 182.177 140.41 181.9 140.258C181.624 140.106 181.38 139.901 181.183 139.655L171.675 127.679C171.474 127.435 171.325 127.153 171.235 126.85C171.145 126.548 171.117 126.23 171.152 125.916C171.187 125.602 171.284 125.299 171.439 125.023C171.593 124.747 171.801 124.505 172.05 124.311Z" fill="#F9F9F9"/>
<path d="M6.06906 100.371C5.21605 100.383 4.36803 100.239 3.5669 99.9465C2.90555 99.7334 2.30497 99.3656 1.81538 98.8737L2.05309 98.6741C2.51524 99.1217 3.0705 99.4624 3.6795 99.6721C4.41884 99.9508 5.20361 100.09 5.994 100.084C6.71602 100.109 7.4366 100.003 8.12084 99.7719C8.61251 99.6115 9.04705 99.3125 9.37192 98.9111C9.64592 98.5539 9.78738 98.113 9.77227 97.6636C9.80008 97.2103 9.65229 96.7637 9.35941 96.416C9.05936 96.1215 8.69555 95.8996 8.29599 95.7673C7.81181 95.5836 7.31405 95.4376 6.8072 95.3307L5.19331 94.9689C4.70523 94.8626 4.22786 94.7123 3.76707 94.5198C3.342 94.3444 2.96779 94.0656 2.67863 93.7089C2.39015 93.3203 2.24439 92.8446 2.26577 92.3616C2.27636 91.9141 2.42006 91.4799 2.67863 91.114C2.99619 90.6764 3.42928 90.3353 3.92971 90.1285C4.65585 89.8527 5.4302 89.7254 6.20668 89.7542C6.8414 89.754 7.47304 89.8422 8.08331 90.0162C8.64252 90.1644 9.1746 90.4002 9.65967 90.7148L9.47201 90.9519C8.98457 90.6333 8.44772 90.3973 7.88313 90.2532C7.35936 90.0905 6.81714 89.9941 6.26924 89.9663C5.56683 89.9444 4.86657 90.0545 4.20495 90.2907C3.7136 90.4517 3.27923 90.7506 2.95387 91.1515C2.68795 91.5122 2.55135 91.9516 2.56603 92.399C2.54077 92.8519 2.68826 93.2976 2.97889 93.6465C3.27844 93.9711 3.6517 94.2192 4.06733 94.3701C4.55118 94.5548 5.04902 94.7008 5.55612 94.8067L7.17002 95.1685C7.67961 95.2869 8.17779 95.4497 8.6588 95.655C9.08075 95.83 9.45413 96.1039 9.74725 96.4535C10.0368 96.832 10.183 97.3003 10.1601 97.7758C10.1482 98.225 9.99984 98.66 9.73473 99.0234C9.39514 99.4676 8.93489 99.8053 8.40859 99.9964C7.66049 100.271 6.86587 100.399 6.06906 100.371Z" fill="black"/>
<path d="M13.7757 100.034H21.2822V100.321H13.3879V89.7293H21.0695V90.0162H13.7757V100.034ZM13.6882 94.7943H20.3564V95.0812H13.6506L13.6882 94.7943Z" fill="black"/>
<path d="M29.5519 100.371C28.7257 100.38 27.9043 100.244 27.1248 99.9715C26.4128 99.7233 25.7547 99.3422 25.1856 98.8487C24.6572 98.3739 24.2315 97.7965 23.9345 97.152C23.6311 96.486 23.474 95.7628 23.474 95.0312C23.474 94.2997 23.6311 93.5765 23.9345 92.9104C24.2318 92.2661 24.6575 91.6889 25.1856 91.2138C25.7549 90.7205 26.4129 90.3395 27.1248 90.091C28.6982 89.5549 30.4056 89.5549 31.979 90.091C32.6907 90.3397 33.3487 90.7207 33.9182 91.2138C34.4463 91.6889 34.872 92.2661 35.1692 92.9104C35.4735 93.5763 35.6309 94.2995 35.6309 95.0312C35.6309 95.763 35.4735 96.4862 35.1692 97.152C34.8723 97.7965 34.4466 98.3739 33.9182 98.8487C33.3491 99.3422 32.691 99.7233 31.979 99.9715C31.1994 100.244 30.378 100.379 29.5519 100.371ZM29.5519 100.084C30.3269 100.091 31.0973 99.9645 31.8288 99.7095C32.5048 99.4718 33.129 99.1077 33.6679 98.6366C34.1915 98.1916 34.6174 97.6438 34.919 97.0273C35.2048 96.3982 35.3526 95.7156 35.3526 95.025C35.3526 94.3344 35.2048 93.6518 34.919 93.0227C34.6174 92.4062 34.1915 91.8584 33.6679 91.4134C33.129 90.9423 32.5048 90.5782 31.8288 90.3405C30.3489 89.8349 28.7423 89.8349 27.2624 90.3405C26.5863 90.5779 25.9621 90.9421 25.4233 91.4134C24.8998 91.8584 24.4739 92.4062 24.1722 93.0227C23.8865 93.6518 23.7387 94.3344 23.7387 95.025C23.7387 95.7156 23.8865 96.3982 24.1722 97.0273C24.4739 97.6438 24.8998 98.1916 25.4233 98.6366C25.9621 99.1079 26.5863 99.4721 27.2624 99.7095C27.998 99.9659 28.7727 100.093 29.5519 100.084Z" fill="black"/>
<path d="M45.5782 100.371C44.9255 100.383 44.2762 100.273 43.6641 100.046C43.1787 99.8553 42.7487 99.5466 42.413 99.1481C42.0965 98.7662 41.9278 98.2837 41.9376 97.7883C41.9392 97.3929 42.0472 97.0051 42.2504 96.6656C42.5172 96.2438 42.8609 95.8757 43.2637 95.5802C43.8731 95.1097 44.5218 94.6923 45.2029 94.3327C45.7959 94.0084 46.3722 93.6545 46.9294 93.2723C47.2885 93.0498 47.6026 92.762 47.8552 92.424C48.0369 92.155 48.1328 91.8376 48.1305 91.5133C48.1368 91.2916 48.0916 91.0714 47.9982 90.8701C47.9049 90.6688 47.766 90.4918 47.5925 90.3531C47.1456 90.0346 46.6018 89.8803 46.0537 89.9164C45.467 89.8817 44.8868 90.0539 44.4147 90.403C44.2281 90.5527 44.0782 90.7429 43.9763 90.959C43.8744 91.1752 43.8233 91.4117 43.8267 91.6505C43.8276 91.8888 43.8699 92.1252 43.9518 92.3491C44.0561 92.6168 44.2041 92.8655 44.3897 93.0852C44.6725 93.4252 44.9732 93.75 45.2905 94.0582L51.6335 100.209L51.3833 100.408L44.9902 94.1705C44.6627 93.8515 44.3535 93.5141 44.0644 93.16C43.8701 92.9304 43.7177 92.6686 43.614 92.3865C43.5318 92.1412 43.4896 91.8843 43.4889 91.6256C43.4993 91.2783 43.6077 90.941 43.8017 90.6525C44.0294 90.3362 44.3415 90.0898 44.7025 89.9414C45.1336 89.7598 45.5982 89.6705 46.0662 89.6794C46.494 89.6705 46.9194 89.7468 47.3173 89.904C47.6531 90.0359 47.944 90.261 48.1555 90.5527C48.359 90.8499 48.4641 91.2033 48.4557 91.5632C48.4593 91.9071 48.3638 92.2449 48.1805 92.5362C47.9254 92.9016 47.6027 93.2149 47.2297 93.4594C46.6348 93.8653 46.0165 94.236 45.3781 94.5697C44.7179 94.9119 44.0825 95.2995 43.4764 95.7299C43.0927 95.9912 42.7652 96.3263 42.5131 96.7155C42.3313 97.0303 42.2364 97.3876 42.2379 97.7509C42.2255 98.2041 42.3764 98.6467 42.6632 98.9984C42.977 99.3755 43.3879 99.6602 43.8518 99.8218C44.4132 100.023 45.0068 100.12 45.6033 100.109C46.3778 100.125 47.1466 99.9719 47.8552 99.6596C48.5075 99.3442 49.0644 98.8621 49.4691 98.2624C49.9456 97.5534 50.2733 96.7556 50.4324 95.917H50.7202C50.5558 96.8108 50.2065 97.6606 49.6943 98.4121C49.2534 99.0365 48.653 99.5318 47.9553 99.8467C47.2099 100.19 46.3991 100.368 45.5782 100.371Z" fill="black"/>
<path d="M63.1184 100.371C62.2922 100.38 61.4709 100.244 60.6913 99.9715C59.9793 99.7233 59.3212 99.3423 58.7521 98.8487C58.2237 98.3739 57.798 97.7966 57.5011 97.1521C57.1976 96.486 57.0406 95.7629 57.0406 95.0313C57.0406 94.2997 57.1976 93.5765 57.5011 92.9105C57.7983 92.2661 58.224 91.6889 58.7521 91.2138C59.3214 90.7205 59.9795 90.3395 60.6913 90.091C61.471 89.8185 62.2923 89.6835 63.1184 89.6918C63.8737 89.6891 64.6249 89.8027 65.3453 90.0287C66.0196 90.2315 66.6424 90.5761 67.1719 91.0392L66.9717 91.2512C66.4516 90.8008 65.842 90.4649 65.1827 90.2657C64.5121 90.071 63.8168 89.9743 63.1184 89.9788C62.3383 89.9716 61.5631 90.1025 60.8289 90.3655C60.154 90.6053 59.5302 90.9692 58.9898 91.4384C58.4663 91.8834 58.0404 92.4312 57.7388 93.0477C57.4528 93.6723 57.3047 94.3509 57.3047 95.0375C57.3047 95.7241 57.4528 96.4027 57.7388 97.0273C58.0386 97.6449 58.4647 98.1931 58.9898 98.6366C59.5302 99.1058 60.154 99.4697 60.8289 99.7095C61.563 99.973 62.3383 100.104 63.1184 100.096C63.8176 100.099 64.5133 99.9981 65.1827 99.7968C65.8407 99.5945 66.4497 99.259 66.9717 98.8113L67.1719 99.0233C66.6423 99.489 66.0198 99.8377 65.3453 100.046C64.6246 100.27 63.8732 100.379 63.1184 100.371Z" fill="black"/>
<path d="M72.8769 100.371C72.1159 100.383 71.3638 100.207 70.6875 99.8592C70.0602 99.5357 69.5326 99.0484 69.1611 98.4495C68.7795 97.836 68.584 97.1254 68.5981 96.4036C68.584 95.6817 68.7795 94.9712 69.1611 94.3576C69.5358 93.7645 70.0628 93.282 70.6875 92.9604C71.364 92.613 72.116 92.4374 72.8769 92.4489C73.6417 92.4374 74.3978 92.613 75.0788 92.9604C75.7056 93.279 76.2333 93.7621 76.6051 94.3576C76.9823 94.9725 77.1735 95.683 77.1556 96.4036C77.1759 97.1171 76.9912 97.8215 76.6232 98.4338C76.2553 99.0461 75.7194 99.5407 75.0788 99.8592C74.3981 100.208 73.6418 100.383 72.8769 100.371ZM72.8769 100.084C73.5771 100.093 74.2689 99.9302 74.8911 99.6097C75.7581 99.1244 76.3966 98.3158 76.6663 97.3615C76.9361 96.4072 76.8151 95.3852 76.3298 94.5198C75.9854 93.9845 75.5009 93.5532 74.9286 93.2723C74.3046 92.958 73.6134 92.7996 72.9144 92.8107C72.2152 92.7976 71.5235 92.9561 70.9001 93.2723C70.33 93.5563 69.8462 93.9869 69.4989 94.5198C69.1554 95.0976 68.9741 95.7568 68.9741 96.4285C68.9741 97.1002 69.1554 97.7595 69.4989 98.3372C69.8481 98.8685 70.3313 99.2988 70.9001 99.5848C71.5082 99.9099 72.1869 100.081 72.8769 100.084Z" fill="black"/>
<path d="M84.0741 92.4489C84.7197 92.4329 85.3608 92.5608 85.9507 92.8232C86.471 93.0521 86.9079 93.4355 87.2018 93.921C87.5022 94.488 87.6366 95.1278 87.5896 95.7673V100.383H87.2518V95.7673C87.2796 95.3608 87.2191 94.9531 87.0745 94.572C86.9298 94.1909 86.7044 93.8455 86.4136 93.5592C85.7593 93.0179 84.9226 92.7458 84.0741 92.7982C83.3879 92.7799 82.707 92.9208 82.0848 93.2099C81.5639 93.4677 81.1293 93.8707 80.8337 94.3701C80.5316 94.9019 80.3802 95.5056 80.3959 96.1166V100.371H80.0831V92.4988H80.4209V94.7194C80.6776 94.0439 81.1531 93.4731 81.7721 93.0976C82.4647 92.6737 83.2614 92.4492 84.0741 92.4489Z" fill="black"/>
<path d="M89.854 92.7857V92.4988H94.8584V92.7857H89.854ZM93.6824 100.371C93.3959 100.392 93.1081 100.357 92.8354 100.267C92.5627 100.177 92.3106 100.034 92.0935 99.8467C91.9087 99.6653 91.7642 99.4471 91.6694 99.2064C91.5746 98.9657 91.5315 98.7079 91.543 98.4495V90.7772H91.8808V98.3622C91.8682 98.5906 91.9028 98.8192 91.9824 99.0338C92.0621 99.2484 92.185 99.4444 92.3437 99.6097C92.7193 99.9262 93.2045 100.083 93.6949 100.046C94.2257 100.066 94.7455 99.8927 95.1586 99.5598L95.3963 99.7719C95.1754 99.9729 94.9094 100.118 94.6207 100.196C94.3178 100.299 94.0019 100.357 93.6824 100.371Z" fill="black"/>
<path d="M101.039 100.371C100.254 100.384 99.4768 100.209 98.7743 99.8592C98.1339 99.5402 97.5931 99.0527 97.2104 98.4495C96.8244 97.8373 96.6245 97.1267 96.6349 96.4036C96.6195 95.6866 96.8013 94.979 97.1604 94.3576C97.5072 93.7685 98.009 93.2853 98.6116 92.9604C99.253 92.6152 99.9722 92.4392 100.701 92.4489C101.427 92.4358 102.145 92.603 102.79 92.9354C103.394 93.2517 103.9 93.7262 104.254 94.3077C104.62 94.9131 104.806 95.6095 104.792 96.3162V96.3911H96.8351V96.1042H104.617L104.479 96.3287C104.484 95.6928 104.315 95.0675 103.991 94.5198C103.648 93.9882 103.168 93.5576 102.603 93.2723C102.02 92.9814 101.377 92.8299 100.726 92.8299C100.074 92.8299 99.4319 92.9814 98.8493 93.2723C98.2993 93.5613 97.837 93.9921 97.5107 94.5198C97.1822 95.0794 97.0135 95.7178 97.0227 96.3661C96.997 97.0305 97.1619 97.6883 97.4981 98.2624C97.8615 98.8 98.3626 99.2307 98.9494 99.5099C99.6016 99.8343 100.323 99.9969 101.051 99.984C101.624 99.9881 102.192 99.8866 102.728 99.6846C103.239 99.4961 103.695 99.1831 104.054 98.7739L104.292 98.986C103.899 99.4141 103.41 99.7433 102.865 99.9465C102.289 100.201 101.669 100.345 101.039 100.371Z" fill="black"/>
<path d="M111.723 92.4489C112.369 92.4329 113.01 92.5608 113.6 92.8232C114.12 93.0521 114.557 93.4355 114.851 93.921C115.155 94.4867 115.294 95.1266 115.251 95.7673V100.383H114.913V95.7673C114.941 95.3608 114.881 94.9531 114.736 94.572C114.591 94.1909 114.366 93.8455 114.075 93.5592C113.421 93.0179 112.584 92.7458 111.735 92.7982C111.049 92.7799 110.368 92.9208 109.746 93.2099C109.225 93.4677 108.791 93.8707 108.495 94.3701C108.193 94.9019 108.042 95.5056 108.057 96.1166V100.371H107.719V92.4988H108.057V94.7194C108.314 94.0439 108.79 93.4731 109.408 93.0976C110.105 92.6715 110.906 92.4469 111.723 92.4489Z" fill="black"/>
<path d="M117.503 92.7857V92.4988H122.507V92.7857H117.503ZM121.369 100.371C121.082 100.392 120.795 100.357 120.522 100.267C120.249 100.177 119.997 100.034 119.78 99.8467C119.595 99.6653 119.451 99.4471 119.356 99.2064C119.261 98.9657 119.218 98.7079 119.229 98.4495V90.7772H119.567V98.3622C119.555 98.5906 119.589 98.8192 119.669 99.0338C119.749 99.2484 119.871 99.4444 120.03 99.6097C120.406 99.9262 120.891 100.083 121.381 100.046C121.912 100.066 122.432 99.8927 122.845 99.5598L123.083 99.7719C122.862 99.9729 122.596 100.118 122.307 100.196C122.004 100.299 121.688 100.357 121.369 100.371Z" fill="black"/>
<path d="M130.251 100.321V89.7293H130.539L136.219 98.5369H136.069L141.724 89.7293H142.012V100.321H141.674V90.1659H141.811L136.244 98.8238H136.044L130.452 90.1659H130.602V100.321H130.251Z" fill="black"/>
<path d="M148.505 100.371C147.93 100.384 147.357 100.291 146.816 100.096C146.394 99.9458 146.025 99.6772 145.752 99.3227C145.51 98.9896 145.382 98.5867 145.39 98.175C145.389 97.8084 145.493 97.4491 145.69 97.1396C145.929 96.7887 146.269 96.5189 146.666 96.3661C147.257 96.1453 147.886 96.0436 148.517 96.0667H152.045V96.3536H148.505C147.755 96.2888 147.004 96.4683 146.365 96.8651C146.17 97.0104 146.011 97.1985 145.901 97.4148C145.79 97.6311 145.731 97.8698 145.727 98.1126C145.722 98.3888 145.787 98.6617 145.916 98.9061C146.045 99.1504 146.234 99.3581 146.466 99.5099C147.075 99.8905 147.787 100.074 148.505 100.034C149.241 100.062 149.97 99.8801 150.607 99.5099C151.162 99.1553 151.598 98.6424 151.858 98.0378L152.033 98.2374C151.792 98.8633 151.353 99.3935 150.782 99.7469C150.1 100.171 149.308 100.388 148.505 100.371ZM151.858 100.371V95.2558C151.883 94.9147 151.832 94.5722 151.708 94.253C151.585 93.9339 151.393 93.6458 151.145 93.4095C150.551 92.9571 149.813 92.7354 149.068 92.7857C148.454 92.7783 147.844 92.8797 147.266 93.0851C146.757 93.265 146.283 93.5308 145.865 93.8711L145.627 93.659C146.084 93.2856 146.606 92.9982 147.166 92.8107C147.773 92.6001 148.412 92.4946 149.055 92.4988C149.894 92.4431 150.725 92.6912 151.395 93.1974C151.678 93.4537 151.899 93.7714 152.04 94.1261C152.181 94.4808 152.238 94.863 152.208 95.2433V100.371H151.858Z" fill="black"/>
<path d="M156.011 100.321V92.4988H156.399V94.6695C156.617 94.0084 157.06 93.4437 157.65 93.0726C158.326 92.6706 159.103 92.4714 159.89 92.4988V92.7982H159.79C159.333 92.7668 158.875 92.8304 158.444 92.9851C158.013 93.1397 157.619 93.3819 157.287 93.6964C156.977 94.0305 156.739 94.424 156.586 94.8529C156.433 95.2818 156.37 95.7372 156.399 96.1915V100.396L156.011 100.321Z" fill="black"/>
<path d="M162.367 100.321V89.093H162.655V100.321H162.367ZM162.592 97.9879V97.6261L168.91 92.4988H169.41L165.582 95.6176L165.307 95.8047L162.592 97.9879ZM169.373 100.321L165.244 95.7673L165.519 95.5802L169.811 100.358L169.373 100.321Z" fill="black"/>
<path d="M175.103 100.371C174.318 100.385 173.541 100.209 172.838 99.8592C172.198 99.5402 171.657 99.0527 171.274 98.4495C170.888 97.8373 170.689 97.1267 170.699 96.4036C170.684 95.6866 170.866 94.9793 171.224 94.3576C171.568 93.7702 172.065 93.2872 172.663 92.9604C173.305 92.6152 174.024 92.4392 174.752 92.4489C175.479 92.4358 176.197 92.603 176.842 92.9354C177.446 93.2517 177.952 93.7262 178.306 94.3077C178.671 94.9131 178.858 95.6095 178.844 96.3162V96.3911H170.874V96.1042H178.656L178.518 96.3287C178.526 95.6789 178.353 95.0397 178.018 94.4824C177.688 93.9574 177.227 93.5273 176.679 93.2348C176.084 92.9275 175.423 92.7671 174.752 92.7671C174.082 92.7671 173.421 92.9275 172.826 93.2348C172.276 93.5239 171.814 93.9547 171.487 94.4824C171.159 95.0419 170.99 95.6804 170.999 96.3287C170.986 97.0022 171.169 97.665 171.525 98.2374C171.889 98.7746 172.389 99.2053 172.976 99.485C173.624 99.8073 174.341 99.9699 175.065 99.959C175.638 99.9632 176.206 99.8617 176.742 99.6596C177.253 99.4717 177.709 99.1585 178.068 98.7489L178.306 98.961C177.913 99.3895 177.424 99.7188 176.879 99.9216C176.32 100.179 175.718 100.331 175.103 100.371Z" fill="black"/>
<path d="M180.17 92.7857V92.4988H185.174V92.7857H180.17ZM183.998 100.371C183.712 100.392 183.424 100.357 183.151 100.267C182.878 100.177 182.626 100.034 182.409 99.8467C182.224 99.6653 182.08 99.4471 181.985 99.2064C181.89 98.9657 181.847 98.7079 181.859 98.4495V90.7772H182.196V98.3622C182.185 98.5906 182.22 98.819 182.299 99.0335C182.379 99.2479 182.501 99.444 182.659 99.6097C183.035 99.9262 183.52 100.083 184.011 100.046C184.541 100.066 185.061 99.8927 185.474 99.5598L185.712 99.7719C185.491 99.9733 185.225 100.119 184.936 100.196C184.637 100.297 184.326 100.356 184.011 100.371H183.998Z" fill="black"/>
<path d="M188.527 90.3406C188.41 90.3409 188.298 90.2962 188.214 90.2158C188.172 90.1829 188.138 90.1413 188.115 90.0939C188.091 90.0464 188.078 89.9944 188.077 89.9414C188.077 89.8882 188.09 89.8358 188.113 89.7883C188.137 89.7407 188.172 89.6992 188.214 89.6669C188.301 89.5921 188.412 89.5521 188.527 89.5546C188.642 89.5509 188.754 89.5911 188.84 89.6669C188.879 89.701 188.911 89.7432 188.932 89.7905C188.954 89.8379 188.965 89.8893 188.965 89.9414C188.965 89.9934 188.954 90.0448 188.932 90.0922C188.911 90.1396 188.879 90.1817 188.84 90.2158C188.798 90.2562 188.749 90.288 188.696 90.3094C188.642 90.3308 188.585 90.3414 188.527 90.3406ZM188.352 100.321V92.4988H188.69V100.321H188.352Z" fill="black"/>
<path d="M196.659 92.4489C197.305 92.4329 197.946 92.5608 198.536 92.8232C199.056 93.0521 199.493 93.4355 199.787 93.921C200.091 94.487 200.229 95.1267 200.187 95.7673V100.383H199.849V95.7673C199.877 95.3608 199.817 94.9531 199.672 94.572C199.527 94.1909 199.302 93.8455 199.011 93.5592C198.356 93.019 197.52 92.747 196.671 92.7982C195.985 92.7799 195.304 92.9208 194.682 93.2099C194.161 93.4677 193.727 93.8707 193.431 94.3701C193.13 94.9021 192.978 95.5057 192.993 96.1166V100.371H192.655V92.4988H192.993V94.7194C193.25 94.0439 193.725 93.4731 194.344 93.0976C195.041 92.6715 195.842 92.4469 196.659 92.4489Z" fill="black"/>
<path d="M207.281 100.071C206.518 100.084 205.764 99.9175 205.079 99.5848C204.454 99.2875 203.919 98.8314 203.527 98.2624C203.16 97.6704 202.965 96.9877 202.965 96.2913C202.965 95.5948 203.16 94.9122 203.527 94.3202C203.916 93.7454 204.452 93.2846 205.079 92.9853C205.765 92.6544 206.519 92.4878 207.281 92.4988C208.043 92.4859 208.797 92.6526 209.483 92.9853C210.1 93.2839 210.624 93.7456 210.996 94.3202C211.364 94.9122 211.559 95.5948 211.559 96.2913C211.559 96.9877 211.364 97.6704 210.996 98.2624C210.624 98.8433 210.101 99.3131 209.483 99.6222C208.795 99.9443 208.04 100.098 207.281 100.071ZM207.281 99.7844C207.99 99.7976 208.693 99.6437 209.332 99.3353C209.909 99.0552 210.397 98.6239 210.746 98.0877C211.098 97.5412 211.281 96.9034 211.272 96.2539C211.284 95.604 211.101 94.9653 210.746 94.42C210.395 93.8855 209.907 93.4546 209.332 93.1725C208.689 92.8778 207.989 92.7252 207.281 92.7252C206.572 92.7252 205.872 92.8778 205.229 93.1725C204.649 93.4522 204.156 93.8834 203.803 94.42C203.448 94.9653 203.265 95.604 203.277 96.2539C203.268 96.9034 203.451 97.5412 203.803 98.0877C204.154 98.6261 204.648 99.0576 205.229 99.3353C205.868 99.6432 206.571 99.7971 207.281 99.7844ZM207.531 103.315C206.774 103.32 206.022 103.202 205.304 102.966C204.686 102.776 204.118 102.452 203.64 102.017L203.878 101.805C204.351 102.211 204.899 102.52 205.492 102.716C206.15 102.93 206.839 103.036 207.531 103.028C208.535 103.109 209.535 102.825 210.346 102.23C210.667 101.902 210.914 101.51 211.071 101.08C211.229 100.65 211.293 100.191 211.259 99.7345V97.2394L211.434 96.3287L211.259 95.418V92.4988H211.597V99.6347C211.64 100.144 211.572 100.656 211.397 101.137C211.222 101.617 210.944 102.054 210.583 102.417C209.704 103.051 208.625 103.348 207.543 103.252L207.531 103.315Z" fill="black"/>
<path d="M220.104 100.321V89.7293H224.145C224.998 89.7087 225.847 89.8483 226.647 90.141C227.296 90.391 227.857 90.8246 228.261 91.3885C228.628 91.9442 228.823 92.5947 228.823 93.2598C228.823 93.9249 228.628 94.5754 228.261 95.1311C227.858 95.6965 227.297 96.1305 226.647 96.3786C225.847 96.6712 224.998 96.8109 224.145 96.7903H220.292L220.442 96.6531V100.396L220.104 100.321ZM220.442 96.5782L220.292 96.4535H224.183C225.313 96.529 226.437 96.2356 227.386 95.6176C227.732 95.3296 228.011 94.9691 228.203 94.5616C228.394 94.1542 228.493 93.7097 228.493 93.2598C228.493 92.8098 228.394 92.3654 228.203 91.9579C228.011 91.5505 227.732 91.19 227.386 90.902C226.436 90.2857 225.313 89.9924 224.183 90.0661H220.292L220.442 89.9414V96.5782Z" fill="black"/>
<path d="M231.889 100.321V89.093H232.227V100.321H231.889Z" fill="black"/>
<path d="M238.42 100.371C237.845 100.384 237.272 100.291 236.731 100.096C236.309 99.9458 235.94 99.6772 235.668 99.3227C235.425 98.9896 235.298 98.5867 235.305 98.175C235.304 97.8084 235.408 97.4491 235.605 97.1396C235.844 96.7887 236.184 96.5189 236.581 96.3661C237.172 96.145 237.802 96.0432 238.433 96.0667H241.961V96.3536H238.42C237.67 96.2888 236.92 96.4683 236.281 96.8651C236.086 97.0104 235.927 97.1985 235.816 97.4148C235.705 97.6311 235.646 97.8698 235.643 98.1126C235.637 98.3888 235.702 98.6617 235.831 98.9061C235.96 99.1504 236.149 99.3581 236.381 99.5099C236.99 99.8905 237.702 100.074 238.42 100.034C239.156 100.062 239.885 99.8801 240.522 99.5099C241.078 99.1559 241.514 98.6428 241.773 98.0378L241.948 98.2374C241.708 98.8633 241.268 99.3935 240.697 99.7469C240.015 100.172 239.224 100.389 238.42 100.371ZM241.773 100.371V95.2558C241.798 94.9147 241.747 94.5722 241.624 94.253C241.5 93.9339 241.308 93.6458 241.06 93.4095C240.466 92.9582 239.728 92.7366 238.983 92.7857C238.369 92.778 237.759 92.8794 237.181 93.0851C236.673 93.2647 236.198 93.5306 235.78 93.8711L235.543 93.659C236 93.2856 236.521 92.9982 237.081 92.8107C237.689 92.6001 238.328 92.4946 238.971 92.4988C239.809 92.4431 240.64 92.6912 241.31 93.1974C241.593 93.4537 241.814 93.7714 241.955 94.1261C242.096 94.4808 242.154 94.863 242.123 95.2433V100.371H241.773Z" fill="black"/>
<path d="M244.363 92.7857V92.4988H249.367V92.7857H244.363ZM248.191 100.371C247.905 100.392 247.617 100.357 247.344 100.267C247.071 100.177 246.819 100.034 246.602 99.8467C246.417 99.6653 246.273 99.4471 246.178 99.2064C246.083 98.9657 246.04 98.7079 246.052 98.4495V90.7772H246.389V98.3622C246.378 98.5906 246.413 98.819 246.492 99.0335C246.572 99.2479 246.694 99.444 246.852 99.6097C247.228 99.9262 247.713 100.083 248.204 100.046C248.734 100.066 249.254 99.8927 249.667 99.5598L249.905 99.7719C249.684 99.9733 249.418 100.119 249.129 100.196C248.83 100.297 248.519 100.356 248.204 100.371H248.191Z" fill="black"/>
<path d="M250.981 92.7857V92.4988H255.985V92.7857H250.981ZM252.682 100.271V90.9144C252.672 90.658 252.715 90.4023 252.81 90.1638C252.905 89.9253 253.049 89.7092 253.233 89.5297C253.669 89.1552 254.235 88.967 254.809 89.0057C255.131 89.0062 255.451 89.0524 255.76 89.1429C256.049 89.2207 256.315 89.3661 256.536 89.5671L256.298 89.7792C256.109 89.6144 255.887 89.4911 255.647 89.4174C255.384 89.3343 255.11 89.2922 254.834 89.2926C254.344 89.256 253.859 89.4128 253.483 89.7293C253.324 89.8946 253.201 90.0906 253.122 90.3051C253.042 90.5197 253.008 90.7483 253.02 90.9768V100.258L252.682 100.271Z" fill="black"/>
<path d="M260.914 100.371C260.154 100.383 259.401 100.208 258.725 99.8592C258.098 99.5356 257.57 99.0484 257.199 98.4495C256.82 97.8345 256.625 97.125 256.636 96.4036C256.622 95.6817 256.817 94.9712 257.199 94.3576C257.573 93.7644 258.1 93.282 258.725 92.9604C259.401 92.6125 260.154 92.4368 260.914 92.4489C261.679 92.4373 262.435 92.613 263.116 92.9604C263.743 93.279 264.271 93.7621 264.643 94.3576C265.02 94.9725 265.211 95.6829 265.193 96.4036C265.214 97.1171 265.029 97.8215 264.661 98.4338C264.293 99.0461 263.757 99.5407 263.116 99.8592C262.436 100.207 261.679 100.383 260.914 100.371ZM260.914 100.084C261.615 100.092 262.306 99.9297 262.929 99.6097C263.789 99.1181 264.42 98.3067 264.682 97.353C264.945 96.3993 264.818 95.3807 264.33 94.5198C263.986 93.9845 263.501 93.5531 262.929 93.2723C262.305 92.9585 261.613 92.8001 260.914 92.8107C260.215 92.7976 259.524 92.9561 258.9 93.2723C258.33 93.5567 257.847 93.9873 257.499 94.5198C257.156 95.0975 256.974 95.7568 256.974 96.4285C256.974 97.1002 257.156 97.7595 257.499 98.3372C257.849 98.8681 258.332 99.2983 258.9 99.5847C259.519 99.9158 260.212 100.087 260.914 100.084Z" fill="black"/>
<path d="M268.071 100.321V92.4988H268.409V94.6695C268.627 94.0084 269.069 93.4437 269.66 93.0726C270.335 92.6706 271.113 92.4714 271.899 92.4988V92.7982H271.799C271.342 92.7668 270.884 92.8304 270.453 92.9851C270.022 93.1397 269.629 93.3819 269.297 93.6964C268.987 94.0309 268.749 94.4244 268.596 94.8533C268.444 95.2821 268.38 95.7373 268.409 96.1915V100.396L268.071 100.321Z" fill="black"/>
<path d="M285.373 92.4489C286.003 92.4335 286.627 92.5615 287.2 92.8231C287.701 93.0572 288.116 93.4409 288.388 93.921C288.68 94.4693 288.823 95.0845 288.801 95.7049V100.321H288.463V95.7673C288.491 95.3629 288.433 94.9572 288.293 94.5768C288.153 94.1963 287.934 93.8495 287.65 93.5592C287.027 93.0245 286.219 92.7517 285.398 92.7982C284.728 92.7783 284.063 92.9195 283.459 93.2099C282.937 93.4664 282.502 93.8698 282.208 94.3701C281.909 94.903 281.757 95.506 281.77 96.1166V100.371H281.432V95.7673C281.46 95.3629 281.402 94.9572 281.262 94.5768C281.122 94.1963 280.903 93.8495 280.619 93.5592C279.995 93.0245 279.188 92.7517 278.367 92.7982C277.697 92.7783 277.032 92.9195 276.428 93.2099C275.907 93.4671 275.472 93.8702 275.177 94.3701C274.878 94.903 274.726 95.506 274.739 96.1166V100.371H274.401V92.4988H274.739V94.7069C274.968 94.0483 275.407 93.4829 275.99 93.0976C276.687 92.6795 277.491 92.4715 278.305 92.4988C279.101 92.4655 279.887 92.6791 280.557 93.1101C280.854 93.3233 281.106 93.5948 281.295 93.9079C281.484 94.221 281.607 94.5693 281.657 94.9315C281.863 94.2242 282.304 93.608 282.909 93.1849C283.63 92.6841 284.494 92.4262 285.373 92.4489Z" fill="black"/>
</svg>
