<svg width="19" height="19" viewBox="0 0 19 19" fill="none" xmlns="http://www.w3.org/2000/svg">
<path d="M12.8895 18.1985H12.6662C11.486 18.0992 10.3375 17.7738 9.28685 17.241C7.01856 16.1672 5.00969 14.6375 3.39263 12.7528C2.16188 11.3671 1.18819 9.78332 0.515144 8.07248C0.142839 7.20212 -0.0313323 6.26354 0.00462148 5.32135C0.0452502 4.65728 0.343939 4.03317 0.840022 3.57578C1.09818 3.33851 1.34764 3.0956 1.5942 2.85269C1.78565 2.66344 1.96259 2.50527 2.14243 2.33297C2.3107 2.15319 2.51564 2.00958 2.74415 1.91131C2.97265 1.81305 3.2197 1.76229 3.4695 1.76229C3.7193 1.76229 3.96635 1.81305 4.19486 1.91131C4.42337 2.00958 4.62831 2.15319 4.79657 2.33297C5.14756 2.66909 5.49564 3.01086 5.84372 3.35546L6.157 3.66051L6.85317 4.34123C7.04508 4.50584 7.1988 4.70836 7.3041 4.93531C7.40939 5.16226 7.46385 5.40844 7.46385 5.65748C7.46385 5.90651 7.40939 6.1527 7.3041 6.37965C7.1988 6.6066 7.04508 6.80911 6.85317 6.97372L6.53699 7.2816C6.26142 7.54993 5.98876 7.81827 5.71029 8.08377C5.9751 8.62288 6.30944 9.1269 6.70523 9.58362C7.56877 10.6537 8.60879 11.5767 9.78287 12.315C9.9192 12.3969 10.0729 12.4731 10.2412 12.5522L10.3949 12.6257C10.772 12.25 11.1549 11.88 11.5378 11.51C11.7059 11.328 11.9114 11.1824 12.1411 11.0828C12.3707 10.9832 12.6193 10.9317 12.8707 10.9317C13.1221 10.9317 13.3706 10.9832 13.6003 11.0828C13.8299 11.1824 14.0354 11.328 14.2035 11.51C14.8978 12.1784 15.5881 12.8507 16.2746 13.5267C16.4629 13.692 16.6135 13.8939 16.7165 14.1194C16.8196 14.345 16.8728 14.589 16.8728 14.8359C16.8728 15.0827 16.8196 15.3268 16.7165 15.5523C16.6135 15.7779 16.4629 15.9798 16.2746 16.1451C16.1412 16.275 16.0049 16.4049 15.8685 16.5349C15.6046 16.7862 15.3522 17.0235 15.1231 17.2777C14.8429 17.5813 14.4976 17.8212 14.1116 17.9804C13.7256 18.1395 13.3084 18.214 12.8895 18.1985ZM1.60291 7.67986C2.2299 9.269 3.13583 10.7399 4.28025 12.0269C5.79266 13.7882 7.67097 15.2177 9.79157 16.2213C10.7014 16.6962 11.7014 16.9846 12.73 17.0687C13.0118 17.1012 13.2975 17.0668 13.5627 16.9685C13.8279 16.8701 14.0647 16.7107 14.2528 16.5038C14.511 16.2213 14.7866 15.9586 15.0563 15.7044C15.1869 15.5802 15.3174 15.4559 15.4479 15.3288C15.5302 15.2691 15.5969 15.1915 15.6429 15.1023C15.6889 15.013 15.7129 14.9146 15.7129 14.8147C15.7129 14.7148 15.6889 14.6164 15.6429 14.5271C15.5969 14.4379 15.5302 14.3603 15.4479 14.3006C14.7634 13.6265 14.0749 12.9561 13.3826 12.2895C13.3225 12.2134 13.2452 12.1517 13.1567 12.1092C13.0681 12.0668 12.9708 12.0447 12.8721 12.0447C12.7734 12.0447 12.6761 12.0668 12.5876 12.1092C12.499 12.1517 12.4217 12.2134 12.3616 12.2895C11.9265 12.7104 11.4914 13.12 11.0882 13.538C10.9612 13.6805 10.7871 13.7754 10.5959 13.8063C10.4048 13.8373 10.2085 13.8023 10.041 13.7075C9.93661 13.651 9.82928 13.6001 9.72486 13.5521C9.54211 13.4646 9.35357 13.3742 9.16792 13.2697C7.88537 12.4647 6.74923 11.4577 5.80601 10.2898C5.2979 9.70541 4.88059 9.05162 4.56742 8.34928C4.48954 8.19154 4.46638 8.01343 4.50143 7.84176C4.53648 7.67009 4.62784 7.51415 4.76176 7.39741C5.08374 7.09518 5.39992 6.7873 5.71319 6.4766L6.02937 6.1659C6.39195 5.81 6.39195 5.488 6.02937 5.12363L5.339 4.44857L5.02283 4.14069C4.67764 3.79892 4.33246 3.45997 3.98438 3.12949C3.92364 3.05325 3.84581 2.99154 3.75682 2.94908C3.66783 2.90663 3.57005 2.88456 3.47095 2.88456C3.37186 2.88456 3.27408 2.90663 3.18509 2.94908C3.0961 2.99154 3.01826 3.05325 2.95753 3.12949C2.77769 3.29897 2.60655 3.46844 2.4325 3.63792C2.17724 3.8893 1.91908 4.14069 1.65512 4.3836C1.35946 4.64802 1.18323 5.0156 1.1649 5.40609C1.14255 6.18037 1.28886 6.95049 1.5942 7.66574L1.60291 7.67986ZM18.5691 9.10627H17.4088C17.4057 7.02388 16.5548 5.02764 15.0427 3.55517C13.5305 2.0827 11.4805 1.25415 9.34196 1.25116V0.121338C11.7882 0.124328 14.1334 1.07191 15.8631 2.75626C17.5929 4.44062 18.566 6.72423 18.5691 9.10627ZM15.4798 9.10627H14.3196C14.318 7.82123 13.7931 6.58926 12.86 5.68061C11.9268 4.77195 10.6616 4.26081 9.34196 4.25932V3.12949C10.9691 3.13174 12.529 3.76215 13.6796 4.88253C14.8301 6.0029 15.4775 7.52182 15.4798 9.10627Z" fill="#DDA046"/>
</svg>
