<svg width="432" height="438" viewBox="0 0 432 438" fill="none" xmlns="http://www.w3.org/2000/svg">
<path d="M143.935 74.9684L215.903 146.936L143.935 218.904V74.9684Z" fill="#FBFAF6" fill-opacity="0.2"/>
<path d="M215.903 290.871L143.936 362.839L71.9678 290.871H215.903Z" fill="#FBFAF6" fill-opacity="0.2"/>
<path d="M143.935 218.904L215.903 146.936L287.871 218.904H143.935Z" fill="#FBFAF6" fill-opacity="0.2"/>
<path d="M287.871 362.84L215.903 434.808L143.935 362.84H287.871Z" fill="#FBFAF6" fill-opacity="0.2"/>
<path d="M143.935 74.9678L215.903 3.00001L287.871 74.9678H143.935Z" fill="#FBFAF6" fill-opacity="0.2"/>
<path d="M71.9678 290.872L0 218.904L71.9678 146.936V290.872Z" fill="#FBFAF6" fill-opacity="0.2"/>
<path d="M287.871 218.904L215.903 146.936L287.871 74.9684V218.904Z" fill="#FBFAF6" fill-opacity="0.2"/>
<path d="M359.839 290.871L287.871 362.839L215.903 290.871H359.839Z" fill="#FBFAF6" fill-opacity="0.2"/>
<path d="M359.839 146.936L431.807 218.904L359.839 290.872V146.936Z" fill="#FBFAF6" fill-opacity="0.2"/>
</svg>
