<svg width="25" height="25" viewBox="0 0 25 25" fill="none" xmlns="http://www.w3.org/2000/svg">
<path d="M20.3511 9.10278H11.3511C10.2465 9.10278 9.35107 9.99821 9.35107 11.1028V20.1028C9.35107 21.2074 10.2465 22.1028 11.3511 22.1028H20.3511C21.4556 22.1028 22.3511 21.2074 22.3511 20.1028V11.1028C22.3511 9.99821 21.4556 9.10278 20.3511 9.10278Z" stroke="#1F938A" stroke-width="2" stroke-linecap="round" stroke-linejoin="round"/>
<path d="M5.35107 15.1028H4.35107C3.82064 15.1028 3.31193 14.8921 2.93686 14.517C2.56179 14.1419 2.35107 13.6332 2.35107 13.1028V4.10278C2.35107 3.57235 2.56179 3.06364 2.93686 2.68857C3.31193 2.3135 3.82064 2.10278 4.35107 2.10278H13.3511C13.8815 2.10278 14.3902 2.3135 14.7653 2.68857C15.1404 3.06364 15.3511 3.57235 15.3511 4.10278V5.10278" stroke="#1F938A" stroke-width="2" stroke-linecap="round" stroke-linejoin="round"/>
</svg>
