<svg width="166" height="1080" viewBox="0 0 166 1080" fill="none" xmlns="http://www.w3.org/2000/svg">
<path d="M-3.57159e-06 997.2C-5.54412e-06 1042.93 37.0696 1080 82.7988 1080C128.528 1080 165.598 1042.93 165.598 997.2C165.598 951.471 128.528 914.399 82.7988 914.399C37.0697 914.399 -1.59906e-06 951.471 -3.57159e-06 997.2Z" fill="#FBFAF6" fill-opacity="0.2"/>
<path d="M6.59764 837.601C6.59764 879.685 40.7147 913.8 82.7988 913.8C124.883 913.8 159 879.685 159 837.601C159 795.516 124.883 761.399 82.7988 761.399C40.7147 761.399 6.59764 795.516 6.59764 837.601Z" fill="#FBFAF6" fill-opacity="0.2"/>
<path d="M13.7987 692.399C13.7987 730.507 44.691 761.399 82.7987 761.399C120.906 761.399 151.799 730.507 151.799 692.399C151.799 654.292 120.906 623.399 82.7987 623.399C44.691 623.399 13.7987 654.292 13.7987 692.399Z" fill="#FBFAF6" fill-opacity="0.2"/>
<path d="M20.3993 561C20.3993 595.463 48.3361 623.399 82.7987 623.399C117.261 623.399 145.198 595.463 145.198 561C145.198 526.537 117.261 498.601 82.7987 498.601C48.3361 498.601 20.3993 526.537 20.3993 561Z" fill="#FBFAF6" fill-opacity="0.2"/>
<path d="M27.5975 442.8C27.5975 473.286 52.3126 498 82.7987 498C113.285 498 138 473.286 138 442.8C138 412.314 113.285 387.601 82.7987 387.601C52.3126 387.601 27.5975 412.314 27.5975 442.8Z" fill="#FBFAF6" fill-opacity="0.2"/>
<path d="M34.1982 339C34.1982 365.841 55.9577 387.601 82.7988 387.601C109.64 387.601 131.399 365.841 131.399 339C131.399 312.159 109.64 290.399 82.7988 290.399C55.9577 290.399 34.1982 312.159 34.1982 339Z" fill="#FBFAF6" fill-opacity="0.2"/>
<path d="M41.3994 249C41.3994 271.865 59.9342 290.399 82.7988 290.399C105.663 290.399 124.198 271.865 124.198 249C124.198 226.135 105.663 207.601 82.7988 207.601C59.9342 207.601 41.3994 226.135 41.3994 249Z" fill="#FBFAF6" fill-opacity="0.2"/>
<path d="M48 172.8C48 192.02 63.5793 207.601 82.7988 207.601C102.018 207.601 117.598 192.02 117.598 172.8C117.598 153.581 102.018 138 82.7988 138C63.5793 138 48 153.581 48 172.8Z" fill="#FBFAF6" fill-opacity="0.2"/>
<path d="M55.1982 111C55.1982 126.243 67.5558 138.601 82.7988 138.601C98.0419 138.601 110.399 126.243 110.399 111C110.399 95.7569 98.0419 83.3994 82.7988 83.3994C67.5558 83.3994 55.1982 95.7569 55.1982 111Z" fill="#FBFAF6" fill-opacity="0.2"/>
<path d="M61.7987 62.3994C61.7987 73.9974 71.2007 83.3994 82.7987 83.3994C94.3967 83.3994 103.799 73.9974 103.799 62.3994C103.799 50.8014 94.3967 41.3994 82.7987 41.3994C71.2007 41.3994 61.7987 50.8014 61.7987 62.3994Z" fill="#FBFAF6" fill-opacity="0.2"/>
<path d="M68.9999 27.6006C68.9999 35.2221 75.1772 41.3994 82.7988 41.3994C90.4203 41.3994 96.5976 35.2221 96.5976 27.6006C96.5976 19.9791 90.4203 13.8003 82.7988 13.8003C75.1772 13.8003 68.9999 19.9791 68.9999 27.6006Z" fill="#FBFAF6" fill-opacity="0.2"/>
<path d="M75.5976 7.19971C75.5976 11.1762 78.8223 14.3994 82.7988 14.3994C86.7752 14.3994 89.9999 11.1762 89.9999 7.19971C89.9999 3.22326 86.7752 -1.42841e-07 82.7988 -3.18979e-07C78.8223 -4.95118e-07 75.5976 3.22326 75.5976 7.19971Z" fill="#FBFAF6" fill-opacity="0.2"/>
</svg>
