<svg width="13" height="12" viewBox="0 0 13 12" fill="none" xmlns="http://www.w3.org/2000/svg">
<path d="M4.87467 11C5.17383 11 5.41634 10.7761 5.41634 10.5C5.41634 10.2239 5.17383 10 4.87467 10C4.57552 10 4.33301 10.2239 4.33301 10.5C4.33301 10.7761 4.57552 11 4.87467 11Z" stroke="#FF9100" stroke-linecap="round" stroke-linejoin="round"/>
<path d="M10.8337 11C11.1328 11 11.3753 10.7761 11.3753 10.5C11.3753 10.2239 11.1328 10 10.8337 10C10.5345 10 10.292 10.2239 10.292 10.5C10.292 10.7761 10.5345 11 10.8337 11Z" stroke="#FF9100" stroke-linecap="round" stroke-linejoin="round"/>
<path d="M0.541992 0.5H2.70866L4.16033 7.195C4.20986 7.4252 4.34553 7.63198 4.54358 7.77915C4.74163 7.92632 4.98945 8.0045 5.24366 8H10.5087C10.7629 8.0045 11.0107 7.92632 11.2087 7.77915C11.4068 7.63198 11.5425 7.4252 11.592 7.195L12.4587 3H3.25033" stroke="#FF9100" stroke-linecap="round" stroke-linejoin="round"/>
</svg>
