<svg width="13" height="13" viewBox="0 0 13 13" fill="none" xmlns="http://www.w3.org/2000/svg">
<path d="M6.5 13C8.22391 13 9.87721 12.3152 11.0962 11.0962C12.3152 9.87721 13 8.22391 13 6.5C13 4.77609 12.3152 3.12279 11.0962 1.90381C9.87721 0.68482 8.22391 0 6.5 0C4.77609 0 3.12279 0.68482 1.90381 1.90381C0.68482 3.12279 0 4.77609 0 6.5C0 8.22391 0.68482 9.87721 1.90381 11.0962C3.12279 12.3152 4.77609 13 6.5 13ZM7.25563 5.35275L6.44312 9.17556C6.38625 9.45181 6.46669 9.60863 6.69012 9.60863C6.84775 9.60863 7.08581 9.55175 7.2475 9.40875L7.176 9.74675C6.94281 10.0279 6.4285 10.2326 5.98569 10.2326C5.4145 10.2326 5.17156 9.88975 5.32919 9.16094L5.92881 6.34319C5.98081 6.10512 5.93369 6.019 5.69563 5.96131L5.32919 5.8955L5.39581 5.58594L7.25644 5.35275H7.25563ZM6.5 4.46875C6.28451 4.46875 6.07785 4.38315 5.92548 4.23077C5.7731 4.0784 5.6875 3.87174 5.6875 3.65625C5.6875 3.44076 5.7731 3.2341 5.92548 3.08173C6.07785 2.92935 6.28451 2.84375 6.5 2.84375C6.71549 2.84375 6.92215 2.92935 7.07452 3.08173C7.2269 3.2341 7.3125 3.44076 7.3125 3.65625C7.3125 3.87174 7.2269 4.0784 7.07452 4.23077C6.92215 4.38315 6.71549 4.46875 6.5 4.46875Z" fill="#E1E1E1"/>
</svg>
