<svg width="62" height="62" viewBox="0 0 62 62" fill="none" xmlns="http://www.w3.org/2000/svg">
<circle cx="31" cy="31" r="31" fill="#34A853"/>
<path d="M27.2719 38.6131C27.0835 38.6131 26.9068 38.5834 26.742 38.5241C26.5771 38.4657 26.424 38.3658 26.2827 38.2245L20.2063 32.1482C19.9473 31.8891 19.8234 31.5532 19.8347 31.1406C19.8469 30.7289 19.9826 30.3935 20.2417 30.1345C20.5007 29.8754 20.8305 29.7459 21.2308 29.7459C21.6312 29.7459 21.9609 29.8754 22.22 30.1345L27.2719 35.1863L39.2479 23.2103C39.507 22.9512 39.8429 22.8217 40.2555 22.8217C40.6672 22.8217 41.0025 22.9512 41.2616 23.2103C41.5207 23.4693 41.6502 23.8047 41.6502 24.2164C41.6502 24.629 41.5207 24.9649 41.2616 25.2239L28.261 38.2245C28.1197 38.3658 27.9666 38.4657 27.8018 38.5241C27.6369 38.5834 27.4603 38.6131 27.2719 38.6131Z" fill="white"/>
</svg>
