<svg width="178" height="90" viewBox="0 0 178 90" fill="none" xmlns="http://www.w3.org/2000/svg">
<path d="M95.7265 54.1841L92.0188 57.1249C91.7002 57.3776 91.6467 57.8408 91.8995 58.1595L94.836 61.8618C95.0888 62.1805 95.552 62.2339 95.8706 61.9812L99.5783 59.0404C99.8969 58.7877 99.9504 58.3244 99.6976 58.0058L96.7611 54.3035C96.5084 53.9848 96.0451 53.9314 95.7265 54.1841Z" fill="#F9F9F9"/>
<path d="M99.2206 34.6076L92.6708 39.8026C92.1043 40.252 92.0093 41.0755 92.4586 41.642L97.6452 48.1811C98.0945 48.7476 98.918 48.8426 99.4845 48.3933L106.034 43.1982C106.601 42.7489 106.696 41.9254 106.247 41.3589L101.06 34.8197C100.611 34.2532 99.7871 34.1583 99.2206 34.6076Z" fill="#F9F9F9"/>
<path d="M44.0314 1.77534L3.09766 34.2423C-0.44299 37.0506 -1.03668 42.1974 1.77162 45.7381L34.1835 86.6023C36.9918 90.143 42.1386 90.7367 45.6792 87.9284L86.613 55.4614C90.1536 52.6531 90.7473 47.5063 87.939 43.9656L55.5272 3.10139C52.7189 -0.439266 47.572 -1.03296 44.0314 1.77534Z" fill="#F9F9F9"/>
<path d="M21.0158 46.6887C20.9746 45.3519 21.4397 44.049 22.3182 43.0406C23.2718 42.0164 24.493 41.2795 25.8435 40.9131C27.558 40.4305 29.3337 40.2008 31.1145 40.2312C33.3713 40.2113 35.6199 40.5027 37.797 41.0972L36.9447 44.3907C35.2872 43.8178 33.5431 43.5364 31.7896 43.5588C30.2713 43.5026 28.759 43.7771 27.3573 44.3634C26.2118 44.8998 25.639 45.6658 25.639 46.6614C25.639 47.6569 26.2118 48.4275 27.3573 48.973C28.8095 49.5744 30.3762 49.8491 31.9464 49.7776C34.0115 49.8111 36.0634 49.4429 37.988 48.6934L38.0425 52.2529C35.7786 52.8656 33.439 53.1526 31.0941 53.1052C29.3158 53.1297 27.5432 52.9001 25.8299 52.4233C24.4784 52.0637 23.2577 51.3256 22.3114 50.2958C21.4451 49.2969 20.983 48.0105 21.0158 46.6887Z" fill="#3B4A51"/>
<path d="M40.9133 45.0045C42.4259 44.0868 44.1785 43.6427 45.9456 43.7294C47.7169 43.6433 49.4738 44.0873 50.9916 45.0045C51.577 45.3592 52.0602 45.8599 52.3937 46.4576C52.7273 47.0553 52.8997 47.7295 52.894 48.414C52.9059 49.0988 52.7368 49.7746 52.404 50.3732C52.0712 50.9718 51.5863 51.4721 50.9984 51.8234C49.4738 52.7292 47.717 53.1678 45.9456 53.0849C44.1802 53.1719 42.4288 52.7329 40.9133 51.8234C40.3356 51.4615 39.8593 50.9588 39.5292 50.3625C39.1991 49.7661 39.0259 49.0956 39.0259 48.414C39.0259 47.7323 39.1991 47.0618 39.5292 46.4655C39.8593 45.8691 40.3356 45.3664 40.9133 45.0045ZM43.0748 48.414C43.0685 48.7168 43.1389 49.0164 43.2796 49.2847C43.4203 49.553 43.6267 49.7813 43.8795 49.9482C44.4847 50.3483 45.2001 50.5486 45.9251 50.521C46.6657 50.5536 47.3978 50.3533 48.0185 49.9482C48.2776 49.7853 48.4907 49.5588 48.6376 49.2902C48.7844 49.0217 48.86 48.72 48.8573 48.414C48.8636 48.1058 48.7919 47.801 48.6489 47.528C48.5058 47.255 48.296 47.0226 48.039 46.8524C47.4212 46.4396 46.688 46.2342 45.9456 46.266C45.2186 46.2382 44.5018 46.4437 43.8999 46.8524C43.6429 47.0226 43.4331 47.255 43.2901 47.528C43.147 47.801 43.0753 48.1058 43.0817 48.414H43.0748Z" fill="#3B4A51"/>
<path d="M54.551 43.9954H58.6423C58.7636 44.429 58.8345 44.8752 58.8537 45.3251C59.8084 44.275 61.2153 43.7499 63.0746 43.7499C64.3741 43.6796 65.6559 44.0763 66.6886 44.8682C67.1107 45.2142 67.4481 45.6521 67.675 46.1485C67.902 46.6449 68.0124 47.1865 67.9979 47.7321V52.8736H63.7224V47.964C63.7247 47.7304 63.6692 47.4999 63.561 47.2929C63.4527 47.0859 63.295 46.9089 63.1019 46.7775C62.6349 46.4529 62.0745 46.29 61.5063 46.3138C60.9824 46.3003 60.4634 46.418 59.9965 46.6561C59.5297 46.8943 59.1298 47.2455 58.8333 47.6776V52.8736H54.551V43.9954Z" fill="#3B4A51"/>
<path d="M69.3003 46.4432V44.0838L73.9439 40.613H75.8737V44.0225H79.7195V46.4705H75.8737V48.8843C75.8724 49.0693 75.9114 49.2523 75.9879 49.4207C76.0645 49.5891 76.1767 49.7388 76.3169 49.8594C76.7223 50.1676 77.228 50.3135 77.7352 50.2686C78.4166 50.2603 79.0927 50.1476 79.74 49.9344L80.0945 52.4847C78.8997 52.9588 77.6226 53.1906 76.3373 53.1666C75.5867 53.18 74.8387 53.0741 74.1212 52.8529C73.609 52.7073 73.1298 52.4642 72.7097 52.1369C72.399 51.8661 72.1442 51.5372 71.9596 51.1687C71.8034 50.8848 71.6908 50.5791 71.6255 50.2617C71.5899 50.0362 71.5716 49.8082 71.5709 49.5799V46.4432H69.3003Z" fill="#3B4A51"/>
<path d="M82.4198 45.0044C83.883 44.1201 85.5732 43.6839 87.2816 43.7497C88.9561 43.681 90.6144 44.1003 92.0549 44.9567C92.6395 45.3084 93.1197 45.8098 93.4458 46.4092C93.7718 47.0086 93.932 47.6841 93.9096 48.3661C93.9061 48.6544 93.8648 48.9409 93.7868 49.2185H84.445C84.5219 49.4949 84.6681 49.7471 84.8697 49.9511C85.0714 50.1552 85.3219 50.3044 85.5974 50.3845C86.4703 50.702 87.3969 50.8456 88.3249 50.8072C89.9649 50.8377 91.5924 50.5168 93.0981 49.8662L93.1322 52.3279C91.4044 52.9079 89.5876 53.178 87.7658 53.1257C85.4928 53.1257 83.7108 52.7097 82.4198 51.8778C81.8349 51.5134 81.3525 51.0061 81.018 50.4036C80.6836 49.8011 80.5081 49.1234 80.5081 48.4343C80.5081 47.7452 80.6836 47.0675 81.018 46.465C81.3525 45.8625 81.8349 45.3551 82.4198 44.9907V45.0044ZM84.5132 47.7319H90.2206C90.1877 47.4685 90.0886 47.2176 89.9323 47.003C89.7761 46.7883 89.5679 46.6168 89.3273 46.5045C88.7209 46.1769 88.0389 46.0146 87.3498 46.034C86.7001 46.0184 86.0571 46.1686 85.4815 46.4704C85.2342 46.5934 85.018 46.7707 84.8491 46.9892C84.6802 47.2077 84.563 47.4617 84.5064 47.7319H84.5132Z" fill="#3B4A51"/>
<path d="M95.6007 43.9953H99.692C99.8132 44.4289 99.8841 44.8751 99.9034 45.325C100.974 44.3925 102.324 43.8412 103.742 43.7573C105.159 43.6734 106.565 44.0616 107.738 44.8613C108.159 45.2093 108.494 45.649 108.719 46.1465C108.943 46.6441 109.051 47.1864 109.034 47.732V52.8735H104.765V47.9639C104.768 47.7303 104.712 47.4998 104.604 47.2928C104.496 47.0858 104.338 46.9088 104.145 46.7774C103.678 46.4523 103.117 46.2894 102.549 46.3137C102.025 46.3002 101.506 46.4179 101.039 46.656C100.573 46.8942 100.173 47.2453 99.8761 47.6775V52.8735H95.6007V43.9953Z" fill="#3B4A51"/>
<path d="M110.329 46.4432V44.0838L114.973 40.613H116.903V44.0225H120.749V46.4705H116.903V48.8843C116.902 49.0693 116.941 49.2523 117.017 49.4207C117.094 49.5891 117.206 49.7388 117.346 49.8594C117.751 50.1676 118.257 50.3135 118.764 50.2686C119.446 50.2603 120.122 50.1476 120.769 49.9344L121.124 52.4847C119.929 52.9586 118.652 53.1904 117.367 53.1666C116.616 53.18 115.868 53.0741 115.15 52.8529C114.638 52.7073 114.159 52.4642 113.739 52.1369C113.425 51.8581 113.17 51.5197 112.989 51.1414C112.833 50.8575 112.72 50.5518 112.655 50.2345C112.619 50.0089 112.601 49.7809 112.6 49.5526V46.4432H110.329Z" fill="#3B4A51"/>
<path d="M122.522 49.6482C123.021 49.2975 123.616 49.1094 124.226 49.1094C124.836 49.1094 125.432 49.2975 125.931 49.6482C126.146 49.8238 126.316 50.0473 126.429 50.3007C126.541 50.5542 126.593 50.8305 126.579 51.1074C126.587 51.3821 126.529 51.6547 126.411 51.9026C126.292 52.1505 126.116 52.3665 125.897 52.5326C125.396 52.8795 124.801 53.0654 124.192 53.0654C123.583 53.0654 122.988 52.8795 122.488 52.5326C122.283 52.3527 122.119 52.1314 122.007 51.8833C121.895 51.6352 121.837 51.3661 121.837 51.0938C121.837 50.8215 121.895 50.5523 122.007 50.3042C122.119 50.0561 122.283 49.8348 122.488 49.655L122.522 49.6482Z" fill="#3B4A51"/>
<path d="M133.18 40.47V45.0045H140.96V40.47H145.658V52.8735H140.96V48.2162H133.18V52.8735H128.481V40.47H133.18Z" fill="#FF9100"/>
<path d="M147.922 43.9954H152.211V48.8845C152.209 49.1182 152.264 49.3488 152.371 49.5567C152.478 49.7645 152.634 49.9433 152.825 50.0778C153.28 50.4066 153.832 50.5723 154.393 50.5483C154.926 50.5724 155.457 50.4598 155.934 50.2211C156.412 49.9824 156.82 49.6256 157.121 49.1845V43.9954H161.41V52.8599H157.318C157.189 52.4165 157.118 51.958 157.107 51.4961C156.055 52.4541 154.71 53.0285 153.29 53.1263C151.87 53.2241 150.459 52.8395 149.286 52.0348C148.848 51.6916 148.497 51.2507 148.26 50.7475C148.023 50.2443 147.908 49.6927 147.922 49.1368V43.9954Z" fill="#FF9100"/>
<path d="M167.881 39.9517V45.4068C168.899 44.3203 170.395 43.777 172.368 43.777C173.839 43.7039 175.289 44.1558 176.459 45.0522C176.942 45.479 177.329 46.0037 177.595 46.5915C177.86 47.1793 177.997 47.8168 177.997 48.4616C177.997 49.1065 177.86 49.7439 177.595 50.3317C177.329 50.9196 176.942 51.4443 176.459 51.8711C175.287 52.7623 173.838 53.2115 172.368 53.1394C170.404 53.1394 168.904 52.5848 167.867 51.4756C167.831 51.9652 167.711 52.445 167.513 52.8939H163.599V39.9517H167.881ZM169.054 50.105C169.645 50.4123 170.304 50.5647 170.97 50.5482C171.723 50.5755 172.466 50.376 173.104 49.9754C173.372 49.8138 173.591 49.5842 173.741 49.3098C173.891 49.0355 173.965 48.7263 173.956 48.4139C173.961 48.1014 173.884 47.7931 173.734 47.5193C173.583 47.2455 173.364 47.0157 173.097 46.8524C172.462 46.4442 171.717 46.2397 170.963 46.2659C170.293 46.2518 169.63 46.4041 169.033 46.7092C168.522 46.958 168.115 47.3778 167.881 47.8957V48.9048C168.129 49.4228 168.538 49.8463 169.047 50.1118L169.054 50.105Z" fill="#FF9100"/>
<path d="M25.4481 58.724C25.3201 58.606 25.1807 58.5009 25.0321 58.4103C24.8927 58.327 24.7439 58.2606 24.5889 58.2126C24.4289 58.1613 24.2645 58.1248 24.0979 58.1034C23.9072 58.0918 23.7159 58.0918 23.5251 58.1034C22.9301 58.0562 22.3344 58.1867 21.8136 58.4785C21.6474 58.5869 21.5114 58.7358 21.4184 58.9111C21.3253 59.0864 21.2783 59.2824 21.2817 59.4809C21.2716 59.6038 21.2863 59.7275 21.325 59.8446C21.3637 59.9618 21.4255 60.07 21.5067 60.1627C21.6978 60.346 21.9325 60.4775 22.1886 60.5446C22.6011 60.6601 23.0201 60.7512 23.4433 60.8174C23.9034 60.8906 24.3587 60.9908 24.8071 61.1174C25.1295 61.2 25.4283 61.3564 25.6799 61.5743C25.7854 61.6788 25.8673 61.8047 25.9202 61.9434C25.9731 62.0822 25.9958 62.2307 25.9867 62.3789C25.9909 62.5969 25.9343 62.8118 25.8231 62.9994C25.7019 63.1893 25.5356 63.3463 25.3389 63.4563C25.098 63.5885 24.8381 63.6828 24.5684 63.7358C24.2317 63.8033 23.8889 63.8353 23.5456 63.8313C23.1936 63.8172 22.844 63.7669 22.5023 63.6813C22.1954 63.6188 21.8976 63.518 21.6158 63.3813C21.3361 63.2462 21.0729 63.0792 20.8317 62.8835L20.9817 62.7744C21.1507 62.921 21.3334 63.0512 21.5272 63.163C21.7177 63.2717 21.9188 63.3608 22.1273 63.429C22.3492 63.5024 22.5775 63.5549 22.8091 63.5858C23.0555 63.6188 23.3038 63.6348 23.5524 63.6336C24.1165 63.66 24.6784 63.5476 25.1889 63.3062C25.372 63.2204 25.5262 63.0831 25.6328 62.9112C25.7393 62.7393 25.7936 62.5402 25.789 62.338C25.7971 62.0877 25.7093 61.8438 25.5435 61.6561C25.3314 61.4515 25.071 61.3038 24.7866 61.2265C24.356 61.0941 23.9161 60.9938 23.4706 60.9265C23.0316 60.8602 22.5968 60.7691 22.1682 60.6537C21.8644 60.5833 21.5831 60.4379 21.3499 60.2309C21.2543 60.1318 21.1801 60.0141 21.132 59.885C21.0839 59.756 21.0629 59.6184 21.0703 59.4809C21.0707 59.1714 21.1847 58.8729 21.3908 58.6421C21.6191 58.3928 21.9117 58.2112 22.2364 58.1171C22.6517 57.9909 23.0843 57.9311 23.5183 57.9398C23.788 57.9376 24.0574 57.9605 24.3229 58.008C24.5591 58.0492 24.7886 58.1227 25.0048 58.2262C25.2165 58.3315 25.4117 58.467 25.5844 58.6285L25.4481 58.724Z" fill="black"/>
<path d="M32.1169 63.5724V63.736H27.5619V57.9604H32.0487V58.1241H27.7597V60.688H31.5032V60.8517H27.7597V63.5792L32.1169 63.5724Z" fill="black"/>
<path d="M36.4264 63.7768C35.978 63.783 35.5329 63.6995 35.1172 63.5314C34.7363 63.3705 34.3893 63.1392 34.0944 62.8495C33.8079 62.5832 33.5763 62.2636 33.4125 61.9085C33.2595 61.5699 33.1804 61.2026 33.1807 60.8311C33.1776 60.4549 33.2567 60.0825 33.4125 59.7401C33.5774 59.3876 33.8089 59.0703 34.0944 58.8059C34.3918 58.5161 34.7411 58.2848 35.124 58.124C35.5296 57.9624 35.9627 57.8813 36.3992 57.8853C36.8504 57.8791 37.2982 57.965 37.7152 58.1376C38.0945 58.2977 38.4394 58.5292 38.7312 58.8195C39.0148 59.0883 39.246 59.4074 39.4131 59.7605C39.5651 60.0922 39.6442 60.4526 39.645 60.8174C39.6461 61.2015 39.5622 61.5811 39.3995 61.9289C39.2343 62.2812 39.0028 62.5984 38.7176 62.8631C38.4196 63.1404 38.0728 63.36 37.6948 63.5109C37.2929 63.6798 36.8623 63.7701 36.4264 63.7768ZM33.4125 60.8447C33.4122 61.2024 33.4889 61.5559 33.6375 61.8812C33.7895 62.215 34.0048 62.516 34.2717 62.7676C34.5525 63.0335 34.8811 63.244 35.24 63.3882C35.6259 63.542 36.0383 63.6184 36.4537 63.6132C36.8771 63.6183 37.297 63.5371 37.6879 63.3745C38.0439 63.2263 38.368 63.011 38.6426 62.7404C38.9029 62.4836 39.1134 62.1807 39.2631 61.8471C39.412 61.5267 39.4891 61.1776 39.4891 60.8243C39.4891 60.4709 39.412 60.1219 39.2631 59.8014C39.1078 59.4678 38.8902 59.167 38.6221 58.915C38.0381 58.3641 37.2633 58.061 36.4605 58.0694C36.0373 58.0656 35.6176 58.1468 35.2263 58.3081C34.5232 58.5963 33.9571 59.1429 33.6443 59.8355C33.4958 60.1515 33.4167 60.4956 33.4125 60.8447Z" fill="black"/>
<path d="M49.0959 63.7359L45.4887 60.5924C45.2023 60.3469 44.975 60.1356 44.8068 59.9583C44.6637 59.816 44.5399 59.6555 44.4386 59.4809C44.3695 59.3579 44.332 59.2197 44.3295 59.0786C44.3305 58.8688 44.4054 58.666 44.5409 58.5058C44.6995 58.3181 44.9005 58.1709 45.1273 58.0763C45.3902 57.9642 45.6735 57.9085 45.9592 57.9126C46.2186 57.9084 46.4762 57.9571 46.7161 58.0558C46.915 58.1365 47.0908 58.2654 47.2275 58.4308C47.3464 58.5748 47.4115 58.7556 47.4116 58.9423C47.4094 59.1749 47.3164 59.3976 47.1525 59.5628C46.951 59.7728 46.7216 59.954 46.4706 60.1015L45.6115 60.6129C45.3251 60.772 45.0546 60.9379 44.8 61.1107C44.5686 61.2626 44.3617 61.4488 44.1863 61.663C44.0326 61.8567 43.9507 62.0976 43.9545 62.3449C43.9497 62.4798 43.974 62.6142 44.0258 62.7389C44.0776 62.8637 44.1556 62.9758 44.2545 63.0677C44.4698 63.2629 44.7261 63.4074 45.0046 63.4904C45.2955 63.5838 45.5991 63.6321 45.9047 63.6336C46.2804 63.6395 46.6529 63.5627 46.9957 63.4086C47.3086 63.2667 47.5894 63.0625 47.8208 62.8086C48.046 62.5586 48.2239 62.2698 48.3458 61.9562C48.4676 61.6479 48.5301 61.3194 48.5299 60.9879H48.7277C48.7264 61.3338 48.6593 61.6763 48.5299 61.9971C48.324 62.5321 47.9582 62.9907 47.4824 63.3103C47.0065 63.63 46.4437 63.7953 45.8706 63.7837C45.5252 63.7854 45.1819 63.7301 44.8546 63.62C44.5519 63.5254 44.2776 63.3566 44.0568 63.129C43.8539 62.9163 43.7436 62.6319 43.7499 62.3381C43.7458 62.0771 43.8299 61.8225 43.9886 61.6153C44.1685 61.3877 44.3851 61.1918 44.6295 61.0357C44.8978 60.8584 45.191 60.6811 45.5092 60.5038C45.8274 60.3265 46.1274 60.1492 46.4093 59.9719C46.6277 59.8406 46.8254 59.6774 46.9957 59.4878C47.126 59.3438 47.1988 59.1569 47.2003 58.9627C47.1979 58.8361 47.1635 58.7122 47.1003 58.6025C47.0371 58.4929 46.9471 58.4009 46.8389 58.3354C46.5703 58.1587 46.2532 58.0705 45.932 58.0831C45.6843 58.0796 45.4385 58.126 45.2092 58.2194C45.0123 58.3006 44.8371 58.4267 44.6977 58.5877C44.5744 58.7295 44.5065 58.9111 44.5068 59.0991C44.5104 59.2084 44.5384 59.3156 44.5886 59.4128C44.6736 59.5692 44.7791 59.7137 44.9023 59.8423C45.1158 60.0702 45.3436 60.2843 45.5842 60.4833L49.3482 63.7427L49.0959 63.7359Z" fill="black"/>
<path d="M53.0645 60.7969C53.0658 60.4423 53.1401 60.0918 53.2827 59.7672C53.4353 59.42 53.6528 59.1053 53.9237 58.8398C54.2165 58.5476 54.5641 58.3159 54.9465 58.158C55.3804 57.9859 55.8436 57.9002 56.3103 57.9057C56.8569 57.8884 57.399 58.0104 57.8855 58.2602C58.2826 58.4667 58.6135 58.7811 58.8401 59.1672L58.656 59.2149C58.4835 58.9387 58.2503 58.7055 57.9741 58.533C57.7168 58.3662 57.4333 58.2441 57.1354 58.1716C56.8431 58.0991 56.5432 58.0625 56.2421 58.0625C55.8009 58.0558 55.3629 58.1369 54.9533 58.3012C54.5955 58.4457 54.2707 58.6615 53.9987 58.9353C53.7462 59.1876 53.5448 59.4863 53.4055 59.8149C53.2749 60.1282 53.2077 60.4643 53.2077 60.8037C53.2054 61.1689 53.2846 61.5299 53.4395 61.8606C53.6058 62.2004 53.8375 62.504 54.1214 62.7539C54.4061 63.0182 54.7365 63.2285 55.0965 63.3744C55.478 63.5271 55.8857 63.6036 56.2967 63.5994C56.6277 63.6065 56.9582 63.5675 57.2786 63.4835C57.5971 63.3984 57.9006 63.2651 58.1787 63.088C58.4541 62.9146 58.6871 62.6816 58.8606 62.4061L59.0447 62.447C58.8811 62.7428 58.6469 62.9935 58.3628 63.1767C58.0592 63.3799 57.7256 63.5341 57.374 63.6335C57.0262 63.7355 56.6659 63.7882 56.3035 63.7904C55.8583 63.7947 55.4171 63.7065 55.0079 63.5312C54.6278 63.369 54.281 63.1378 53.9851 62.8493C53.6978 62.5759 53.4662 62.2494 53.3032 61.8879C53.1471 61.5453 53.0657 61.1734 53.0645 60.7969Z" fill="black"/>
<path d="M62.5632 63.8177C62.2416 63.8207 61.9223 63.7629 61.6222 63.6472C61.3375 63.5382 61.0761 63.3763 60.8517 63.1699C60.6367 62.978 60.4608 62.7465 60.3334 62.488C60.2113 62.2278 60.1484 61.9436 60.1493 61.6561C60.1475 61.3634 60.2128 61.0742 60.3402 60.8106C60.4709 60.5524 60.649 60.321 60.8653 60.1287C61.09 59.9228 61.3514 59.7609 61.6358 59.6514C62.2333 59.4245 62.8931 59.4245 63.4906 59.6514C63.775 59.761 64.0363 59.9229 64.2611 60.1287C64.4773 60.3211 64.6554 60.5524 64.7862 60.8106C64.9138 61.0741 64.9791 61.3634 64.9771 61.6561C64.9708 61.9378 64.9033 62.2146 64.7793 62.4676C64.6507 62.7271 64.4723 62.9588 64.2543 63.1495C63.7867 63.5704 63.1787 63.8014 62.5496 63.7973L62.5632 63.8177ZM60.3471 61.6493C60.3452 62.0058 60.4497 62.3548 60.6471 62.6517C60.8427 62.9709 61.1175 63.234 61.4449 63.4154C61.7876 63.5958 62.1691 63.69 62.5564 63.69C62.9437 63.69 63.3251 63.5958 63.6679 63.4154C63.9967 63.2401 64.2758 62.9844 64.4793 62.6722C64.6833 62.3701 64.7924 62.0139 64.7924 61.6493C64.7924 61.2848 64.6833 60.9286 64.4793 60.6265C64.276 60.3184 63.9995 60.0654 63.6747 59.8901C63.3343 59.7031 62.9515 59.6068 62.5632 59.6105C62.1841 59.6092 61.8106 59.7019 61.4762 59.8804C61.1418 60.0589 60.8569 60.3176 60.6471 60.6333C60.449 60.9349 60.3446 61.2885 60.3471 61.6493Z" fill="black"/>
<path d="M70.1731 63.7361H69.9753V61.3699C70.0149 60.8947 69.9078 60.4187 69.6685 60.0062C69.552 59.8585 69.4007 59.7419 69.2282 59.6669C69.0556 59.592 68.8672 59.5609 68.6797 59.5766C68.352 59.5762 68.0275 59.6411 67.7251 59.7675C67.4264 59.8876 67.1534 60.0635 66.9205 60.2857C66.7005 60.4913 66.5323 60.746 66.4295 61.029V63.702H66.2318V59.4743H66.4295V60.5653C66.579 60.3316 66.7709 60.1281 66.9955 59.9652C67.2336 59.7883 67.4983 59.6502 67.7797 59.5561C68.0652 59.4597 68.3647 59.4113 68.6661 59.4129C68.8988 59.4059 69.1307 59.4453 69.348 59.5288C69.5331 59.604 69.6953 59.7262 69.8185 59.8834C69.9513 60.0616 70.0443 60.2663 70.0913 60.4835C70.1545 60.7677 70.1843 61.0583 70.1799 61.3495L70.1731 63.7361Z" fill="black"/>
<path d="M73.9235 63.5791C73.7794 63.6524 73.6287 63.7117 73.4734 63.7564C73.3174 63.7956 73.1569 63.8139 72.9961 63.811C72.8467 63.8126 72.6984 63.7848 72.5597 63.7292C72.4352 63.6798 72.3251 63.6001 72.2392 63.4973C72.1576 63.4001 72.114 63.2765 72.1165 63.1496V59.6719H71.3868V59.5083H72.1165V58.0354H72.2801V59.5083H73.5007V59.6719H72.2801V63.1632C72.2844 63.2384 72.3072 63.3113 72.3464 63.3756C72.3857 63.4398 72.4402 63.4933 72.5051 63.5314C72.6422 63.6167 72.8006 63.6616 72.962 63.661C73.1596 63.6677 73.3566 63.6352 73.5416 63.5655L73.7871 63.4564L73.9235 63.5791Z" fill="black"/>
<path d="M77.0124 63.8178C76.3725 63.8131 75.7574 63.57 75.2872 63.1359C75.0697 62.9447 74.8914 62.7131 74.7622 62.454C74.6352 62.1854 74.57 61.8919 74.5713 61.5948C74.567 61.2095 74.6787 60.8317 74.8917 60.5106C75.1096 60.1821 75.4077 59.9145 75.7577 59.7333C76.1298 59.5386 76.5448 59.4401 76.9647 59.4469C77.3918 59.4411 77.8137 59.5419 78.1921 59.7401C78.5484 59.9234 78.8531 60.193 79.0785 60.5242C79.3 60.8498 79.4166 61.2352 79.4127 61.6289V61.7175H74.769C74.7988 62.0714 74.9237 62.4107 75.1304 62.6995C75.3421 62.9887 75.6205 63.2226 75.9418 63.3814C76.2771 63.5538 76.649 63.6427 77.026 63.6405C77.4037 63.6434 77.777 63.5594 78.1171 63.395C78.4192 63.2623 78.672 63.0381 78.8399 62.754L79.024 62.7949C78.9199 63.0007 78.7679 63.1784 78.5808 63.3132C78.3643 63.4734 78.1222 63.5956 77.8648 63.6746C77.5898 63.7661 77.3022 63.8144 77.0124 63.8178ZM74.7622 61.5539H79.1945C79.1747 61.1949 79.0568 60.8481 78.8535 60.5515C78.65 60.2626 78.3783 60.0284 78.0625 59.8696C77.723 59.7029 77.3498 59.6162 76.9715 59.6162C76.5932 59.6162 76.22 59.7029 75.8805 59.8696C75.5659 60.0274 75.2962 60.2619 75.0963 60.5515C74.8994 60.8503 74.7864 61.1965 74.769 61.5539H74.7622Z" fill="black"/>
<path d="M84.7518 63.7361H84.5541V61.3699C84.5937 60.8947 84.4866 60.4187 84.2472 60.0062C84.1307 59.8585 83.9795 59.7419 83.8069 59.6669C83.6344 59.592 83.446 59.5609 83.2585 59.5766C82.9308 59.5762 82.6062 59.6411 82.3038 59.7675C82.0052 59.8876 81.7321 60.0635 81.4992 60.2857C81.2793 60.4913 81.111 60.746 81.0083 61.029V63.702H80.8105V59.4743H81.0083V60.5653C81.1577 60.3316 81.3497 60.1281 81.5742 59.9652C81.8124 59.7883 82.077 59.6502 82.3584 59.5561C82.6439 59.4597 82.9435 59.4113 83.2449 59.4129C83.4776 59.4059 83.7094 59.4453 83.9267 59.5288C84.1118 59.604 84.274 59.7262 84.3972 59.8834C84.53 60.0616 84.623 60.2663 84.67 60.4835C84.7333 60.7677 84.763 61.0583 84.7587 61.3495L84.7518 63.7361Z" fill="black"/>
<path d="M88.5022 63.5791C88.3581 63.6524 88.2075 63.7117 88.0522 63.7564C87.8961 63.7956 87.7356 63.8139 87.5748 63.811C87.4254 63.8126 87.2771 63.7848 87.1384 63.7292C87.014 63.6798 86.9038 63.6001 86.8179 63.4973C86.7363 63.4001 86.6927 63.2765 86.6952 63.1496V59.6719H85.9656V59.5083H86.6952V58.0354H86.8929V59.5083H88.1135V59.6719H86.8929V63.1632C86.8972 63.2384 86.92 63.3113 86.9592 63.3756C86.9985 63.4398 87.053 63.4933 87.118 63.5314C87.2551 63.6167 87.4134 63.6616 87.5748 63.661C87.7724 63.6677 87.9694 63.6352 88.1544 63.5655L88.3999 63.4564L88.5022 63.5791Z" fill="black"/>
<path d="M99.0988 63.736V58.2809L96.0234 62.5632H95.8666L92.7913 58.2809V63.736H92.5935V57.9604H92.7367L95.9348 62.4064L99.1397 57.9604H99.2965V63.7429L99.0988 63.736Z" fill="black"/>
<path d="M100.838 62.5222C100.837 62.405 100.86 62.2889 100.906 62.181C100.951 62.0732 101.019 61.9758 101.104 61.8949C101.313 61.6987 101.565 61.5539 101.84 61.4721C102.191 61.363 102.557 61.31 102.924 61.3153C103.221 61.3156 103.517 61.3361 103.811 61.3766C104.088 61.4119 104.362 61.4712 104.629 61.5539V61.0766C104.635 60.8766 104.598 60.6777 104.519 60.4938C104.44 60.31 104.322 60.1458 104.172 60.0128C103.834 59.7323 103.404 59.5887 102.965 59.6105C102.698 59.6161 102.434 59.6621 102.181 59.7469C101.883 59.8441 101.597 59.9745 101.329 60.1356L101.213 60.006C101.506 59.8354 101.817 59.6959 102.14 59.5901C102.409 59.5018 102.689 59.4558 102.972 59.4537C103.465 59.4244 103.951 59.58 104.336 59.8901C104.503 60.0379 104.635 60.2211 104.722 60.4264C104.809 60.6316 104.85 60.8538 104.84 61.0766V63.4155C104.837 63.4371 104.839 63.4592 104.845 63.4801C104.852 63.5009 104.863 63.52 104.878 63.5358C104.894 63.5516 104.912 63.5637 104.933 63.5712C104.953 63.5788 104.975 63.5814 104.997 63.5791V63.7428H104.908H104.861C104.797 63.7227 104.742 63.6819 104.704 63.6269C104.664 63.571 104.643 63.5043 104.643 63.4359V63.0472C104.385 63.3116 104.07 63.5124 103.722 63.6337C103.329 63.777 102.913 63.8486 102.495 63.8451C102.208 63.85 101.924 63.7918 101.663 63.6746C101.428 63.5716 101.223 63.4095 101.069 63.2041C100.916 63.0101 100.834 62.7694 100.838 62.5222ZM104.479 62.9041C104.525 62.8514 104.562 62.7915 104.588 62.7268C104.609 62.6771 104.621 62.6239 104.622 62.5699V61.7312C104.356 61.643 104.082 61.5791 103.804 61.5403C103.51 61.4988 103.214 61.4782 102.917 61.4789C102.446 61.4606 101.978 61.559 101.554 61.7653C101.403 61.8279 101.273 61.9325 101.18 62.0667C101.087 62.2009 101.034 62.359 101.028 62.5222C101.027 62.7289 101.095 62.9302 101.219 63.095C101.356 63.2743 101.537 63.4152 101.744 63.5041C101.974 63.6062 102.223 63.6574 102.474 63.6541C102.883 63.6585 103.29 63.5892 103.674 63.4496C103.988 63.3462 104.267 63.1573 104.479 62.9041Z" fill="black"/>
<path d="M108.857 59.672C108.413 59.6777 107.981 59.8154 107.616 60.0674C107.266 60.3083 107.007 60.6586 106.879 61.063V63.736H106.681V59.5083H106.879V60.5993C107.047 60.3046 107.28 60.0526 107.561 59.8629C107.842 59.6746 108.165 59.5576 108.502 59.5219H108.686H108.829L108.857 59.672Z" fill="black"/>
<path d="M113.773 63.7359L111.611 61.3084L110.248 62.3516V63.7154H110.05V57.7966H110.248V62.1403L113.705 59.515H113.971L111.775 61.1993L114.018 63.7427L113.773 63.7359Z" fill="black"/>
<path d="M117.053 63.8177C116.413 63.8131 115.798 63.5699 115.328 63.1358C115.11 62.9446 114.932 62.713 114.803 62.454C114.676 62.1854 114.61 61.8918 114.612 61.5948C114.607 61.2094 114.719 60.8317 114.932 60.5106C115.15 60.1822 115.448 59.9148 115.798 59.7332C116.17 59.5388 116.585 59.4404 117.005 59.4468C117.432 59.4408 117.854 59.5416 118.233 59.74C118.589 59.9231 118.894 60.1927 119.119 60.5242C119.34 60.8497 119.457 61.2352 119.453 61.6289V61.7175H114.809C114.839 62.0714 114.964 62.4107 115.171 62.6994C115.383 62.9883 115.661 63.2221 115.982 63.3813C116.318 63.5536 116.69 63.6425 117.066 63.6404C117.444 63.6434 117.817 63.5594 118.158 63.395C118.46 63.2623 118.712 63.0381 118.88 62.754L119.064 62.7949C118.961 63.0008 118.809 63.1786 118.621 63.3131C118.405 63.4734 118.163 63.5956 117.905 63.6745C117.63 63.7661 117.343 63.8144 117.053 63.8177ZM114.809 61.5539H119.242C119.222 61.1949 119.104 60.8483 118.901 60.5515C118.697 60.2628 118.425 60.0286 118.11 59.8696C117.77 59.7029 117.397 59.6162 117.019 59.6162C116.64 59.6162 116.267 59.7029 115.928 59.8696C115.613 60.0274 115.343 60.2619 115.144 60.5515C114.942 60.8489 114.824 61.1952 114.803 61.5539H114.809Z" fill="black"/>
<path d="M122.781 63.5789C122.637 63.6521 122.486 63.7115 122.331 63.7562C122.175 63.7952 122.014 63.8136 121.853 63.8107C121.704 63.8124 121.556 63.7846 121.417 63.7289C121.293 63.6795 121.182 63.5998 121.096 63.4971C121.015 63.3998 120.971 63.2763 120.974 63.1493V59.6717H120.244V59.508H120.974V58.0352H121.171V59.508H122.392V59.6717H121.171V63.163C121.176 63.2381 121.199 63.3111 121.238 63.3753C121.277 63.4395 121.332 63.4931 121.397 63.5312C121.533 63.6168 121.692 63.6617 121.853 63.6607C122.049 63.6667 122.243 63.6343 122.426 63.5653L122.672 63.4562L122.781 63.5789Z" fill="black"/>
<path d="M123.885 58.4171V57.7898H124.104V58.4171H123.885ZM123.885 63.7359V59.5081H124.104V63.7359H123.885Z" fill="black"/>
<path d="M129.852 63.7358H129.654V61.3697C129.694 60.8944 129.587 60.4184 129.347 60.0059C129.231 59.8582 129.08 59.7417 128.907 59.6667C128.734 59.5917 128.546 59.5607 128.359 59.5763C128.031 59.576 127.706 59.6409 127.404 59.7673C127.105 59.8872 126.832 60.0631 126.599 60.2855C126.379 60.4909 126.211 60.7456 126.108 61.0287V63.7017H125.911V59.474H126.108V60.5651C126.258 60.3313 126.45 60.1277 126.674 59.965C126.912 59.7881 127.177 59.65 127.458 59.5559C127.744 59.4595 128.044 59.4111 128.345 59.4127C128.578 59.4056 128.809 59.445 129.027 59.5286C129.212 59.604 129.374 59.7262 129.497 59.8832C129.63 60.0613 129.723 60.2659 129.77 60.4832C129.833 60.7674 129.863 61.0581 129.859 61.3492L129.852 63.7358Z" fill="black"/>
<path d="M133.705 63.8176C133.054 63.8246 132.427 63.5804 131.952 63.1357C131.741 62.9419 131.568 62.7107 131.441 62.4539C131.324 62.2066 131.263 61.9364 131.263 61.6629C131.263 61.3813 131.321 61.1027 131.434 60.8446C131.551 60.5889 131.715 60.3576 131.918 60.1627C132.134 59.9515 132.388 59.7847 132.668 59.6718C132.972 59.5507 133.296 59.4905 133.623 59.4945C134.044 59.4832 134.459 59.5894 134.823 59.8013C135.149 59.985 135.444 60.2199 135.696 60.4968V59.5149H135.893V63.9199C135.904 64.2558 135.79 64.5836 135.573 64.8405C135.349 65.0916 135.062 65.2778 134.741 65.3792C134.39 65.4984 134.021 65.5583 133.65 65.5564C133.166 65.5805 132.683 65.4845 132.245 65.2769C131.924 65.1047 131.652 64.8536 131.454 64.5473L131.638 64.4995C131.844 64.8108 132.142 65.0494 132.491 65.1814C132.861 65.324 133.254 65.3957 133.65 65.3928C133.998 65.3962 134.344 65.3385 134.673 65.2223C134.96 65.1255 135.217 64.9537 135.416 64.7245C135.605 64.4971 135.704 64.2086 135.696 63.9131V62.8562C135.463 63.1472 135.167 63.3806 134.83 63.5381C134.482 63.7183 134.096 63.814 133.705 63.8176ZM133.705 63.654C133.937 63.6514 134.167 63.6123 134.386 63.5381C134.609 63.4649 134.82 63.3617 135.014 63.2312C135.187 63.1178 135.342 62.9774 135.471 62.8153C135.58 62.6854 135.648 62.5266 135.668 62.3584V60.8378C135.558 60.5921 135.392 60.3751 135.184 60.2036C134.964 60.0186 134.716 59.8712 134.448 59.7672C134.176 59.6625 133.887 59.6093 133.595 59.6104C133.282 59.6048 132.971 59.6652 132.682 59.7877C132.424 59.8984 132.192 60.0608 132 60.265C131.818 60.4644 131.675 60.6956 131.577 60.9469C131.483 61.1739 131.434 61.4171 131.434 61.6629C131.433 61.927 131.491 62.188 131.604 62.4266C131.721 62.6726 131.886 62.8928 132.089 63.0744C132.298 63.2662 132.541 63.4186 132.804 63.5244C133.093 63.6268 133.399 63.6708 133.705 63.654Z" fill="black"/>
<path d="M140.612 63.7359V57.9603H143.435C143.704 57.9583 143.97 58.0093 144.219 58.1103C144.447 58.2052 144.655 58.3416 144.833 58.5126C144.999 58.6735 145.136 58.8629 145.235 59.0717C145.33 59.2697 145.379 59.4865 145.378 59.7059C145.378 60.0065 145.296 60.3013 145.14 60.5583C144.971 60.8419 144.73 61.0755 144.441 61.2349C144.152 61.3944 143.826 61.4738 143.496 61.4652H140.769V63.7359H140.612ZM140.81 61.3015H143.537C143.856 61.309 144.171 61.2263 144.444 61.0629C144.687 60.917 144.887 60.7101 145.024 60.4628C145.153 60.2314 145.221 59.9709 145.222 59.7059C145.222 59.4296 145.142 59.1592 144.99 58.9285C144.83 58.6838 144.612 58.4823 144.356 58.3421C144.085 58.1918 143.779 58.1142 143.469 58.1171H140.844L140.81 61.3015Z" fill="black"/>
<path d="M146.763 57.7966H146.96V63.1495C146.958 63.2215 146.973 63.2931 147.004 63.3583C147.035 63.4234 147.081 63.4804 147.138 63.5245C147.274 63.6223 147.44 63.6704 147.608 63.6609H147.867L148.147 63.6063L148.215 63.7359L147.881 63.8041C147.768 63.8127 147.654 63.8127 147.54 63.8041C147.337 63.8135 147.138 63.748 146.981 63.62C146.911 63.5604 146.856 63.4859 146.82 63.4021C146.783 63.3183 146.766 63.2272 146.77 63.1358L146.763 57.7966Z" fill="black"/>
<path d="M149.122 62.5222C149.121 62.405 149.144 62.2889 149.19 62.181C149.236 62.0732 149.303 61.9758 149.388 61.8949C149.597 61.6983 149.849 61.5535 150.124 61.4721C150.475 61.3629 150.841 61.3099 151.209 61.3153C151.505 61.3156 151.801 61.3361 152.095 61.3766C152.372 61.4119 152.646 61.4712 152.913 61.5539V61.0766C152.92 60.8766 152.882 60.6777 152.803 60.4938C152.724 60.31 152.606 60.1458 152.456 60.0128C152.119 59.7323 151.688 59.5887 151.25 59.6105C150.983 59.616 150.718 59.662 150.465 59.7469C150.168 59.8441 149.882 59.9745 149.613 60.1356L149.497 60.006C149.791 59.8352 150.102 59.6958 150.424 59.5901C150.693 59.5018 150.974 59.4558 151.256 59.4537C151.749 59.4244 152.236 59.58 152.62 59.8901C152.787 60.0379 152.919 60.2211 153.006 60.4264C153.094 60.6316 153.134 60.8538 153.125 61.0766V63.4155C153.121 63.4371 153.123 63.4592 153.13 63.4801C153.136 63.5009 153.148 63.52 153.163 63.5358C153.178 63.5516 153.197 63.5637 153.217 63.5712C153.238 63.5788 153.26 63.5814 153.282 63.5791V63.7428H153.193H153.145C153.081 63.7232 153.026 63.6823 152.988 63.6269C152.948 63.5712 152.927 63.5044 152.927 63.4359V63.0472C152.67 63.3116 152.355 63.5124 152.006 63.6337C151.613 63.7768 151.197 63.8484 150.779 63.8451C150.493 63.8498 150.209 63.7916 149.947 63.6746C149.712 63.5716 149.508 63.4095 149.354 63.2041C149.201 63.0101 149.119 62.7694 149.122 62.5222ZM152.77 62.9041C152.816 62.8514 152.853 62.7915 152.879 62.7268C152.9 62.6771 152.912 62.6239 152.913 62.5699V61.7312C152.647 61.643 152.373 61.5791 152.095 61.5403C151.801 61.4987 151.505 61.4782 151.209 61.4789C150.737 61.4606 150.269 61.559 149.845 61.7653C149.694 61.8279 149.564 61.9325 149.471 62.0667C149.378 62.2009 149.326 62.359 149.32 62.5222C149.319 62.7289 149.386 62.9302 149.511 63.095C149.647 63.2745 149.828 63.4155 150.036 63.5041C150.267 63.6072 150.519 63.6584 150.772 63.6541C151.179 63.6577 151.583 63.5884 151.966 63.4496C152.269 63.3418 152.538 63.1532 152.743 62.9041H152.77Z" fill="black"/>
<path d="M156.834 63.5791C156.69 63.6524 156.539 63.7117 156.384 63.7564C156.228 63.7956 156.068 63.8139 155.907 63.811C155.757 63.8126 155.609 63.7848 155.47 63.7292C155.346 63.68 155.236 63.6003 155.15 63.4973C155.068 63.4001 155.025 63.2765 155.027 63.1496V59.6719H154.298V59.5083H155.027V58.0354H155.225V59.5083H156.446V59.6719H155.225V63.1632C155.229 63.2384 155.252 63.3113 155.291 63.3756C155.331 63.4398 155.385 63.4933 155.45 63.5314C155.587 63.6167 155.745 63.6616 155.907 63.661C156.104 63.6677 156.301 63.6352 156.486 63.5655L156.732 63.4564L156.834 63.5791Z" fill="black"/>
<path d="M158.198 63.7359V59.6446H157.468V59.4809H158.198V59.3241C158.191 59.0227 158.247 58.7231 158.362 58.4444C158.454 58.2165 158.614 58.0216 158.818 57.8853C159.034 57.7537 159.282 57.6873 159.534 57.6944C159.719 57.6924 159.903 57.7177 160.08 57.7694C160.223 57.8039 160.356 57.8717 160.469 57.9671L160.312 58.0626C160.215 57.9883 160.103 57.9349 159.985 57.9057C159.843 57.8644 159.696 57.8437 159.548 57.8444C159.386 57.835 159.225 57.8641 159.077 57.9293C158.929 57.9945 158.798 58.0939 158.696 58.2194C158.475 58.5413 158.37 58.928 158.396 59.3172V59.4877H159.91V59.6514H158.396V63.7427L158.198 63.7359Z" fill="black"/>
<path d="M162.971 63.818C162.65 63.821 162.33 63.7631 162.03 63.6475C161.745 63.5385 161.484 63.3765 161.26 63.1702C161.045 62.9783 160.869 62.7468 160.741 62.4883C160.619 62.228 160.556 61.9439 160.557 61.6564C160.555 61.3636 160.621 61.0743 160.748 60.8108C160.879 60.5526 161.057 60.3213 161.273 60.129C161.498 59.9231 161.759 59.7613 162.044 59.6516C162.641 59.4247 163.301 59.4247 163.899 59.6516C164.183 59.761 164.444 59.9229 164.669 60.129C164.885 60.3215 165.063 60.5528 165.194 60.8108C165.322 61.0743 165.387 61.3636 165.385 61.6564C165.386 61.9439 165.323 62.228 165.201 62.4883C165.072 62.7477 164.894 62.9794 164.676 63.1702C164.208 63.5911 163.6 63.8221 162.971 63.818ZM160.755 61.6496C160.753 62.0061 160.858 62.3551 161.055 62.6519C161.247 62.9692 161.517 63.2321 161.839 63.4157C162.182 63.596 162.563 63.6903 162.951 63.6903C163.338 63.6903 163.719 63.596 164.062 63.4157C164.391 63.2401 164.67 62.9844 164.874 62.6724C165.078 62.3703 165.187 62.0141 165.187 61.6496C165.187 61.285 165.078 60.9288 164.874 60.6267C164.663 60.3117 164.378 60.0534 164.044 59.8748C163.71 59.6962 163.336 59.6028 162.958 59.6028C162.579 59.6028 162.205 59.6962 161.871 59.8748C161.537 60.0534 161.252 60.3117 161.041 60.6267C160.842 60.9303 160.738 61.2864 160.741 61.6496H160.755Z" fill="black"/>
<path d="M169.006 59.672C168.562 59.6777 168.13 59.8154 167.765 60.0674C167.428 60.3137 167.182 60.6634 167.063 61.063V63.736H166.865V59.5083H167.063V60.5993C167.23 60.3045 167.463 60.0524 167.744 59.8629C168.026 59.6743 168.349 59.5573 168.685 59.5219H168.863H169.006V59.672Z" fill="black"/>
<path d="M177.482 63.736H177.291V61.3699C177.331 60.8911 177.213 60.4123 176.957 60.0061C176.834 59.8567 176.677 59.739 176.499 59.6631C176.321 59.5871 176.127 59.5551 175.934 59.5697C175.481 59.5595 175.039 59.7038 174.679 59.9788C174.329 60.2456 174.072 60.6152 173.943 61.0358V63.6951H173.745V61.3699C173.785 60.8919 173.671 60.4137 173.418 60.0061C173.294 59.8579 173.137 59.7416 172.959 59.6668C172.781 59.5921 172.587 59.5611 172.395 59.5765C171.945 59.5763 171.508 59.7276 171.154 60.0061C170.801 60.2715 170.537 60.6377 170.397 61.0562V63.7292H170.199V59.5015H170.397V60.5925C170.603 60.2402 170.897 59.9467 171.249 59.7402C171.586 59.5422 171.97 59.4385 172.361 59.4401C172.741 59.4257 173.115 59.5438 173.418 59.7743C173.553 59.8873 173.663 60.0266 173.743 60.1836C173.823 60.3407 173.87 60.5123 173.881 60.688C174.099 60.3128 174.403 59.9949 174.768 59.7606C175.114 59.5539 175.51 59.4476 175.913 59.4538C176.146 59.4483 176.378 59.4877 176.595 59.5697C176.785 59.6469 176.952 59.7713 177.079 59.9311C177.218 60.1101 177.316 60.3173 177.366 60.538C177.432 60.8171 177.465 61.1034 177.461 61.3903L177.482 63.736Z" fill="black"/>
<path d="M77.6037 67.8493L68.0461 75.43C67.2199 76.0853 67.0814 77.2862 67.7366 78.1123L75.3046 87.6539C75.9599 88.4801 77.1608 88.6186 77.987 87.9633L87.5446 80.3826C88.3708 79.7274 88.5093 78.5264 87.854 77.7003L80.286 68.1587C79.6307 67.3325 78.4298 67.194 77.6037 67.8493Z" fill="#F9F9F9"/>
<path d="M100.335 73.142L93.7847 78.3371C93.2182 78.7864 93.1232 79.6099 93.5726 80.1764L98.7591 86.7155C99.2084 87.282 100.032 87.377 100.598 86.9277L107.148 81.7326C107.715 81.2833 107.81 80.4598 107.36 79.8933L102.174 73.3542C101.725 72.7877 100.901 72.6927 100.335 73.142Z" fill="#F9F9F9"/>
</svg>
