<svg width="113" height="86" viewBox="0 0 113 86" fill="none" xmlns="http://www.w3.org/2000/svg">
<path fill-rule="evenodd" clip-rule="evenodd" d="M31.8307 7.18186C35.2646 6.98451 38.6945 7.0003 42.1284 7.0003C42.1521 7.0003 59.5287 7.0003 59.5287 7.0003C63.0297 7.0003 66.4596 6.98451 69.8915 7.18186C73.0116 7.35948 76.0508 7.73839 79.0761 8.58502C85.4446 10.3651 91.0059 14.0832 95.0259 19.3544C99.0223 24.592 101.185 31.0039 101.185 37.5875C101.185 44.179 99.0223 50.5869 95.0259 55.8246C91.0059 61.0938 85.4446 64.8138 79.0761 66.5939C76.0508 67.4406 73.0116 67.8175 69.8915 67.9971C66.4596 68.1944 63.0297 68.1767 59.5958 68.1767C59.5721 68.1767 42.1915 68.1786 42.1915 68.1786C38.6945 68.1767 35.2646 68.1944 31.8307 67.9971C28.7126 67.8175 25.6734 67.4406 22.648 66.5939C16.2796 64.8138 10.7182 61.0938 6.69824 55.8246C2.70191 50.5869 0.536987 44.179 0.536987 37.5895C0.536987 31.0039 2.70191 24.592 6.69824 19.3544C10.7182 14.0832 16.2796 10.3651 22.648 8.58502C25.6734 7.73839 28.7126 7.35948 31.8307 7.18186Z" fill="url(#paint0_linear_264_5052)"/>
<g filter="url(#filter0_dd_264_5052)">
<path fill-rule="evenodd" clip-rule="evenodd" d="M69.8809 63.4777C84.595 63.4777 96.5231 51.5496 96.5231 36.8355C96.5231 22.1215 84.595 10.1934 69.8809 10.1934C55.1669 10.1934 43.2388 22.1215 43.2388 36.8355C43.2388 51.5496 55.1669 63.4777 69.8809 63.4777Z" fill="white"/>
</g>
<defs>
<filter id="filter0_dd_264_5052" x="27.4508" y="0.325884" width="84.8603" height="84.8602" filterUnits="userSpaceOnUse" color-interpolation-filters="sRGB">
<feFlood flood-opacity="0" result="BackgroundImageFix"/>
<feColorMatrix in="SourceAlpha" type="matrix" values="0 0 0 0 0 0 0 0 0 0 0 0 0 0 0 0 0 0 127 0" result="hardAlpha"/>
<feOffset dy="5.92048"/>
<feGaussianBlur stdDeviation="0.986748"/>
<feColorMatrix type="matrix" values="0 0 0 0 0 0 0 0 0 0 0 0 0 0 0 0 0 0 0.06 0"/>
<feBlend mode="normal" in2="BackgroundImageFix" result="effect1_dropShadow_264_5052"/>
<feColorMatrix in="SourceAlpha" type="matrix" values="0 0 0 0 0 0 0 0 0 0 0 0 0 0 0 0 0 0 127 0" result="hardAlpha"/>
<feOffset dy="5.92048"/>
<feGaussianBlur stdDeviation="7.89398"/>
<feColorMatrix type="matrix" values="0 0 0 0 0 0 0 0 0 0 0 0 0 0 0 0 0 0 0.15 0"/>
<feBlend mode="normal" in2="effect1_dropShadow_264_5052" result="effect2_dropShadow_264_5052"/>
<feBlend mode="normal" in="SourceGraphic" in2="effect2_dropShadow_264_5052" result="shape"/>
</filter>
<linearGradient id="paint0_linear_264_5052" x1="0.536987" y1="38.5759" x2="101.185" y2="38.5759" gradientUnits="userSpaceOnUse">
<stop stop-color="#00FFFF"/>
<stop offset="1" stop-color="#A54AFF"/>
</linearGradient>
</defs>
</svg>
