<svg width="295" height="49" viewBox="0 0 295 49" fill="none" xmlns="http://www.w3.org/2000/svg">
<path d="M73.2608 16.6543C76.7138 16.6543 79.3135 17.8152 81.0599 20.137C82.8062 22.4188 83.3618 25.4011 82.7268 29.0839L79.5119 47.5181H70.5818L73.618 29.8645C73.8959 28.3433 73.7371 27.1424 73.1418 26.2617C72.5861 25.3811 71.6137 24.9407 70.2246 24.9407C67.2875 24.9407 65.442 26.6821 64.6879 30.1647L61.6516 47.5181H52.7214L55.7577 29.8645C56.0355 28.3433 55.8768 27.1424 55.2814 26.2617C54.7258 25.3811 53.7534 24.9407 52.3642 24.9407C49.4272 24.9407 47.5816 26.642 46.8275 30.0446L43.7913 47.5181H34.8611L40.1001 17.495H49.0303L48.554 20.1971C50.6179 17.8353 53.3763 16.6543 56.8293 16.6543C60.3617 16.6543 62.7828 18.0154 64.0925 20.7375C66.5533 18.0154 69.6094 16.6543 73.2608 16.6543Z" fill="#0094FF"/>
<path d="M73.2608 16.6543C76.7138 16.6543 79.3135 17.8152 81.0599 20.137C82.8062 22.4188 83.3618 25.4011 82.7268 29.0839L79.5119 47.5181H70.5818L73.618 29.8645C73.8959 28.3433 73.7371 27.1424 73.1418 26.2617C72.5861 25.3811 71.6137 24.9407 70.2246 24.9407C67.2875 24.9407 65.442 26.6821 64.6879 30.1647L61.6516 47.5181H52.7214L55.7577 29.8645C56.0355 28.3433 55.8768 27.1424 55.2814 26.2617C54.7258 25.3811 53.7534 24.9407 52.3642 24.9407C49.4272 24.9407 47.5816 26.642 46.8275 30.0446L43.7913 47.5181H34.8611L40.1001 17.495H49.0303L48.554 20.1971C50.6179 17.8353 53.3763 16.6543 56.8293 16.6543C60.3617 16.6543 62.7828 18.0154 64.0925 20.7375C66.5533 18.0154 69.6094 16.6543 73.2608 16.6543Z" fill="url(#paint0_radial_264_5055)"/>
<path d="M73.2608 16.6543C76.7138 16.6543 79.3135 17.8152 81.0599 20.137C82.8062 22.4188 83.3618 25.4011 82.7268 29.0839L79.5119 47.5181H70.5818L73.618 29.8645C73.8959 28.3433 73.7371 27.1424 73.1418 26.2617C72.5861 25.3811 71.6137 24.9407 70.2246 24.9407C67.2875 24.9407 65.442 26.6821 64.6879 30.1647L61.6516 47.5181H52.7214L55.7577 29.8645C56.0355 28.3433 55.8768 27.1424 55.2814 26.2617C54.7258 25.3811 53.7534 24.9407 52.3642 24.9407C49.4272 24.9407 47.5816 26.642 46.8275 30.0446L43.7913 47.5181H34.8611L40.1001 17.495H49.0303L48.554 20.1971C50.6179 17.8353 53.3763 16.6543 56.8293 16.6543C60.3617 16.6543 62.7828 18.0154 64.0925 20.7375C66.5533 18.0154 69.6094 16.6543 73.2608 16.6543Z" fill="url(#paint1_radial_264_5055)"/>
<path d="M110.506 17.495H119.436L114.197 47.5181H105.267L105.624 45.4765C103.362 47.398 100.385 48.3587 96.6942 48.3587C92.1299 48.3587 88.8158 46.6975 86.7519 43.3749C84.688 40.0123 84.0728 36.1493 84.9063 31.786C85.6604 27.6628 87.5258 24.1201 90.5026 21.1578C93.519 18.1555 97.23 16.6543 101.636 16.6543C105.366 16.6543 108.145 17.9954 109.97 20.6774L110.506 17.495ZM94.8486 37.8506C95.9202 39.1717 97.488 39.8322 99.5518 39.8322C101.616 39.8322 103.422 39.1717 104.969 37.8506C106.517 36.5296 107.49 34.7683 107.887 32.5666V32.5065C108.284 30.2648 107.926 28.4834 106.815 27.1624C105.743 25.8414 104.176 25.1809 102.112 25.1809C100.048 25.1809 98.2421 25.8414 96.6942 27.1624C95.186 28.4834 94.2334 30.2648 93.8365 32.5065C93.4396 34.7483 93.777 36.5296 94.8486 37.8506Z" fill="#0094FF"/>
<path d="M110.506 17.495H119.436L114.197 47.5181H105.267L105.624 45.4765C103.362 47.398 100.385 48.3587 96.6942 48.3587C92.1299 48.3587 88.8158 46.6975 86.7519 43.3749C84.688 40.0123 84.0728 36.1493 84.9063 31.786C85.6604 27.6628 87.5258 24.1201 90.5026 21.1578C93.519 18.1555 97.23 16.6543 101.636 16.6543C105.366 16.6543 108.145 17.9954 109.97 20.6774L110.506 17.495ZM94.8486 37.8506C95.9202 39.1717 97.488 39.8322 99.5518 39.8322C101.616 39.8322 103.422 39.1717 104.969 37.8506C106.517 36.5296 107.49 34.7683 107.887 32.5666V32.5065C108.284 30.2648 107.926 28.4834 106.815 27.1624C105.743 25.8414 104.176 25.1809 102.112 25.1809C100.048 25.1809 98.2421 25.8414 96.6942 27.1624C95.186 28.4834 94.2334 30.2648 93.8365 32.5065C93.4396 34.7483 93.777 36.5296 94.8486 37.8506Z" fill="url(#paint2_radial_264_5055)"/>
<path d="M110.506 17.495H119.436L114.197 47.5181H105.267L105.624 45.4765C103.362 47.398 100.385 48.3587 96.6942 48.3587C92.1299 48.3587 88.8158 46.6975 86.7519 43.3749C84.688 40.0123 84.0728 36.1493 84.9063 31.786C85.6604 27.6628 87.5258 24.1201 90.5026 21.1578C93.519 18.1555 97.23 16.6543 101.636 16.6543C105.366 16.6543 108.145 17.9954 109.97 20.6774L110.506 17.495ZM94.8486 37.8506C95.9202 39.1717 97.488 39.8322 99.5518 39.8322C101.616 39.8322 103.422 39.1717 104.969 37.8506C106.517 36.5296 107.49 34.7683 107.887 32.5666V32.5065C108.284 30.2648 107.926 28.4834 106.815 27.1624C105.743 25.8414 104.176 25.1809 102.112 25.1809C100.048 25.1809 98.2421 25.8414 96.6942 27.1624C95.186 28.4834 94.2334 30.2648 93.8365 32.5065C93.4396 34.7483 93.777 36.5296 94.8486 37.8506Z" fill="url(#paint3_radial_264_5055)"/>
<path d="M132.18 22.8992C133.053 20.9376 134.382 19.4565 136.168 18.4557C137.954 17.4149 139.959 16.8945 142.181 16.8945L140.455 27.1024C139.145 26.9022 137.815 26.9423 136.466 27.2225C135.156 27.5027 133.866 28.2232 132.596 29.3841C131.366 30.505 130.592 32.0262 130.274 33.9476L130.334 33.5874L127.893 47.5181H118.963L124.202 17.495H133.132L132.18 22.8992Z" fill="#0094FF"/>
<path d="M132.18 22.8992C133.053 20.9376 134.382 19.4565 136.168 18.4557C137.954 17.4149 139.959 16.8945 142.181 16.8945L140.455 27.1024C139.145 26.9022 137.815 26.9423 136.466 27.2225C135.156 27.5027 133.866 28.2232 132.596 29.3841C131.366 30.505 130.592 32.0262 130.274 33.9476L130.334 33.5874L127.893 47.5181H118.963L124.202 17.495H133.132L132.18 22.8992Z" fill="url(#paint4_radial_264_5055)"/>
<path d="M132.18 22.8992C133.053 20.9376 134.382 19.4565 136.168 18.4557C137.954 17.4149 139.959 16.8945 142.181 16.8945L140.455 27.1024C139.145 26.9022 137.815 26.9423 136.466 27.2225C135.156 27.5027 133.866 28.2232 132.596 29.3841C131.366 30.505 130.592 32.0262 130.274 33.9476L130.334 33.5874L127.893 47.5181H118.963L124.202 17.495H133.132L132.18 22.8992Z" fill="url(#paint5_radial_264_5055)"/>
<path d="M156.459 26.1416L154.614 36.7698C154.376 38.0108 154.713 38.7914 155.626 39.1116C156.539 39.4319 158.106 39.5119 160.329 39.3518L158.9 47.5181C153.582 48.1185 149.851 47.5381 147.708 45.7767C145.604 44.0154 144.929 41.0131 145.684 36.7698L147.529 26.1416H142.766L144.314 17.495H149.018L150.03 11.7906L159.436 9.08853L157.948 17.495H164.139L162.591 26.1416H156.459Z" fill="#0094FF"/>
<path d="M156.459 26.1416L154.614 36.7698C154.376 38.0108 154.713 38.7914 155.626 39.1116C156.539 39.4319 158.106 39.5119 160.329 39.3518L158.9 47.5181C153.582 48.1185 149.851 47.5381 147.708 45.7767C145.604 44.0154 144.929 41.0131 145.684 36.7698L147.529 26.1416H142.766L144.314 17.495H149.018L150.03 11.7906L159.436 9.08853L157.948 17.495H164.139L162.591 26.1416H156.459Z" fill="url(#paint6_radial_264_5055)"/>
<path d="M156.459 26.1416L154.614 36.7698C154.376 38.0108 154.713 38.7914 155.626 39.1116C156.539 39.4319 158.106 39.5119 160.329 39.3518L158.9 47.5181C153.582 48.1185 149.851 47.5381 147.708 45.7767C145.604 44.0154 144.929 41.0131 145.684 36.7698L147.529 26.1416H142.766L144.314 17.495H149.018L150.03 11.7906L159.436 9.08853L157.948 17.495H164.139L162.591 26.1416H156.459Z" fill="url(#paint7_radial_264_5055)"/>
<path d="M198.769 5.48576H208.294L200.971 47.5181H191.446L194.363 30.8252H181.265L178.348 47.5181H168.823L176.146 5.48576H185.671L182.873 21.5781H195.97L198.769 5.48576Z" fill="#0094FF"/>
<path d="M198.769 5.48576H208.294L200.971 47.5181H191.446L194.363 30.8252H181.265L178.348 47.5181H168.823L176.146 5.48576H185.671L182.873 21.5781H195.97L198.769 5.48576Z" fill="url(#paint8_radial_264_5055)"/>
<path d="M198.769 5.48576H208.294L200.971 47.5181H191.446L194.363 30.8252H181.265L178.348 47.5181H168.823L176.146 5.48576H185.671L182.873 21.5781H195.97L198.769 5.48576Z" fill="url(#paint9_radial_264_5055)"/>
<path d="M230.331 17.495H239.261L234.022 47.5181H225.092L225.568 44.6959C223.385 47.1378 220.468 48.3587 216.817 48.3587C213.602 48.3587 211.062 47.2579 209.196 45.0562C207.371 42.8145 206.795 39.7721 207.47 35.9292L210.685 17.495H219.615L216.638 34.6082C216.321 36.4496 216.559 37.8306 217.353 38.7513C218.186 39.632 219.377 40.0724 220.925 40.0724C222.512 40.0724 223.882 39.592 225.033 38.6313C226.223 37.6705 227.017 36.2094 227.414 34.2479L230.331 17.495Z" fill="#0094FF"/>
<path d="M230.331 17.495H239.261L234.022 47.5181H225.092L225.568 44.6959C223.385 47.1378 220.468 48.3587 216.817 48.3587C213.602 48.3587 211.062 47.2579 209.196 45.0562C207.371 42.8145 206.795 39.7721 207.47 35.9292L210.685 17.495H219.615L216.638 34.6082C216.321 36.4496 216.559 37.8306 217.353 38.7513C218.186 39.632 219.377 40.0724 220.925 40.0724C222.512 40.0724 223.882 39.592 225.033 38.6313C226.223 37.6705 227.017 36.2094 227.414 34.2479L230.331 17.495Z" fill="url(#paint10_radial_264_5055)"/>
<path d="M230.331 17.495H239.261L234.022 47.5181H225.092L225.568 44.6959C223.385 47.1378 220.468 48.3587 216.817 48.3587C213.602 48.3587 211.062 47.2579 209.196 45.0562C207.371 42.8145 206.795 39.7721 207.47 35.9292L210.685 17.495H219.615L216.638 34.6082C216.321 36.4496 216.559 37.8306 217.353 38.7513C218.186 39.632 219.377 40.0724 220.925 40.0724C222.512 40.0724 223.882 39.592 225.033 38.6313C226.223 37.6705 227.017 36.2094 227.414 34.2479L230.331 17.495Z" fill="url(#paint11_radial_264_5055)"/>
<path d="M261.234 16.6543C264.449 16.6543 266.969 17.7752 268.795 20.0169C270.661 22.2186 271.256 25.2409 270.581 29.0839L267.366 47.5181H258.436L261.413 30.4049C261.73 28.5635 261.472 27.2025 260.639 26.3218C259.845 25.4011 258.674 24.9407 257.126 24.9407C255.539 24.9407 254.15 25.4211 252.959 26.3818C251.808 27.3426 251.034 28.8037 250.637 30.7652L247.72 47.5181H238.79L244.029 17.495H252.959L252.483 20.3172C254.666 17.8753 257.583 16.6543 261.234 16.6543Z" fill="#0094FF"/>
<path d="M261.234 16.6543C264.449 16.6543 266.969 17.7752 268.795 20.0169C270.661 22.2186 271.256 25.2409 270.581 29.0839L267.366 47.5181H258.436L261.413 30.4049C261.73 28.5635 261.472 27.2025 260.639 26.3218C259.845 25.4011 258.674 24.9407 257.126 24.9407C255.539 24.9407 254.15 25.4211 252.959 26.3818C251.808 27.3426 251.034 28.8037 250.637 30.7652L247.72 47.5181H238.79L244.029 17.495H252.959L252.483 20.3172C254.666 17.8753 257.583 16.6543 261.234 16.6543Z" fill="url(#paint12_radial_264_5055)"/>
<path d="M261.234 16.6543C264.449 16.6543 266.969 17.7752 268.795 20.0169C270.661 22.2186 271.256 25.2409 270.581 29.0839L267.366 47.5181H258.436L261.413 30.4049C261.73 28.5635 261.472 27.2025 260.639 26.3218C259.845 25.4011 258.674 24.9407 257.126 24.9407C255.539 24.9407 254.15 25.4211 252.959 26.3818C251.808 27.3426 251.034 28.8037 250.637 30.7652L247.72 47.5181H238.79L244.029 17.495H252.959L252.483 20.3172C254.666 17.8753 257.583 16.6543 261.234 16.6543Z" fill="url(#paint13_radial_264_5055)"/>
<path d="M286.601 26.1416L284.755 36.7698C284.517 38.0108 284.854 38.7914 285.767 39.1116C286.68 39.4319 288.248 39.5119 290.47 39.3518L289.042 47.5181C283.723 48.1185 279.992 47.5381 277.849 45.7767C275.745 44.0154 275.071 41.0131 275.825 36.7698L277.67 26.1416H272.908L274.456 17.495H279.159L280.171 11.7906L289.577 9.08853L288.089 17.495H294.281L292.733 26.1416H286.601Z" fill="#0094FF"/>
<path d="M286.601 26.1416L284.755 36.7698C284.517 38.0108 284.854 38.7914 285.767 39.1116C286.68 39.4319 288.248 39.5119 290.47 39.3518L289.042 47.5181C283.723 48.1185 279.992 47.5381 277.849 45.7767C275.745 44.0154 275.071 41.0131 275.825 36.7698L277.67 26.1416H272.908L274.456 17.495H279.159L280.171 11.7906L289.577 9.08853L288.089 17.495H294.281L292.733 26.1416H286.601Z" fill="url(#paint14_radial_264_5055)"/>
<path d="M286.601 26.1416L284.755 36.7698C284.517 38.0108 284.854 38.7914 285.767 39.1116C286.68 39.4319 288.248 39.5119 290.47 39.3518L289.042 47.5181C283.723 48.1185 279.992 47.5381 277.849 45.7767C275.745 44.0154 275.071 41.0131 275.825 36.7698L277.67 26.1416H272.908L274.456 17.495H279.159L280.171 11.7906L289.577 9.08853L288.089 17.495H294.281L292.733 26.1416H286.601Z" fill="url(#paint15_radial_264_5055)"/>
<path d="M16.3949 48.2321C11.875 48.2321 8.19751 47.3412 5.36229 45.5594C2.56815 43.7389 0.780714 41.2785 0 38.1798L8.99872 33.8221C10.0671 37.4632 12.8201 39.2837 17.2578 39.2837C21.0381 39.2837 23.1543 38.141 23.6063 35.8557C23.8528 34.6936 23.4214 33.7834 22.3119 33.1249C21.2436 32.4276 19.3329 31.6336 16.5799 30.7427C12.5119 29.4644 9.47125 27.8376 7.45783 25.8621C5.4855 23.8479 4.82811 21.0396 5.48556 17.4373C5.54454 17.0967 5.61311 16.7636 5.69128 16.438C7.19601 8.49221 4.8459 3.80824 0.451046 0.695958C0 0.300354 0 7.6952e-06 0.451046 0C13.7883 0 25.477 4.14393 30.7562 8.31541C33.1072 10.1731 35.2556 12.1694 36.365 15.1132L27.7361 19.4128C26.2157 16.3914 23.8734 14.8808 20.7094 14.8808C19.2302 14.8808 18.0386 15.1713 17.1346 15.7523C16.2717 16.3333 15.7375 17.0693 15.5321 17.9602C15.2855 19.0835 15.6759 20.0131 16.7031 20.7491C17.7715 21.4463 19.6 22.2404 22.1887 23.1313C22.9694 23.4024 23.6065 23.6348 24.0996 23.8285C24.6338 23.9835 25.2707 24.2159 26.0103 24.5257C26.7499 24.7969 27.3457 25.068 27.7977 25.3392C28.2908 25.5716 28.8455 25.8815 29.4619 26.2688C30.1193 26.6174 30.6329 26.9854 31.0028 27.3728C31.4137 27.7601 31.8245 28.2055 32.2355 28.7091C32.6874 29.1739 33.0162 29.6968 33.2216 30.2779C33.4682 30.8201 33.6736 31.4205 33.838 32.079C34.0023 32.6988 34.064 33.396 34.0229 34.1707C34.0229 34.9454 33.9407 35.7782 33.7763 36.6691C33.0778 40.3876 31.1671 43.2545 28.0443 45.2687C24.9625 47.2441 21.0792 48.2321 16.3949 48.2321Z" fill="#0094FF"/>
<path d="M16.3949 48.2321C11.875 48.2321 8.19751 47.3412 5.36229 45.5594C2.56815 43.7389 0.780714 41.2785 0 38.1798L8.99872 33.8221C10.0671 37.4632 12.8201 39.2837 17.2578 39.2837C21.0381 39.2837 23.1543 38.141 23.6063 35.8557C23.8528 34.6936 23.4214 33.7834 22.3119 33.1249C21.2436 32.4276 19.3329 31.6336 16.5799 30.7427C12.5119 29.4644 9.47125 27.8376 7.45783 25.8621C5.4855 23.8479 4.82811 21.0396 5.48556 17.4373C5.54454 17.0967 5.61311 16.7636 5.69128 16.438C7.19601 8.49221 4.8459 3.80824 0.451046 0.695958C0 0.300354 0 7.6952e-06 0.451046 0C13.7883 0 25.477 4.14393 30.7562 8.31541C33.1072 10.1731 35.2556 12.1694 36.365 15.1132L27.7361 19.4128C26.2157 16.3914 23.8734 14.8808 20.7094 14.8808C19.2302 14.8808 18.0386 15.1713 17.1346 15.7523C16.2717 16.3333 15.7375 17.0693 15.5321 17.9602C15.2855 19.0835 15.6759 20.0131 16.7031 20.7491C17.7715 21.4463 19.6 22.2404 22.1887 23.1313C22.9694 23.4024 23.6065 23.6348 24.0996 23.8285C24.6338 23.9835 25.2707 24.2159 26.0103 24.5257C26.7499 24.7969 27.3457 25.068 27.7977 25.3392C28.2908 25.5716 28.8455 25.8815 29.4619 26.2688C30.1193 26.6174 30.6329 26.9854 31.0028 27.3728C31.4137 27.7601 31.8245 28.2055 32.2355 28.7091C32.6874 29.1739 33.0162 29.6968 33.2216 30.2779C33.4682 30.8201 33.6736 31.4205 33.838 32.079C34.0023 32.6988 34.064 33.396 34.0229 34.1707C34.0229 34.9454 33.9407 35.7782 33.7763 36.6691C33.0778 40.3876 31.1671 43.2545 28.0443 45.2687C24.9625 47.2441 21.0792 48.2321 16.3949 48.2321Z" fill="url(#paint16_radial_264_5055)"/>
<path d="M16.3949 48.2321C11.875 48.2321 8.19751 47.3412 5.36229 45.5594C2.56815 43.7389 0.780714 41.2785 0 38.1798L8.99872 33.8221C10.0671 37.4632 12.8201 39.2837 17.2578 39.2837C21.0381 39.2837 23.1543 38.141 23.6063 35.8557C23.8528 34.6936 23.4214 33.7834 22.3119 33.1249C21.2436 32.4276 19.3329 31.6336 16.5799 30.7427C12.5119 29.4644 9.47125 27.8376 7.45783 25.8621C5.4855 23.8479 4.82811 21.0396 5.48556 17.4373C5.54454 17.0967 5.61311 16.7636 5.69128 16.438C7.19601 8.49221 4.8459 3.80824 0.451046 0.695958C0 0.300354 0 7.6952e-06 0.451046 0C13.7883 0 25.477 4.14393 30.7562 8.31541C33.1072 10.1731 35.2556 12.1694 36.365 15.1132L27.7361 19.4128C26.2157 16.3914 23.8734 14.8808 20.7094 14.8808C19.2302 14.8808 18.0386 15.1713 17.1346 15.7523C16.2717 16.3333 15.7375 17.0693 15.5321 17.9602C15.2855 19.0835 15.6759 20.0131 16.7031 20.7491C17.7715 21.4463 19.6 22.2404 22.1887 23.1313C22.9694 23.4024 23.6065 23.6348 24.0996 23.8285C24.6338 23.9835 25.2707 24.2159 26.0103 24.5257C26.7499 24.7969 27.3457 25.068 27.7977 25.3392C28.2908 25.5716 28.8455 25.8815 29.4619 26.2688C30.1193 26.6174 30.6329 26.9854 31.0028 27.3728C31.4137 27.7601 31.8245 28.2055 32.2355 28.7091C32.6874 29.1739 33.0162 29.6968 33.2216 30.2779C33.4682 30.8201 33.6736 31.4205 33.838 32.079C34.0023 32.6988 34.064 33.396 34.0229 34.1707C34.0229 34.9454 33.9407 35.7782 33.7763 36.6691C33.0778 40.3876 31.1671 43.2545 28.0443 45.2687C24.9625 47.2441 21.0792 48.2321 16.3949 48.2321Z" fill="url(#paint17_radial_264_5055)"/>
<defs>
<radialGradient id="paint0_radial_264_5055" cx="0" cy="0" r="1" gradientUnits="userSpaceOnUse" gradientTransform="translate(286.381 3.64972) rotate(170.186) scale(366.688 129.967)">
<stop stop-color="#A54AFF"/>
<stop offset="1" stop-color="#A54AFF" stop-opacity="0"/>
</radialGradient>
<radialGradient id="paint1_radial_264_5055" cx="0" cy="0" r="1" gradientUnits="userSpaceOnUse" gradientTransform="translate(8.09068 53.8333) rotate(-15.1393) scale(178.177 73.5288)">
<stop stop-color="#00FFFF"/>
<stop offset="1" stop-color="#00FFFF" stop-opacity="0"/>
</radialGradient>
<radialGradient id="paint2_radial_264_5055" cx="0" cy="0" r="1" gradientUnits="userSpaceOnUse" gradientTransform="translate(286.381 3.64972) rotate(170.186) scale(366.688 129.967)">
<stop stop-color="#A54AFF"/>
<stop offset="1" stop-color="#A54AFF" stop-opacity="0"/>
</radialGradient>
<radialGradient id="paint3_radial_264_5055" cx="0" cy="0" r="1" gradientUnits="userSpaceOnUse" gradientTransform="translate(8.09068 53.8333) rotate(-15.1393) scale(178.177 73.5288)">
<stop stop-color="#00FFFF"/>
<stop offset="1" stop-color="#00FFFF" stop-opacity="0"/>
</radialGradient>
<radialGradient id="paint4_radial_264_5055" cx="0" cy="0" r="1" gradientUnits="userSpaceOnUse" gradientTransform="translate(286.381 3.64972) rotate(170.186) scale(366.688 129.967)">
<stop stop-color="#A54AFF"/>
<stop offset="1" stop-color="#A54AFF" stop-opacity="0"/>
</radialGradient>
<radialGradient id="paint5_radial_264_5055" cx="0" cy="0" r="1" gradientUnits="userSpaceOnUse" gradientTransform="translate(8.09068 53.8333) rotate(-15.1393) scale(178.177 73.5288)">
<stop stop-color="#00FFFF"/>
<stop offset="1" stop-color="#00FFFF" stop-opacity="0"/>
</radialGradient>
<radialGradient id="paint6_radial_264_5055" cx="0" cy="0" r="1" gradientUnits="userSpaceOnUse" gradientTransform="translate(286.381 3.64972) rotate(170.186) scale(366.688 129.967)">
<stop stop-color="#A54AFF"/>
<stop offset="1" stop-color="#A54AFF" stop-opacity="0"/>
</radialGradient>
<radialGradient id="paint7_radial_264_5055" cx="0" cy="0" r="1" gradientUnits="userSpaceOnUse" gradientTransform="translate(8.09068 53.8333) rotate(-15.1393) scale(178.177 73.5288)">
<stop stop-color="#00FFFF"/>
<stop offset="1" stop-color="#00FFFF" stop-opacity="0"/>
</radialGradient>
<radialGradient id="paint8_radial_264_5055" cx="0" cy="0" r="1" gradientUnits="userSpaceOnUse" gradientTransform="translate(286.381 3.64972) rotate(170.186) scale(366.688 129.967)">
<stop stop-color="#A54AFF"/>
<stop offset="1" stop-color="#A54AFF" stop-opacity="0"/>
</radialGradient>
<radialGradient id="paint9_radial_264_5055" cx="0" cy="0" r="1" gradientUnits="userSpaceOnUse" gradientTransform="translate(8.09068 53.8333) rotate(-15.1393) scale(178.177 73.5288)">
<stop stop-color="#00FFFF"/>
<stop offset="1" stop-color="#00FFFF" stop-opacity="0"/>
</radialGradient>
<radialGradient id="paint10_radial_264_5055" cx="0" cy="0" r="1" gradientUnits="userSpaceOnUse" gradientTransform="translate(286.381 3.64972) rotate(170.186) scale(366.688 129.967)">
<stop stop-color="#A54AFF"/>
<stop offset="1" stop-color="#A54AFF" stop-opacity="0"/>
</radialGradient>
<radialGradient id="paint11_radial_264_5055" cx="0" cy="0" r="1" gradientUnits="userSpaceOnUse" gradientTransform="translate(8.09068 53.8333) rotate(-15.1393) scale(178.177 73.5288)">
<stop stop-color="#00FFFF"/>
<stop offset="1" stop-color="#00FFFF" stop-opacity="0"/>
</radialGradient>
<radialGradient id="paint12_radial_264_5055" cx="0" cy="0" r="1" gradientUnits="userSpaceOnUse" gradientTransform="translate(286.381 3.64972) rotate(170.186) scale(366.688 129.967)">
<stop stop-color="#A54AFF"/>
<stop offset="1" stop-color="#A54AFF" stop-opacity="0"/>
</radialGradient>
<radialGradient id="paint13_radial_264_5055" cx="0" cy="0" r="1" gradientUnits="userSpaceOnUse" gradientTransform="translate(8.09068 53.8333) rotate(-15.1393) scale(178.177 73.5288)">
<stop stop-color="#00FFFF"/>
<stop offset="1" stop-color="#00FFFF" stop-opacity="0"/>
</radialGradient>
<radialGradient id="paint14_radial_264_5055" cx="0" cy="0" r="1" gradientUnits="userSpaceOnUse" gradientTransform="translate(286.381 3.64972) rotate(170.186) scale(366.688 129.967)">
<stop stop-color="#A54AFF"/>
<stop offset="1" stop-color="#A54AFF" stop-opacity="0"/>
</radialGradient>
<radialGradient id="paint15_radial_264_5055" cx="0" cy="0" r="1" gradientUnits="userSpaceOnUse" gradientTransform="translate(8.09068 53.8333) rotate(-15.1393) scale(178.177 73.5288)">
<stop stop-color="#00FFFF"/>
<stop offset="1" stop-color="#00FFFF" stop-opacity="0"/>
</radialGradient>
<radialGradient id="paint16_radial_264_5055" cx="0" cy="0" r="1" gradientUnits="userSpaceOnUse" gradientTransform="translate(286.381 3.64972) rotate(170.186) scale(366.688 129.967)">
<stop stop-color="#A54AFF"/>
<stop offset="1" stop-color="#A54AFF" stop-opacity="0"/>
</radialGradient>
<radialGradient id="paint17_radial_264_5055" cx="0" cy="0" r="1" gradientUnits="userSpaceOnUse" gradientTransform="translate(8.09068 53.8333) rotate(-15.1393) scale(178.177 73.5288)">
<stop stop-color="#00FFFF"/>
<stop offset="1" stop-color="#00FFFF" stop-opacity="0"/>
</radialGradient>
</defs>
</svg>
